<svg width="90" height="90" viewBox="0 0 90 90" fill="none" xmlns="http://www.w3.org/2000/svg">
<path d="M45.0001 47.7002C40.5361 47.7002 36.9001 51.3362 36.9001 55.8002C36.9001 60.2642 40.5361 63.9002 45.0001 63.9002C49.4641 63.9002 53.1001 60.2642 53.1001 55.8002C53.1001 51.3362 49.4641 47.7002 45.0001 47.7002ZM45.0001 62.1002C41.5261 62.1002 38.7001 59.2742 38.7001 55.8002C38.7001 52.3262 41.5261 49.5002 45.0001 49.5002C48.4741 49.5002 51.3001 52.3262 51.3001 55.8002C51.3001 59.2742 48.4741 62.1002 45.0001 62.1002ZM67.5001 27.9002C67.1941 27.9002 66.8971 27.9092 66.6091 27.9272C63.8281 18.3332 55.0531 11.7002 45.0001 11.7002C34.9471 11.7002 26.1721 18.3332 23.3911 27.9272C23.1031 27.9092 22.8061 27.9002 22.5001 27.9002C14.5621 27.9002 8.1001 34.3622 8.1001 42.3002C8.1001 50.2382 14.5621 56.7002 22.5001 56.7002V57.6812C22.5001 59.1212 23.5261 60.3362 24.9481 60.5702L28.1251 61.1012C28.5211 61.1642 28.8541 61.4342 28.9891 61.8122C29.1241 62.1812 29.2681 62.5322 29.4301 62.8832C29.5921 63.2432 29.5471 63.6662 29.3221 63.9902L27.4501 66.6092C26.6131 67.7792 26.7481 69.3632 27.7651 70.3802L30.4291 73.0442C31.4461 74.0612 33.0301 74.1962 34.2001 73.3592L36.8191 71.4872C37.1431 71.2532 37.5661 71.2172 37.9261 71.3792C38.2771 71.5412 38.6371 71.6852 39.0061 71.8202C39.3751 71.9552 39.6451 72.2882 39.7171 72.6842L40.2481 75.8612C40.4821 77.2832 41.6971 78.3092 43.1371 78.3092H46.8991C48.3391 78.3092 49.5541 77.2832 49.7881 75.8612L50.3191 72.6842C50.3821 72.2882 50.6521 71.9552 51.0301 71.8202C51.3901 71.6852 51.7501 71.5412 52.1011 71.3792C52.4611 71.2172 52.8841 71.2622 53.2081 71.4872L55.8271 73.3592C56.9971 74.1962 58.5811 74.0612 59.5981 73.0442L62.2621 70.3802C63.2791 69.3632 63.4141 67.7792 62.5771 66.6092L60.7051 63.9902C60.4711 63.6662 60.4351 63.2432 60.5881 62.8832C60.7501 62.5322 60.8941 62.1722 61.0291 61.8032C61.1641 61.4342 61.4971 61.1642 61.8931 61.0922L65.0701 60.5612C66.4921 60.3272 67.5181 59.1122 67.5181 57.6722V56.7002C75.4561 56.7002 81.9181 50.2382 81.9181 42.3002C81.9181 34.3622 75.4381 27.9002 67.5001 27.9002ZM65.7001 57.6812C65.7001 58.2392 65.3041 58.7072 64.7551 58.7972L61.5781 59.3282C60.5431 59.4992 59.6791 60.2102 59.3191 61.1822C59.2021 61.5062 59.0671 61.8212 58.9231 62.1452C58.5001 63.0812 58.6081 64.1972 59.2111 65.0342L61.0831 67.6532C61.4071 68.1032 61.3531 68.7152 60.9661 69.1022L58.3021 71.7662C57.9151 72.1622 57.3031 72.2072 56.8531 71.8832L54.2341 70.0112C53.3881 69.4082 52.2811 69.3002 51.3451 69.7232C51.0301 69.8672 50.7061 69.9932 50.3821 70.1192C49.4101 70.4792 48.6901 71.3432 48.5281 72.3782L47.9971 75.5552C47.9071 76.1042 47.4391 76.5002 46.8811 76.5002H43.1191C42.5611 76.5002 42.0931 76.1042 42.0031 75.5552L41.4721 72.3782C41.3011 71.3432 40.5901 70.4792 39.6181 70.1192C39.2941 70.0022 38.9701 69.8672 38.6551 69.7232C38.2771 69.5522 37.8721 69.4712 37.4671 69.4712C36.8641 69.4712 36.2701 69.6512 35.7661 70.0112L33.1471 71.8832C32.6971 72.2072 32.0851 72.1532 31.6981 71.7662L29.0341 69.1022C28.6381 68.7152 28.5931 68.1032 28.9171 67.6532L30.7891 65.0342C31.3921 64.1882 31.5001 63.0812 31.0771 62.1452C30.9331 61.8302 30.8071 61.5152 30.6811 61.1912C30.3211 60.2192 29.4571 59.4992 28.4221 59.3372L25.2451 58.8062C24.6961 58.7162 24.3001 58.2482 24.3001 57.6902V53.9282C24.3001 53.3702 24.6961 52.9022 25.2451 52.8122L28.4221 52.2812C29.4571 52.1102 30.3211 51.3992 30.6811 50.4272C30.7981 50.1032 30.9331 49.7792 31.0771 49.4642C31.5001 48.5282 31.3921 47.4212 30.7891 46.5752L28.9171 43.9562C28.5931 43.5062 28.6471 42.8942 29.0341 42.5072L31.6981 39.8432C32.0851 39.4472 32.6971 39.4022 33.1471 39.7262L35.7661 41.5982C36.6121 42.2012 37.7191 42.3092 38.6551 41.8862C38.9701 41.7422 39.2941 41.6162 39.6181 41.4902C40.5901 41.1302 41.3101 40.2662 41.4721 39.2312L42.0031 36.0542C42.0931 35.5052 42.5611 35.1092 43.1191 35.1092H46.8811C47.4391 35.1092 47.9071 35.5052 47.9971 36.0542L48.5281 39.2312C48.6991 40.2662 49.4101 41.1302 50.3821 41.4902C50.7061 41.6072 51.0301 41.7422 51.3451 41.8862C52.2901 42.3092 53.3971 42.2012 54.2341 41.5982L56.8531 39.7262C57.3031 39.4022 57.9151 39.4562 58.3021 39.8432L60.9661 42.5072C61.3621 42.8942 61.4071 43.5062 61.0831 43.9562L59.2111 46.5752C58.6081 47.4212 58.5001 48.5282 58.9231 49.4642C59.0671 49.7792 59.1931 50.1032 59.3191 50.4272C59.6791 51.3992 60.5431 52.1192 61.5781 52.2812L64.7551 52.8122C65.3041 52.9022 65.7001 53.3702 65.7001 53.9282V57.6812ZM67.5001 54.9002V53.9192C67.5001 52.4792 66.4741 51.2642 65.0521 51.0302L61.8751 50.4992C61.4791 50.4362 61.1461 50.1662 61.0111 49.7882C60.8761 49.4192 60.7321 49.0682 60.5701 48.7082C60.4081 48.3482 60.4531 47.9252 60.6781 47.6012L62.5501 44.9822C63.3871 43.8122 63.2521 42.2282 62.2351 41.2112L59.5711 38.5472C58.5541 37.5302 56.9701 37.3952 55.8001 38.2322L53.1811 40.1042C52.8571 40.3382 52.4341 40.3742 52.0741 40.2122C51.7231 40.0502 51.3631 39.9062 50.9941 39.7712C50.6251 39.6362 50.3551 39.3032 50.2831 38.9072L49.7521 35.7302C49.5361 34.3262 48.3211 33.3002 46.8811 33.3002H43.1191C41.6791 33.3002 40.4641 34.3262 40.2301 35.7482L39.6991 38.9252C39.6361 39.3212 39.3661 39.6542 38.9881 39.7892C38.6191 39.9242 38.2681 40.0682 37.9081 40.2302C37.5481 40.3922 37.1251 40.3472 36.8011 40.1222L34.1821 38.2502C33.0121 37.4132 31.4281 37.5482 30.4111 38.5652L27.7471 41.2292C26.7301 42.2462 26.5951 43.8302 27.4321 45.0002L29.3041 47.6192C29.5381 47.9432 29.5741 48.3662 29.4121 48.7262C29.2501 49.0772 29.1061 49.4372 28.9711 49.8062C28.8361 50.1752 28.5031 50.4452 28.1071 50.5172L24.9301 51.0482C23.5261 51.2642 22.5001 52.4792 22.5001 53.9192V54.9002C15.5521 54.9002 9.9001 49.2482 9.9001 42.3002C9.9001 35.3522 15.5521 29.7002 22.5001 29.7002C23.0221 29.7002 23.4991 29.7272 23.9581 29.7812C24.4081 29.8352 24.8311 29.5472 24.9391 29.1062C27.2611 19.9172 35.5141 13.5002 45.0001 13.5002C54.4861 13.5002 62.7391 19.9172 65.0611 29.1062C65.1691 29.5472 65.5831 29.8352 66.0421 29.7812C66.5011 29.7272 66.9781 29.7002 67.5001 29.7002C74.4481 29.7002 80.1001 35.3522 80.1001 42.3002C80.1001 49.2482 74.4481 54.9002 67.5001 54.9002Z" fill="white"/>
</svg>
