<svg width="94" height="94" viewBox="0 0 94 94" fill="none" xmlns="http://www.w3.org/2000/svg">
<g clip-path="url(#clip0_122_2310)">
<path d="M90.1445 66.2773H89.2266V31.3165C91.8279 30.8781 93.8164 28.6109 93.8164 25.8867C93.8164 22.8497 91.3456 20.3789 88.3086 20.3789H86.4727V16.707C86.4727 13.67 84.0019 11.1992 80.9648 11.1992H77.293C74.256 11.1992 71.7852 13.67 71.7852 16.707V20.3789H68.1133V5.69141C68.1133 2.6544 65.6425 0.183594 62.6055 0.183594H31.3945C28.3575 0.183594 25.8867 2.6544 25.8867 5.69141V20.3789H22.2148V16.707C22.2148 13.67 19.744 11.1992 16.707 11.1992H13.0352C9.99815 11.1992 7.52734 13.67 7.52734 16.707V20.3789H5.69141C2.6544 20.3789 0.183594 22.8497 0.183594 25.8867C0.183594 28.6109 2.1721 30.8781 4.77344 31.3165V66.2773H3.85547C1.8308 66.2773 0.183594 67.9245 0.183594 69.9492V88.3086C0.183594 91.3456 2.6544 93.8164 5.69141 93.8164H88.3086C91.3456 93.8164 93.8164 91.3456 93.8164 88.3086V69.9492C93.8164 67.9245 92.1692 66.2773 90.1445 66.2773ZM29.5586 5.69141C29.5586 4.67907 30.3822 3.85547 31.3945 3.85547H62.6055C63.6178 3.85547 64.4414 4.67907 64.4414 5.69141V20.3789H29.5586V5.69141ZM3.85547 25.8867C3.85547 24.8744 4.67907 24.0508 5.69141 24.0508H88.3086C89.3209 24.0508 90.1445 24.8744 90.1445 25.8867C90.1445 26.8991 89.3209 27.7227 88.3086 27.7227H5.69141C4.67907 27.7227 3.85547 26.8991 3.85547 25.8867ZM8.44531 31.3945H85.5547V66.2773H84.6367C82.612 66.2773 80.9648 67.9245 80.9648 69.9492V80.9648H13.0352V69.9492C13.0352 67.9245 11.388 66.2773 9.36328 66.2773H8.44531V31.3945ZM90.1445 88.3086C90.1445 89.3209 89.3209 90.1445 88.3086 90.1445H5.69141C4.67907 90.1445 3.85547 89.3209 3.85547 88.3086V69.9492H9.36328V82.8008C9.36328 83.8148 10.1852 84.6367 11.1992 84.6367H82.8008C83.8148 84.6367 84.6367 83.8148 84.6367 82.8008V69.9492H90.1445V88.3086Z" fill="white"/>
<path d="M13.9531 42.4102H15.7891V44.2461C15.7891 45.2601 16.611 46.082 17.625 46.082C18.639 46.082 19.4609 45.2601 19.4609 44.2461V42.4102H21.2969C22.3109 42.4102 23.1328 41.5882 23.1328 40.5742C23.1328 39.5602 22.3109 38.7383 21.2969 38.7383H19.4609V36.9023C19.4609 35.8884 18.639 35.0664 17.625 35.0664C16.611 35.0664 15.7891 35.8884 15.7891 36.9023V38.7383H13.9531C12.9391 38.7383 12.1172 39.5602 12.1172 40.5742C12.1172 41.5882 12.9391 42.4102 13.9531 42.4102ZM72.7031 42.4102H80.0469C81.0609 42.4102 81.8828 41.5882 81.8828 40.5742C81.8828 39.5602 81.0609 38.7383 80.0469 38.7383H72.7031C71.6891 38.7383 70.8672 39.5602 70.8672 40.5742C70.8672 41.5882 71.6891 42.4102 72.7031 42.4102ZM35.0664 59.8516H41.8946L38.793 72.2579C38.5853 73.0885 38.9795 73.9525 39.7429 74.3402C40.5054 74.7271 41.4355 74.5376 41.9846 73.8785L60.344 51.8472C61.3396 50.6524 60.4859 48.8359 58.9336 48.8359H49.8953L53.2943 40.3381C53.7766 39.1325 52.8866 37.8203 51.5898 37.8203H42.4102C41.6594 37.8203 40.9844 38.2773 40.7055 38.9744L33.3617 57.3338C32.8796 58.5394 33.7695 59.8516 35.0664 59.8516Z" fill="white"/>
</g>
<defs>
<clipPath id="clip0_122_2310">
<rect width="94" height="94" fill="white"/>
</clipPath>
</defs>
</svg>
