<svg width="763" height="374" viewBox="0 0 763 374" fill="none" xmlns="http://www.w3.org/2000/svg">
<mask id="mask0_993_2111" style="mask-type:alpha" maskUnits="userSpaceOnUse" x="0" y="0" width="763" height="374">
<rect width="763" height="373.843" rx="5.65714" fill="white"/>
</mask>
<g mask="url(#mask0_993_2111)">
<rect x="-12" y="-55" width="775" height="516" rx="5.65714" fill="white"/>
<path d="M116.024 183.324V210.8C116.024 211.904 115.128 212.8 114.024 212.8H73.8212C72.7166 212.8 71.8212 211.904 71.8212 210.8V170.597C71.8212 169.493 70.9257 168.597 69.8212 168.597H31C29.8954 168.597 29 167.702 29 166.597V124.969C29 123.864 29.8954 122.969 31 122.969H92.5411C105.608 122.969 116.024 131.932 116.024 142.934V158.616" stroke="#0077B6" stroke-width="8" stroke-linecap="round"/>
<path d="M76.6091 110.476V83.0002C76.6091 81.8956 77.5046 81.0002 78.6091 81.0002H118.812C119.916 81.0002 120.812 81.8956 120.812 83.0002V123.203C120.812 124.307 121.707 125.203 122.812 125.203H161.633C162.737 125.203 163.633 126.098 163.633 127.203V136.356M76.6091 135.184V150.866C76.6091 161.868 87.0243 170.831 100.092 170.831H132.71H156.933H161.633C162.737 170.831 163.633 169.936 163.633 168.831V159.588" stroke="#00BFA6" stroke-width="8" stroke-linecap="round"/>
<path d="M245.105 243.491L262.127 282.031L279.21 243.49L279.418 243.021H285.961L285.471 244.13L264.876 290.705L264.869 290.723L264.86 290.739C264.596 291.267 264.231 291.704 263.749 292.006C263.266 292.308 262.714 292.443 262.126 292.443C261.508 292.443 260.932 292.272 260.42 291.931V291.929C260.012 291.669 259.694 291.32 259.469 290.896L259.376 290.706L238.718 244.131L238.226 243.021H244.897L245.105 243.491ZM161.207 243.021C163.211 243.065 165.093 243.489 166.844 244.297C168.615 245.053 170.172 246.1 171.507 247.435C172.849 248.777 173.898 250.362 174.653 252.183C175.414 253.973 175.794 255.875 175.794 257.878C175.794 259.924 175.392 261.867 174.589 263.699L174.59 263.7C173.832 265.484 172.76 267.069 171.38 268.449C170.039 269.79 168.456 270.858 166.64 271.655L166.631 271.659C164.838 272.421 162.916 272.799 160.873 272.799H143.793V292.062H137.777V245.965C137.777 245.162 138.074 244.455 138.643 243.886L138.655 243.872L138.67 243.859C139.27 243.314 139.985 243.021 140.785 243.021H161.207ZM204.218 243.084C206.222 243.129 208.104 243.552 209.854 244.36H209.854C211.625 245.158 213.182 246.225 214.518 247.561C215.86 248.903 216.908 250.489 217.664 252.31C218.425 254.1 218.805 256.002 218.805 258.005C218.805 259.869 218.471 261.633 217.802 263.29L217.803 263.291C217.179 264.94 216.285 266.435 215.127 267.771L215.128 267.772C214.014 269.065 212.7 270.156 211.191 271.043L211.184 271.047L211.176 271.052C210.037 271.688 208.823 272.16 207.539 272.47L222.305 290.776L223.342 292.062H215.608L215.371 291.769L200.21 272.926H186.804V292.062H180.788V246.092C180.788 245.289 181.085 244.582 181.653 244.013C182.248 243.418 182.971 243.084 183.796 243.084H204.218ZM232.44 292.062H226.425V243.021H232.44V292.062ZM300.794 242.577C301.368 242.577 301.907 242.716 302.379 243.021C302.789 243.285 303.113 243.653 303.362 244.09L303.465 244.281L303.467 244.284L326.532 290.923L327.096 292.062H320.456L320.237 291.626L314.056 279.263H287.54L281.608 291.615L281.394 292.062H274.621L275.182 290.924L298.12 244.286L298.123 244.281C298.384 243.759 298.74 243.323 299.209 243.021C299.681 242.716 300.22 242.577 300.794 242.577ZM357.947 248.972H342.993V292.062H336.977V248.972H322.022V243.02H357.947V248.972ZM393.332 248.972H367.858V262.22H388.914L388.609 263.237L387.278 267.673L387.109 268.235H367.858V286.046H393.332V292.062H364.851C364.05 292.062 363.335 291.768 362.734 291.223L362.707 291.197L362.682 291.169C362.136 290.569 361.842 289.854 361.842 289.054V245.964C361.842 245.161 362.138 244.454 362.707 243.885L362.721 243.871L362.734 243.858C363.335 243.313 364.05 243.02 364.851 243.02H393.332V248.972ZM362.632 245.964V289.054C362.632 289.128 362.636 289.201 362.643 289.272L362.633 289.054V245.965C362.633 245.881 362.637 245.799 362.646 245.719C362.637 245.799 362.632 245.88 362.632 245.964ZM290.47 273.247H311.118L300.794 252.372L290.47 273.247ZM211.832 269.692H211.833H211.832ZM166.274 265.974C165.757 266.322 165.203 266.623 164.611 266.876C164.464 266.939 164.315 266.999 164.165 267.055L164.611 266.877C165.231 266.612 165.808 266.293 166.347 265.923C166.322 265.94 166.299 265.957 166.274 265.974ZM186.804 266.91H203.884C205.088 266.91 206.228 266.678 207.311 266.214C208.403 265.745 209.355 265.104 210.169 264.29C210.985 263.474 211.625 262.543 212.092 261.496C212.554 260.417 212.789 259.255 212.789 258.005C212.789 256.755 212.554 255.594 212.092 254.515C211.625 253.425 210.988 252.501 210.183 251.733L210.169 251.72C209.355 250.906 208.403 250.265 207.311 249.797C206.228 249.333 205.088 249.1 203.884 249.1H186.804V266.91ZM143.793 266.847H160.873C162.077 266.847 163.217 266.614 164.3 266.15C165.393 265.682 166.343 265.041 167.157 264.227C167.971 263.412 168.613 262.462 169.081 261.369C169.544 260.29 169.777 259.128 169.777 257.878C169.777 256.674 169.545 255.534 169.081 254.451C168.613 253.358 167.971 252.408 167.157 251.594C166.343 250.78 165.393 250.138 164.3 249.67C163.217 249.206 162.077 248.974 160.873 248.974H143.793V266.847ZM166.606 265.737C166.648 265.706 166.69 265.675 166.731 265.644C166.69 265.675 166.648 265.706 166.606 265.737ZM166.953 265.469C166.989 265.44 167.026 265.411 167.062 265.382C167.026 265.411 166.989 265.44 166.953 265.469ZM167.376 265.109C167.367 265.117 167.358 265.125 167.35 265.133C167.475 265.02 167.597 264.905 167.717 264.785H167.716C167.605 264.896 167.492 265.004 167.376 265.109ZM174.996 258.29C174.997 258.274 174.999 258.258 174.999 258.241C175.001 258.163 175.001 258.084 175.002 258.005C175.001 258.1 174.999 258.195 174.996 258.29ZM139.053 244.606C139.009 244.658 138.969 244.711 138.932 244.766C138.97 244.71 139.013 244.655 139.058 244.602L139.053 244.606ZM363.117 244.605C363.115 244.609 363.112 244.612 363.109 244.615C363.158 244.556 363.21 244.499 363.266 244.443C363.213 244.496 363.163 244.55 363.117 244.605ZM364.445 243.845C364.44 243.846 364.435 243.847 364.43 243.848C364.496 243.835 364.564 243.826 364.632 243.819L364.445 243.845Z" fill="#0077B6"/>
<mask id="path-6-outside-1_993_2111" maskUnits="userSpaceOnUse" x="408.893" y="242.366" width="321" height="51" fill="black">
<rect fill="white" x="408.893" y="242.366" width="321" height="51"/>
<path d="M439.802 243.809H444.238V291.271H439.802V267.445H414.328V291.271H409.893V243.809H414.328V263.01H439.802V243.809Z"/>
<path d="M475.033 291.651C471.231 291.651 467.83 291.102 464.831 290.004C461.874 288.906 459.36 287.321 457.29 285.251C455.22 283.181 453.636 280.668 452.538 277.711C451.439 274.711 450.89 271.311 450.89 267.509C450.89 263.749 451.439 260.369 452.538 257.37C453.636 254.37 455.22 251.836 457.29 249.766C459.36 247.696 461.874 246.112 464.831 245.013C467.83 243.915 471.231 243.366 475.033 243.366C478.835 243.366 482.215 243.915 485.172 245.013C488.171 246.112 490.706 247.696 492.776 249.766C494.846 251.836 496.43 254.37 497.528 257.37C498.627 260.369 499.176 263.749 499.176 267.509C499.176 271.311 498.627 274.711 497.528 277.711C496.43 280.668 494.846 283.181 492.776 285.251C490.706 287.321 488.171 288.906 485.172 290.004C482.215 291.102 478.835 291.651 475.033 291.651ZM475.033 247.801C468.612 247.801 463.711 249.491 460.332 252.871C456.995 256.25 455.326 261.13 455.326 267.509C455.326 273.93 456.995 278.83 460.332 282.21C463.711 285.589 468.612 287.279 475.033 287.279C481.454 287.279 486.333 285.589 489.671 282.21C493.05 278.83 494.74 273.93 494.74 267.509C494.74 261.13 493.05 256.25 489.671 252.871C486.333 249.491 481.454 247.801 475.033 247.801Z"/>
<path d="M520.988 265.417C523.016 265.84 525.022 266.326 527.008 266.875C529.036 267.382 530.831 268.1 532.394 269.029C533.957 269.959 535.225 271.184 536.196 272.705C537.168 274.183 537.654 276.127 537.654 278.534C537.654 282.674 536.133 285.906 533.091 288.23C530.092 290.511 525.888 291.651 520.481 291.651C515.074 291.651 510.87 290.511 507.871 288.23C504.872 285.906 503.372 282.674 503.372 278.534H507.808C507.808 280.436 508.23 281.956 509.075 283.097C509.962 284.238 511.039 285.125 512.307 285.758C513.616 286.392 515.01 286.814 516.489 287.026C517.968 287.195 519.298 287.279 520.481 287.279C521.664 287.279 522.995 287.195 524.473 287.026C525.952 286.814 527.325 286.392 528.592 285.758C529.902 285.125 531 284.238 531.887 283.097C532.774 281.956 533.218 280.436 533.218 278.534C533.218 277.225 533.007 276.127 532.584 275.239C532.162 274.352 531.444 273.592 530.43 272.958C529.416 272.325 528.064 271.754 526.374 271.247C524.684 270.74 522.572 270.233 520.038 269.726C518.01 269.304 515.982 268.839 513.954 268.332C511.969 267.783 510.195 267.044 508.631 266.115C507.068 265.185 505.801 263.96 504.829 262.439C503.858 260.918 503.372 258.954 503.372 256.546C503.372 252.406 504.872 249.174 507.871 246.851C510.87 244.527 515.074 243.366 520.481 243.366C525.888 243.366 530.092 244.527 533.091 246.851C536.133 249.174 537.654 252.406 537.654 256.546H533.218C533.218 254.645 532.774 253.124 531.887 251.984C531 250.843 529.902 249.956 528.592 249.322C527.325 248.689 525.952 248.287 524.473 248.118C522.995 247.907 521.664 247.801 520.481 247.801C519.298 247.801 517.968 247.907 516.489 248.118C515.01 248.287 513.616 248.689 512.307 249.322C511.039 249.956 509.962 250.843 509.075 251.984C508.23 253.124 507.808 254.645 507.808 256.546C507.808 257.856 508.019 258.954 508.441 259.841C508.906 260.728 509.645 261.51 510.659 262.186C511.715 262.819 513.067 263.39 514.715 263.897C516.405 264.404 518.496 264.911 520.988 265.417Z"/>
<path d="M566.828 243.809C568.729 243.852 570.503 244.253 572.151 245.013C573.84 245.731 575.319 246.724 576.586 247.992C577.854 249.259 578.846 250.759 579.565 252.491C580.283 254.18 580.642 255.976 580.642 257.877C580.642 259.82 580.262 261.658 579.501 263.39C578.783 265.08 577.769 266.579 576.46 267.889C575.192 269.156 573.693 270.17 571.96 270.93C570.271 271.649 568.454 272.008 566.511 272.008H548.641V291.271H544.206V245.964C544.206 245.372 544.417 244.865 544.839 244.443C545.304 244.021 545.832 243.809 546.424 243.809H566.828ZM566.511 267.635C567.821 267.635 569.067 267.382 570.25 266.875C571.432 266.368 572.467 265.671 573.355 264.784C574.242 263.897 574.939 262.862 575.446 261.679C575.953 260.496 576.206 259.229 576.206 257.877C576.206 256.567 575.953 255.321 575.446 254.138C574.939 252.955 574.242 251.92 573.355 251.033C572.467 250.146 571.432 249.449 570.25 248.942C569.067 248.435 567.821 248.182 566.511 248.182H548.641V267.635H566.511Z"/>
<path d="M588.484 243.809H592.92V291.271H588.484V243.809Z"/>
<path d="M600.709 243.809H635.054V248.182H620.1V291.271H615.664V248.182H600.709V243.809Z"/>
<path d="M677.979 278.471H650.478L644.331 291.271H639.325L662.264 244.633C662.687 243.788 663.341 243.366 664.229 243.366C665.116 243.366 665.77 243.788 666.193 244.633L689.259 291.271H684.379L677.979 278.471ZM675.825 274.035L664.229 250.59L652.632 274.035H675.825Z"/>
<path d="M728.265 286.836L726.934 291.271H699.243C698.651 291.271 698.123 291.06 697.659 290.638C697.236 290.173 697.025 289.645 697.025 289.053V243.809H701.461V286.836H728.265Z"/>
</mask>
<path d="M439.802 243.809H444.238V291.271H439.802V267.445H414.328V291.271H409.893V243.809H414.328V263.01H439.802V243.809Z" fill="#00BFA6"/>
<path d="M475.033 291.651C471.231 291.651 467.83 291.102 464.831 290.004C461.874 288.906 459.36 287.321 457.29 285.251C455.22 283.181 453.636 280.668 452.538 277.711C451.439 274.711 450.89 271.311 450.89 267.509C450.89 263.749 451.439 260.369 452.538 257.37C453.636 254.37 455.22 251.836 457.29 249.766C459.36 247.696 461.874 246.112 464.831 245.013C467.83 243.915 471.231 243.366 475.033 243.366C478.835 243.366 482.215 243.915 485.172 245.013C488.171 246.112 490.706 247.696 492.776 249.766C494.846 251.836 496.43 254.37 497.528 257.37C498.627 260.369 499.176 263.749 499.176 267.509C499.176 271.311 498.627 274.711 497.528 277.711C496.43 280.668 494.846 283.181 492.776 285.251C490.706 287.321 488.171 288.906 485.172 290.004C482.215 291.102 478.835 291.651 475.033 291.651ZM475.033 247.801C468.612 247.801 463.711 249.491 460.332 252.871C456.995 256.25 455.326 261.13 455.326 267.509C455.326 273.93 456.995 278.83 460.332 282.21C463.711 285.589 468.612 287.279 475.033 287.279C481.454 287.279 486.333 285.589 489.671 282.21C493.05 278.83 494.74 273.93 494.74 267.509C494.74 261.13 493.05 256.25 489.671 252.871C486.333 249.491 481.454 247.801 475.033 247.801Z" fill="#00BFA6"/>
<path d="M520.988 265.417C523.016 265.84 525.022 266.326 527.008 266.875C529.036 267.382 530.831 268.1 532.394 269.029C533.957 269.959 535.225 271.184 536.196 272.705C537.168 274.183 537.654 276.127 537.654 278.534C537.654 282.674 536.133 285.906 533.091 288.23C530.092 290.511 525.888 291.651 520.481 291.651C515.074 291.651 510.87 290.511 507.871 288.23C504.872 285.906 503.372 282.674 503.372 278.534H507.808C507.808 280.436 508.23 281.956 509.075 283.097C509.962 284.238 511.039 285.125 512.307 285.758C513.616 286.392 515.01 286.814 516.489 287.026C517.968 287.195 519.298 287.279 520.481 287.279C521.664 287.279 522.995 287.195 524.473 287.026C525.952 286.814 527.325 286.392 528.592 285.758C529.902 285.125 531 284.238 531.887 283.097C532.774 281.956 533.218 280.436 533.218 278.534C533.218 277.225 533.007 276.127 532.584 275.239C532.162 274.352 531.444 273.592 530.43 272.958C529.416 272.325 528.064 271.754 526.374 271.247C524.684 270.74 522.572 270.233 520.038 269.726C518.01 269.304 515.982 268.839 513.954 268.332C511.969 267.783 510.195 267.044 508.631 266.115C507.068 265.185 505.801 263.96 504.829 262.439C503.858 260.918 503.372 258.954 503.372 256.546C503.372 252.406 504.872 249.174 507.871 246.851C510.87 244.527 515.074 243.366 520.481 243.366C525.888 243.366 530.092 244.527 533.091 246.851C536.133 249.174 537.654 252.406 537.654 256.546H533.218C533.218 254.645 532.774 253.124 531.887 251.984C531 250.843 529.902 249.956 528.592 249.322C527.325 248.689 525.952 248.287 524.473 248.118C522.995 247.907 521.664 247.801 520.481 247.801C519.298 247.801 517.968 247.907 516.489 248.118C515.01 248.287 513.616 248.689 512.307 249.322C511.039 249.956 509.962 250.843 509.075 251.984C508.23 253.124 507.808 254.645 507.808 256.546C507.808 257.856 508.019 258.954 508.441 259.841C508.906 260.728 509.645 261.51 510.659 262.186C511.715 262.819 513.067 263.39 514.715 263.897C516.405 264.404 518.496 264.911 520.988 265.417Z" fill="#00BFA6"/>
<path d="M566.828 243.809C568.729 243.852 570.503 244.253 572.151 245.013C573.84 245.731 575.319 246.724 576.586 247.992C577.854 249.259 578.846 250.759 579.565 252.491C580.283 254.18 580.642 255.976 580.642 257.877C580.642 259.82 580.262 261.658 579.501 263.39C578.783 265.08 577.769 266.579 576.46 267.889C575.192 269.156 573.693 270.17 571.96 270.93C570.271 271.649 568.454 272.008 566.511 272.008H548.641V291.271H544.206V245.964C544.206 245.372 544.417 244.865 544.839 244.443C545.304 244.021 545.832 243.809 546.424 243.809H566.828ZM566.511 267.635C567.821 267.635 569.067 267.382 570.25 266.875C571.432 266.368 572.467 265.671 573.355 264.784C574.242 263.897 574.939 262.862 575.446 261.679C575.953 260.496 576.206 259.229 576.206 257.877C576.206 256.567 575.953 255.321 575.446 254.138C574.939 252.955 574.242 251.92 573.355 251.033C572.467 250.146 571.432 249.449 570.25 248.942C569.067 248.435 567.821 248.182 566.511 248.182H548.641V267.635H566.511Z" fill="#00BFA6"/>
<path d="M588.484 243.809H592.92V291.271H588.484V243.809Z" fill="#00BFA6"/>
<path d="M600.709 243.809H635.054V248.182H620.1V291.271H615.664V248.182H600.709V243.809Z" fill="#00BFA6"/>
<path d="M677.979 278.471H650.478L644.331 291.271H639.325L662.264 244.633C662.687 243.788 663.341 243.366 664.229 243.366C665.116 243.366 665.77 243.788 666.193 244.633L689.259 291.271H684.379L677.979 278.471ZM675.825 274.035L664.229 250.59L652.632 274.035H675.825Z" fill="#00BFA6"/>
<path d="M728.265 286.836L726.934 291.271H699.243C698.651 291.271 698.123 291.06 697.659 290.638C697.236 290.173 697.025 289.645 697.025 289.053V243.809H701.461V286.836H728.265Z" fill="#00BFA6"/>
<path d="M439.802 243.809H444.238V291.271H439.802V267.445H414.328V291.271H409.893V243.809H414.328V263.01H439.802V243.809Z" stroke="#00BFA6" stroke-width="1.58028" mask="url(#path-6-outside-1_993_2111)"/>
<path d="M475.033 291.651C471.231 291.651 467.83 291.102 464.831 290.004C461.874 288.906 459.36 287.321 457.29 285.251C455.22 283.181 453.636 280.668 452.538 277.711C451.439 274.711 450.89 271.311 450.89 267.509C450.89 263.749 451.439 260.369 452.538 257.37C453.636 254.37 455.22 251.836 457.29 249.766C459.36 247.696 461.874 246.112 464.831 245.013C467.83 243.915 471.231 243.366 475.033 243.366C478.835 243.366 482.215 243.915 485.172 245.013C488.171 246.112 490.706 247.696 492.776 249.766C494.846 251.836 496.43 254.37 497.528 257.37C498.627 260.369 499.176 263.749 499.176 267.509C499.176 271.311 498.627 274.711 497.528 277.711C496.43 280.668 494.846 283.181 492.776 285.251C490.706 287.321 488.171 288.906 485.172 290.004C482.215 291.102 478.835 291.651 475.033 291.651ZM475.033 247.801C468.612 247.801 463.711 249.491 460.332 252.871C456.995 256.25 455.326 261.13 455.326 267.509C455.326 273.93 456.995 278.83 460.332 282.21C463.711 285.589 468.612 287.279 475.033 287.279C481.454 287.279 486.333 285.589 489.671 282.21C493.05 278.83 494.74 273.93 494.74 267.509C494.74 261.13 493.05 256.25 489.671 252.871C486.333 249.491 481.454 247.801 475.033 247.801Z" stroke="#00BFA6" stroke-width="1.58028" mask="url(#path-6-outside-1_993_2111)"/>
<path d="M520.988 265.417C523.016 265.84 525.022 266.326 527.008 266.875C529.036 267.382 530.831 268.1 532.394 269.029C533.957 269.959 535.225 271.184 536.196 272.705C537.168 274.183 537.654 276.127 537.654 278.534C537.654 282.674 536.133 285.906 533.091 288.23C530.092 290.511 525.888 291.651 520.481 291.651C515.074 291.651 510.87 290.511 507.871 288.23C504.872 285.906 503.372 282.674 503.372 278.534H507.808C507.808 280.436 508.23 281.956 509.075 283.097C509.962 284.238 511.039 285.125 512.307 285.758C513.616 286.392 515.01 286.814 516.489 287.026C517.968 287.195 519.298 287.279 520.481 287.279C521.664 287.279 522.995 287.195 524.473 287.026C525.952 286.814 527.325 286.392 528.592 285.758C529.902 285.125 531 284.238 531.887 283.097C532.774 281.956 533.218 280.436 533.218 278.534C533.218 277.225 533.007 276.127 532.584 275.239C532.162 274.352 531.444 273.592 530.43 272.958C529.416 272.325 528.064 271.754 526.374 271.247C524.684 270.74 522.572 270.233 520.038 269.726C518.01 269.304 515.982 268.839 513.954 268.332C511.969 267.783 510.195 267.044 508.631 266.115C507.068 265.185 505.801 263.96 504.829 262.439C503.858 260.918 503.372 258.954 503.372 256.546C503.372 252.406 504.872 249.174 507.871 246.851C510.87 244.527 515.074 243.366 520.481 243.366C525.888 243.366 530.092 244.527 533.091 246.851C536.133 249.174 537.654 252.406 537.654 256.546H533.218C533.218 254.645 532.774 253.124 531.887 251.984C531 250.843 529.902 249.956 528.592 249.322C527.325 248.689 525.952 248.287 524.473 248.118C522.995 247.907 521.664 247.801 520.481 247.801C519.298 247.801 517.968 247.907 516.489 248.118C515.01 248.287 513.616 248.689 512.307 249.322C511.039 249.956 509.962 250.843 509.075 251.984C508.23 253.124 507.808 254.645 507.808 256.546C507.808 257.856 508.019 258.954 508.441 259.841C508.906 260.728 509.645 261.51 510.659 262.186C511.715 262.819 513.067 263.39 514.715 263.897C516.405 264.404 518.496 264.911 520.988 265.417Z" stroke="#00BFA6" stroke-width="1.58028" mask="url(#path-6-outside-1_993_2111)"/>
<path d="M566.828 243.809C568.729 243.852 570.503 244.253 572.151 245.013C573.84 245.731 575.319 246.724 576.586 247.992C577.854 249.259 578.846 250.759 579.565 252.491C580.283 254.18 580.642 255.976 580.642 257.877C580.642 259.82 580.262 261.658 579.501 263.39C578.783 265.08 577.769 266.579 576.46 267.889C575.192 269.156 573.693 270.17 571.96 270.93C570.271 271.649 568.454 272.008 566.511 272.008H548.641V291.271H544.206V245.964C544.206 245.372 544.417 244.865 544.839 244.443C545.304 244.021 545.832 243.809 546.424 243.809H566.828ZM566.511 267.635C567.821 267.635 569.067 267.382 570.25 266.875C571.432 266.368 572.467 265.671 573.355 264.784C574.242 263.897 574.939 262.862 575.446 261.679C575.953 260.496 576.206 259.229 576.206 257.877C576.206 256.567 575.953 255.321 575.446 254.138C574.939 252.955 574.242 251.92 573.355 251.033C572.467 250.146 571.432 249.449 570.25 248.942C569.067 248.435 567.821 248.182 566.511 248.182H548.641V267.635H566.511Z" stroke="#00BFA6" stroke-width="1.58028" mask="url(#path-6-outside-1_993_2111)"/>
<path d="M588.484 243.809H592.92V291.271H588.484V243.809Z" stroke="#00BFA6" stroke-width="1.58028" mask="url(#path-6-outside-1_993_2111)"/>
<path d="M600.709 243.809H635.054V248.182H620.1V291.271H615.664V248.182H600.709V243.809Z" stroke="#00BFA6" stroke-width="1.58028" mask="url(#path-6-outside-1_993_2111)"/>
<path d="M677.979 278.471H650.478L644.331 291.271H639.325L662.264 244.633C662.687 243.788 663.341 243.366 664.229 243.366C665.116 243.366 665.77 243.788 666.193 244.633L689.259 291.271H684.379L677.979 278.471ZM675.825 274.035L664.229 250.59L652.632 274.035H675.825Z" stroke="#00BFA6" stroke-width="1.58028" mask="url(#path-6-outside-1_993_2111)"/>
<path d="M728.265 286.836L726.934 291.271H699.243C698.651 291.271 698.123 291.06 697.659 290.638C697.236 290.173 697.025 289.645 697.025 289.053V243.809H701.461V286.836H728.265Z" stroke="#00BFA6" stroke-width="1.58028" mask="url(#path-6-outside-1_993_2111)"/>
<path d="M430.115 221.608L446.743 184.306L438.984 167.249H448.591L472.732 221.608L507.344 143.812H516.704L476.674 234.002C475.853 235.638 474.539 236.456 472.732 236.456C470.926 236.456 469.612 235.638 468.791 234.002L451.424 194.858L434.057 234.002C433.236 235.638 431.922 236.456 430.115 236.456C429.212 236.456 428.391 236.21 427.652 235.72C426.995 235.311 426.502 234.738 426.174 234.002L386.021 143.812H395.628L430.115 221.608ZM625.809 142.953C636.319 142.953 644.489 145.203 650.319 149.702C656.231 154.201 659.187 160.459 659.188 168.476H650.565C650.565 164.795 649.704 161.85 647.979 159.642C646.255 157.433 644.12 155.714 641.574 154.487C639.111 153.26 636.442 152.483 633.568 152.156C630.694 151.747 628.108 151.543 625.809 151.543C623.509 151.543 620.923 151.747 618.049 152.156C615.175 152.483 612.465 153.26 609.92 154.487C607.457 155.714 605.362 157.433 603.638 159.642C601.996 161.85 601.175 164.795 601.175 168.476C601.175 171.011 601.585 173.139 602.406 174.856C603.31 176.574 604.747 178.089 606.718 179.397C608.771 180.624 611.398 181.728 614.601 182.71C617.885 183.692 621.949 184.674 626.794 185.655C630.735 186.473 634.636 187.414 638.495 188.478C642.437 189.459 645.927 190.85 648.965 192.649C652.003 194.449 654.466 196.822 656.354 199.767C658.243 202.63 659.188 206.393 659.188 211.056C659.187 219.072 656.231 225.33 650.319 229.829C644.489 234.247 636.319 236.456 625.809 236.456C615.298 236.456 607.128 234.247 601.298 229.829C595.468 225.33 592.553 219.072 592.553 211.056H601.175C601.175 214.737 601.995 217.682 603.638 219.891C605.362 222.099 607.457 223.817 609.92 225.044C612.465 226.271 615.175 227.089 618.049 227.498C620.923 227.825 623.509 227.989 625.809 227.989C628.108 227.989 630.694 227.825 633.568 227.498C636.442 227.089 639.111 226.271 641.574 225.044C644.12 223.817 646.255 222.099 647.979 219.891C649.704 217.682 650.565 214.737 650.565 211.056C650.565 208.52 650.155 206.393 649.334 204.675C648.513 202.957 647.117 201.484 645.146 200.257C643.176 199.03 640.548 197.926 637.264 196.944C633.979 195.963 629.873 194.981 624.946 193.999C621.005 193.181 617.063 192.281 613.122 191.3C609.263 190.236 605.814 188.804 602.776 187.005C599.738 185.205 597.274 182.833 595.386 179.888C593.497 176.943 592.553 173.138 592.553 168.476C592.553 160.459 595.468 154.201 601.298 149.702C607.128 145.203 615.298 142.953 625.809 142.953ZM178.847 143.812C182.049 143.812 185.005 144.425 187.715 145.652C190.507 146.798 192.93 148.434 194.982 150.561C197.117 152.606 198.76 155.019 199.909 157.801C201.141 160.5 201.757 163.445 201.757 166.636C201.757 170.235 201.017 173.589 199.539 176.697C198.061 179.724 196.008 182.301 193.381 184.428C197.651 186.8 201.1 190.113 203.728 194.367C206.355 198.539 207.669 203.202 207.669 208.355C207.669 212.037 206.97 215.554 205.574 218.908C204.178 222.18 202.249 225.044 199.786 227.498C197.323 229.952 194.448 231.915 191.164 233.388C187.962 234.86 184.512 235.638 180.817 235.72H141.157C140.008 235.72 138.98 235.31 138.077 234.492C137.256 233.592 136.846 232.57 136.846 231.425V147.984C136.846 146.839 137.256 145.857 138.077 145.039C138.98 144.221 140.008 143.812 141.157 143.812H178.847ZM264.228 142.953C265.952 142.953 267.225 143.771 268.046 145.407L312.88 235.72H303.396L290.955 210.933H237.5L225.553 235.72H215.822L260.409 145.407C261.23 143.771 262.503 142.953 264.228 142.953ZM338.244 186.269L367.682 143.812H378.151L342.432 195.104V235.72H333.934V194.735L298.214 143.812H308.684L338.244 186.269ZM584.946 152.278H535.432V180.992H575.832L573.245 189.582H535.432V227.13H584.946V235.72H531.121C529.972 235.72 528.945 235.31 528.042 234.492C527.221 233.592 526.81 232.57 526.81 231.425V147.984C526.81 146.839 527.221 145.857 528.042 145.039C528.945 144.221 529.972 143.812 531.121 143.812H584.946V152.278ZM734.001 152.278H704.933V235.72H696.311V152.278H667.243V143.812H734.001V152.278ZM145.468 227.13H180.202C182.747 227.13 185.17 226.639 187.469 225.657C189.768 224.676 191.78 223.367 193.504 221.73C195.228 220.013 196.583 218.008 197.568 215.718C198.554 213.427 199.047 210.973 199.047 208.355C199.047 205.82 198.554 203.407 197.568 201.116C196.583 198.826 195.228 196.821 193.504 195.104C191.78 193.386 189.768 192.035 187.469 191.054C185.17 190.072 182.747 189.582 180.202 189.582H145.468V227.13ZM241.688 202.343H286.768L264.228 156.941L241.688 202.343ZM145.468 180.992H178.847C180.817 180.992 182.665 180.624 184.39 179.888C186.196 179.152 187.715 178.129 188.946 176.82C190.26 175.511 191.287 173.998 192.026 172.28C192.847 170.481 193.258 168.599 193.258 166.636C193.258 164.672 192.847 162.831 192.026 161.113C191.287 159.314 190.26 157.8 188.946 156.573C187.715 155.265 186.196 154.242 184.39 153.506C182.665 152.688 180.817 152.278 178.847 152.278H145.468V180.992Z" fill="#1A1A30"/>
</g>
</svg>
