<svg width="80" height="80" viewBox="0 0 80 80" fill="none" xmlns="http://www.w3.org/2000/svg">
<g clip-path="url(#clip0_129_2359)">
<path d="M53.9626 19.1C51.3126 19.1 49.1626 16.95 49.1626 14.3C49.1626 11.6625 51.3126 9.5 53.9626 9.5C56.6126 9.5 58.7501 11.6625 58.7501 14.3C58.7501 16.95 56.6001 19.1 53.9626 19.1ZM53.9626 11.9375C52.6501 11.9375 51.5876 13 51.5876 14.3125C51.5876 15.625 52.6501 16.6875 53.9626 16.6875C55.2751 16.6875 56.3376 15.625 56.3376 14.3125C56.3376 13 55.2626 11.9375 53.9626 11.9375ZM64.4751 23.7875C61.8251 23.7875 59.6751 21.6375 59.6751 18.9875C59.6751 16.35 61.8251 14.1875 64.4751 14.1875C67.1251 14.1875 69.2751 16.3375 69.2751 18.9875C69.2751 21.6375 67.1126 23.7875 64.4751 23.7875ZM64.4751 16.625C63.1626 16.625 62.1001 17.6875 62.1001 19C62.1001 20.3125 63.1626 21.375 64.4751 21.375C65.7876 21.375 66.8501 20.3125 66.8501 19C66.8501 17.6875 65.7876 16.625 64.4751 16.625ZM71.2876 49.725C68.6376 49.725 66.4876 47.575 66.4876 44.925C66.4876 42.2875 68.6376 40.125 71.2876 40.125C73.9376 40.125 76.0876 42.275 76.0876 44.925C76.0876 47.575 73.9251 49.725 71.2876 49.725ZM71.2876 42.5625C69.9751 42.5625 68.9126 43.625 68.9126 44.9375C68.9126 46.25 69.9751 47.3125 71.2876 47.3125C72.6001 47.3125 73.6626 46.25 73.6626 44.9375C73.6626 43.625 72.5876 42.5625 71.2876 42.5625ZM55.0376 50.25C52.3876 50.25 50.2376 48.1 50.2376 45.45C50.2376 42.8125 52.3876 40.65 55.0376 40.65C57.6876 40.65 59.8376 42.8 59.8376 45.45C59.8251 48.1 57.6751 50.25 55.0376 50.25ZM55.0376 43.0875C53.7251 43.0875 52.6626 44.15 52.6626 45.4625C52.6626 46.775 53.7251 47.8375 55.0376 47.8375C56.3501 47.8375 57.4126 46.775 57.4126 45.4625C57.4001 44.15 56.3376 43.0875 55.0376 43.0875ZM60.2876 75.7C57.6376 75.7 55.4876 73.55 55.4876 70.9C55.4876 68.2625 57.6376 66.1 60.2876 66.1C62.9376 66.1 65.0876 68.25 65.0876 70.9C65.0876 73.55 62.9376 75.7 60.2876 75.7ZM60.2876 68.5375C58.9751 68.5375 57.9126 69.6 57.9126 70.9125C57.9126 72.225 58.9751 73.2875 60.2876 73.2875C61.6001 73.2875 62.6626 72.225 62.6626 70.9125C62.6626 69.6 61.6001 68.5375 60.2876 68.5375Z" fill="white"/>
<path d="M57.7627 69.5754C57.4502 69.5754 57.1377 69.4504 56.9002 69.2129L54.6127 66.9004H42.9127C42.2377 66.9004 41.7002 66.3629 41.7002 65.6879C41.7002 65.0129 42.2377 64.4754 42.9127 64.4754H55.1252C55.4502 64.4754 55.7627 64.6004 55.9877 64.8379L58.6252 67.5004C59.1002 67.9754 59.0877 68.7379 58.6127 69.2129C58.3752 69.4629 58.0627 69.5754 57.7627 69.5754ZM63.8752 61.5004C61.2252 61.5004 59.0752 59.3504 59.0752 56.7004C59.0752 54.0629 61.2252 51.9004 63.8752 51.9004C66.5252 51.9004 68.6752 54.0504 68.6752 56.7004C68.6752 59.3504 66.5252 61.5004 63.8752 61.5004ZM63.8752 54.3379C62.5627 54.3379 61.5002 55.4004 61.5002 56.7129C61.5002 58.0254 62.5627 59.0879 63.8752 59.0879C65.1877 59.0879 66.2502 58.0254 66.2502 56.7129C66.2502 55.4004 65.1877 54.3379 63.8752 54.3379Z" fill="white"/>
<path d="M60.2877 57.9127H42.9752C42.3002 57.9127 41.7627 57.3752 41.7627 56.7002C41.7627 56.0252 42.3002 55.4877 42.9752 55.4877H60.3002C60.9752 55.4877 61.5127 56.0252 61.5127 56.7002C61.5127 57.3752 60.9627 57.9127 60.2877 57.9127ZM51.4502 46.6752H43.0127C42.3377 46.6752 41.8002 46.1377 41.8002 45.4627C41.8002 44.7877 42.3377 44.2502 43.0127 44.2502H51.4502C52.1252 44.2502 52.6627 44.7877 52.6627 45.4627C52.6627 46.1377 52.1127 46.6752 51.4502 46.6752ZM68.7377 43.6252C68.4252 43.6252 68.1002 43.5002 67.8627 43.2502L60.3377 35.4127H43.1127C42.4377 35.4127 41.9002 34.8752 41.9002 34.2002C41.9002 33.5252 42.4377 32.9877 43.1127 32.9877H60.8627C61.1877 32.9877 61.5127 33.1252 61.7377 33.3627L69.6127 41.5752C70.0752 42.0627 70.0627 42.8252 69.5752 43.2877C69.3377 43.5127 69.0377 43.6252 68.7377 43.6252ZM57.5377 27.0877H43.0627C42.3877 27.0877 41.8502 26.5502 41.8502 25.8752C41.8502 25.2002 42.3877 24.6627 43.0627 24.6627H57.0627L61.1752 20.7127C61.6627 20.2502 62.4252 20.2627 62.8877 20.7502C63.3502 21.2377 63.3377 22.0002 62.8502 22.4627L58.3752 26.7502C58.1502 26.9627 57.8502 27.0877 57.5377 27.0877Z" fill="white"/>
<path d="M50.3751 15.5129H43.0626C42.3876 15.5129 41.8501 14.9754 41.8501 14.3004C41.8501 13.6254 42.3876 13.0879 43.0626 13.0879H50.3751C51.0501 13.0879 51.5876 13.6254 51.5876 14.3004C51.5876 14.9754 51.0376 15.5129 50.3751 15.5129Z" fill="white"/>
<path d="M31.1752 79.9996C29.5627 79.9996 28.0377 79.8246 26.5627 79.4996L26.4002 79.4621C26.0127 79.3746 25.6252 79.2746 25.2627 79.1621C17.9377 77.0121 12.7377 71.0246 12.0377 63.9371C12.0002 63.5371 11.9752 63.1246 11.9627 62.7121L11.9502 62.4246C11.9502 62.2871 11.9502 62.1746 11.9502 62.0496C7.0127 58.7746 4.0377 53.3746 3.9002 47.5621C3.8377 44.8121 4.4002 42.1371 5.5627 39.6371C6.6752 37.2621 8.3377 35.1246 10.3627 33.4371L10.3127 33.3746C8.7127 31.1496 7.8377 28.5621 7.7752 25.8246C7.6877 22.2371 9.0127 18.8371 11.4877 16.2371C13.9627 13.6496 17.3127 12.1746 20.9002 12.0871C21.2127 12.0871 21.5252 12.0871 21.8377 12.0996C21.8252 11.8746 21.8127 11.6621 21.8002 11.4246C21.6877 5.26213 26.5877 0.137128 32.7502 -0.000371566C35.2377 -0.0253716 37.7127 0.724628 39.6877 2.21213C40.0502 2.48713 40.4002 2.77463 40.7127 3.07463C42.8752 5.14963 44.1002 7.93713 44.1752 10.8996C44.1877 10.9746 44.4002 14.1246 44.3002 17.2996L44.2752 21.4246V22.6996L44.1002 68.3871C43.8377 72.3746 41.9002 79.0871 31.7377 79.9746C31.5502 79.9996 31.3627 79.9996 31.1752 79.9996ZM21.2377 14.4996C21.1502 14.4996 21.0627 14.4996 20.9752 14.4996C18.0377 14.5621 15.3002 15.7746 13.2627 17.8996C11.2252 20.0246 10.1502 22.8121 10.2127 25.7496C10.2627 27.9871 10.9752 30.1121 12.2627 31.8871L12.4627 32.1496C12.4627 32.1496 12.5377 32.2496 12.5377 32.2621C12.5877 32.3121 12.5752 32.2996 12.6252 32.3621C12.7127 32.4871 12.8252 32.6121 12.9252 32.7246C13.1877 32.9746 13.3252 33.3246 13.3002 33.6746C13.2752 34.0246 13.1002 34.3621 12.8127 34.5746C12.5377 34.7746 12.3627 34.9121 12.1877 35.0496C12.1002 35.1121 12.0252 35.1746 11.9502 35.2371C10.1627 36.7246 8.7252 38.5746 7.7627 40.6246C6.7752 42.8121 6.2877 45.1121 6.3502 47.4996C6.4627 52.5246 9.0377 57.1871 13.2252 59.9746C13.4752 60.1371 13.6627 60.2621 13.8502 60.3746C14.2252 60.6121 14.4502 61.0246 14.4252 61.4746C14.4127 61.7746 14.4002 62.0746 14.4002 62.3746V62.6621C14.4127 63.0121 14.4252 63.3746 14.4627 63.7121C15.0627 69.8121 19.5752 74.9621 25.9752 76.8496C26.3127 76.9621 26.6502 77.0371 26.9752 77.1121L27.1127 77.1496C28.5377 77.4746 30.0502 77.6246 31.6002 77.5871C37.9002 77.0371 41.3127 73.9121 41.6752 68.3371L41.8377 22.7371V21.4621L41.8627 17.3121C41.8627 17.2996 41.8627 17.2871 41.8627 17.2746C41.9627 14.2121 41.7502 11.0621 41.7502 11.0371C41.7002 8.66213 40.7252 6.47463 39.0377 4.84963C38.7877 4.61213 38.5127 4.38713 38.2252 4.17463C36.6752 3.01213 34.7502 2.37463 32.8002 2.44963C27.9752 2.56213 24.1377 6.57463 24.2502 11.3871C24.2627 12.0371 24.3377 12.6371 24.4752 13.1996C24.5752 13.5996 24.4627 14.0121 24.1877 14.3121C23.9127 14.6121 23.5002 14.7371 23.1002 14.6746C22.4877 14.5496 21.8627 14.4996 21.2377 14.4996Z" fill="white"/>
<path d="M25.6376 35.3992C25.3251 35.3992 25.0251 35.2867 24.7876 35.0492C19.0876 29.3992 13.1501 34.3242 12.9001 34.5367C12.3876 34.9742 11.6251 34.9117 11.1876 34.3992C10.7501 33.8867 10.8126 33.1242 11.3126 32.6992C14.0001 30.3867 20.6376 27.5242 26.4876 33.3242C26.9626 33.7992 26.9626 34.5617 26.5001 35.0367C26.2626 35.2867 25.9501 35.3992 25.6376 35.3992ZM30.0876 19.5242C25.3626 19.5242 22.8501 15.9242 22.1626 13.8492C21.9501 13.2117 22.2876 12.5242 22.9251 12.3117C23.5626 12.0992 24.2376 12.4367 24.4626 13.0617C24.5251 13.2617 26.1251 17.6617 31.0376 17.0242C31.7126 16.9492 32.3126 17.4117 32.3876 18.0742C32.4751 18.7367 32.0001 19.3492 31.3376 19.4242C30.9001 19.4992 30.4876 19.5242 30.0876 19.5242ZM30.3126 69.4992C28.3376 69.4992 26.7626 68.9617 25.5876 67.8742C23.7251 66.1617 23.7126 63.7492 23.7126 63.6492C23.7126 62.9742 24.2501 62.4367 24.9251 62.4367C25.5876 62.4367 26.1376 62.9742 26.1376 63.6367C26.1376 63.6867 26.1876 65.1367 27.2501 66.1117C28.0876 66.8742 29.3751 67.1867 31.0751 67.0367C31.7501 66.9867 32.3251 67.4742 32.3876 68.1492C32.4376 68.8117 31.9501 69.3992 31.2751 69.4617C30.9501 69.4867 30.6251 69.4992 30.3126 69.4992ZM15.8626 51.7867C15.1876 51.7867 14.6501 51.2492 14.6501 50.5742C14.6501 49.9117 15.1876 49.3617 15.8501 49.3617C15.9001 49.3617 17.3501 49.3117 18.3251 48.2492C19.0876 47.4117 19.4001 46.1242 19.2501 44.4117C19.2001 43.7492 19.6876 43.1617 20.3626 43.0992C21.0501 43.0492 21.6126 43.5367 21.6751 44.2117C21.8751 46.6367 21.3501 48.5492 20.1001 49.8992C18.3751 51.7617 15.9751 51.7867 15.8626 51.7867ZM37.8501 51.9242C37.2001 51.9242 36.6626 51.4117 36.6376 50.7617C36.6376 50.7242 36.5376 49.2617 35.4251 48.3367C34.5626 47.6117 33.2626 47.3367 31.5626 47.5492C30.9126 47.6367 30.3001 47.1617 30.2126 46.4867C30.1376 45.8242 30.6001 45.2242 31.2751 45.1367C33.6876 44.8492 35.6251 45.2992 37.0251 46.4992C38.9501 48.1367 39.0626 50.5492 39.0626 50.6492C39.0876 51.3242 38.5626 51.8867 37.9001 51.9117C37.8751 51.9242 37.8626 51.9242 37.8501 51.9242ZM36.7876 32.3367C36.1376 32.3367 35.6001 31.8242 35.5751 31.1742C35.5751 31.1367 35.4751 29.6742 34.3626 28.7492C33.5001 28.0242 32.2001 27.7617 30.5001 27.9617C29.8376 28.0367 29.2251 27.5742 29.1501 26.8992C29.0751 26.2367 29.5376 25.6367 30.2126 25.5492C32.6251 25.2617 34.5626 25.7117 35.9626 26.9117C37.8876 28.5492 38.0001 30.9617 38.0001 31.0617C38.0251 31.7367 37.5001 32.2992 36.8376 32.3242C36.8126 32.3367 36.8001 32.3367 36.7876 32.3367Z" fill="white"/>
</g>
<defs>
<clipPath id="clip0_129_2359">
<rect width="80" height="80" fill="white"/>
</clipPath>
</defs>
</svg>
