<svg width="109" height="109" viewBox="0 0 109 109" fill="none" xmlns="http://www.w3.org/2000/svg">
<path d="M106.773 92.5096C106.773 96.9279 103.192 100.51 98.7734 100.51H10.227C5.80877 100.51 2.22705 96.9279 2.22705 92.5096V16.4898C2.22705 12.0715 5.80877 8.48975 10.2271 8.48975H98.7734C103.192 8.48975 106.773 12.0715 106.773 16.4897V92.5096ZM6.58279 88.1538C6.58279 92.5721 10.1645 96.1538 14.5828 96.1538H94.4176C98.8359 96.1538 102.418 92.5721 102.418 88.1538V20.8455C102.418 16.4272 98.8359 12.8455 94.4176 12.8455H14.5828C10.1645 12.8455 6.58279 16.4272 6.58279 20.8455V88.1538Z" fill="white"/>
<path d="M78.8206 19.0537H73.377V23.4095H78.8206V19.0537Z" fill="white"/>
<path d="M88.5755 19.0537H83.1318V23.4095H88.5755V19.0537Z" fill="white"/>
<path d="M98.3279 19.0537H92.8843V23.4095H98.3279V19.0537Z" fill="white"/>
<path d="M20.2055 35.4738H4.40479V31.1159H18.4023L23.301 26.2173H47.3342L51.7091 30.5922H104.595V34.9479H49.9038L45.5289 30.573H25.1063L20.2055 35.4738Z" fill="white"/>
<path d="M73.7815 81.2052L70.7031 78.1247L82.9486 65.8792L70.7031 53.6316L73.7815 50.5532L89.1097 65.8792L73.7815 81.2052Z" fill="white"/>
<path d="M35.2187 81.2052L19.8906 65.8792L35.2187 50.5532L38.2971 53.6316L26.0517 65.8792L38.2971 78.1247L35.2187 81.2052Z" fill="white"/>
<path d="M58.6022 44.8138L40.3394 85.1489L44.3073 86.9455L62.5702 46.6104L58.6022 44.8138Z" fill="white"/>
<path d="M58.5196 72.8403H54.3853V77.1961H58.5196V72.8403Z" fill="white"/>
<path d="M66.6475 72.8403H62.5132V77.1961H66.6475V72.8403Z" fill="white"/>
</svg>
