<svg width="524" height="483" viewBox="0 0 524 483" fill="none" xmlns="http://www.w3.org/2000/svg">
<path d="M199.259 134.947H226.046C226.813 134.947 227.549 134.643 228.091 134.1C228.634 133.558 228.938 132.822 228.938 132.055V124.056H249.891C253.725 124.051 257.4 122.527 260.111 119.816C262.822 117.105 264.347 113.43 264.351 109.596V78.0975H292.381V91.5701C292.381 92.3371 292.686 93.0726 293.228 93.615C293.77 94.1573 294.506 94.462 295.273 94.462H318.987C319.754 94.462 320.49 94.1573 321.032 93.615C321.574 93.0726 321.879 92.3371 321.879 91.5701V58.0412C321.879 57.2742 321.574 56.5386 321.032 55.9962C320.49 55.4539 319.754 55.1492 318.987 55.1492H295.273C294.506 55.1492 293.77 55.4539 293.228 55.9962C292.686 56.5386 292.381 57.2742 292.381 58.0412V72.3136H264.351V40.0138C264.347 36.1802 262.822 32.5048 260.111 29.794C257.4 27.0832 253.725 25.5583 249.891 25.554H228.938V17.5559C228.938 16.7889 228.634 16.0534 228.091 15.511C227.549 14.9687 226.813 14.664 226.046 14.664H199.259C198.492 14.664 197.757 14.9687 197.215 15.511C196.672 16.0534 196.368 16.7889 196.368 17.5559V39.3359C196.368 40.1029 196.672 40.8385 197.215 41.3809C197.757 41.9232 198.492 42.2279 199.259 42.2279H226.046C226.813 42.2279 227.549 41.9232 228.091 41.3809C228.634 40.8385 228.938 40.1029 228.938 39.3359V31.3379H249.891C252.192 31.3405 254.397 32.2554 256.023 33.8819C257.65 35.5084 258.565 37.7136 258.567 40.0138V72.3136H228.938V64.3156C228.938 63.5486 228.634 62.813 228.091 62.2707C227.549 61.7283 226.813 61.4236 226.046 61.4236H199.259C198.492 61.4236 197.757 61.7283 197.215 62.2707C196.672 62.813 196.368 63.5486 196.368 64.3156V86.0956C196.368 86.8626 196.672 87.5981 197.215 88.1405C197.757 88.6828 198.492 88.9875 199.259 88.9875H226.046C226.813 88.9875 227.549 88.6828 228.091 88.1405C228.634 87.5981 228.938 86.8626 228.938 86.0956V78.0975H258.567V109.596C258.565 111.896 257.65 114.101 256.023 115.728C254.397 117.354 252.192 118.269 249.891 118.272H228.938V110.274C228.938 109.507 228.634 108.771 228.091 108.229C227.549 107.687 226.813 107.382 226.046 107.382H199.259C198.492 107.382 197.757 107.687 197.215 108.229C196.672 108.771 196.368 109.507 196.368 110.274V132.055C196.368 132.822 196.672 133.558 197.215 134.1C197.757 134.643 198.492 134.947 199.259 134.947ZM298.165 60.9331H316.095V88.6781H298.165V60.9331ZM223.154 36.4442H202.151V20.4482H223.154V36.4442ZM223.154 83.2036H202.151V67.2076H223.154V83.2036ZM202.151 113.167H223.154V129.163H202.151V113.167Z" fill="white"/>
<path d="M136.298 349.418H116.98C117.351 347.54 117.556 345.634 117.556 343.715C117.57 343.66 117.584 343.605 117.584 343.55C117.584 343.495 117.556 343.44 117.543 343.372C117.501 336.325 115.157 329.73 110.742 324.274C109.714 322.999 108.782 322.012 107.85 321.216C102.146 315.87 94.729 312.936 86.9691 312.936C79.1681 312.936 71.7646 315.883 66.1161 321.203C65.1153 322.108 64.1418 323.136 63.2096 324.287C58.7949 329.772 56.4505 336.366 56.4094 343.344C56.3957 343.413 56.3682 343.482 56.3682 343.55C56.3682 343.619 56.3957 343.687 56.4094 343.742C56.4231 345.648 56.615 347.553 56.9852 349.418H37.7088C34.6515 349.418 32.1562 351.927 32.1562 354.998V412.306C32.1562 415.363 34.6378 417.859 37.7088 417.859H76.8374C79.8947 417.859 82.3899 415.377 82.3899 412.306V373.795L82.6367 373.836C82.7464 373.849 82.8698 373.863 82.9795 373.877C84.2408 374.041 85.5021 374.137 86.736 374.151C86.832 374.151 86.9143 374.165 87.0102 374.165C87.1062 374.165 87.1885 374.151 87.2844 374.151C88.4087 374.137 89.5055 374.069 90.5886 373.932C90.945 373.891 91.2878 373.849 91.6442 373.795V412.306C91.6442 415.363 94.1258 417.859 97.1831 417.859H136.312C139.369 417.859 141.851 415.377 141.851 412.306V354.998C141.837 351.913 139.355 349.418 136.298 349.418ZM59.5353 350.282C59.0828 348.458 58.8223 346.58 58.7401 344.688H72.5872C72.6695 349.802 73.3139 354.546 74.4107 358.686C71.7235 359.906 69.2146 361.524 66.9524 363.498C66.2943 362.84 65.65 362.141 65.0467 361.401C64.7177 360.989 64.4023 360.578 64.087 360.153C61.9345 357.164 60.3716 353.778 59.5353 350.282ZM76.6728 369.901C76.2204 369.723 75.7817 369.544 75.343 369.339C75.0551 369.202 74.7671 369.078 74.4792 368.927C74.0954 368.736 73.7252 368.53 73.3413 368.324C73.0534 368.16 72.7518 368.009 72.4639 367.831C72.0251 367.57 71.5864 367.282 71.1614 366.981C70.709 366.665 70.2565 366.336 69.8178 366.007C69.5436 365.802 69.2694 365.596 69.0089 365.377L68.6387 365.048C70.5993 363.361 72.7655 361.976 75.0688 360.907C76.4672 365.267 78.3729 368.79 80.6351 371.107C79.5382 370.861 78.4552 370.559 77.3995 370.175C77.139 370.093 76.9059 369.997 76.6728 369.901ZM85.8449 371.738C82.3351 370.929 79.2092 366.446 77.1938 360.016C79.9496 359.001 82.8561 358.439 85.8449 358.316V371.738ZM104.861 365.473C104.751 365.569 104.628 365.651 104.518 365.733C103.682 366.391 102.818 367.008 101.927 367.57C101.803 367.652 101.694 367.735 101.57 367.803C101.214 368.023 100.857 368.201 100.501 368.406C100.199 368.571 99.8977 368.736 99.5961 368.886C99.2396 369.065 98.8832 369.229 98.5267 369.38C98.2114 369.517 97.8823 369.654 97.567 369.791C97.1968 369.942 96.8267 370.093 96.4428 370.23C96.196 370.312 95.9355 370.394 95.6887 370.477C94.9347 370.71 94.1806 370.915 93.3991 371.094C95.6476 368.777 97.567 365.267 98.9517 360.921C101.241 361.99 103.394 363.375 105.354 365.048C105.176 365.185 105.025 365.335 104.861 365.473ZM88.1345 371.738V358.316C91.1233 358.439 94.0435 359.001 96.7992 360.016C94.7838 366.446 91.6442 370.929 88.1345 371.738ZM88.1345 355.999V344.688H99.1162C99.034 349.432 98.417 353.915 97.4162 357.822C94.4685 356.739 91.3426 356.122 88.1345 355.999ZM88.1345 342.412V331.115C91.3426 330.992 94.4685 330.375 97.4299 329.305C98.4307 333.213 99.0477 337.682 99.1299 342.412H88.1345ZM88.1345 328.798V315.362C91.658 316.171 94.7838 320.654 96.7992 327.098C94.0435 328.126 91.1233 328.675 88.1345 328.798ZM93.358 315.993C93.5362 316.034 93.7008 316.061 93.879 316.116C94.0983 316.171 94.3177 316.212 94.5371 316.281C95.0581 316.432 95.579 316.61 96.0863 316.774C96.3879 316.884 96.7033 316.98 97.0049 317.09C97.4573 317.254 97.896 317.46 98.3348 317.652C98.6912 317.803 99.0477 317.967 99.4041 318.132C99.788 318.324 100.172 318.529 100.556 318.749C100.94 318.954 101.31 319.174 101.694 319.393C102.05 319.612 102.393 319.845 102.736 320.065C103.106 320.325 103.49 320.572 103.86 320.846C104.203 321.093 104.518 321.354 104.847 321.628C105.025 321.779 105.203 321.929 105.395 322.094C103.435 323.767 101.269 325.138 98.9791 326.207C97.5533 321.833 95.6339 318.296 93.358 315.993ZM69.0363 321.724C69.4476 321.381 69.8589 321.052 70.284 320.737C70.5444 320.545 70.8186 320.353 71.0791 320.174C71.5179 319.873 71.9566 319.571 72.4227 319.297C72.6969 319.132 72.9711 318.982 73.2316 318.831C73.6978 318.57 74.1776 318.31 74.6575 318.063C74.918 317.94 75.1922 317.816 75.4664 317.693C75.9736 317.46 76.4809 317.241 77.0019 317.035C77.2487 316.939 77.5092 316.857 77.7559 316.774C78.3043 316.582 78.8665 316.39 79.4286 316.24C79.6342 316.185 79.8399 316.144 80.0455 316.089C80.2375 316.034 80.4294 316.007 80.6213 315.952C78.3455 318.269 76.4261 321.806 75.0276 326.193C72.7243 325.124 70.5582 323.739 68.5976 322.066C68.7621 321.957 68.8992 321.847 69.0363 321.724ZM85.8449 315.362V328.798C82.8561 328.675 79.9358 328.126 77.1938 327.112C79.2092 320.668 82.3351 316.171 85.8449 315.362ZM85.8449 331.115V342.412H74.8768C74.9591 337.682 75.576 333.213 76.5632 329.319C79.5245 330.375 82.6504 330.992 85.8449 331.115ZM85.8449 344.688V355.999C82.6504 356.122 79.5245 356.739 76.5769 357.809C75.576 353.901 74.9591 349.432 74.8768 344.688H85.8449ZM107.041 363.512C104.778 361.538 102.27 359.92 99.5824 358.7C100.665 354.559 101.324 349.816 101.406 344.702H115.253C115.171 346.594 114.924 348.472 114.458 350.309C113.498 354.354 111.592 358.192 108.96 361.401C108.261 362.237 107.658 362.909 107.041 363.512ZM108.987 325.727C112.867 330.512 115.006 336.27 115.239 342.412H101.406C101.324 337.312 100.679 332.568 99.5961 328.442C102.297 327.221 104.82 325.604 107.095 323.629C107.699 324.205 108.316 324.891 108.987 325.727ZM65.0056 325.727C65.6225 324.973 66.2669 324.287 66.925 323.629C69.1871 325.604 71.7098 327.221 74.397 328.442C73.3139 332.568 72.6695 337.312 72.5872 342.412H58.7538C58.9869 336.298 61.1256 330.553 65.0056 325.727ZM80.1004 412.306C80.1004 414.13 78.6745 415.569 76.8374 415.569H37.7088C35.9128 415.569 34.4458 414.102 34.4458 412.306V354.998C34.4458 353.188 35.9128 351.708 37.7088 351.708H57.5473C57.5884 351.845 57.6296 351.968 57.6707 352.105C57.7392 352.338 57.8078 352.558 57.8763 352.777C57.9723 353.065 58.0683 353.353 58.1643 353.654C58.2465 353.874 58.3151 354.107 58.411 354.326C58.5207 354.614 58.6304 354.902 58.7538 355.19C58.8498 355.409 58.932 355.629 59.028 355.848C59.1514 356.136 59.2885 356.41 59.4256 356.698C59.5215 356.904 59.6312 357.123 59.7272 357.329C59.8643 357.617 60.0288 357.891 60.1796 358.179C60.2893 358.384 60.399 358.576 60.5087 358.782C60.6732 359.07 60.8514 359.358 61.0297 359.646C61.1393 359.824 61.249 360.016 61.3724 360.194C61.5781 360.509 61.7837 360.811 62.0031 361.113C62.099 361.264 62.2087 361.414 62.3047 361.551C62.6337 361.99 62.9628 362.429 63.3055 362.868C64.183 363.951 65.129 364.965 66.1161 365.884C66.1298 365.898 66.1435 365.925 66.1572 365.939C67.7202 367.406 69.4202 368.681 71.2162 369.764C71.2299 369.764 71.2299 369.777 71.2437 369.777C71.6961 370.052 72.1485 370.312 72.601 370.545C72.6421 370.559 72.6695 370.586 72.7106 370.6C73.4236 370.984 74.1502 371.327 74.8905 371.656C74.9728 371.683 75.0413 371.724 75.1236 371.752C75.4664 371.903 75.8091 372.04 76.1519 372.163C76.2753 372.204 76.3986 372.259 76.522 372.3C76.618 372.341 76.7277 372.369 76.8237 372.41C76.8922 372.437 76.947 372.451 77.0156 372.478C77.3035 372.574 77.6051 372.67 77.9068 372.766C78.0576 372.807 78.1947 372.862 78.3455 372.903C78.4963 372.945 78.6334 372.986 78.7842 373.027C78.9761 373.082 79.1681 373.123 79.36 373.178L79.977 373.342C80.0318 373.356 80.1004 373.37 80.1552 373.383V412.306H80.1004ZM139.547 412.306C139.547 414.102 138.08 415.569 136.284 415.569H97.1557C95.3323 415.569 93.8927 414.143 93.8927 412.306V373.356C95.6476 372.958 97.3476 372.396 98.9928 371.697C99.0065 371.697 99.0066 371.683 99.0203 371.683C99.8017 371.354 100.569 370.984 101.324 370.573H101.337C103.682 369.325 105.875 367.762 107.85 365.911C107.877 365.884 107.891 365.856 107.904 365.829C108.823 365.02 109.714 364.074 110.715 362.84C111.058 362.415 111.387 361.99 111.716 361.551C111.839 361.387 111.949 361.222 112.059 361.058C112.25 360.77 112.456 360.496 112.634 360.208C112.758 360.016 112.881 359.81 113.005 359.618C113.169 359.358 113.334 359.084 113.484 358.823C113.608 358.604 113.717 358.398 113.841 358.179C113.978 357.918 114.129 357.658 114.266 357.384C114.376 357.164 114.485 356.931 114.595 356.712C114.718 356.438 114.842 356.177 114.965 355.903C115.061 355.67 115.157 355.437 115.253 355.217C115.363 354.943 115.472 354.669 115.582 354.381L115.829 353.682L116.117 352.818C116.185 352.585 116.254 352.366 116.322 352.133C116.364 351.996 116.405 351.858 116.446 351.708H136.284C138.08 351.708 139.547 353.188 139.547 354.998V412.306Z" fill="white" stroke="white" stroke-width="1.85086"/>
<path d="M71.0496 404.162H43.5061C42.8754 404.162 42.3682 404.669 42.3682 405.3C42.3682 405.931 42.8754 406.438 43.5061 406.438H71.0496C71.6803 406.438 72.1876 405.931 72.1876 405.3C72.1876 404.669 71.6803 404.162 71.0496 404.162ZM71.0496 395.525H43.5061C42.8754 395.525 42.3682 396.032 42.3682 396.663C42.3682 397.293 42.8754 397.801 43.5061 397.801H71.0496C71.6803 397.801 72.1876 397.293 72.1876 396.663C72.1876 396.032 71.6803 395.525 71.0496 395.525ZM71.0496 386.887H43.5061C42.8754 386.887 42.3682 387.395 42.3682 388.025C42.3682 388.656 42.8754 389.163 43.5061 389.163H71.0496C71.6803 389.163 72.1876 388.656 72.1876 388.025C72.1876 387.395 71.6803 386.887 71.0496 386.887ZM71.0496 378.25H43.5061C42.8754 378.25 42.3682 378.757 42.3682 379.388C42.3682 380.019 42.8754 380.526 43.5061 380.526H71.0496C71.6803 380.526 72.1876 380.019 72.1876 379.388C72.1876 378.757 71.6803 378.25 71.0496 378.25ZM130.483 404.162H102.939C102.309 404.162 101.801 404.669 101.801 405.3C101.801 405.931 102.309 406.438 102.939 406.438H130.483C131.113 406.438 131.621 405.931 131.621 405.3C131.621 404.669 131.113 404.162 130.483 404.162ZM130.483 395.525H102.939C102.309 395.525 101.801 396.032 101.801 396.663C101.801 397.293 102.309 397.801 102.939 397.801H130.483C131.113 397.801 131.621 397.293 131.621 396.663C131.621 396.032 131.113 395.525 130.483 395.525ZM130.483 386.887H102.939C102.309 386.887 101.801 387.395 101.801 388.025C101.801 388.656 102.309 389.163 102.939 389.163H130.483C131.113 389.163 131.621 388.656 131.621 388.025C131.621 387.395 131.113 386.887 130.483 386.887ZM130.483 378.25H102.939C102.309 378.25 101.801 378.757 101.801 379.388C101.801 380.019 102.309 380.526 102.939 380.526H130.483C131.113 380.526 131.621 380.019 131.621 379.388C131.621 378.757 131.113 378.25 130.483 378.25Z" fill="white" stroke="white" stroke-width="3.70172"/>
<path d="M479.791 352.804C481.503 344.29 473.451 312.548 437.498 312.178C417.324 312.178 400.019 325.504 395.993 343.318C395.438 343.272 394.836 343.226 394.235 343.226C378.919 343.226 366.472 354.933 366.472 369.323C366.472 383.713 378.919 395.42 394.235 395.42H398.862V413.929C398.862 416.474 400.944 418.556 403.489 418.556H459.015C461.56 418.556 463.642 416.474 463.642 413.929V395.42H472.896C485.667 395.42 496.032 385.657 496.032 373.626C496.032 363.909 489.322 355.58 479.791 352.804ZM454.388 409.348H408.116V372.331H432.501L438.516 381.307C439.396 382.603 440.83 383.343 442.357 383.343H454.388V409.348ZM472.896 386.212H463.642V378.716C463.642 376.171 461.56 374.089 459.015 374.089H444.809L438.794 365.112C437.915 363.817 436.48 363.076 434.953 363.076H403.489C400.944 363.076 398.862 365.159 398.862 367.704V386.212H394.235C384.009 386.212 375.726 378.67 375.726 369.369C375.726 360.069 384.009 352.526 394.235 352.526C395.947 352.526 400.389 353.73 402.563 352.341C403.72 351.601 404.368 350.305 404.507 348.964C405.802 333.555 420.285 321.432 437.498 321.432C455.729 321.432 470.583 334.758 470.583 351.185C470.583 355.025 469.379 357.154 471.045 359.375C471.832 360.393 473.035 361.087 474.331 361.179C481.41 361.827 486.778 367.195 486.778 373.673C486.778 380.567 480.531 386.212 472.896 386.212Z" fill="white"/>
<path d="M130.5 439.172C130.639 437.645 131.99 436.52 133.517 436.66L158.4 438.935C159.927 439.074 161.052 440.425 160.912 441.952C160.773 443.479 159.422 444.604 157.895 444.464L135.777 442.442L133.755 464.56C133.615 466.087 132.264 467.212 130.737 467.072C129.21 466.933 128.085 465.582 128.225 464.055L130.5 439.172ZM384.981 439.425L387.064 441.261C374.321 455.708 354.664 466.179 331.936 473.003C309.17 479.838 283.087 483.086 257.217 482.913C231.346 482.741 205.581 479.147 183.448 472.224C161.366 465.317 142.624 455.007 131.131 441.201L133.265 439.425L135.398 437.649C145.93 450.3 163.53 460.176 185.105 466.925C206.629 473.657 231.837 477.191 257.254 477.361C282.67 477.531 308.19 474.335 330.339 467.685C352.527 461.023 371.099 450.967 382.899 437.588L384.981 439.425Z" fill="white"/>
<path d="M488.611 290.059C487.183 290.618 485.572 289.914 485.013 288.487L475.897 265.222C475.338 263.794 476.042 262.184 477.469 261.624C478.897 261.065 480.508 261.769 481.067 263.196L489.17 283.876L509.849 275.773C511.277 275.214 512.888 275.918 513.447 277.345C514.007 278.773 513.303 280.384 511.875 280.943L488.611 290.059ZM374.812 62.4385L375.521 59.7542C394.147 64.6727 412.315 77.5548 428.599 94.816C444.911 112.107 459.501 133.969 470.938 157.175C482.375 180.38 490.707 205.024 494.435 227.914C498.154 250.75 497.335 272.124 490.142 288.585L487.598 287.474L485.054 286.362C491.645 271.278 492.588 251.119 488.955 228.806C485.33 206.547 477.195 182.428 465.958 159.629C454.721 136.831 440.43 115.448 424.56 98.6263C408.663 81.775 391.351 69.6774 374.104 65.1227L374.812 62.4385Z" fill="white"/>
<path d="M143.601 59.8068C144.93 60.5719 145.387 62.2693 144.622 63.5981L132.154 85.2516C131.389 86.5804 129.691 87.0373 128.363 86.2722C127.034 85.5071 126.577 83.8097 127.342 82.4809L138.425 63.2333L119.177 52.1505C117.848 51.3854 117.391 49.688 118.157 48.3592C118.922 47.0304 120.619 46.5735 121.948 47.3386L143.601 59.8068ZM36.9912 290.881L34.4525 292.005C26.6549 274.39 25.3601 252.155 28.6621 228.656C31.9697 205.117 39.9225 180.065 50.894 156.635C61.8652 133.206 75.9003 111.302 91.4422 94.0898C106.948 76.9175 124.148 64.2015 141.494 59.5319L142.216 62.2127L142.938 64.8936C127.042 69.1725 110.714 81.0324 95.5634 97.811C80.4495 114.549 66.7016 135.971 55.9225 158.99C45.1437 182.009 37.3786 206.527 34.1607 229.429C30.9371 252.37 32.309 273.445 39.5299 289.757L36.9912 290.881Z" fill="white"/>
</svg>
