<svg width="137" height="137" viewBox="0 0 137 137" fill="none" xmlns="http://www.w3.org/2000/svg">
<path d="M65.8241 28.4409V17.1746C65.8241 15.6967 67.0221 14.4988 68.4999 14.4988C69.9775 14.4988 71.1757 15.6967 71.1757 17.1746V28.4409C71.1757 29.9188 69.9775 31.1167 68.4999 31.1167C67.0221 31.1167 65.8241 29.9188 65.8241 28.4409ZM54.653 30.5297C55.1512 31.012 55.8177 31.2812 56.5111 31.2802C56.8705 31.2807 57.2264 31.2086 57.5573 31.0681C57.8882 30.9276 58.1873 30.7217 58.4366 30.4628C59.463 29.3994 59.433 27.7056 58.3697 26.6792L50.2829 18.8734C49.2198 17.8473 47.5261 17.877 46.4994 18.9403C45.4729 20.0037 45.5029 21.6974 46.5663 22.7239L54.653 30.5297ZM80.489 31.2802C81.158 31.2802 81.8277 31.0308 82.3471 30.5297L90.4338 22.7239C91.4972 21.6977 91.5269 20.0034 90.5007 18.9403C89.474 17.877 87.7805 17.8473 86.7169 18.8734L78.6302 26.6792C77.5668 27.7054 77.5371 29.3994 78.5633 30.4628C78.8127 30.7217 79.1118 30.9276 79.4427 31.068C79.7736 31.2085 80.1295 31.2807 80.489 31.2802ZM121.921 60.6814L104.906 80.8571C104.654 81.1553 104.341 81.395 103.988 81.5593C103.634 81.7235 103.249 81.8083 102.859 81.8078C102.228 81.8084 101.617 81.5851 101.135 81.1776C100.005 80.2248 99.8619 78.5366 100.815 77.4072L114.118 61.6324H93.5971L76.6276 106.088L93.6499 85.9036C94.603 84.7739 96.2911 84.631 97.4206 85.583C98.5503 86.5359 98.6937 88.224 97.7409 89.3535L70.5456 121.6C70.2943 121.898 69.9811 122.137 69.6278 122.301C69.2744 122.466 68.8895 122.551 68.4999 122.551C68.1103 122.551 67.7254 122.466 67.3721 122.301C67.0188 122.137 66.7055 121.898 66.4543 121.6L15.0793 60.6814C14.6805 60.2086 14.4579 59.6122 14.4492 58.9937C14.4406 58.3752 14.6465 57.7729 15.0319 57.2891L21.4926 49.1796C22.4133 48.0236 24.0969 47.8337 25.2526 48.7541C26.4085 49.6749 26.5991 51.3585 25.6781 52.5141L22.6774 56.2806H43.6818L52.7733 40.1368H35.5394L32.6065 43.8181C31.6855 44.9741 30.0024 45.1646 28.8464 44.2436C27.6905 43.3228 27.5 41.6392 28.421 40.4836L32.1572 35.7937C32.4078 35.4791 32.726 35.225 33.0884 35.0504C33.4507 34.8758 33.8477 34.7852 34.2499 34.7852H102.75C103.152 34.7852 103.549 34.8758 103.911 35.0504C104.274 35.225 104.592 35.4791 104.843 35.7937L121.968 57.2891C122.353 57.7728 122.559 58.3752 122.55 58.9937C122.542 59.6121 122.319 60.2086 121.921 60.6814ZM101.461 40.1368H84.2271L93.3183 56.2806H114.322L101.461 40.1368ZM49.8238 56.2806H87.1763L78.0848 40.1368H58.9147L49.8238 56.2806ZM22.8819 61.6321L60.373 106.088L43.4035 61.6321H22.8819ZM87.8686 61.6321H49.1315L68.4999 112.372L87.8686 61.6321Z" fill="white"/>
</svg>
