<svg width="80" height="80" viewBox="0 0 80 80" fill="none" xmlns="http://www.w3.org/2000/svg">
<path d="M62.9204 47.2136V10.1929C62.9204 9.55589 62.4036 9.03906 61.7666 9.03906H18.2329C17.5959 9.03906 17.0791 9.55589 17.0791 10.1929V47.2136C17.0791 47.8507 17.5959 48.3675 18.2329 48.3675H61.7666C62.4036 48.3675 62.9204 47.8507 62.9204 47.2136ZM60.6128 46.0598H19.3868V11.3468H60.6128V46.0598Z" fill="white"/>
<path d="M24.1358 24.3299H55.8635C56.5006 24.3299 57.0174 23.8131 57.0174 23.1761V16.1538C57.0174 15.5168 56.5006 15 55.8635 15H24.1358C23.4988 15 22.9819 15.5168 22.9819 16.1538V23.1761C22.9819 23.8131 23.4988 24.3299 24.1358 24.3299ZM39.0306 22.0222H32.1639V17.3077H39.0306V22.0222ZM41.3383 17.3077H47.8354V22.0222H41.3383V17.3077ZM54.7097 22.0222H50.1431V17.3077H54.7097V22.0222ZM25.2896 17.3077H29.8562V22.0222H25.2896V17.3077ZM30.3197 28.6418C30.3197 28.0048 29.8028 27.488 29.1658 27.488H29.1185C28.4815 27.488 27.9887 28.0048 27.9887 28.6418C27.9887 29.2788 28.5288 29.7957 29.1658 29.7957C29.8028 29.7957 30.3197 29.2788 30.3197 28.6418ZM41.1768 28.6418C41.1768 28.0048 40.66 27.488 40.0229 27.488H39.9764C39.3394 27.488 38.8458 28.0048 38.8458 28.6418C38.8458 29.2788 39.3859 29.7957 40.0229 29.7957C40.66 29.7957 41.1768 29.2788 41.1768 28.6418ZM52.0347 28.6418C52.0347 28.0048 51.5178 27.488 50.8808 27.488H50.8335C50.1965 27.488 49.7029 28.0048 49.7029 28.6418C49.7029 29.2788 50.2438 29.7957 50.8808 29.7957C51.5178 29.7957 52.0347 29.2788 52.0347 28.6418ZM51.6733 36.0697H48.9638V35.003C48.9638 34.366 48.4469 33.8492 47.8099 33.8492C47.1729 33.8492 46.6561 34.366 46.6561 35.003V36.0697H28.649C28.012 36.0697 27.4952 36.5865 27.4952 37.2236C27.4952 37.8606 28.012 38.3774 28.649 38.3774H46.6561V39.5057C46.6561 40.1427 47.1729 40.6596 47.8099 40.6596C48.4469 40.6596 48.9638 40.1427 48.9638 39.5057V38.3774H51.6733C52.3104 38.3774 52.8272 37.8606 52.8272 37.2236C52.8272 36.5865 52.3104 36.0697 51.6733 36.0697Z" fill="white"/>
<path d="M25.5152 76.9233H55.8352C59.0857 76.9233 61.7307 74.2791 61.7307 71.0279V54.3287H63.1129C66.2942 54.3287 68.8821 51.74 68.8821 48.5594V33.6015H71.4737C74.1751 33.6015 76.3723 31.405 76.3723 28.7037C76.3723 26.0023 74.1751 23.8043 71.4737 23.8043H68.8821V8.84638C68.8821 5.66579 66.2942 3.07715 63.1129 3.07715H16.8869C13.7056 3.07715 11.1177 5.66579 11.1177 8.84638V23.8043H8.52603C5.82471 23.8043 3.62744 26.0023 3.62744 28.7037C3.62744 31.405 5.82471 33.6015 8.52603 33.6015H11.1177V48.5594C11.1177 51.74 13.7056 54.3287 16.8869 54.3287H19.6198V71.0279C19.6198 74.2791 22.2648 76.9233 25.5152 76.9233ZM59.423 71.0279C59.423 73.0065 57.8131 74.6156 55.8352 74.6156H25.5152C23.5373 74.6156 21.9275 73.0065 21.9275 71.0279V54.3287H59.423V71.0279ZM71.4737 26.112C72.9025 26.112 74.0646 27.2749 74.0646 28.7037C74.0646 30.1324 72.9025 31.2938 71.4737 31.2938H68.8821V26.112H71.4737ZM8.52603 31.2938C7.09724 31.2938 5.93513 30.1324 5.93513 28.7037C5.93513 27.2749 7.09724 26.112 8.52603 26.112H11.1177V31.2938H8.52603ZM13.4254 48.5594C13.4254 34.4732 13.4254 22.8441 13.4254 8.84638C13.4254 6.93833 14.9781 5.38484 16.8869 5.38484H63.1129C65.0217 5.38484 66.5744 6.93833 66.5744 8.84638C66.5744 22.8504 66.5744 34.4864 66.5744 48.5594C66.5744 50.4675 65.0217 52.021 63.1129 52.021C52.4838 52.021 26.7133 52.021 16.8869 52.021C14.9781 52.021 13.4254 50.4675 13.4254 48.5594Z" fill="white"/>
<path d="M39.4823 65.7053H40.6962L39.9758 67.2197C39.7024 67.7951 39.9465 68.4832 40.5219 68.7582C40.682 68.8333 40.851 68.8694 41.017 68.8694C41.4482 68.8694 41.8621 68.626 42.0597 68.2113L43.2826 65.6392C43.5155 65.1509 43.4824 64.5875 43.194 64.1293C42.9055 63.671 42.4097 63.3976 41.8681 63.3976H40.6647L41.473 61.7344C41.7509 61.1605 41.512 60.4694 40.9389 60.1915C40.3649 59.915 39.6753 60.1524 39.3966 60.7248L38.073 63.4517C37.8349 63.9415 37.8649 64.5079 38.1534 64.9691C38.4419 65.4304 38.9384 65.7053 39.4823 65.7053Z" fill="white"/>
<path d="M40.6753 72.5869C45.1502 72.5869 48.7905 68.9466 48.7905 64.4724C48.7905 59.9968 45.1502 56.3564 40.6753 56.3564C36.2004 56.3564 32.5601 59.9968 32.5601 64.4724C32.5601 68.9466 36.2004 72.5869 40.6753 72.5869ZM40.6753 58.6641C43.8777 58.6641 46.4828 61.2693 46.4828 64.4724C46.4828 67.6741 43.8777 70.2792 40.6753 70.2792C37.4729 70.2792 34.8678 67.6741 34.8678 64.4724C34.8678 61.2693 37.4729 58.6641 40.6753 58.6641Z" fill="white"/>
</svg>
