<svg width="137" height="137" viewBox="0 0 137 137" fill="none" xmlns="http://www.w3.org/2000/svg">
<path d="M118.552 35.635C120.601 34.5604 122.016 32.4369 122.016 29.9688C122.016 26.4282 119.134 23.5469 115.594 23.5469C112.807 23.5469 110.452 25.3429 109.566 27.8281H91.9377C90.8524 15.8449 80.7615 6.42188 68.5 6.42188C56.2385 6.42188 46.1476 15.8449 45.0623 27.8281H27.4342C26.548 25.3429 24.1933 23.5469 21.4062 23.5469C17.8657 23.5469 14.9844 26.4282 14.9844 29.9688C14.9844 32.4369 16.3993 34.5604 18.4479 35.635L2.32472 71.9122C2.2027 72.1862 2.14062 72.4816 2.14062 72.7812C2.14062 83.403 10.7845 92.0469 21.4062 92.0469C32.028 92.0469 40.6719 83.403 40.6719 72.7812C40.6719 72.4816 40.6098 72.1862 40.4878 71.9122L24.3646 35.635C25.7881 34.8879 26.8884 33.6399 27.4342 32.1094H45.0623C45.6488 38.5762 48.8512 44.2938 53.6098 48.1897L59.7277 113.453H25.6875C20.9653 113.453 17.125 117.293 17.125 122.016C17.125 126.738 20.9653 130.578 25.6875 130.578H111.312C116.035 130.578 119.875 126.738 119.875 122.016C119.875 117.293 116.035 113.453 111.312 113.453H77.2723L83.3902 48.1897C88.1488 44.2938 91.3512 38.5741 91.9377 32.1094H109.566C110.112 33.6399 111.212 34.8879 112.635 35.635L96.5122 71.9122C96.3902 72.1862 96.3281 72.4816 96.3281 72.7812C96.3281 83.403 104.972 92.0469 115.594 92.0469C126.216 92.0469 134.859 83.403 134.859 72.7812C134.859 72.4816 134.797 72.1862 134.675 71.9122L118.552 35.635ZM115.594 27.8281C116.773 27.8281 117.734 28.7893 117.734 29.9688C117.734 31.1482 116.773 32.1094 115.594 32.1094C114.414 32.1094 113.453 31.1482 113.453 29.9688C113.453 28.7893 114.414 27.8281 115.594 27.8281ZM21.4062 27.8281C22.5857 27.8281 23.5469 28.7893 23.5469 29.9688C23.5469 31.1482 22.5857 32.1094 21.4062 32.1094C20.2268 32.1094 19.2656 31.1482 19.2656 29.9688C19.2656 28.7893 20.2268 27.8281 21.4062 27.8281ZM21.4062 39.5202L35.2368 70.6406H7.57567L21.4062 39.5202ZM21.4062 87.7656C13.8713 87.7656 7.62705 82.1722 6.58242 74.9219H36.2279C35.1855 82.1722 28.9412 87.7656 21.4062 87.7656ZM58.1822 51.101C60.6953 52.3319 63.446 53.141 66.3594 53.4065V113.453H64.0282L58.1822 51.101ZM115.594 122.016C115.594 124.377 113.674 126.297 111.312 126.297H25.6875C23.3264 126.297 21.4062 124.377 21.4062 122.016C21.4062 119.655 23.3264 117.734 25.6875 117.734H111.312C113.674 117.734 115.594 119.655 115.594 122.016ZM72.9718 113.453H70.6406V53.4065C73.554 53.1432 76.3069 52.334 78.8178 51.101L72.9718 113.453ZM68.5 49.2344C57.8782 49.2344 49.2344 40.5905 49.2344 29.9688C49.2344 19.347 57.8782 10.7031 68.5 10.7031C79.1218 10.7031 87.7656 19.347 87.7656 29.9688C87.7656 40.5905 79.1218 49.2344 68.5 49.2344ZM129.424 70.6406H101.763L115.594 39.5202L129.424 70.6406ZM115.594 87.7656C108.059 87.7656 101.815 82.1722 100.77 74.9219H130.415C129.373 82.1722 123.129 87.7656 115.594 87.7656Z" fill="white"/>
<path d="M70.6406 21.7102V14.9844H66.3594V21.7102C62.6775 22.6671 59.9375 25.9915 59.9375 29.9688C59.9375 34.691 63.7778 38.5312 68.5 38.5312C73.2222 38.5312 77.0625 34.691 77.0625 29.9688C77.0625 25.9915 74.3225 22.6671 70.6406 21.7102ZM68.5 34.25C66.1389 34.25 64.2188 32.3299 64.2188 29.9688C64.2188 27.6076 66.1389 25.6875 68.5 25.6875C70.8611 25.6875 72.7812 27.6076 72.7812 29.9688C72.7812 32.3299 70.8611 34.25 68.5 34.25Z" fill="white"/>
</svg>
