<svg width="1920" height="1080" viewBox="0 0 1920 1080" fill="none" xmlns="http://www.w3.org/2000/svg">
<rect width="1920" height="1080" fill="#030E32" style="fill:#030E32;fill:color(display-p3 0.0111 0.0538 0.1944);fill-opacity:1;"/>
<mask id="mask0_164_317" style="mask-type:alpha" maskUnits="userSpaceOnUse" x="0" y="0" width="1920" height="1078">
<rect width="1920" height="1078" fill="#030E32" style="fill:#030E32;fill:color(display-p3 0.0111 0.0538 0.1944);fill-opacity:1;"/>
</mask>
<g mask="url(#mask0_164_317)">
<mask id="mask1_164_317" style="mask-type:luminance" maskUnits="userSpaceOnUse" x="-1" y="-581" width="1921" height="2039">
<path d="M1919.77 -580.72H-0.226562V1457.5H1919.77V-580.72Z" fill="white" style="fill:white;fill-opacity:1;"/>
</mask>
<g mask="url(#mask1_164_317)">
<g opacity="0.1">
<path d="M2068.86 271.222L2021.18 63.4423C2025.95 60.6805 2028.98 55.1203 2028.48 49.0138C2027.82 40.7712 2020.98 34.6647 2013.21 35.376C2007.59 35.8897 2003.04 39.8458 2001.2 45.1167L1738.46 13.0922C1737.49 5.18795 1730.83 -0.580187 1723.27 0.110769C1715.51 0.820069 1709.76 8.07817 1710.43 16.3207C1710.61 18.6178 1711.29 20.7375 1712.32 22.6025L1534.52 168.735C1531.7 165.975 1527.86 164.422 1523.74 164.799C1518.18 165.308 1513.66 169.185 1511.79 174.368L1190.61 106.165C1190.62 105.591 1190.61 105.012 1190.57 104.425C1189.9 96.1821 1183.06 90.0757 1175.3 90.787C1167.53 91.4963 1161.78 98.7544 1162.45 106.997C1162.61 108.903 1163.1 110.684 1163.85 112.305L987.087 233.018C984.228 229.559 979.923 227.529 975.273 227.955C969.811 228.454 965.357 232.201 963.421 237.243L702.011 169.815C702.005 169.727 702.009 169.642 702.002 169.556C701.334 161.313 694.496 155.207 686.732 155.918C679.883 156.544 674.609 162.267 673.916 169.262L514.312 180.823C513.337 172.925 506.68 167.161 499.129 167.852C494.68 168.26 490.898 170.822 488.599 174.482L128.933 -39.025C129.842 -41.2365 130.258 -43.713 130.051 -46.2852C129.383 -54.5277 122.546 -60.6342 114.781 -59.9229C107.017 -59.2136 101.264 -51.9555 101.934 -43.713C102.08 -41.9132 102.535 -40.2235 103.215 -38.6765L-18.6185 55.2792C-21.4505 52.3686 -25.4019 50.7177 -29.6374 51.105C-37.4019 51.8163 -43.1542 59.0723 -42.4841 67.3149C-41.9772 73.5498 -37.9414 78.5557 -32.6441 80.3208L-68.838 256.985C-68.9398 256.991 -69.0415 256.987 -69.1433 256.998C-76.9078 257.709 -82.6601 264.965 -81.99 273.208C-81.5081 279.141 -77.8255 283.951 -72.9065 285.924L-118.43 517.087L-113.382 509.924L163.718 484.579C165.304 491.686 171.581 496.684 178.64 496.038C184.518 495.5 189.235 491.209 190.894 485.582L397.908 519.997C397.906 520.462 397.918 520.928 397.956 521.399C398.624 529.642 405.461 535.746 413.226 535.037C420.99 534.328 426.743 527.07 426.073 518.827C425.979 517.657 425.746 516.538 425.418 515.468L680.306 380.328C683.076 384.702 687.936 387.393 693.231 386.908C697.346 386.53 700.882 384.307 703.209 381.08L925.472 517.184C924.695 519.271 924.336 521.57 924.53 523.959C925.198 532.202 932.035 538.308 939.799 537.597C947.564 536.886 953.316 529.63 952.646 521.387C952.623 521.112 952.577 520.845 952.541 520.576L1275.01 419.03C1277.45 424.57 1282.93 428.188 1289 427.633C1292.12 427.348 1294.9 425.996 1297.08 423.96L1449.26 560.941C1447.71 563.59 1446.91 566.768 1447.18 570.117C1447.85 578.359 1454.69 584.464 1462.45 583.755C1467.78 583.267 1472.16 579.694 1474.17 574.835L1649.45 625.314C1649.34 626.304 1649.32 627.322 1649.4 628.355C1650.07 636.597 1656.91 642.704 1664.67 641.993C1672.44 641.283 1678.19 634.025 1677.52 625.783C1677.48 625.249 1677.41 624.727 1677.31 624.211L1985.46 508.699C1988.03 513.85 1993.33 517.146 1999.15 516.614C2006.91 515.904 2012.66 508.646 2011.99 500.404C2011.56 495.133 2008.61 490.749 2004.51 488.447L2066.56 300.699C2068.01 301.074 2069.54 301.221 2071.11 301.078C2078.87 300.369 2084.62 293.111 2083.95 284.868C2083.29 276.691 2076.55 270.623 2068.86 271.222ZM2007.03 63.0347L1949.79 187.127L1737.76 20.0649C1738.04 19.2435 1738.25 18.3916 1738.39 17.5151L1763.07 20.5235L2000.35 49.4458C2000.32 50.149 2000.31 50.8603 2000.37 51.5819C2000.77 56.494 2003.36 60.6296 2007.03 63.0347ZM1539.1 535.82L1847.57 395.558C1847.96 396.218 1848.39 396.844 1848.86 397.429L1671.05 614.456C1668.52 612.742 1665.47 611.851 1662.25 612.145C1658.57 612.481 1655.35 614.303 1653.04 616.994L1539.1 535.82ZM1735.78 23.9864L1947.93 191.149L1863.85 373.429C1862.13 372.848 1860.28 372.605 1858.37 372.781C1857.76 372.836 1857.17 372.946 1856.58 373.078L1733.21 26.7971C1734.19 25.9818 1735.04 25.0341 1735.78 23.9864ZM1873.63 386.418C1873.55 385.401 1873.37 384.419 1873.11 383.477L2054.86 294.14L1903.92 421.449L1871.87 395.046C1873.22 392.511 1873.89 389.535 1873.63 386.418ZM1900.58 424.268L1679.82 610.459L1851.99 400.317C1854.52 402.031 1857.57 402.922 1860.79 402.626C1864.12 402.321 1867.08 400.802 1869.33 398.521L1900.58 424.268ZM1535 532.895L1497.55 506.213C1498.59 503.889 1499.09 501.256 1498.87 498.506C1498.85 498.3 1498.82 498.103 1498.79 497.899L1829.48 398.992L1535 532.895ZM1530.45 534.962L1473.24 560.975C1471.94 558.735 1470.11 556.899 1467.95 555.656L1482.01 514.469C1483.3 514.747 1484.64 514.844 1486.02 514.718C1489.71 514.382 1492.92 512.56 1495.23 509.869L1530.45 534.962ZM1451.95 557.578L1299.77 420.597C1299.81 420.538 1299.84 420.481 1299.87 420.422L1471.14 496.134C1470.77 497.709 1470.61 499.37 1470.75 501.078C1471.18 506.294 1474.07 510.648 1478.11 512.965L1464.05 554.152C1462.76 553.874 1461.41 553.776 1460.03 553.903C1456.91 554.19 1454.13 555.542 1451.95 557.578ZM1276.33 403.986L1072.65 292.86L1171.77 119.805C1173.62 120.508 1175.63 120.822 1177.72 120.633C1178.66 120.547 1179.57 120.36 1180.45 120.09L1280.89 399.657C1279.08 400.737 1277.53 402.219 1276.33 403.986ZM1358.01 340.624L1296.61 401.03C1293.88 398.707 1290.35 397.439 1286.58 397.783C1285.96 397.841 1285.36 397.953 1284.76 398.091L1184.23 118.25C1184.31 118.191 1184.39 118.124 1184.47 118.062L1358.01 340.624ZM1360.66 344.021L1474.32 489.797C1473.73 490.5 1473.2 491.26 1472.74 492.071L1301.47 416.366C1301.84 414.792 1301.99 413.131 1301.85 411.423C1301.63 408.755 1300.77 406.32 1299.43 404.257L1360.66 344.021ZM1363.71 341.023L1515.94 191.245C1517.41 192.539 1519.13 193.509 1521 194.088L1514.4 246.802L1484.59 484.832C1484.26 484.838 1483.93 484.838 1483.6 484.868C1481.37 485.072 1479.31 485.83 1477.52 486.984L1363.71 341.023ZM1536.08 188.901L1613.16 236.876L1489.49 485.671C1489.23 485.576 1488.97 485.49 1488.71 485.411L1518.66 246.205L1525.11 194.687C1525.46 194.683 1525.81 194.679 1526.16 194.646C1530.24 194.273 1533.76 192.082 1536.08 188.901ZM1616.74 239.106L1846.5 382.116C1845.69 384.229 1845.32 386.563 1845.52 388.991C1845.53 389.196 1845.57 389.394 1845.6 389.598L1497.67 493.661C1496.66 491.281 1495.1 489.249 1493.15 487.734L1616.74 239.106ZM1618.68 235.209L1720.93 29.5182C1722.45 29.9381 1724.05 30.1113 1725.7 29.9605C1727.06 29.8361 1728.35 29.4998 1729.56 29.0045L1852.7 374.635C1851.11 375.579 1849.72 376.833 1848.6 378.319L1618.68 235.209ZM1951.32 193.819L2058.1 277.955C2056.43 280.663 2055.56 283.961 2055.84 287.44C2055.87 287.877 2055.94 288.303 2056 288.727L1871.37 379.48C1870.37 377.858 1869.07 376.462 1867.58 375.367L1951.32 193.819ZM2000.6 486.99C1999.35 486.737 1998.05 486.646 1996.72 486.766C1993.39 487.072 1990.43 488.59 1988.19 490.871L1907.29 424.227L2059.3 296.021C2060.28 297.21 2061.44 298.227 2062.72 299.034L2000.6 486.99ZM1675.94 620.057C1675.86 619.894 1675.76 619.743 1675.67 619.584L1903.95 427.048L1985.64 494.346C1984.29 496.882 1983.62 499.857 1983.88 502.976C1983.92 503.51 1983.99 504.032 1984.08 504.547L1675.94 620.057ZM1475.26 570.584C1475.37 569.593 1475.38 568.576 1475.3 567.543C1475.23 566.674 1475.08 565.839 1474.87 565.023L1534.56 537.884L1650.73 620.646C1650.66 620.785 1650.59 620.919 1650.53 621.062L1475.26 570.584ZM951.365 516.351C950.478 514.329 949.194 512.558 947.61 511.159L1070.49 296.633L1274.44 407.895C1273.83 409.799 1273.56 411.861 1273.74 413.993C1273.76 414.269 1273.8 414.534 1273.84 414.805L951.365 516.351ZM144.405 119.665C141.147 120.924 138.478 123.394 136.853 126.541L40.1527 88.7447L109.603 -31.659C111.41 -30.6826 113.426 -30.1038 115.547 -30.0345L144.405 119.665ZM419.497 507.431C418.942 507.061 418.368 506.722 417.765 506.437L499.01 197.675C499.843 197.759 500.692 197.777 501.554 197.698C504.169 197.459 506.544 196.465 508.535 194.952L599.449 284.008L419.497 507.431ZM405.525 506.81L308.219 363.735L491.927 194.777C492.866 195.519 493.887 196.141 494.978 196.617L413.767 505.251C412.802 505.122 411.809 505.096 410.799 505.187C408.9 505.361 407.12 505.931 405.525 506.81ZM305.783 360.15L159.083 144.447C160.813 142.654 162.09 140.395 162.775 137.888L486.307 184.229C486.562 187.015 487.532 189.545 488.995 191.648L305.783 360.15ZM302.636 363.046L186.616 469.751C184.337 467.676 181.44 466.382 178.301 466.178L152.496 148.279C153.632 147.994 154.715 147.576 155.719 147.024L302.636 363.046ZM10.0586 334.819L142.535 146.901C144.297 147.912 146.277 148.524 148.362 148.658L174.165 466.557C171.761 467.162 169.618 468.404 167.883 470.101L10.0586 334.819ZM6.82919 332.051L-55.3807 278.725C-54.2153 276.31 -53.6412 273.536 -53.8755 270.631C-54.0022 269.062 -54.3574 267.57 -54.895 266.188L138.334 143.228C138.612 143.587 138.906 143.934 139.213 144.264L6.82919 332.051ZM4.34086 335.579L-110.542 498.543L-68.8534 286.849C-68.1526 286.896 -67.4441 286.908 -66.7241 286.843C-63.1894 286.519 -60.0828 284.832 -57.798 282.318L4.34086 335.579ZM-58.879 260.434L37.9428 92.5745L135.421 130.673C135.149 132.065 135.053 133.52 135.173 135.01C135.3 136.563 135.646 138.041 136.176 139.413L-57.535 261.818C-57.9574 261.329 -58.399 260.86 -58.879 260.434ZM514.247 185.238L674.087 173.659C674.836 177.835 677.203 181.327 680.411 183.485L602.146 280.659L511.522 191.887C512.909 189.967 513.861 187.696 514.247 185.238ZM796.733 321.856L703.887 363.888C701.737 360.341 698.229 357.867 694.212 357.198L694.976 280.109L695.938 183.171C696.969 182.417 697.904 181.528 698.709 180.52L796.733 321.856ZM605.195 283.645L684.39 185.32C685.904 185.739 687.506 185.911 689.155 185.76C690.055 185.678 690.927 185.499 691.766 185.248L690.829 279.726L690.061 357.166C687.527 357.541 685.229 358.609 683.332 360.186L605.195 283.645ZM862.686 215.787L962.444 241.519C962.371 242.384 962.354 243.264 962.427 244.161C962.496 245.019 962.647 245.849 962.845 246.656L800.655 320.082L701.022 176.433C701.289 175.732 701.512 175.006 701.677 174.26L862.686 215.787ZM931.981 509.433L803.182 323.725L964.471 250.708C966.28 253.826 969.118 256.16 972.447 257.218L938.521 507.705C938.142 507.707 937.762 507.713 937.378 507.747C935.427 507.927 933.607 508.518 931.981 509.433ZM987.941 251.6L1066.79 294.615L944.066 508.872C943.599 508.662 943.117 508.485 942.628 508.33L947.024 475.861L976.554 257.844C976.932 257.841 977.312 257.835 977.696 257.801C981.968 257.407 985.622 255.029 987.941 251.6ZM705.223 377.226C705.938 375.204 706.264 372.991 706.078 370.696C705.999 369.733 705.83 368.802 705.592 367.905L799.261 325.5L928.646 512.048C928.254 512.462 927.892 512.908 927.548 513.367L705.223 377.226ZM423.563 511.526C423.279 511.096 422.974 510.686 422.651 510.293L602.5 286.998L680.475 363.38C678.633 366.163 677.666 369.617 677.961 373.27C678.048 374.336 678.242 375.365 678.524 376.35L423.563 511.526ZM191.533 481.228C191.537 480.763 191.524 480.297 191.487 479.826C191.285 477.337 190.514 475.048 189.331 473.079L305.074 366.629L402.163 509.386C400.502 511.106 399.252 513.255 398.55 515.641L191.533 481.228ZM-110.053 505.198L7.57223 338.349L165.275 473.526C164.171 475.513 163.499 477.783 163.361 480.189L-110.053 505.198ZM-28.5411 81.0016C-28.1033 81.0056 -27.6617 80.9913 -27.2162 80.9505C-21.7769 80.4532 -17.3359 76.7376 -15.3871 71.7276L33.9741 91.0214L-62.4175 258.135C-63.1414 257.809 -63.8959 257.548 -64.6716 257.352L-28.5411 81.0016ZM105.506 -35.0016C105.734 -34.7326 105.968 -34.4717 106.214 -34.221L36.1841 87.1916L-14.3887 67.425C-14.3119 66.5465 -14.2947 65.6517 -14.3695 64.7427C-14.5462 62.574 -15.1567 60.5603 -16.0918 58.7727L105.506 -35.0016ZM486.833 178.473C486.708 178.913 486.601 179.358 486.516 179.812L331.254 157.573L163.326 133.52C163.323 133.162 163.321 132.801 163.29 132.438C162.633 124.356 156.046 118.346 148.469 118.784L119.683 -30.5522C122.488 -31.3573 124.923 -33.0347 126.729 -35.287L486.833 178.473ZM1166.21 115.928C1166.79 116.587 1167.42 117.186 1168.11 117.724L1068.95 290.842L989.84 247.687C990.451 245.783 990.714 243.721 990.541 241.589C990.401 239.852 989.973 238.222 989.334 236.717L1166.21 115.928ZM1510.89 178.669C1510.84 179.437 1510.83 180.216 1510.9 181.007C1511.1 183.585 1511.92 185.956 1513.17 187.973L1361.06 337.625L1187.52 115.056C1188.54 113.703 1189.34 112.166 1189.87 110.501L1510.89 178.669ZM1714.93 26.0308C1715.6 26.6871 1716.32 27.2721 1717.1 27.7796L1615.1 232.977L1538.12 185.063C1538.86 183.014 1539.2 180.768 1539.01 178.437C1538.83 176.141 1538.15 174.022 1537.12 172.159L1714.93 26.0308ZM2017.26 64.9648L2064.82 272.188C2063.37 272.784 2062.04 273.619 2060.87 274.653L1953.18 189.795L2010.85 64.7733C2012.37 65.1972 2013.98 65.3745 2015.64 65.2217C2016.19 65.1727 2016.73 65.079 2017.26 64.9648Z" fill="#0366A0" style="fill:#0366A0;fill:color(display-p3 0.0118 0.4000 0.6275);fill-opacity:1;"/>
</g>
</g>
<mask id="mask2_164_317" style="mask-type:luminance" maskUnits="userSpaceOnUse" x="-1" y="-581" width="1921" height="2039">
<path d="M1919.77 -580.72H-0.226562V1457.5H1919.77V-580.72Z" fill="white" style="fill:white;fill-opacity:1;"/>
</mask>
<g mask="url(#mask2_164_317)">
<g opacity="0.3">
<path d="M3226.47 473.64L3142.27 144.319C3149.75 139.7 3154.38 130.699 3153.35 120.979C3151.96 107.861 3140.81 98.4242 3128.46 99.8999C3119.5 100.97 3112.4 107.482 3109.67 115.969L2689.32 76.4971C2687.46 63.9335 2676.62 55.0265 2664.59 56.4635C2652.24 57.9391 2643.35 69.7689 2644.74 82.8869C2645.12 86.5414 2646.29 89.8943 2648.01 92.8212L2370.12 333.771C2365.53 329.493 2359.33 327.188 2352.78 327.97C2343.92 329.028 2336.88 335.412 2334.09 343.763L1819.1 249.165C1819.1 248.248 1819.07 247.322 1818.97 246.389C1817.58 233.271 1806.43 223.834 1794.08 225.309C1781.72 226.785 1772.83 238.615 1774.22 251.733C1774.54 254.764 1775.4 257.587 1776.66 260.137L1499.44 460.495C1494.75 455.104 1487.8 452.057 1480.4 452.94C1471.71 453.977 1464.75 460.149 1461.86 468.277L1042.25 372.275C1042.24 372.137 1042.24 372 1042.22 371.861C1040.83 358.743 1029.69 349.307 1017.33 350.782C1006.43 352.085 998.244 361.444 997.413 372.634L743.285 398.128C741.419 385.573 730.575 376.674 718.558 378.111C711.477 378.956 705.546 383.21 702.025 389.152L119.948 64.4879C121.309 60.921 121.877 56.9526 121.443 52.8578C120.053 39.7399 108.91 30.3029 96.5525 31.7786C84.1954 33.2542 75.3058 45.0841 76.6959 58.2021C76.9993 61.0678 77.7903 63.7399 78.9365 66.1797L-111.716 221.431C-116.349 216.914 -122.715 214.456 -129.456 215.261C-141.814 216.737 -150.703 228.567 -149.313 241.685C-148.261 251.607 -141.625 259.413 -133.108 261.993L-183.913 545.387C-184.077 545.403 -184.238 545.4 -184.401 545.42C-196.758 546.896 -205.648 558.725 -204.258 571.843C-203.257 581.286 -197.192 588.795 -189.27 591.726L-252.818 962.462L-245.046 950.815L195.959 898.142C198.768 909.409 208.974 917.103 220.212 915.76C229.564 914.643 236.922 907.589 239.347 898.539L570.902 944.285C570.915 945.025 570.952 945.769 571.032 946.519C572.423 959.637 583.566 969.074 595.923 967.598C608.28 966.122 617.17 954.293 615.78 941.175C615.582 939.314 615.169 937.538 614.603 935.845L1015.87 709.021C1020.46 715.874 1028.32 719.95 1036.75 718.946C1043.3 718.163 1048.85 714.457 1052.44 709.209L1412.3 916.486C1411.14 919.851 1410.66 923.534 1411.06 927.335C1412.45 940.453 1423.6 949.89 1435.95 948.414C1448.31 946.939 1457.2 935.109 1455.81 921.991C1455.76 921.553 1455.68 921.131 1455.61 920.701L1966 744.476C1970.1 753.204 1978.99 758.736 1988.65 757.582C1993.61 756.989 1998 754.71 2001.4 751.366L2249.51 963.136C2247.14 967.433 2245.98 972.537 2246.55 977.867C2247.94 990.985 2259.08 1000.42 2271.44 998.946C2279.92 997.933 2286.77 992.04 2289.78 984.201L2571.34 1056.97C2571.21 1058.56 2571.22 1060.18 2571.39 1061.83C2572.78 1074.94 2583.93 1084.38 2596.28 1082.91C2608.64 1081.43 2617.53 1069.6 2616.14 1056.48C2616.05 1055.63 2615.91 1054.8 2615.75 1053.99L3102.74 856.12C3107.05 864.224 3115.62 869.244 3124.88 868.137C3137.24 866.661 3146.12 854.832 3144.73 841.714C3143.85 833.326 3138.96 826.462 3132.33 822.974L3223.94 520.757C3226.27 521.291 3228.71 521.459 3231.21 521.161C3243.57 519.685 3252.46 507.855 3251.07 494.738C3249.69 481.723 3238.71 472.346 3226.47 473.64ZM3119.67 144.294L3033.23 344.761L2688.49 87.6543C2688.9 86.3315 2689.2 84.9638 2689.38 83.5595L2728.88 87.2691L3108.49 122.92C3108.46 124.045 3108.48 125.178 3108.6 126.327C3109.43 134.138 3113.73 140.621 3119.67 144.294ZM2391.83 919.103L2878.36 681.74C2879 682.777 2879.71 683.756 2880.49 684.669L2605.37 1038.7C2601.28 1036.08 2596.38 1034.79 2591.25 1035.41C2585.39 1036.11 2580.33 1039.15 2576.75 1043.55L2391.83 919.103ZM2685.47 93.9932L3030.43 351.257L2903.46 645.725C2900.69 644.873 2897.72 644.569 2894.68 644.932C2893.71 645.048 2892.78 645.248 2891.85 645.486L2681.49 98.5873C2683.01 97.2502 2684.34 95.6971 2685.47 93.9932ZM2919.58 666.011C2919.41 664.393 2919.08 662.833 2918.63 661.341L3205.03 510.811L2969.26 720.552L2917.1 679.855C2919.15 675.75 2920.1 670.974 2919.58 666.011ZM2964.04 725.197L2619.21 1031.94L2885.6 689.139C2889.7 691.762 2894.6 693.046 2899.72 692.434C2905.03 691.801 2909.69 689.247 2913.18 685.509L2964.04 725.197ZM2385.17 914.621L2324.38 873.716C2325.95 869.963 2326.65 865.742 2326.19 861.366C2326.16 861.038 2326.09 860.724 2326.04 860.4L2849.64 688.024L2385.17 914.621ZM2378 918.116L2287.76 962.138C2285.6 958.624 2282.61 955.774 2279.1 953.885L2299.92 887.567C2301.99 887.953 2304.14 888.051 2306.33 887.788C2312.2 887.086 2317.26 884.039 2320.83 879.647L2378 918.116ZM2253.66 957.66L2005.55 745.891C2005.6 745.797 2005.66 745.703 2005.71 745.608L2281.86 858.806C2281.33 861.334 2281.15 863.991 2281.44 866.71C2282.32 875.01 2287.11 881.826 2293.64 885.348L2272.82 951.665C2270.75 951.28 2268.6 951.182 2266.41 951.445C2261.45 952.036 2257.07 954.317 2253.66 957.66ZM1967.52 720.429L1638.26 552.177L1789.59 271.758C1792.57 272.798 1795.79 273.21 1799.11 272.814C1800.61 272.635 1802.05 272.299 1803.44 271.83L1974.61 713.322C1971.77 715.124 1969.35 717.558 1967.52 720.429ZM2095.32 615.751L1999.75 714.816C1995.3 711.229 1989.61 709.366 1983.62 710.081C1982.63 710.2 1981.68 710.407 1980.73 710.652L1809.39 268.724C1809.53 268.626 1809.65 268.516 1809.79 268.414L2095.32 615.751ZM2099.67 621.052L2286.69 848.554C2285.77 849.701 2284.96 850.939 2284.25 852.251L2008.09 739.061C2008.63 736.533 2008.8 733.878 2008.52 731.159C2008.07 726.913 2006.58 723.065 2004.38 719.836L2099.67 621.052ZM2104.42 616.136L2341.37 370.5C2343.77 372.499 2346.55 373.971 2349.55 374.813L2341.08 459.189L2302.88 840.183C2302.35 840.207 2301.83 840.224 2301.3 840.287C2297.75 840.711 2294.5 842.011 2291.68 843.931L2104.42 616.136ZM2373.41 365.873L2498.23 438.992L2310.72 841.306C2310.3 841.163 2309.89 841.041 2309.46 840.923L2347.86 458.046L2356.13 375.585C2356.69 375.563 2357.24 375.542 2357.81 375.475C2364.3 374.699 2369.82 371.048 2373.41 365.873ZM2504.03 442.39L2876.12 660.349C2874.92 663.757 2874.42 667.497 2874.83 671.357C2874.86 671.685 2874.93 671.999 2874.98 672.323L2324.09 853.686C2322.39 849.932 2319.81 846.76 2316.65 844.431L2504.03 442.39ZM2506.97 436.086L2662 103.473C2664.44 104.076 2667 104.28 2669.63 103.966C2671.79 103.707 2673.84 103.114 2675.76 102.27L2885.73 648.138C2883.23 649.713 2881.06 651.774 2879.32 654.195L2506.97 436.086ZM3035.94 355.366L3209.56 484.852C3207 489.249 3205.74 494.546 3206.32 500.082C3206.4 500.775 3206.51 501.453 3206.64 502.126L2915.69 655.045C2914.02 652.502 2911.91 650.331 2909.48 648.651L3035.94 355.366ZM3126.03 820.824C3124.04 820.473 3121.96 820.386 3119.85 820.638C3114.54 821.272 3109.88 823.826 3106.39 827.562L2974.75 724.836L3212.19 513.62C3213.8 515.47 3215.68 517.044 3217.75 518.273L3126.03 820.824ZM2613.39 1047.42C2613.26 1047.17 2613.1 1046.93 2612.95 1046.68L2969.53 729.483L3102.47 833.22C3100.42 837.323 3099.47 842.099 3099.99 847.062C3100.08 847.91 3100.22 848.743 3100.39 849.559L2613.39 1047.42ZM2291.35 977.375C2291.49 975.79 2291.48 974.167 2291.3 972.522C2291.15 971.143 2290.88 969.814 2290.52 968.523L2384.66 922.598L2573.21 1049.48C2573.11 1049.7 2573 1049.92 2572.91 1050.15L2291.35 977.375ZM1453.57 914.019C1452.08 910.834 1449.96 908.066 1447.38 905.903L1634.97 558.285L1964.64 726.746C1963.74 729.809 1963.4 733.111 1963.77 736.505C1963.81 736.943 1963.9 737.365 1963.97 737.793L1453.57 914.019ZM150.848 316.927C145.701 319.08 141.54 323.14 139.073 328.229L-16.6564 272.213L89.4005 77.0902C92.3189 78.5679 95.558 79.4016 98.9467 79.4179L150.848 316.927ZM604.848 923.293C603.947 922.727 603.018 922.213 602.046 921.783L719.531 425.691C720.864 425.787 722.217 425.778 723.592 425.613C727.752 425.116 731.504 423.424 734.618 420.928L883.125 558.964L604.848 923.293ZM582.537 922.92L421.718 699.004L708.122 421.384C709.649 422.525 711.302 423.471 713.061 424.185L595.626 920.067C594.078 919.906 592.496 919.906 590.889 920.097C587.863 920.458 585.048 921.449 582.537 922.92ZM417.688 693.392L175.232 355.81C177.922 352.873 179.871 349.215 180.864 345.183L698.741 404.805C699.26 409.238 700.901 413.229 703.319 416.521L417.688 693.392ZM412.782 698.15L231.903 873.479C228.188 870.269 223.514 868.333 218.497 868.149L164.876 362.215C166.677 361.709 168.387 360.996 169.969 360.07L412.782 698.15ZM-55.0103 666.054L148.934 360.456C151.783 361.99 154.965 362.877 158.3 362.999L211.921 868.934C208.112 870.004 204.743 872.079 202.039 874.863L-55.0103 666.054ZM-60.2712 661.784L-161.591 579.474C-159.827 575.569 -159.019 571.12 -159.51 566.497C-159.775 563.998 -160.397 561.636 -161.311 559.453L142.085 354.785C142.544 355.346 143.024 355.886 143.529 356.398L-60.2712 661.784ZM-64.0996 667.519L-240.959 932.537L-182.763 593.024C-181.644 593.069 -180.513 593.057 -179.367 592.921C-173.741 592.248 -168.851 589.417 -165.305 585.308L-64.0996 667.519ZM-167.887 550.45L-20.0299 278.421L136.949 334.886C136.569 337.12 136.475 339.446 136.725 341.816C136.986 344.288 137.596 346.63 138.495 348.793L-165.691 552.6C-166.382 551.836 -167.108 551.108 -167.887 550.45ZM743.347 405.18L997.85 379.645C999.21 386.274 1003.12 391.738 1008.32 395.038L887.295 553.497L739.261 415.901C741.4 412.785 742.828 409.12 743.347 405.18ZM1199.29 610.616L1052.85 681.762C1049.28 676.2 1043.59 672.409 1037.15 671.518L1035.35 548.52L1033.08 393.854C1034.69 392.604 1036.15 391.145 1037.39 389.504L1199.29 610.616ZM892.279 558.132L1014.74 397.794C1017.18 398.395 1019.74 398.601 1022.36 398.287C1023.8 398.116 1025.18 397.792 1026.51 397.356L1028.72 548.094L1030.53 671.651C1026.5 672.362 1022.88 674.166 1019.92 676.767L892.279 558.132ZM1300.34 438.513L1460.47 475.148C1460.39 476.532 1460.39 477.937 1460.55 479.363C1460.69 480.731 1460.96 482.046 1461.31 483.324L1205.48 607.61L1040.93 382.878C1041.33 381.747 1041.66 380.583 1041.89 379.382L1300.34 438.513ZM1422.38 903.841L1209.65 613.311L1464.06 489.717C1467.07 494.613 1471.69 498.209 1477.04 499.749L1432.74 900.795C1432.14 900.816 1431.53 900.842 1430.92 900.916C1427.82 901.285 1424.94 902.308 1422.38 903.841ZM1501.53 490.105L1628.99 555.232L1441.64 902.412C1440.88 902.098 1440.11 901.835 1439.32 901.609L1445.06 849.624L1483.61 500.563C1484.22 500.542 1484.82 500.516 1485.43 500.444C1492.23 499.631 1497.97 495.675 1501.53 490.105ZM1055.5 702.978C1056.56 699.719 1056.99 696.179 1056.61 692.524C1056.44 690.991 1056.14 689.516 1055.72 688.095L1203.47 616.317L1417.16 908.162C1416.55 908.84 1415.99 909.566 1415.46 910.314L1055.5 702.978ZM611.493 929.644C611.024 928.972 610.521 928.332 609.989 927.716L888.107 563.595L1015.48 681.984C1012.65 686.503 1011.24 692.057 1011.86 697.868C1012.04 699.566 1012.39 701.199 1012.88 702.758L611.493 929.644ZM240.199 891.57C240.186 890.831 240.149 890.087 240.069 889.337C239.648 885.376 238.327 881.761 236.365 878.671L416.81 703.761L577.272 927.18C574.692 929.999 572.782 933.48 571.752 937.318L240.199 891.57ZM-239.916 943.129L-58.8369 671.793L198.015 880.442C196.333 883.662 195.348 887.311 195.223 891.157L-239.916 943.129ZM-126.532 262.9C-125.833 262.886 -125.131 262.847 -124.422 262.762C-115.767 261.728 -108.828 255.606 -105.915 247.528L-26.4235 276.122L-173.622 546.94C-174.79 546.451 -176.003 546.07 -177.247 545.791L-126.532 262.9ZM82.7362 71.9417C83.1106 72.3616 83.4946 72.7672 83.8959 73.1565L-23.0481 269.914L-104.491 240.619C-104.402 239.214 -104.41 237.787 -104.564 236.338C-104.93 232.888 -105.984 229.702 -107.545 226.891L82.7362 71.9417ZM699.358 395.603C699.177 396.31 699.024 397.025 698.903 397.753L450.372 369.14L181.572 338.194C181.551 337.621 181.534 337.049 181.472 336.47C180.109 323.607 169.365 314.31 157.297 315.344L105.523 78.409C109.964 77.0026 113.783 74.2184 116.576 70.5455L699.358 395.603ZM1780.57 265.819C1781.52 266.844 1782.56 267.772 1783.66 268.599L1632.29 549.119L1504.41 483.778C1505.31 480.715 1505.65 477.413 1505.29 474.021C1505 471.259 1504.25 468.675 1503.17 466.306L1780.57 265.819ZM2332.83 350.664C2332.78 351.893 2332.79 353.134 2332.92 354.394C2333.36 358.499 2334.75 362.243 2336.83 365.404L2100.06 610.836L1814.52 263.485C1816.09 261.282 1817.32 258.795 1818.1 256.115L2332.83 350.664ZM2652.29 98.1777C2653.39 99.1947 2654.57 100.096 2655.83 100.872L2501.17 432.688L2376.51 359.661C2377.61 356.361 2378.06 352.763 2377.67 349.05C2377.28 345.397 2376.12 342.046 2374.4 339.122L2652.29 98.1777ZM3136.07 146.92L3220.05 475.356C3217.76 476.369 3215.67 477.761 3213.85 479.461L3038.74 348.866L3125.83 146.899C3128.27 147.509 3130.85 147.719 3133.49 147.405C3134.37 147.299 3135.23 147.127 3136.07 146.92Z" fill="#0366A0" style="fill:#0366A0;fill:color(display-p3 0.0118 0.4000 0.6275);fill-opacity:1;"/>
</g>
</g>
<mask id="mask3_164_317" style="mask-type:luminance" maskUnits="userSpaceOnUse" x="-1" y="-581" width="1921" height="2039">
<path d="M1919.77 -580.72H-0.226562V1457.5H1919.77V-580.72Z" fill="white" style="fill:white;fill-opacity:1;"/>
</mask>
<g mask="url(#mask3_164_317)">
<path d="M1931.85 144.726C1929.75 137.379 1922.43 133.229 1915.51 135.461C1914.11 135.911 1912.84 136.598 1911.71 137.452L1797.23 -1.63613C1800.02 -5.11944 1801.14 -9.98063 1799.8 -14.6787C1797.7 -22.0265 1790.38 -26.1763 1783.46 -23.9444C1778.27 -22.2731 1774.78 -17.4955 1774.24 -12.1147L1471.13 1.16232C1471.05 0.685377 1470.94 0.208456 1470.8 -0.266449C1468.7 -7.61423 1461.39 -11.764 1454.46 -9.53217C1447.54 -7.30032 1443.63 0.463212 1445.74 7.81303C1446 8.7343 1446.35 9.60465 1446.76 10.4179L1312.1 118.101C1308.79 114.648 1303.86 113.175 1299.11 114.705C1292.18 116.937 1288.28 124.703 1290.38 132.051C1291.23 135.037 1292.95 137.48 1295.15 139.197L1208.51 312.971C1205.96 312.015 1203.13 311.868 1200.35 312.765C1194.94 314.508 1191.38 319.638 1191.09 325.302L880.174 355.861C880.116 355.615 880.07 355.37 880.001 355.123C877.898 347.776 870.585 343.626 863.662 345.858C856.74 348.087 852.831 355.853 854.933 363.203C855.542 365.333 856.6 367.182 857.948 368.698L710.616 567.379C707.562 565.451 703.791 564.83 700.124 566.012C695.402 567.534 692.086 571.631 691.121 576.415L427.541 553.275C427.476 552.234 427.313 551.184 427.013 550.14C424.913 542.792 417.598 538.643 410.674 540.874C403.751 543.106 399.843 550.87 401.946 558.22C402.067 558.64 402.207 559.047 402.36 559.445L235.13 664.904C231.872 660.66 226.412 658.69 221.172 660.379C214.878 662.407 211.092 669.013 212.035 675.719L-35.0156 755.33L-41.6934 751.007L72.6465 933.562C69.0484 937.063 67.4375 942.558 68.9505 947.848C71.0529 955.195 78.3662 959.345 85.2897 957.113C85.3818 957.083 85.4663 957.042 85.5566 957.011L174.149 1096.01C170.158 1099.47 168.305 1105.27 169.894 1110.83C171.995 1118.17 179.312 1122.32 186.234 1120.09C190.01 1118.87 192.879 1116 194.374 1112.46L329.902 1148.82C329.819 1150.41 329.975 1152.03 330.433 1153.63C332.534 1160.98 339.851 1165.13 346.773 1162.9C353.694 1160.67 357.603 1152.9 355.501 1145.55C354.844 1143.26 353.681 1141.28 352.179 1139.71L592.784 824.007C595.954 826.321 600.046 827.144 604.012 825.866C610.744 823.696 614.609 816.293 612.883 809.128L754.191 760.654C757.061 766.43 763.466 769.43 769.572 767.461C776.494 765.231 780.403 757.464 778.3 750.116C778.277 750.038 778.246 749.967 778.223 749.89L981.607 596.061C984.913 599.699 989.969 601.295 994.84 599.726C998.985 598.391 1002.04 595.063 1003.38 591.037L1194.94 630.35C1194.82 632.02 1194.97 633.738 1195.45 635.438C1197.56 642.785 1204.87 646.935 1211.79 644.703C1218.72 642.472 1222.62 634.706 1220.52 627.358C1220.37 626.834 1220.19 626.333 1219.99 625.844L1474.64 449.46C1477.94 453.241 1483.09 454.929 1488.05 453.331C1491.72 452.149 1494.53 449.401 1496.06 445.993L1696.78 506.832C1696.49 508.815 1696.6 510.892 1697.18 512.941C1699.28 520.288 1706.6 524.438 1713.52 522.206C1720.26 520.036 1724.12 512.627 1722.39 505.458L1938.43 381.655C1941.72 385.523 1946.93 387.268 1951.94 385.652C1958.87 383.422 1962.78 375.656 1960.67 368.307C1959.12 362.863 1954.69 359.182 1949.69 358.544L1923.28 162.012C1930.1 159.711 1933.93 152.017 1931.85 144.726ZM1935.61 376.382C1935.79 377.026 1936.03 377.636 1936.29 378.229L1741.19 490.037L1720.89 501.669C1720.49 500.964 1720.03 500.306 1719.53 499.7L1847.98 278.089L1937.63 364.077C1935.25 367.491 1934.36 372.006 1935.61 376.382ZM1452.56 16.2676C1455.43 17.7412 1458.79 18.1325 1462.08 17.0747C1464.95 16.1494 1467.29 14.266 1468.91 11.863L1692.66 133.797C1692.45 134.474 1692.28 135.171 1692.16 135.88L1380.74 127.946L1452.56 16.2676ZM1713.42 495.565L1707.23 151.956C1707.78 151.858 1708.32 151.736 1708.86 151.56C1710.57 151.01 1712.09 150.124 1713.38 148.992L1845.07 275.301L1716.54 497.049C1715.57 496.415 1714.52 495.911 1713.42 495.565ZM1713.27 127.426L1732.31 92.9372L1903.77 147.388L1718.1 136.942C1718.02 136.035 1717.85 135.122 1717.59 134.217C1716.8 131.435 1715.25 129.118 1713.27 127.426ZM1709.95 125.361C1707.27 124.218 1704.23 123.991 1701.25 124.949C1698.39 125.875 1696.05 127.758 1694.42 130.161L1477.77 12.0954L1728.51 91.7305L1709.95 125.361ZM1675.45 139.545L1358.32 175.387C1358.27 175.204 1358.24 175.018 1358.19 174.835C1357.49 172.383 1356.2 170.3 1354.54 168.677L1378.15 131.969L1675.45 139.545ZM1351.36 166.374C1348.5 164.901 1345.13 164.509 1341.85 165.567C1340.62 165.962 1339.49 166.541 1338.47 167.253L1312.97 136.906C1314.43 135.039 1315.41 132.786 1315.81 130.379L1373.57 131.851L1351.36 166.374ZM1306.72 141.312C1307.95 140.917 1309.07 140.338 1310.1 139.627L1335.6 169.974C1332.87 173.449 1331.79 178.261 1333.12 182.912C1333.56 184.435 1334.23 185.813 1335.06 187.032L1212.06 314.993C1212.01 314.954 1211.96 314.918 1211.91 314.879L1298.56 141.104C1301.1 142.062 1303.94 142.209 1306.72 141.312ZM1202.44 339.843L1206.71 617.558C1205.87 617.648 1205.02 617.819 1204.19 618.09C1202.32 618.69 1200.69 619.698 1199.33 620.98L1057.67 508.13L1197.11 337.778C1198.71 338.865 1200.53 339.574 1202.44 339.843ZM1210.84 617.831C1210.75 617.809 1210.66 617.783 1210.57 617.762L1206.29 339.772C1206.85 339.674 1207.4 339.549 1207.96 339.372C1211.31 338.292 1213.95 335.905 1215.55 332.903L1288.09 362.481L1210.84 617.831ZM1216.93 329.087C1217.41 326.823 1217.37 324.405 1216.69 322.027C1216.25 320.504 1215.58 319.129 1214.75 317.908L1337.76 189.95C1338.42 190.48 1339.12 190.941 1339.86 191.33L1289.27 358.582L1216.93 329.087ZM1343.53 192.582C1345.45 192.918 1347.47 192.82 1349.46 192.178C1349.76 192.082 1350.04 191.962 1350.33 191.848L1453.35 386.078L1476.17 429.092C1474.75 430.275 1473.58 431.74 1472.74 433.393L1292.87 360.052L1343.53 192.582ZM1480.44 426.72C1480.12 426.822 1479.82 426.948 1479.52 427.073L1457.22 385.034L1353.69 189.844C1353.89 189.679 1354.08 189.51 1354.27 189.333L1541.7 358.468L1490.86 428.037C1487.82 426.149 1484.08 425.548 1480.44 426.72ZM1356.76 186.214C1357.94 184.198 1358.64 181.873 1358.73 179.451L1692.4 141.742C1692.44 141.926 1692.47 142.111 1692.53 142.295C1693.14 144.457 1694.22 146.334 1695.6 147.861L1544.06 355.236L1356.76 186.214ZM1698.64 150.368C1700.1 151.236 1701.71 151.807 1703.38 152.039L1709.55 495.004C1708.35 495.021 1707.12 495.204 1705.91 495.595C1704.44 496.068 1703.12 496.804 1701.95 497.721L1546.99 357.889L1698.64 150.368ZM1715.96 145.959C1716.9 144.467 1717.56 142.792 1717.9 141.025L1906.51 151.636C1906.58 152.025 1906.67 152.417 1906.78 152.804C1907.67 155.906 1909.49 158.427 1911.81 160.15L1847.12 271.758L1715.96 145.959ZM1908.94 140.293C1908.1 141.459 1907.44 142.755 1906.98 144.139L1734.32 89.3051L1782.38 2.25072C1785.05 3.39416 1788.1 3.6204 1791.07 2.66243C1792.26 2.28129 1793.34 1.72694 1794.34 1.05229L1908.94 140.293ZM1774.4 -8.03411C1774.49 -7.55717 1774.6 -7.08023 1774.73 -6.60329C1775.53 -3.82316 1777.07 -1.50366 1779.05 0.188058L1730.52 88.0985L1471.22 5.75036C1471.25 5.58119 1471.28 5.41612 1471.3 5.24491L1774.4 -8.03411ZM1449.08 13.6791C1449.18 13.7789 1449.28 13.8686 1449.38 13.9664L1376.15 127.829L1315.9 126.295C1315.8 125.52 1315.66 124.742 1315.44 123.969C1315.18 123.048 1314.83 122.177 1314.42 121.364L1449.08 13.6791ZM1191.45 329.369C1191.5 329.615 1191.55 329.86 1191.62 330.106C1192.16 332.006 1193.06 333.687 1194.2 335.106L1054.58 505.672L878.981 365.777C879.891 363.992 880.423 361.994 880.531 359.928L1191.45 329.369ZM337.724 1136.86C335.917 1137.7 334.366 1138.93 333.127 1140.44L234.153 1062.1L305.212 994.117C307.633 996.235 310.736 997.387 313.954 997.278L337.724 1136.86ZM652.728 689.024L603.311 799.064C601.105 798.489 598.734 798.503 596.403 799.253C595.633 799.502 594.908 799.828 594.216 800.205L423.878 563.851C424.304 563.385 424.688 562.883 425.047 562.359L652.728 689.024ZM418.285 567.479C419.185 567.19 420.03 566.803 420.821 566.338L591.089 802.592C590.303 803.403 589.626 804.312 589.057 805.297L375.836 726.947L413.208 568.011C414.869 568.185 416.59 568.026 418.285 567.479ZM587.544 809.067C586.966 811.417 586.955 813.951 587.638 816.446L323.865 974.846C322.46 972.936 320.626 971.456 318.552 970.545L374.899 730.93L587.544 809.067ZM314.818 969.555C313.772 969.447 312.704 969.483 311.631 969.652L230.58 686.23C233.22 684.905 235.297 682.73 236.586 680.105L371.245 729.585L314.818 969.555ZM220.329 686.664C222.378 687.492 224.628 687.777 226.895 687.418L307.946 970.841C306.191 971.721 304.684 972.973 303.494 974.489L128.265 861.042L220.329 686.664ZM301.486 977.976C301.326 978.374 301.188 978.78 301.065 979.191L94.5825 943.973C94.5979 942.583 94.4193 941.17 94.018 939.77C93.2769 937.182 91.881 935.001 90.0916 933.346L126.38 864.611L301.486 977.976ZM86.843 931.134C84.057 929.805 80.8314 929.487 77.6788 930.502C77.0356 930.71 76.4289 930.979 75.8414 931.277L-28.8678 764.096L123.091 862.479L86.843 931.134ZM93.73 948.706L300.447 983.272C300.435 984.648 300.618 986.048 301.013 987.432C301.393 988.759 301.948 989.98 302.636 991.08L231.004 1059.61L93.0196 950.391C93.2942 949.849 93.5246 949.283 93.73 948.706ZM606.885 800.615L656.144 690.924L755.168 746.015C753.104 749.05 752.2 752.925 752.91 756.799L611.393 805.346C610.26 803.366 608.703 801.758 606.885 800.615ZM771.899 741.869C770.879 741.295 769.785 740.873 768.65 740.599L736.325 657.408L710.618 591.249C713.863 589.201 716.083 585.785 716.783 581.94L810.456 584.17L771.899 741.869ZM700.273 592.657C702.42 593.322 704.749 593.401 707.055 592.796L732.877 659.254L764.38 740.335C763.576 740.426 762.767 740.591 761.963 740.85C760.492 741.325 759.169 742.059 758 742.976L657.801 687.233L700.273 592.657ZM776.494 746.18C776.108 745.597 775.681 745.055 775.224 744.547L814.417 584.264L978.055 588.159C978.147 588.928 978.286 589.696 978.504 590.462C978.733 591.261 979.032 592.013 979.378 592.733L901.764 651.436L776.494 746.18ZM871.272 372.465C871.614 372.355 871.944 372.22 872.271 372.083L982.896 575.538C980.371 577.668 978.683 580.718 978.138 584.068L815.41 580.198L866.075 372.988C867.774 373.182 869.535 373.025 871.272 372.465ZM987.233 573.115C986.891 573.225 986.561 573.36 986.234 573.496L889.948 396.414L875.608 370.041C875.98 369.727 876.335 369.399 876.671 369.047L1052.05 508.764L998.077 574.705C994.963 572.601 991.04 571.888 987.233 573.115ZM860.974 371.219C861.419 371.49 861.876 371.741 862.35 371.953L811.453 580.102L716.949 577.854C716.862 576.994 716.707 576.13 716.461 575.271C715.875 573.225 714.875 571.438 713.602 569.956L860.974 371.219ZM690.877 580.489C690.954 581.441 691.121 582.399 691.393 583.351C692.325 586.606 694.281 589.231 696.773 590.953L654.389 685.333L426.839 558.741C426.988 558.283 427.119 557.818 427.224 557.345L690.877 580.489ZM404.327 562.954C405.709 564.754 407.483 566.146 409.474 567.023L372.182 725.606L237.845 676.245C238.223 674.115 238.147 671.859 237.511 669.641C237.39 669.221 237.25 668.813 237.096 668.416L404.327 562.954ZM213.154 679.624C214.054 681.648 215.372 683.358 216.969 684.667L124.974 858.91L-30.6092 758.183L213.154 679.624ZM89.0298 955.167C89.6346 954.714 90.2011 954.213 90.7175 953.667L228.088 1062.4L191.815 1097.1C188.507 1093.49 183.473 1091.92 178.625 1093.48C178.227 1093.61 177.843 1093.76 177.467 1093.92L89.0298 955.167ZM195.417 1108.52C195.642 1106.64 195.515 1104.68 194.962 1102.75C194.73 1101.93 194.424 1101.17 194.073 1100.44L231.235 1064.89L331.038 1143.88C330.908 1144.19 330.791 1144.5 330.681 1144.82L195.417 1108.52ZM349.067 1137.29C346.778 1136.01 344.135 1135.46 341.456 1135.79L317.744 996.547C324.416 994.15 328.141 986.557 326.081 979.352C325.989 979.028 325.873 978.718 325.76 978.407L462.67 896.189L589.255 820.172C589.476 820.532 589.714 820.877 589.964 821.209L349.067 1137.29ZM1004.11 587.022C1004.18 585.493 1004.01 583.93 1003.57 582.383C1003.03 580.483 1002.13 578.802 1000.99 577.383L1055.14 511.224L1196.85 624.117C1196.44 624.831 1196.08 625.579 1195.79 626.359L1004.11 587.022ZM1217.95 622.373C1216.95 621.131 1215.76 620.102 1214.44 619.309L1291.69 363.947L1471.41 437.225C1470.98 439.424 1471.05 441.764 1471.71 444.063C1471.91 444.768 1472.18 445.435 1472.47 446.079L1217.95 622.373ZM1497.18 442.088C1497.47 440.105 1497.36 438.03 1496.78 435.986C1496.18 433.907 1495.16 432.095 1493.86 430.601L1544.63 361.12L1699.21 500.618C1698.71 501.341 1698.27 502.112 1697.91 502.921L1497.18 442.088ZM1944.34 359.037C1942.86 359.514 1941.52 360.256 1940.35 361.179L1850.03 274.547L1915.27 161.982C1916.61 162.445 1918.03 162.679 1919.48 162.661L1945.82 358.664C1945.33 358.76 1944.83 358.878 1944.34 359.037Z" fill="#0366A0" style="fill:#0366A0;fill:color(display-p3 0.0118 0.4000 0.6275);fill-opacity:1;"/>
</g>
</g>
</svg>
