<svg width="99" height="98" viewBox="0 0 99 98" fill="none" xmlns="http://www.w3.org/2000/svg">
<path d="M29.7598 52.0625H45.0723C45.4784 52.0625 45.8679 51.9012 46.155 51.614C46.4422 51.3268 46.6035 50.9374 46.6035 50.5312V41.3438C46.6035 40.9376 46.4422 40.5482 46.155 40.261C45.8679 39.9738 45.4784 39.8125 45.0723 39.8125H29.7598C29.3537 39.8125 28.9642 39.9738 28.677 40.261C28.3898 40.5482 28.2285 40.9376 28.2285 41.3438V50.5312C28.2285 50.9374 28.3898 51.3268 28.677 51.614C28.9642 51.9012 29.3537 52.0625 29.7598 52.0625ZM31.291 42.875H43.541V49H31.291V42.875Z" fill="white"/>
<path d="M34.3535 55.125H28.2285V58.1875H34.3535V55.125Z" fill="white"/>
<path d="M46.6035 55.125H40.4785V58.1875H46.6035V55.125Z" fill="white"/>
<path d="M46.6035 61.25H28.2285V64.3125H46.6035V61.25Z" fill="white"/>
<path d="M31.291 67.375H28.2285V76.5625H31.291V67.375Z" fill="white"/>
<path d="M38.9473 67.375H35.8848V76.5625H38.9473V67.375Z" fill="white"/>
<path d="M46.6035 67.375H43.541V76.5625H46.6035V67.375Z" fill="white"/>
<path d="M75.6974 56.6565H69.9858L76.1108 50.0415L73.8445 47.959L65.4227 57.1465C65.2209 57.3655 65.0874 57.6386 65.0384 57.9323C64.9895 58.226 65.0272 58.5276 65.147 58.8002C65.2634 59.0671 65.4534 59.2952 65.6947 59.458C65.9361 59.6207 66.2189 59.7112 66.5099 59.719H72.2214L66.0964 66.334L68.3627 68.4165L76.7845 59.229C76.9863 59.01 77.1198 58.7369 77.1688 58.4432C77.2177 58.1495 77.18 57.8478 77.0602 57.5752C76.9438 57.3084 76.7538 57.0802 76.5125 56.9175C76.2711 56.7548 75.9883 56.6642 75.6974 56.6565Z" fill="white"/>
<path d="M87.9473 9.1875H35.8848V12.25H86.416V18.375H83.3535V16.8438C83.3535 16.4376 83.1922 16.0482 82.905 15.761C82.6179 15.4738 82.2284 15.3125 81.8223 15.3125H60.3848C59.9787 15.3125 59.5892 15.4738 59.302 15.761C59.0148 16.0482 58.8535 16.4376 58.8535 16.8438V22.9688C58.8535 23.3749 59.0148 23.7643 59.302 24.0515C59.5892 24.3387 59.9787 24.5 60.3848 24.5H63.4473V27.5625H11.3848C10.9787 27.5625 10.5892 27.7238 10.302 28.011C10.0148 28.2982 9.85352 28.6876 9.85352 29.0938V81.1562C9.85352 81.5624 10.0148 81.9518 10.302 82.239C10.5892 82.5262 10.9787 82.6875 11.3848 82.6875H14.4473V87.2812C14.4473 87.6874 14.6086 88.0768 14.8958 88.364C15.1829 88.6512 15.5724 88.8125 15.9785 88.8125H28.2285C28.6346 88.8125 29.0241 88.6512 29.3113 88.364C29.5984 88.0768 29.7598 87.6874 29.7598 87.2812V82.6875H69.5723V87.2812C69.5723 87.6874 69.7336 88.0768 70.0208 88.364C70.3079 88.6512 70.6974 88.8125 71.1035 88.8125H83.3535C83.7596 88.8125 84.1491 88.6512 84.4363 88.364C84.7234 88.0768 84.8848 87.6874 84.8848 87.2812V82.6875H87.9473C88.3534 82.6875 88.7429 82.5262 89.03 82.239C89.3172 81.9518 89.4785 81.5624 89.4785 81.1562V29.0938C89.4785 28.6876 89.3172 28.2982 89.03 28.011C88.7429 27.7238 88.3534 27.5625 87.9473 27.5625H78.7598V24.5H81.8223C82.2284 24.5 82.6179 24.3387 82.905 24.0515C83.1922 23.7643 83.3535 23.3749 83.3535 22.9688V21.4375H87.9473C88.3534 21.4375 88.7429 21.2762 89.03 20.989C89.3172 20.7018 89.4785 20.3124 89.4785 19.9062V10.7188C89.4785 10.3126 89.3172 9.92316 89.03 9.63599C88.7429 9.34883 88.3534 9.1875 87.9473 9.1875ZM26.6973 85.75H17.5098V82.6875H26.6973V85.75ZM22.1035 73.5H19.041V70.4375H22.1035V73.5ZM22.1035 42.875H19.041V39.8125H22.1035V42.875ZM58.8535 79.625H25.166V36.75H58.8535V79.625ZM61.916 79.625V36.75H80.291V79.625H61.916ZM81.8223 85.75H72.6348V82.6875H81.8223V85.75ZM86.416 30.625V79.625H83.3535V35.2188C83.3535 34.8126 83.1922 34.4232 82.905 34.136C82.6179 33.8488 82.2284 33.6875 81.8223 33.6875H23.6348C23.2287 33.6875 22.8392 33.8488 22.552 34.136C22.2648 34.4232 22.1035 34.8126 22.1035 35.2188V36.75H17.5098C17.1037 36.75 16.7142 36.9113 16.427 37.1985C16.1398 37.4857 15.9785 37.8751 15.9785 38.2812V44.4062C15.9785 44.8124 16.1398 45.2018 16.427 45.489C16.7142 45.7762 17.1037 45.9375 17.5098 45.9375H22.1035V67.375H17.5098C17.1037 67.375 16.7142 67.5363 16.427 67.8235C16.1398 68.1107 15.9785 68.5001 15.9785 68.9062V75.0312C15.9785 75.4374 16.1398 75.8268 16.427 76.114C16.7142 76.4012 17.1037 76.5625 17.5098 76.5625H22.1035V79.625H12.916V30.625H86.416ZM66.5098 27.5625V24.5H69.5723V27.5625H66.5098ZM72.6348 27.5625V24.5H75.6973V27.5625H72.6348ZM80.291 21.4375H61.916V18.375H80.291V21.4375Z" fill="white"/>
</svg>
