<svg width="80" height="80" viewBox="0 0 80 80" fill="none" xmlns="http://www.w3.org/2000/svg">
<path d="M12.0835 25H72.0835C73.9244 25 75.4168 26.4924 75.4168 28.3333V55C75.4168 56.8409 73.9244 58.3333 72.0835 58.3333H12.0835V25Z" stroke="white" stroke-width="3.4375"/>
<path d="M12.0832 68.3337V15.8337C12.0832 14.9132 11.337 14.167 10.4165 14.167H4.1665M45.4165 59.167V60.8337M52.0832 59.167V60.8337M58.7498 59.167V60.8337M65.4165 59.167V60.8337" stroke="white" stroke-width="3.4375" stroke-linecap="round"/>
<path d="M31.25 44.167C32.6307 44.167 33.75 43.0477 33.75 41.667C33.75 40.2863 32.6307 39.167 31.25 39.167C29.8693 39.167 28.75 40.2863 28.75 41.667C28.75 43.0477 29.8693 44.167 31.25 44.167Z" stroke="white" stroke-width="2.0625"/>
<path d="M56.25 44.167C57.6307 44.167 58.75 43.0477 58.75 41.667C58.75 40.2863 57.6307 39.167 56.25 39.167C54.8693 39.167 53.75 40.2863 53.75 41.667C53.75 43.0477 54.8693 44.167 56.25 44.167Z" stroke="white" stroke-width="2.0625"/>
<path d="M31.25 51.667C36.7728 51.667 41.25 47.1898 41.25 41.667C41.25 36.1441 36.7728 31.667 31.25 31.667C25.7272 31.667 21.25 36.1441 21.25 41.667C21.25 47.1898 25.7272 51.667 31.25 51.667Z" stroke="white" stroke-width="2.0625"/>
<path d="M56.25 51.667C61.7728 51.667 66.25 47.1898 66.25 41.667C66.25 36.1441 61.7728 31.667 56.25 31.667C50.7272 31.667 46.25 36.1441 46.25 41.667C46.25 47.1898 50.7272 51.667 56.25 51.667Z" stroke="white" stroke-width="2.0625"/>
<path d="M31.2502 39.1667C32.2993 37.0682 32.2993 34.5984 31.2502 32.5M56.2502 39.1667C57.2993 37.0682 57.2993 34.5984 56.2502 32.5M29.4047 39.1181C28.4762 36.9516 26.7499 35.2253 24.5835 34.2968M54.4047 39.1181C53.4762 36.9516 51.7499 35.2253 49.5835 34.2968M28.7502 40.8333C26.6517 39.7842 24.1819 39.7842 22.0835 40.8333M53.7502 40.8333C51.6517 39.7842 49.1819 39.7842 47.0835 40.8333M28.3992 42.6316C26.2327 43.5601 24.5065 45.2863 23.5781 47.4528M53.3992 42.6316C51.2327 43.5601 49.5065 45.2863 48.5781 47.4528M29.5835 44.1667C28.5343 46.2651 28.5343 48.7349 29.5835 50.8333M54.5835 44.1667C53.5343 46.2651 53.5343 48.7349 54.5835 50.8333M31.3052 44.3943C32.2337 46.5607 33.96 48.287 36.1265 49.2155M56.3052 44.3943C57.2337 46.5607 58.96 48.287 61.1265 49.2155M33.7502 44.1667C35.9387 44.7138 38.2282 44.7138 40.4168 44.1667M58.7502 44.1667C60.9387 44.7138 63.2282 44.7138 65.4168 44.1667M33.7502 41.7424C36.0831 41.4063 38.1973 40.1857 39.6549 38.3333M58.7502 41.7424C61.0831 41.4063 63.1973 40.1857 64.6549 38.3333M33.0683 39.8435C34.9207 38.386 36.1413 36.2718 36.4774 33.9388M58.0683 39.8435C59.9207 38.386 61.1413 36.2718 61.4774 33.9388" stroke="white" stroke-width="2.0625" stroke-linecap="round"/>
<path d="M12.0835 36.6663H7.91683C7.45659 36.6663 7.0835 36.2933 7.0835 35.833V31.6663C7.0835 31.2061 7.4566 30.833 7.91683 30.833H12.0835V36.6663ZM12.0835 51.6663H7.91683C7.45659 51.6663 7.0835 51.2933 7.0835 50.833V46.6663C7.0835 46.2061 7.4566 45.833 7.91683 45.833H12.0835V51.6663Z" stroke="white" stroke-width="3.4375"/>
</svg>
