<svg width="124" height="124" viewBox="0 0 124 124" fill="none" xmlns="http://www.w3.org/2000/svg">
<path d="M69.6467 113.99H54.5729C54.2303 113.99 53.9018 114.126 53.6596 114.368C53.4173 114.61 53.2812 114.939 53.2812 115.281C53.2812 115.624 53.4173 115.953 53.6596 116.195C53.9018 116.437 54.2303 116.573 54.5729 116.573H69.6467C69.9892 116.573 70.3178 116.437 70.56 116.195C70.8022 115.953 70.9383 115.624 70.9383 115.281C70.9383 114.939 70.8022 114.61 70.56 114.368C70.3178 114.126 69.9892 113.99 69.6467 113.99Z" fill="white"/>
<path d="M102.326 54.5083H99.4588V6.03208C99.4588 5.23994 99.3028 4.45555 98.9997 3.7237C98.6965 2.99186 98.2522 2.32689 97.6921 1.76676C97.1319 1.20663 96.467 0.762306 95.7351 0.459165C95.0033 0.156024 94.2189 0 93.4267 0L30.5742 0C28.9744 0 27.4401 0.635521 26.3089 1.76676C25.1777 2.89799 24.5421 4.43228 24.5421 6.03208V16.7917H17.8255C17.4829 16.7917 17.1544 16.9278 16.9121 17.17C16.6699 17.4122 16.5338 17.7408 16.5338 18.0833V62C16.5338 62.3426 16.6699 62.6711 16.9121 62.9133C17.1544 63.1556 17.4829 63.2917 17.8255 63.2917H24.5421V74.8262H17.6188C17.2762 74.8262 16.9477 74.9623 16.7055 75.2046C16.4632 75.4468 16.3271 75.7753 16.3271 76.1179V96.5521C16.3271 96.8947 16.4632 97.2232 16.7055 97.4654C16.9477 97.7077 17.2762 97.8437 17.6188 97.8437H24.5421V117.968C24.5421 119.568 25.1777 121.102 26.3089 122.233C27.4401 123.364 28.9744 124 30.5742 124H93.4267C94.2189 124 95.0033 123.844 95.7351 123.541C96.467 123.238 97.1319 122.793 97.6921 122.233C98.2522 121.673 98.6965 121.008 98.9997 120.276C99.3028 119.544 99.4588 118.76 99.4588 117.968V77.5904H102.326C102.669 77.5904 102.997 77.4543 103.24 77.2121C103.482 76.9699 103.618 76.6413 103.618 76.2987V55.8C103.618 55.4574 103.482 55.1289 103.24 54.8867C102.997 54.6444 102.669 54.5083 102.326 54.5083ZM27.1255 6.03208C27.1289 5.11847 27.4933 4.24324 28.1394 3.59721C28.7854 2.95118 29.6606 2.58674 30.5742 2.58333H93.4267C94.3404 2.58674 95.2156 2.95118 95.8616 3.59721C96.5076 4.24324 96.8721 5.11847 96.8755 6.03208V8.42167C95.8696 7.70281 94.6631 7.3187 93.4267 7.32375H30.5742C29.3379 7.3187 28.1313 7.70281 27.1255 8.42167V6.03208ZM19.1171 19.375H53.2817V39.0471L49.0838 34.875C48.9637 34.7539 48.8209 34.6578 48.6635 34.5923C48.5061 34.5267 48.3373 34.4929 48.1667 34.4929C47.9962 34.4929 47.8274 34.5267 47.67 34.5923C47.5126 34.6578 47.3697 34.7539 47.2497 34.875L43.3747 38.75L36.1671 31.4521C35.9251 31.2115 35.5978 31.0765 35.2565 31.0765C34.9153 31.0765 34.5879 31.2115 34.3459 31.4521L19.1171 46.6938V19.375ZM53.2817 48.5279L45.2088 40.5067L48.128 37.5875L53.2946 42.7542L53.2817 48.5279ZM19.1171 60.7083V50.375L35.2759 34.2292L53.2817 52.1833V60.7083H19.1171ZM18.9105 95.3121V77.3579H53.5013V95.2604L18.9105 95.3121ZM96.8755 117.968C96.8721 118.882 96.5076 119.757 95.8616 120.403C95.2156 121.049 94.3404 121.413 93.4267 121.417H30.5742C29.6606 121.413 28.7854 121.049 28.1394 120.403C27.4933 119.757 27.1289 118.882 27.1255 117.968V108.5C28.1356 109.209 29.3402 109.588 30.5742 109.585H93.4267C94.6607 109.588 95.8654 109.209 96.8755 108.5V117.968ZM96.8755 103.553C96.8721 104.465 96.5072 105.339 95.8608 105.983C95.2144 106.627 94.3392 106.989 93.4267 106.989H30.5742C29.6618 106.989 28.7865 106.627 28.1402 105.983C27.4938 105.339 27.1289 104.465 27.1255 103.553V97.8437H54.793C55.1356 97.8437 55.4641 97.7077 55.7063 97.4654C55.9486 97.2232 56.0846 96.8947 56.0846 96.5521V76.0662C56.0846 75.7237 55.9486 75.3951 55.7063 75.1529C55.4641 74.9107 55.1356 74.7746 54.793 74.7746H27.1255V63.2917H54.5734C54.916 63.2917 55.2445 63.1556 55.4867 62.9133C55.729 62.6711 55.8651 62.3426 55.8651 62V18.0833C55.8651 17.7408 55.729 17.4122 55.4867 17.17C55.2445 16.9278 54.916 16.7917 54.5734 16.7917H27.1255V13.3429C27.1289 12.4305 27.4938 11.5566 28.1402 10.9126C28.7865 10.2687 29.6618 9.90708 30.5742 9.90708H93.4267C94.3392 9.90708 95.2144 10.2687 95.8608 10.9126C96.5072 11.5566 96.8721 12.4305 96.8755 13.3429V54.5083H65.1522C64.8096 54.5083 64.481 54.6444 64.2388 54.8867C63.9966 55.1289 63.8605 55.4574 63.8605 55.8V76.2987C63.8605 76.6413 63.9966 76.9699 64.2388 77.2121C64.481 77.4543 64.8096 77.5904 65.1522 77.5904H96.8755V103.553ZM101.035 75.0071H66.4438V57.0917H101.035V75.0071Z" fill="white"/>
<path d="M77.7207 38.3238C79.1692 38.3238 80.5852 37.8942 81.7896 37.0895C82.994 36.2848 83.9327 35.1409 84.487 33.8027C85.0413 32.4645 85.1863 30.9919 84.9038 29.5712C84.6212 28.1506 83.9236 26.8456 82.8994 25.8214C81.8752 24.7971 80.5702 24.0996 79.1495 23.817C77.7288 23.5344 76.2563 23.6794 74.918 24.2338C73.5798 24.7881 72.436 25.7268 71.6312 26.9312C70.8265 28.1355 70.397 29.5515 70.397 31C70.4004 32.9414 71.1731 34.8022 72.5458 36.1749C73.9185 37.5477 75.7794 38.3204 77.7207 38.3238ZM77.7207 26.2596C78.6583 26.2596 79.5748 26.5376 80.3544 27.0585C81.1339 27.5794 81.7415 28.3197 82.1003 29.1859C82.4591 30.0521 82.553 31.0053 82.3701 31.9248C82.1871 32.8444 81.7357 33.689 81.0727 34.352C80.4097 35.015 79.5651 35.4664 78.6455 35.6494C77.726 35.8323 76.7728 35.7384 75.9066 35.3796C75.0404 35.0208 74.3001 34.4132 73.7792 33.6337C73.2583 32.8541 72.9803 31.9376 72.9803 31C72.9803 29.7428 73.4797 28.537 74.3687 27.648C75.2577 26.759 76.4635 26.2596 77.7207 26.2596Z" fill="white"/>
<path d="M69.9705 44.9889V43.8135H85.4705V44.9889C85.4705 45.3315 85.6066 45.66 85.8489 45.9022C86.0911 46.1445 86.4196 46.2806 86.7622 46.2806H91.7093C92.0519 46.2806 92.3804 46.1445 92.6226 45.9022C92.8649 45.66 93.001 45.3315 93.001 44.9889V40.0418C93.001 39.6992 92.8649 39.3707 92.6226 39.1285C92.3804 38.8862 92.0519 38.7501 91.7093 38.7501H90.521V23.2501H91.7093C92.0519 23.2501 92.3804 23.1141 92.6226 22.8718C92.8649 22.6296 93.001 22.301 93.001 21.9585V17.0114C93.001 16.6688 92.8649 16.3403 92.6226 16.098C92.3804 15.8558 92.0519 15.7197 91.7093 15.7197H86.7622C86.4196 15.7197 86.0911 15.8558 85.8489 16.098C85.6066 16.3403 85.4705 16.6688 85.4705 17.0114V18.1868H69.9705V17.0114C69.9705 16.6688 69.8345 16.3403 69.5922 16.098C69.35 15.8558 69.0214 15.7197 68.6789 15.7197H63.7189C63.3763 15.7197 63.0478 15.8558 62.8055 16.098C62.5633 16.3403 62.4272 16.6688 62.4272 17.0114V21.9585C62.4272 22.301 62.5633 22.6296 62.8055 22.8718C63.0478 23.1141 63.3763 23.2501 63.7189 23.2501H64.9072V38.7501H63.7189C63.3763 38.7501 63.0478 38.8862 62.8055 39.1285C62.5633 39.3707 62.4272 39.6992 62.4272 40.0418V44.9889C62.4272 45.3315 62.5633 45.66 62.8055 45.9022C63.0478 46.1445 63.3763 46.2806 63.7189 46.2806H68.6789C69.0214 46.2806 69.35 46.1445 69.5922 45.9022C69.8345 45.66 69.9705 45.3315 69.9705 44.9889ZM90.4176 43.6972H88.0539V41.3335H90.4176V43.6972ZM90.4176 18.3031V20.6668H88.0539V18.3031H90.4176ZM65.0105 18.3031H67.3872V20.6668H65.0105V18.3031ZM67.4905 23.2501H68.6789C69.0214 23.2501 69.35 23.1141 69.5922 22.8718C69.8345 22.6296 69.9705 22.301 69.9705 21.9585V20.7701H85.4705V21.9585C85.4705 22.301 85.6066 22.6296 85.8489 22.8718C86.0911 23.1141 86.4196 23.2501 86.7622 23.2501H87.9376V38.7501H86.7622C86.4196 38.7501 86.0911 38.8862 85.8489 39.1285C85.6066 39.3707 85.4705 39.6992 85.4705 40.0418V41.2301H69.9705V40.0418C69.9705 39.6992 69.8345 39.3707 69.5922 39.1285C69.35 38.8862 69.0214 38.7501 68.6789 38.7501H67.4905V23.2501ZM65.0105 43.6972V41.3335H67.3872V43.6972H65.0105ZM31.001 55.7485H41.3343C41.6769 55.7485 42.0054 55.6124 42.2476 55.3702C42.4899 55.1279 42.626 54.7994 42.626 54.4568C42.626 54.1142 42.4899 53.7857 42.2476 53.5435C42.0054 53.3012 41.6769 53.1651 41.3343 53.1651H31.001C30.6584 53.1651 30.3298 53.3012 30.0876 53.5435C29.8454 53.7857 29.7093 54.1142 29.7093 54.4568C29.7093 54.7994 29.8454 55.1279 30.0876 55.3702C30.3298 55.6124 30.6584 55.7485 31.001 55.7485ZM95.8297 60.8893H71.6626C71.3201 60.8893 70.9915 61.0254 70.7493 61.2676C70.507 61.5099 70.371 61.8384 70.371 62.181C70.371 62.5235 70.507 62.8521 70.7493 63.0943C70.9915 63.3366 71.3201 63.4726 71.6626 63.4726H95.8297C96.1723 63.4726 96.5008 63.3366 96.7431 63.0943C96.9853 62.8521 97.1214 62.5235 97.1214 62.181C97.1214 61.8384 96.9853 61.5099 96.7431 61.2676C96.5008 61.0254 96.1723 60.8893 95.8297 60.8893ZM81.376 68.3164H71.6626C71.3201 68.3164 70.9915 68.4525 70.7493 68.6947C70.507 68.9369 70.371 69.2655 70.371 69.6081C70.371 69.9506 70.507 70.2792 70.7493 70.5214C70.9915 70.7636 71.3201 70.8997 71.6626 70.8997H81.376C81.7185 70.8997 82.0471 70.7636 82.2893 70.5214C82.5315 70.2792 82.6676 69.9506 82.6676 69.6081C82.6676 69.2655 82.5315 68.9369 82.2893 68.6947C82.0471 68.4525 81.7185 68.3164 81.376 68.3164ZM95.8297 68.3164H87.3435C87.0009 68.3164 86.6724 68.4525 86.4301 68.6947C86.1879 68.9369 86.0518 69.2655 86.0518 69.6081C86.0518 69.9506 86.1879 70.2792 86.4301 70.5214C86.6724 70.7636 87.0009 70.8997 87.3435 70.8997H95.8297C96.1723 70.8997 96.5008 70.7636 96.7431 70.5214C96.9853 70.2792 97.1214 69.9506 97.1214 69.6081C97.1214 69.2655 96.9853 68.9369 96.7431 68.6947C96.5008 68.4525 96.1723 68.3164 95.8297 68.3164ZM24.1164 83.726H48.2835C48.626 83.726 48.9546 83.5899 49.1968 83.3477C49.439 83.1054 49.5751 82.7769 49.5751 82.4343C49.5751 82.0917 49.439 81.7632 49.1968 81.521C48.9546 81.2787 48.626 81.1426 48.2835 81.1426H24.1164C23.7738 81.1426 23.4453 81.2787 23.203 81.521C22.9608 81.7632 22.8247 82.0917 22.8247 82.4343C22.8247 82.7769 22.9608 83.1054 23.203 83.3477C23.4453 83.5899 23.7738 83.726 24.1164 83.726ZM33.8297 91.1531C34.1723 91.1531 34.5008 91.017 34.7431 90.7747C34.9853 90.5325 35.1214 90.204 35.1214 89.8614C35.1214 89.5188 34.9853 89.1903 34.7431 88.948C34.5008 88.7058 34.1723 88.5697 33.8297 88.5697H24.1164C23.7738 88.5697 23.4453 88.7058 23.203 88.948C22.9608 89.1903 22.8247 89.5188 22.8247 89.8614C22.8247 90.204 22.9608 90.5325 23.203 90.7747C23.4453 91.017 23.7738 91.1531 24.1164 91.1531H33.8297ZM48.2835 88.5697H39.8101C39.4676 88.5697 39.139 88.7058 38.8968 88.948C38.6545 89.1903 38.5185 89.5188 38.5185 89.8614C38.5185 90.204 38.6545 90.5325 38.8968 90.7747C39.139 91.017 39.4676 91.1531 39.8101 91.1531H48.2835C48.626 91.1531 48.9546 91.017 49.1968 90.7747C49.439 90.5325 49.5751 90.204 49.5751 89.8614C49.5751 89.5188 49.439 89.1903 49.1968 88.948C48.9546 88.7058 48.626 88.5697 48.2835 88.5697ZM63.861 91.1272V96.5522C63.861 96.8948 63.9971 97.2233 64.2393 97.4656C64.4815 97.7078 64.8101 97.8439 65.1526 97.8439C65.4952 97.8439 65.8237 97.7078 66.066 97.4656C66.3082 97.2233 66.4443 96.8948 66.4443 96.5522V95.1314H91.7093V96.5522C91.7093 96.8948 91.8454 97.2233 92.0876 97.4656C92.3299 97.7078 92.6584 97.8439 93.001 97.8439C93.3435 97.8439 93.6721 97.7078 93.9143 97.4656C94.1565 97.2233 94.2926 96.8948 94.2926 96.5522V91.1272C94.2926 90.7847 94.1565 90.4561 93.9143 90.2139C93.6721 89.9716 93.3435 89.8356 93.001 89.8356C92.6584 89.8356 92.3299 89.9716 92.0876 90.2139C91.8454 90.4561 91.7093 90.7847 91.7093 91.1272V92.5481H66.4443V91.1272C66.4443 90.7847 66.3082 90.4561 66.066 90.2139C65.8237 89.9716 65.4952 89.8356 65.1526 89.8356C64.8101 89.8356 64.4815 89.9716 64.2393 90.2139C63.9971 90.4561 63.861 90.7847 63.861 91.1272Z" fill="white"/>
</svg>
