<svg width="836" height="624" viewBox="0 0 836 624" fill="none" xmlns="http://www.w3.org/2000/svg">
<rect width="836" height="624" rx="12" fill="white"/>
<path fill-rule="evenodd" clip-rule="evenodd" d="M596.5 181.145C596.5 152.226 573.677 128.803 545.5 128.803H290.5C262.323 128.803 239.5 152.226 239.5 181.145V442.855C239.5 471.774 262.323 495.197 290.5 495.197H545.5C573.677 495.197 596.5 471.774 596.5 442.855V181.145Z" fill="#161616"/>
<path fill-rule="evenodd" clip-rule="evenodd" d="M462.689 266.266C487.36 266.266 507.378 286.81 507.378 312.13C507.378 337.451 487.36 357.995 462.689 357.995C438.017 357.995 418 337.451 418 312.13C418 286.81 438.017 266.266 462.689 266.266Z" fill="#0CC2FF"/>
<path fill-rule="evenodd" clip-rule="evenodd" d="M507.251 220.401C507.251 195.08 487.297 174.602 462.626 174.602H373.248C348.577 174.602 328.623 195.08 328.623 220.401C328.623 245.721 348.577 266.2 373.248 266.2H462.626C487.297 266.2 507.251 245.721 507.251 220.401Z" fill="#FF7568"/>
<path fill-rule="evenodd" clip-rule="evenodd" d="M417.937 266.266H373.248C361.391 266.266 350.043 271.107 341.692 279.678C333.341 288.249 328.623 299.895 328.623 312.065C328.623 324.235 333.341 335.881 341.692 344.452C350.043 353.023 361.391 357.864 373.248 357.864H417.937V266.266Z" fill="#AF5BFF"/>
<path fill-rule="evenodd" clip-rule="evenodd" d="M417.937 174.602H373.248C361.391 174.602 350.043 179.443 341.692 188.014C333.341 196.585 328.623 208.231 328.623 220.401C328.623 232.57 333.341 244.217 341.692 252.788C350.043 261.359 361.391 266.2 373.248 266.2H417.937V174.602Z" fill="#FF4611"/>
<path fill-rule="evenodd" clip-rule="evenodd" d="M418.002 357.732H373.313C361.455 357.732 350.108 362.574 341.757 371.145C333.405 379.716 328.688 391.362 328.688 403.532C328.688 415.701 333.405 427.347 341.757 435.918C350.108 444.489 361.455 449.331 373.313 449.331C385.17 449.331 396.518 444.489 404.869 435.918C413.22 427.347 417.938 415.701 417.938 403.532V357.732H418.002Z" fill="#00E681"/>
</svg>
