<svg width="610" height="609" viewBox="0 0 610 609" fill="none" xmlns="http://www.w3.org/2000/svg">
<g filter="url(#filter0_f_107_22629)">
<circle cx="305" cy="304.31" r="274.31" fill="#030326"/>
</g>
<circle cx="305.946" cy="305.256" r="267.689" fill="url(#paint0_linear_107_22629)"/>
<g filter="url(#filter1_f_107_22629)">
<circle cx="305.412" cy="304.728" r="195.272" fill="url(#paint1_linear_107_22629)"/>
</g>
<path d="M460.282 356.13C471.503 321.282 470.675 283.672 457.932 249.351C445.188 215.031 421.271 185.994 390.026 166.913C358.782 147.832 322.027 139.816 285.675 144.154C249.322 148.492 215.486 164.933 189.609 190.83" stroke="url(#paint2_linear_107_22629)" stroke-width="8.11582" stroke-linecap="round"/>
<path d="M189.654 421.481C204.802 436.629 222.785 448.645 242.577 456.843C262.368 465.041 283.581 469.26 305.003 469.26C326.425 469.26 347.638 465.041 367.429 456.843C387.221 448.645 405.204 436.629 420.352 421.481" stroke="url(#paint3_linear_107_22629)" stroke-width="8.11582" stroke-linecap="round"/>
<path d="M150.823 359.418C156.859 376.881 165.817 393.192 177.316 407.655" stroke="url(#paint4_linear_107_22629)" stroke-width="8.11582" stroke-linecap="round"/>
<path d="M144.705 336.387C138.81 305.149 142.169 272.87 154.371 243.517" stroke="url(#paint5_linear_107_22629)" stroke-width="8.11582" stroke-linecap="round"/>
<circle cx="441.757" cy="390.942" r="17.449" transform="rotate(-101.8 441.757 390.942)" stroke="url(#paint6_linear_107_22629)" stroke-width="8.11582"/>
<circle cx="167.034" cy="214.421" r="8.92739" transform="rotate(44.9335 167.034 214.421)" stroke="url(#paint7_linear_107_22629)" stroke-width="8.11582"/>
<path d="M344.43 252.356C347.076 252.357 349.222 254.503 349.223 257.149C349.223 258.499 348.663 259.717 347.766 260.588L360.985 347.678C362.536 348.472 363.597 350.084 363.598 351.945C363.598 354.592 361.452 356.739 358.805 356.739C356.925 356.739 355.3 355.657 354.515 354.082H352.442C351.657 355.657 350.031 356.739 348.152 356.739C345.505 356.739 343.359 354.592 343.359 351.945C343.36 350.342 344.148 348.922 345.357 348.052L335.607 280.729C333.903 279.995 332.71 278.301 332.71 276.327C332.71 273.68 334.856 271.534 337.503 271.534C340.15 271.534 342.296 273.68 342.296 276.327C342.296 277.899 341.538 279.294 340.369 280.168L350.133 347.581C350.951 347.953 351.647 348.547 352.142 349.288H354.815C355.174 348.752 355.637 348.292 356.177 347.938L343.096 261.753C341.993 261.434 341.055 260.732 340.435 259.798C339.686 260.924 338.475 261.715 337.071 261.899L315.823 303.213C316.067 303.788 316.203 304.419 316.203 305.083C316.203 307.73 314.057 309.876 311.41 309.876C308.763 309.876 306.617 307.73 306.617 305.083C306.618 302.436 308.763 300.29 311.41 300.29C311.583 300.29 311.754 300.299 311.923 300.317L332.629 260.056C332.013 259.249 331.646 258.242 331.646 257.149C331.647 254.503 333.793 252.357 336.439 252.356C338.107 252.356 339.576 253.209 340.435 254.501C341.293 253.209 342.762 252.356 344.43 252.356ZM348.422 349.817C347.393 349.817 346.558 350.652 346.558 351.682C346.558 352.711 347.393 353.545 348.422 353.545C349.451 353.545 350.286 352.711 350.286 351.682C350.286 350.652 349.451 349.817 348.422 349.817ZM359.074 349.817C358.045 349.817 357.21 350.652 357.21 351.682C357.21 352.711 358.045 353.545 359.074 353.545C360.104 353.545 360.938 352.711 360.938 351.682C360.938 350.652 360.104 349.817 359.074 349.817ZM311.675 302.953C310.646 302.953 309.811 303.788 309.811 304.817C309.811 305.847 310.646 306.681 311.675 306.681C312.704 306.681 313.539 305.847 313.539 304.817C313.539 303.788 312.704 302.953 311.675 302.953ZM337.768 274.19C336.738 274.191 335.904 275.025 335.904 276.055C335.905 277.084 336.738 277.919 337.768 277.919C338.797 277.919 339.632 277.084 339.632 276.055C339.632 275.025 338.797 274.191 337.768 274.19ZM336.704 255.023C335.675 255.024 334.84 255.858 334.84 256.887C334.84 257.916 335.675 258.751 336.704 258.751C337.733 258.751 338.568 257.916 338.568 256.887C338.568 255.858 337.733 255.023 336.704 255.023ZM344.696 255.023C343.667 255.023 342.832 255.858 342.832 256.887C342.832 257.916 343.667 258.751 344.696 258.751C345.726 258.751 346.561 257.916 346.561 256.887C346.56 255.858 345.725 255.024 344.696 255.023Z" fill="url(#paint8_linear_107_22629)"/>
<path d="M270.934 290.702C273.58 290.702 275.726 292.848 275.727 295.495C275.727 295.933 275.665 296.358 275.555 296.762L302.374 347.188C304.76 347.463 306.612 349.489 306.612 351.949C306.612 354.596 304.465 356.742 301.818 356.742C299.172 356.741 297.026 354.595 297.025 351.949C297.025 350.882 297.374 349.897 297.963 349.101L272.093 300.459L265.959 339.169C267.043 340.048 267.736 341.39 267.736 342.894C267.736 345.541 265.59 347.687 262.943 347.687C260.297 347.687 258.151 345.541 258.15 342.894C258.15 340.853 259.426 339.111 261.224 338.419L267.497 298.834C266.658 297.971 266.141 296.794 266.141 295.495C266.141 292.848 268.287 290.702 270.934 290.702ZM302.088 349.817C301.059 349.817 300.225 350.652 300.225 351.681C300.225 352.71 301.059 353.544 302.088 353.544C303.117 353.544 303.952 352.71 303.952 351.681C303.952 350.652 303.117 349.817 302.088 349.817ZM263.211 340.765C262.182 340.765 261.347 341.6 261.347 342.629C261.347 343.659 262.182 344.493 263.211 344.493C264.24 344.492 265.074 343.659 265.074 342.629C265.074 341.6 264.24 340.765 263.211 340.765ZM271.197 293.369C270.168 293.369 269.334 294.203 269.334 295.232C269.334 296.261 270.168 297.096 271.197 297.096C272.227 297.096 273.062 296.261 273.062 295.232C273.061 294.203 272.226 293.369 271.197 293.369Z" fill="url(#paint9_linear_107_22629)"/>
<path d="M266.141 258.75C268.788 258.751 270.933 260.896 270.934 263.543C270.933 264.621 270.577 265.616 269.977 266.417L270.374 266.206L311.165 342.904C311.205 342.906 311.245 342.909 311.284 342.913L320.539 325.537C320.149 324.843 319.926 324.043 319.926 323.191C319.926 320.544 322.072 318.398 324.719 318.398C327.366 318.398 329.511 320.544 329.512 323.191C329.512 325.838 327.366 327.985 324.719 327.985C324.701 327.985 324.684 327.983 324.666 327.983L315.234 345.694C315.513 346.301 315.669 346.976 315.669 347.687C315.669 350.334 313.523 352.48 310.876 352.48C308.229 352.48 306.082 350.334 306.082 347.687C306.082 346.711 306.375 345.803 306.876 345.045L267.07 270.203L255.55 348.005C256.048 348.35 256.479 348.787 256.815 349.292H268.01C268.503 348.553 269.195 347.96 270.01 347.587L273.134 328.957C272.112 328.078 271.463 326.776 271.463 325.322C271.463 322.675 273.609 320.529 276.256 320.529C278.903 320.529 281.049 322.675 281.049 325.322C281.049 327.412 279.711 329.188 277.845 329.843L274.792 348.055C276.002 348.925 276.791 350.344 276.791 351.949C276.791 354.596 274.645 356.742 271.998 356.742C270.119 356.741 268.492 355.659 267.707 354.084H257.117C256.332 355.659 254.706 356.742 252.826 356.742C250.179 356.742 248.033 354.596 248.033 351.949C248.033 350.041 249.148 348.393 250.762 347.622L262.715 266.894C261.869 266.03 261.348 264.848 261.348 263.543C261.348 260.896 263.494 258.75 266.141 258.75ZM253.093 349.822C252.063 349.822 251.229 350.657 251.229 351.686C251.23 352.715 252.064 353.549 253.093 353.549C254.122 353.549 254.957 352.715 254.957 351.686C254.957 350.657 254.122 349.822 253.093 349.822ZM272.263 349.822C271.233 349.822 270.398 350.657 270.398 351.686C270.399 352.715 271.234 353.549 272.263 353.549C273.292 353.549 274.127 352.715 274.127 351.686C274.127 350.657 273.292 349.822 272.263 349.822ZM311.143 345.557C310.114 345.557 309.279 346.392 309.278 347.421C309.278 348.451 310.113 349.285 311.143 349.286C312.172 349.286 313.007 348.451 313.007 347.421C313.007 346.392 312.172 345.557 311.143 345.557ZM276.523 323.192C275.494 323.192 274.659 324.026 274.659 325.055C274.659 326.085 275.494 326.919 276.523 326.919C277.553 326.919 278.387 326.085 278.387 325.055C278.386 324.026 277.553 323.192 276.523 323.192ZM324.985 321.06C323.956 321.06 323.121 321.894 323.121 322.923C323.121 323.953 323.956 324.788 324.985 324.788C326.015 324.787 326.85 323.953 326.85 322.923C326.849 321.894 326.015 321.06 324.985 321.06ZM266.407 261.414C265.378 261.414 264.544 262.249 264.544 263.278C264.544 264.307 265.378 265.142 266.407 265.142C267.436 265.142 268.271 264.307 268.271 263.278C268.271 262.248 267.437 261.414 266.407 261.414Z" fill="url(#paint10_linear_107_22629)"/>
<path d="M273.594 252.357C276.24 252.358 278.387 254.504 278.387 257.15C278.387 258.068 278.127 258.925 277.68 259.653L310.651 321.646C310.875 321.611 311.104 321.591 311.337 321.588L326.624 292.883C326.095 292.112 325.785 291.179 325.785 290.174C325.785 287.527 327.931 285.381 330.578 285.381C333.225 285.381 335.371 287.527 335.371 290.174C335.371 291.589 334.757 292.86 333.782 293.737L341.056 348.105C342.729 348.853 343.895 350.531 343.895 352.482C343.894 355.129 341.748 357.275 339.102 357.275C336.455 357.275 334.309 355.129 334.309 352.482C334.309 350.888 335.088 349.475 336.286 348.604L329.479 297.72L315.523 323.924C315.953 324.642 316.2 325.483 316.2 326.381C316.2 329.028 314.054 331.174 311.407 331.174C308.76 331.174 306.615 329.028 306.614 326.381C306.614 325.819 306.711 325.28 306.889 324.779L273.468 261.939C270.879 261.873 268.801 259.755 268.801 257.15C268.801 254.503 270.947 252.357 273.594 252.357ZM339.369 350.352C338.34 350.352 337.505 351.186 337.505 352.216C337.505 353.245 338.34 354.079 339.369 354.079C340.398 354.079 341.232 353.245 341.232 352.216C341.232 351.187 340.398 350.352 339.369 350.352ZM311.677 324.254C310.648 324.254 309.813 325.088 309.812 326.117C309.812 327.146 310.648 327.981 311.677 327.981C312.706 327.981 313.54 327.146 313.54 326.117C313.54 325.088 312.706 324.254 311.677 324.254ZM330.846 288.042C329.816 288.042 328.981 288.877 328.981 289.906C328.982 290.936 329.816 291.769 330.846 291.77C331.875 291.769 332.709 290.935 332.709 289.906C332.709 288.877 331.875 288.042 330.846 288.042ZM273.86 255.023C272.831 255.023 271.996 255.858 271.996 256.887C271.996 257.916 272.831 258.751 273.86 258.751C274.89 258.751 275.725 257.916 275.725 256.887C275.724 255.858 274.889 255.024 273.86 255.023Z" fill="url(#paint11_linear_107_22629)"/>
<path d="M179.772 343.788V264.253H233.364V278.117H196.588V297.069H230.607V310.933H196.588V329.923H233.52V343.788H179.772Z" fill="url(#paint12_linear_107_22629)"/>
<path d="M416.337 287.127C416.027 283.994 414.693 281.561 412.337 279.826C409.981 278.092 406.784 277.224 402.745 277.224C400.001 277.224 397.684 277.613 395.794 278.389C393.904 279.14 392.454 280.189 391.444 281.535C390.46 282.881 389.968 284.409 389.968 286.117C389.917 287.541 390.214 288.784 390.862 289.846C391.535 290.907 392.454 291.826 393.619 292.603C394.784 293.354 396.13 294.014 397.658 294.584C399.185 295.127 400.816 295.593 402.551 295.982L409.697 297.69C413.166 298.467 416.35 299.503 419.25 300.797C422.15 302.092 424.661 303.684 426.784 305.574C428.907 307.464 430.551 309.69 431.716 312.253C432.907 314.817 433.515 317.755 433.541 321.069C433.515 325.936 432.273 330.156 429.813 333.729C427.38 337.276 423.858 340.034 419.25 342.001C414.668 343.943 409.14 344.914 402.667 344.914C396.247 344.914 390.654 343.93 385.891 341.962C381.153 339.995 377.451 337.082 374.784 333.224C372.143 329.341 370.758 324.538 370.628 318.817H386.9C387.082 321.483 387.845 323.71 389.192 325.496C390.564 327.257 392.389 328.59 394.667 329.496C396.972 330.377 399.574 330.817 402.473 330.817C405.321 330.817 407.794 330.402 409.891 329.574C412.014 328.745 413.658 327.593 414.823 326.118C415.988 324.642 416.57 322.946 416.57 321.03C416.57 319.244 416.04 317.742 414.978 316.525C413.943 315.309 412.415 314.273 410.396 313.419C408.402 312.564 405.956 311.787 403.056 311.088L394.396 308.914C387.69 307.283 382.396 304.732 378.512 301.263C374.629 297.794 372.7 293.121 372.726 287.244C372.7 282.428 373.981 278.221 376.57 274.622C379.185 271.024 382.771 268.214 387.328 266.195C391.884 264.176 397.062 263.166 402.862 263.166C408.765 263.166 413.917 264.176 418.318 266.195C422.745 268.214 426.189 271.024 428.648 274.622C431.108 278.221 432.376 282.389 432.454 287.127H416.337Z" fill="url(#paint13_linear_107_22629)"/>
<defs>
<filter id="filter0_f_107_22629" x="0.853117" y="0.163664" width="608.293" height="608.293" filterUnits="userSpaceOnUse" color-interpolation-filters="sRGB">
<feFlood flood-opacity="0" result="BackgroundImageFix"/>
<feBlend mode="normal" in="SourceGraphic" in2="BackgroundImageFix" result="shape"/>
<feGaussianBlur stdDeviation="14.9182" result="effect1_foregroundBlur_107_22629"/>
</filter>
<filter id="filter1_f_107_22629" x="108.625" y="107.941" width="393.573" height="393.574" filterUnits="userSpaceOnUse" color-interpolation-filters="sRGB">
<feFlood flood-opacity="0" result="BackgroundImageFix"/>
<feBlend mode="normal" in="SourceGraphic" in2="BackgroundImageFix" result="shape"/>
<feGaussianBlur stdDeviation="0.757563" result="effect1_foregroundBlur_107_22629"/>
</filter>
<linearGradient id="paint0_linear_107_22629" x1="113.929" y1="64.052" x2="573.635" y2="557.81" gradientUnits="userSpaceOnUse">
<stop offset="0.00934902" stop-color="white"/>
<stop offset="0.97127" stop-color="#DADADA"/>
</linearGradient>
<linearGradient id="paint1_linear_107_22629" x1="305.412" y1="109.457" x2="305.412" y2="500" gradientUnits="userSpaceOnUse">
<stop stop-color="#DEDEDE"/>
<stop offset="1" stop-color="white"/>
</linearGradient>
<linearGradient id="paint2_linear_107_22629" x1="107.2" y1="178.792" x2="296.684" y2="396.188" gradientUnits="userSpaceOnUse">
<stop stop-color="#2EA0DE"/>
<stop offset="1" stop-color="#072055"/>
</linearGradient>
<linearGradient id="paint3_linear_107_22629" x1="265.966" y1="307.904" x2="184.726" y2="327.069" gradientUnits="userSpaceOnUse">
<stop stop-color="#2EA0DE"/>
<stop offset="1" stop-color="#072055"/>
</linearGradient>
<linearGradient id="paint4_linear_107_22629" x1="142.985" y1="367.518" x2="176.857" y2="383.85" gradientUnits="userSpaceOnUse">
<stop stop-color="#2EA0DE"/>
<stop offset="1" stop-color="#072055"/>
</linearGradient>
<linearGradient id="paint5_linear_107_22629" x1="156.483" y1="312.625" x2="121.842" y2="281.855" gradientUnits="userSpaceOnUse">
<stop stop-color="#2EA0DE"/>
<stop offset="1" stop-color="#072055"/>
</linearGradient>
<linearGradient id="paint6_linear_107_22629" x1="407.523" y1="376.658" x2="445.802" y2="410.264" gradientUnits="userSpaceOnUse">
<stop stop-color="#2EA0DE"/>
<stop offset="1" stop-color="#072055"/>
</linearGradient>
<linearGradient id="paint7_linear_107_22629" x1="146.365" y1="205.797" x2="169.476" y2="226.087" gradientUnits="userSpaceOnUse">
<stop stop-color="#2EA0DE"/>
<stop offset="1" stop-color="#072055"/>
</linearGradient>
<linearGradient id="paint8_linear_107_22629" x1="289.304" y1="299.175" x2="340.945" y2="294.59" gradientUnits="userSpaceOnUse">
<stop offset="0.229618" stop-color="#2EA0DE"/>
<stop offset="1" stop-color="#072055"/>
</linearGradient>
<linearGradient id="paint9_linear_107_22629" x1="236.207" y1="330.308" x2="292.01" y2="322.239" gradientUnits="userSpaceOnUse">
<stop offset="0.229618" stop-color="#2EA0DE"/>
<stop offset="1" stop-color="#072055"/>
</linearGradient>
<linearGradient id="paint10_linear_107_22629" x1="230.193" y1="341.83" x2="294.138" y2="350.619" gradientUnits="userSpaceOnUse">
<stop offset="0.229618" stop-color="#2EA0DE"/>
<stop offset="1" stop-color="#072055"/>
</linearGradient>
<linearGradient id="paint11_linear_107_22629" x1="246.582" y1="269.975" x2="331.42" y2="323.284" gradientUnits="userSpaceOnUse">
<stop stop-color="#2EA0DE"/>
<stop offset="1" stop-color="#072055"/>
</linearGradient>
<linearGradient id="paint12_linear_107_22629" x1="153.035" y1="259.953" x2="241.124" y2="299.206" gradientUnits="userSpaceOnUse">
<stop stop-color="#2EA0DE"/>
<stop offset="1" stop-color="#072055"/>
</linearGradient>
<linearGradient id="paint13_linear_107_22629" x1="344.636" y1="259.953" x2="436.931" y2="304.15" gradientUnits="userSpaceOnUse">
<stop stop-color="#2EA0DE"/>
<stop offset="1" stop-color="#072055"/>
</linearGradient>
</defs>
</svg>
