<svg width="137" height="137" viewBox="0 0 137 137" fill="none" xmlns="http://www.w3.org/2000/svg">
<path d="M90.3344 64.2616L86.3806 63.4674C86.3271 63.339 86.2736 63.2062 86.2158 63.0757L88.4442 59.7234C88.7182 59.3118 88.8413 58.8181 88.7925 58.326C88.7438 57.8339 88.5261 57.3739 88.1766 57.0241L82.1229 50.9704C81.773 50.6204 81.3126 50.4024 80.82 50.3536C80.3275 50.3048 79.8333 50.4283 79.4215 50.7028L76.065 52.9398C75.9344 52.882 75.8038 52.8285 75.6711 52.7728L74.8791 48.8062C74.7804 48.3227 74.5176 47.8882 74.1354 47.5761C73.7531 47.264 73.2747 47.0936 72.7812 47.0938H64.2188C63.7253 47.0936 63.2469 47.264 62.8646 47.5761C62.4824 47.8882 62.2196 48.3227 62.1209 48.8062L61.3289 52.7578C61.1962 52.8135 61.0656 52.867 60.935 52.9248L57.5828 50.6964C57.171 50.4218 56.6768 50.2984 56.1842 50.3472C55.6917 50.396 55.2313 50.614 54.8813 50.964L48.8277 57.0177C48.4781 57.3675 48.2605 57.8275 48.2117 58.3196C48.163 58.8116 48.286 59.3054 48.5601 59.717L50.797 63.0757C50.7392 63.2062 50.6857 63.339 50.6322 63.4674L46.6656 64.2616C46.1821 64.3603 45.7476 64.623 45.4355 65.0053C45.1234 65.3875 44.953 65.8659 44.9531 66.3594V74.9219C44.953 75.4154 45.1234 75.8937 45.4355 76.276C45.7476 76.6583 46.1821 76.921 46.6656 77.0197L50.6194 77.8139C50.6729 77.9423 50.7264 78.075 50.7842 78.2056L48.5558 81.5578C48.2818 81.9694 48.1587 82.4632 48.2075 82.9553C48.2562 83.4473 48.4739 83.9073 48.8234 84.2571L54.8771 90.3108C55.227 90.6609 55.6874 90.8788 56.18 90.9276C56.6725 90.9764 57.1667 90.853 57.5785 90.5784L60.935 88.3415C61.0656 88.3993 61.1962 88.4528 61.3289 88.5084L62.1209 92.46C62.2166 92.9463 62.478 93.3843 62.8606 93.6993C63.2431 94.0144 63.7232 94.1869 64.2188 94.1875H72.7812C73.2747 94.1876 73.7531 94.0172 74.1354 93.7051C74.5176 93.3931 74.7804 92.9585 74.8791 92.475L75.6711 88.5234C75.8038 88.4678 75.9344 88.4142 76.065 88.3564L79.4172 90.5848C79.829 90.8594 80.3232 90.9828 80.8158 90.934C81.3083 90.8853 81.7687 90.6673 82.1187 90.3173L88.1723 84.2636C88.5219 83.9138 88.7395 83.4538 88.7883 82.9617C88.837 82.4696 88.714 81.9758 88.4399 81.5642L86.203 78.2056C86.2608 78.075 86.3143 77.9423 86.3678 77.8139L90.3344 77.0197C90.8179 76.921 91.2524 76.6583 91.5645 76.276C91.8766 75.8937 92.047 75.4154 92.0469 74.9219V66.3594C92.047 65.8659 91.8766 65.3875 91.5645 65.0053C91.2524 64.623 90.8179 64.3603 90.3344 64.2616ZM87.7656 73.1687L84.3556 73.8494C83.9834 73.9242 83.6377 74.0966 83.3541 74.349C83.0705 74.6014 82.8591 74.9247 82.7416 75.2858C82.5001 76.0214 82.2016 76.7371 81.8489 77.4264C81.6763 77.7652 81.5969 78.1439 81.6191 78.5235C81.6413 78.9031 81.7642 79.2699 81.9752 79.5863L83.9018 82.4847L80.3355 86.0531L77.4371 84.1266C77.1212 83.9156 76.7548 83.7926 76.3756 83.77C75.9964 83.7474 75.6181 83.8262 75.2794 83.9981C74.5897 84.3499 73.874 84.6483 73.1387 84.8908C72.7781 85.0086 72.4552 85.2201 72.2032 85.5037C71.9512 85.7873 71.7791 86.1328 71.7045 86.5048L71.0259 89.9062H65.9741L65.2891 86.4962C65.2145 86.1242 65.0424 85.7787 64.7904 85.4951C64.5384 85.2115 64.2155 85 63.8548 84.8822C63.1196 84.6398 62.4039 84.3413 61.7142 83.9896C61.3755 83.8176 60.9971 83.7389 60.6179 83.7614C60.2387 83.784 59.8724 83.9071 59.5565 84.118L56.6581 86.0446L53.0875 82.4761L55.0141 79.5777C55.2251 79.2614 55.348 78.8945 55.3702 78.5149C55.3924 78.1353 55.313 77.7566 55.1404 77.4178C54.7877 76.7286 54.4892 76.0129 54.2477 75.2772C54.1302 74.9162 53.9188 74.5929 53.6352 74.3405C53.3516 74.0881 53.0059 73.9156 52.6337 73.8409L49.2344 73.1687V68.1125L52.6444 67.4318C53.0166 67.3571 53.3623 67.1846 53.6459 66.9322C53.9295 66.6798 54.1409 66.3565 54.2584 65.9955C54.4999 65.2598 54.7984 64.5441 55.1511 63.8548C55.3237 63.5161 55.4031 63.1374 55.3809 62.7578C55.3587 62.3782 55.2358 62.0113 55.0248 61.695L53.0982 58.7965L56.673 55.2238L59.5715 57.1504C59.8874 57.3613 60.2537 57.4844 60.6329 57.507C61.0121 57.5296 61.3905 57.4508 61.7292 57.2788C62.4189 56.9271 63.1345 56.6287 63.8698 56.3862C64.2305 56.2684 64.5533 56.0569 64.8053 55.7733C65.0574 55.4897 65.2295 55.1442 65.304 54.7722L65.9741 51.375H71.0259L71.7088 54.785C71.7834 55.157 71.9555 55.5025 72.2075 55.7861C72.4595 56.0697 72.7824 56.2812 73.143 56.399C73.8783 56.6415 74.5939 56.9399 75.2836 57.2917C75.6223 57.4637 76.0007 57.5424 76.3799 57.5198C76.7591 57.4973 77.1255 57.3742 77.4414 57.1633L80.3398 55.2367L83.9146 58.8094L81.9881 61.7078C81.7771 62.0241 81.6542 62.391 81.632 62.7706C81.6098 63.1502 81.6891 63.5289 81.8618 63.8677C82.2145 64.557 82.5129 65.2727 82.7544 66.0083C82.8719 66.3694 83.0833 66.6927 83.3669 66.9451C83.6506 67.1975 83.9962 67.3699 84.3685 67.4447L87.7656 68.1125V73.1687Z" fill="white"/>
<path d="M68.5 57.7969C65.9598 57.7969 63.4765 58.5501 61.3644 59.9614C59.2523 61.3727 57.606 63.3786 56.6339 65.7255C55.6618 68.0724 55.4075 70.6549 55.903 73.1463C56.3986 75.6378 57.6219 77.9263 59.4181 79.7225C61.2143 81.5188 63.5029 82.742 65.9943 83.2376C68.4858 83.7332 71.0682 83.4788 73.4151 82.5067C75.762 81.5346 77.7679 79.8884 79.1792 77.7762C80.5905 75.6641 81.3438 73.1809 81.3438 70.6406C81.3404 67.2353 79.9861 63.9704 77.5782 61.5625C75.1702 59.1545 71.9053 57.8003 68.5 57.7969ZM68.5 79.2031C66.8065 79.2031 65.151 78.7009 63.7429 77.7601C62.3348 76.8192 61.2374 75.4819 60.5893 73.9174C59.9412 72.3528 59.7716 70.6311 60.102 68.9702C60.4324 67.3092 61.2479 65.7835 62.4454 64.586C63.6429 63.3885 65.1686 62.573 66.8295 62.2427C68.4905 61.9123 70.2121 62.0818 71.7767 62.7299C73.3413 63.378 74.6786 64.4755 75.6195 65.8836C76.5603 67.2917 77.0625 68.9471 77.0625 70.6406C77.0625 72.9115 76.1604 75.0894 74.5546 76.6952C72.9488 78.301 70.7709 79.2031 68.5 79.2031Z" fill="white"/>
<path d="M128.438 64.2187C127.114 64.2242 125.825 64.6385 124.746 65.4048C123.667 66.1712 122.851 67.2522 122.41 68.5H100.496C100.407 67.0622 100.223 65.632 99.9436 64.2187H113.453C114.021 64.2186 114.565 63.993 114.967 63.5915L119.265 59.2953C120.122 59.7143 121.062 59.9338 122.016 59.9375C123.286 59.9375 124.527 59.5609 125.583 58.8552C126.64 58.1496 127.463 57.1466 127.949 55.9732C128.435 54.7997 128.562 53.5085 128.314 52.2628C128.066 51.0171 127.455 49.8728 126.557 48.9747C125.658 48.0766 124.514 47.4649 123.268 47.2171C122.023 46.9693 120.732 47.0965 119.558 47.5826C118.385 48.0686 117.382 48.8917 116.676 49.9478C115.97 51.0039 115.594 52.2455 115.594 53.5156C115.597 54.4692 115.817 55.4096 116.236 56.2663L112.567 59.9375H98.7363C98.2117 58.4665 97.5807 57.0356 96.8483 55.6562H107.031C107.599 55.6562 108.143 55.4307 108.545 55.0293C108.946 54.6278 109.172 54.0833 109.172 53.5156V44.5592C110.599 44.0566 111.802 43.0651 112.568 41.7603C113.334 40.4555 113.614 38.9218 113.358 37.4306C113.101 35.9394 112.325 34.5871 111.167 33.6132C110.01 32.6392 108.544 32.1065 107.031 32.1094C107.034 30.5963 106.501 29.1311 105.527 27.9732C104.554 26.8152 103.201 26.0394 101.71 25.783C100.219 25.5266 98.6851 25.8062 97.3803 26.5723C96.0756 27.3385 95.084 28.5416 94.5814 29.9687H85.625C85.0573 29.9687 84.5128 30.1943 84.1114 30.5957C83.7099 30.9972 83.4844 31.5416 83.4844 32.1094V42.2602C82.1061 41.5268 80.675 40.8972 79.2031 40.3765V26.5737L82.8743 22.9047C83.7313 23.3227 84.6715 23.5422 85.625 23.5469C86.8951 23.5469 88.1367 23.1702 89.1928 22.4646C90.2489 21.7589 91.072 20.756 91.558 19.5825C92.0441 18.4091 92.1713 17.1179 91.9235 15.8721C91.6757 14.6264 91.0641 13.4822 90.166 12.584C89.2678 11.6859 88.1236 11.0743 86.8778 10.8265C85.6321 10.5787 84.3409 10.7059 83.1675 11.192C81.994 11.678 80.9911 12.5011 80.2854 13.5572C79.5798 14.6133 79.2031 15.8549 79.2031 17.125C79.2081 18.0791 79.4276 19.02 79.8453 19.8778L75.5469 24.1741C75.1462 24.5758 74.9214 25.1201 74.9219 25.6875V39.1734C73.5084 38.9002 72.078 38.7229 70.6406 38.6426V14.5905C72.0689 14.0855 73.2726 13.0919 74.0391 11.7852C74.8057 10.4786 75.0856 8.94301 74.8294 7.44994C74.5732 5.95686 73.7975 4.60241 72.6392 3.62598C71.481 2.64956 70.0149 2.11401 68.5 2.11401C66.9851 2.11401 65.519 2.64956 64.3608 3.62598C63.2025 4.60241 62.4268 5.95686 62.1706 7.44994C61.9144 8.94301 62.1943 10.4786 62.9608 11.7852C63.7274 13.0919 64.9311 14.0855 66.3594 14.5905V38.6426C65.8499 38.6768 65.3447 38.6768 64.8352 38.7346C63.9041 38.8374 62.9857 38.9872 62.0781 39.1627V25.6875C62.078 25.1198 61.8524 24.5754 61.4509 24.1741L57.1547 19.8778C57.5724 19.02 57.7919 18.0791 57.7969 17.125C57.7969 15.8549 57.4202 14.6133 56.7146 13.5572C56.0089 12.5011 55.006 11.678 53.8325 11.192C52.6591 10.7059 51.3679 10.5787 50.1221 10.8265C48.8764 11.0743 47.7322 11.6859 46.834 12.584C45.9359 13.4822 45.3243 14.6264 45.0765 15.8721C44.8287 17.1179 44.9559 18.4091 45.442 19.5825C45.928 20.756 46.7511 21.7589 47.8072 22.4646C48.8633 23.1702 50.1049 23.5469 51.375 23.5469C52.3285 23.5422 53.2687 23.3227 54.1257 22.9047L57.7969 26.5737V40.3872C56.325 40.9146 54.894 41.55 53.5156 42.288V32.1094C53.5156 31.5416 53.2901 30.9972 52.8886 30.5957C52.4872 30.1943 51.9427 29.9687 51.375 29.9687H42.4186C41.916 28.5416 40.9244 27.3385 39.6197 26.5723C38.3149 25.8062 36.7811 25.5266 35.29 25.783C33.7988 26.0394 32.4465 26.8152 31.4725 27.9732C30.4986 29.1311 29.9659 30.5963 29.9687 32.1094C28.4557 32.1065 26.9905 32.6392 25.8325 33.6132C24.6746 34.5871 23.8988 35.9394 23.6424 37.4306C23.386 38.9218 23.6656 40.4555 24.4317 41.7603C25.1978 43.0651 26.401 44.0566 27.8281 44.5592V53.5156C27.8281 54.0833 28.0536 54.6278 28.4551 55.0293C28.8565 55.4307 29.401 55.6562 29.9687 55.6562H40.126C39.392 57.0345 38.7616 58.4656 38.2401 59.9375H24.4331L20.7641 56.2663C21.183 55.4096 21.4026 54.4692 21.4062 53.5156C21.4062 52.2455 21.0296 51.0039 20.324 49.9478C19.6183 48.8917 18.6154 48.0686 17.4419 47.5826C16.2685 47.0965 14.9772 46.9693 13.7315 47.2171C12.4858 47.4649 11.3415 48.0766 10.4434 48.9747C9.5453 49.8728 8.93368 51.0171 8.68589 52.2628C8.4381 53.5085 8.56527 54.7997 9.05133 55.9732C9.53738 57.1466 10.3605 58.1496 11.4166 58.8552C12.4726 59.5609 13.7142 59.9375 14.9844 59.9375C15.938 59.9338 16.8784 59.7143 17.7351 59.2953L22.0334 63.5937C22.4351 63.9944 22.9795 64.2192 23.5469 64.2187H37.0435C36.9108 64.8781 36.7781 65.5395 36.6882 66.2138C36.5854 66.9759 36.5126 67.7379 36.4741 68.5H14.5905C14.0855 67.0717 13.0919 65.868 11.7852 65.1015C10.4786 64.335 8.94301 64.0551 7.44994 64.3112C5.95686 64.5674 4.60241 65.3432 3.62598 66.5014C2.64956 67.6596 2.11401 69.1257 2.11401 70.6406C2.11401 72.1555 2.64956 73.6216 3.62598 74.7799C4.60241 75.9381 5.95686 76.7138 7.44994 76.97C8.94301 77.2262 10.4786 76.9463 11.7852 76.1798C13.0919 75.4133 14.0855 74.2095 14.5905 72.7812H36.4762C36.5762 74.2199 36.7728 75.6502 37.0649 77.0625H23.5469C22.9792 77.0626 22.4348 77.2882 22.0334 77.6897L17.7351 81.9859C16.8784 81.567 15.938 81.3474 14.9844 81.3438C13.7142 81.3438 12.4726 81.7204 11.4166 82.426C10.3605 83.1317 9.53738 84.1346 9.05133 85.3081C8.56527 86.4815 8.4381 87.7728 8.68589 89.0185C8.93368 90.2642 9.5453 91.4085 10.4434 92.3066C11.3415 93.2047 12.4858 93.8163 13.7315 94.0641C14.9772 94.3119 16.2685 94.1847 17.4419 93.6987C18.6154 93.2126 19.6183 92.3895 20.324 91.3334C21.0296 90.2774 21.4062 89.0358 21.4062 87.7656C21.4026 86.812 21.183 85.8716 20.7641 85.0149L24.4331 81.3438H38.2615C38.7861 82.8148 39.4171 84.2456 40.1496 85.625H29.9687C29.401 85.625 28.8565 85.8505 28.4551 86.252C28.0536 86.6534 27.8281 87.1979 27.8281 87.7656V96.722C26.3999 97.227 25.1961 98.2206 24.4296 99.5273C23.6631 100.834 23.3832 102.369 23.6394 103.863C23.8955 105.356 24.6713 106.71 25.8295 107.687C26.9877 108.663 28.4539 109.198 29.9687 109.198C31.4836 109.198 32.9498 108.663 34.108 107.687C35.2662 106.71 36.042 105.356 36.2981 103.863C36.5543 102.369 36.2744 100.834 35.5079 99.5273C34.7414 98.2206 33.5376 97.227 32.1094 96.722V89.9062H42.8639C44.7384 92.4114 46.9706 94.6278 49.4891 96.4844C51.1115 97.712 52.4744 99.2492 53.4988 101.007C54.5232 102.765 55.1888 104.708 55.4572 106.725C54.27 107.878 53.5753 109.445 53.519 111.099C53.4628 112.752 54.0492 114.363 55.1553 115.594C54.4401 116.388 53.9356 117.35 53.6883 118.39C53.4409 119.43 53.4585 120.515 53.7395 121.546C54.0205 122.578 54.5558 123.522 55.2965 124.293C56.0371 125.064 56.9594 125.637 57.9788 125.959C58.3972 128.447 59.6836 130.706 61.6098 132.335C63.5359 133.964 65.9772 134.858 68.5 134.858C71.0228 134.858 73.4641 133.964 75.3902 132.335C77.3164 130.706 78.6028 128.447 79.0212 125.959C80.0406 125.637 80.9629 125.064 81.7035 124.293C82.4442 123.522 82.9795 122.578 83.2605 121.546C83.5415 120.515 83.5591 119.43 83.3117 118.39C83.0644 117.35 82.5599 116.388 81.8447 115.594C82.951 114.363 83.5374 112.752 83.4807 111.098C83.4241 109.444 82.7287 107.877 81.5407 106.725C81.8046 104.712 82.4662 102.772 83.4871 101.017C84.508 99.2622 85.8678 97.728 87.4873 96.5037C89.9967 94.639 92.2188 92.4162 94.0826 89.9062H104.891V96.722C103.462 97.227 102.259 98.2206 101.492 99.5273C100.726 100.834 100.446 102.369 100.702 103.863C100.958 105.356 101.734 106.71 102.892 107.687C104.05 108.663 105.516 109.198 107.031 109.198C108.546 109.198 110.012 108.663 111.17 107.687C112.329 106.71 113.104 105.356 113.361 103.863C113.617 102.369 113.337 100.834 112.57 99.5273C111.804 98.2206 110.6 97.227 109.172 96.722V87.7656C109.172 87.1979 108.946 86.6534 108.545 86.252C108.143 85.8505 107.599 85.625 107.031 85.625H96.8355C97.5706 84.2458 98.2045 82.8149 98.7321 81.3438H112.567L116.236 85.0149C115.817 85.8716 115.597 86.812 115.594 87.7656C115.594 89.0358 115.97 90.2774 116.676 91.3334C117.382 92.3895 118.385 93.2126 119.558 93.6987C120.732 94.1847 122.023 94.3119 123.268 94.0641C124.514 93.8163 125.658 93.2047 126.557 92.3066C127.455 91.4085 128.066 90.2642 128.314 89.0185C128.562 87.7728 128.435 86.4815 127.949 85.3081C127.463 84.1346 126.64 83.1317 125.583 82.426C124.527 81.7204 123.286 81.3438 122.016 81.3438C121.062 81.3474 120.122 81.567 119.265 81.9859L114.967 77.6876C114.565 77.2869 114.021 77.0621 113.453 77.0625H99.9051C100.194 75.6501 100.386 74.2197 100.481 72.7812H122.41C122.804 73.8883 123.495 74.8657 124.407 75.6066C125.319 76.3475 126.418 76.8234 127.582 76.9822C128.747 77.1411 129.932 76.9769 131.01 76.5074C132.087 76.038 133.015 75.2815 133.691 74.3205C134.368 73.3596 134.767 72.2311 134.846 71.0586C134.924 69.886 134.679 68.7143 134.137 67.6717C133.595 66.6291 132.776 65.7555 131.771 65.1466C130.766 64.5376 129.613 64.2166 128.438 64.2187ZM122.016 51.375C122.439 51.375 122.853 51.5005 123.205 51.7358C123.557 51.971 123.831 52.3053 123.993 52.6964C124.155 53.0876 124.198 53.518 124.115 53.9332C124.033 54.3485 123.829 54.7299 123.529 55.0293C123.23 55.3286 122.848 55.5325 122.433 55.6151C122.018 55.6977 121.588 55.6553 121.196 55.4933C120.805 55.3313 120.471 55.0569 120.236 54.7049C120.001 54.3529 119.875 53.939 119.875 53.5156C119.875 52.9479 120.101 52.4034 120.502 52.002C120.903 51.6005 121.448 51.375 122.016 51.375ZM85.625 14.9844C86.0484 14.9844 86.4622 15.1099 86.8143 15.3451C87.1663 15.5803 87.4407 15.9147 87.6027 16.3058C87.7647 16.697 87.8071 17.1274 87.7245 17.5426C87.6419 17.9578 87.438 18.3393 87.1387 18.6386C86.8393 18.938 86.4579 19.1419 86.0426 19.2245C85.6274 19.3071 85.197 19.2647 84.8058 19.1027C84.4147 18.9407 84.0804 18.6663 83.8451 18.3143C83.6099 17.9622 83.4844 17.5484 83.4844 17.125C83.4844 16.5573 83.7099 16.0128 84.1114 15.6113C84.5128 15.2099 85.0573 14.9844 85.625 14.9844ZM49.2344 17.125C49.2344 16.7016 49.3599 16.2877 49.5951 15.9357C49.8303 15.5837 50.1647 15.3093 50.5558 15.1473C50.947 14.9853 51.3774 14.9429 51.7926 15.0255C52.2079 15.1081 52.5893 15.312 52.8886 15.6113C53.188 15.9107 53.3919 16.2921 53.4745 16.7074C53.5571 17.1226 53.5147 17.553 53.3527 17.9442C53.1907 18.3353 52.9163 18.6696 52.5643 18.9049C52.2122 19.1401 51.7984 19.2656 51.375 19.2656C50.8073 19.2656 50.2628 19.0401 49.8613 18.6386C49.4599 18.2372 49.2344 17.6927 49.2344 17.125ZM12.8437 53.5156C12.8437 53.0922 12.9693 52.6784 13.2045 52.3264C13.4397 51.9743 13.774 51.7 14.1652 51.5379C14.5563 51.3759 14.9867 51.3335 15.402 51.4161C15.8172 51.4987 16.1986 51.7026 16.498 52.002C16.7974 52.3013 17.0013 52.6828 17.0839 53.098C17.1665 53.5132 17.1241 53.9437 16.962 54.3348C16.8 54.7259 16.5257 55.0603 16.1736 55.2955C15.8216 55.5307 15.4077 55.6562 14.9844 55.6562C14.4166 55.6562 13.8722 55.4307 13.4707 55.0293C13.0693 54.6278 12.8437 54.0833 12.8437 53.5156ZM14.9844 89.9062C14.561 89.9062 14.1471 89.7807 13.7951 89.5455C13.4431 89.3103 13.1687 88.976 13.0067 88.5848C12.8447 88.1937 12.8023 87.7633 12.8849 87.348C12.9675 86.9328 13.1713 86.5513 13.4707 86.252C13.7701 85.9526 14.1515 85.7487 14.5668 85.6661C14.982 85.5835 15.4124 85.6259 15.8035 85.7879C16.1947 85.95 16.529 86.2243 16.7642 86.5764C16.9994 86.9284 17.125 87.3423 17.125 87.7656C17.125 88.3334 16.8995 88.8778 16.498 89.2793C16.0966 89.6807 15.5521 89.9062 14.9844 89.9062ZM29.9687 104.891C29.5454 104.891 29.1315 104.765 28.7795 104.53C28.4275 104.295 28.1531 103.96 27.9911 103.569C27.829 103.178 27.7867 102.748 27.8692 102.332C27.9518 101.917 28.1557 101.536 28.4551 101.236C28.7545 100.937 29.1359 100.733 29.5511 100.651C29.9664 100.568 30.3968 100.61 30.7879 100.772C31.1791 100.934 31.5134 101.209 31.7486 101.561C31.9838 101.913 32.1094 102.327 32.1094 102.75C32.1094 103.318 31.8838 103.862 31.4824 104.264C31.0809 104.665 30.5365 104.891 29.9687 104.891ZM107.031 104.891C106.608 104.891 106.194 104.765 105.842 104.53C105.49 104.295 105.216 103.96 105.054 103.569C104.892 103.178 104.849 102.748 104.932 102.332C105.014 101.917 105.218 101.536 105.518 101.236C105.817 100.937 106.198 100.733 106.614 100.651C107.029 100.568 107.459 100.61 107.85 100.772C108.242 100.934 108.576 101.209 108.811 101.561C109.046 101.913 109.172 102.327 109.172 102.75C109.172 103.318 108.946 103.862 108.545 104.264C108.143 104.665 107.599 104.891 107.031 104.891ZM124.156 87.7656C124.156 88.189 124.031 88.6029 123.796 88.9549C123.56 89.3069 123.226 89.5813 122.835 89.7433C122.444 89.9053 122.013 89.9477 121.598 89.8651C121.183 89.7825 120.801 89.5787 120.502 89.2793C120.203 88.9799 119.999 88.5985 119.916 88.1832C119.834 87.768 119.876 87.3376 120.038 86.9464C120.2 86.5553 120.474 86.221 120.826 85.9858C121.178 85.7505 121.592 85.625 122.016 85.625C122.583 85.625 123.128 85.8505 123.529 86.252C123.931 86.6534 124.156 87.1979 124.156 87.7656ZM109.172 38.5312C109.172 38.9546 109.046 39.3685 108.811 39.7205C108.576 40.0725 108.242 40.3469 107.85 40.5089C107.459 40.6709 107.029 40.7133 106.614 40.6307C106.198 40.5481 105.817 40.3443 105.518 40.0449C105.218 39.7455 105.014 39.3641 104.932 38.9489C104.849 38.5336 104.892 38.1032 105.054 37.7121C105.216 37.3209 105.49 36.9866 105.842 36.7514C106.194 36.5162 106.608 36.3906 107.031 36.3906C107.599 36.3906 108.143 36.6161 108.545 37.0176C108.946 37.419 109.172 37.9635 109.172 38.5312ZM100.609 29.9687C101.033 29.9687 101.447 30.0943 101.799 30.3295C102.151 30.5647 102.425 30.899 102.587 31.2902C102.749 31.6813 102.791 32.1117 102.709 32.527C102.626 32.9422 102.422 33.3236 102.123 33.623C101.824 33.9224 101.442 34.1263 101.027 34.2089C100.612 34.2915 100.181 34.2491 99.7902 34.087C99.399 33.925 99.0647 33.6507 98.8295 33.2986C98.5943 32.9466 98.4688 32.5327 98.4688 32.1094C98.4688 31.5416 98.6943 30.9972 99.0957 30.5957C99.4972 30.1943 100.042 29.9687 100.609 29.9687ZM87.7656 34.25H94.5814C95.0225 35.4978 95.8384 36.5788 96.9174 37.3451C97.9965 38.1115 99.2859 38.5258 100.609 38.5312C100.615 39.8547 101.029 41.1442 101.795 42.2232C102.562 43.3022 103.643 44.1181 104.891 44.5592V51.375H94.1575C92.8974 49.6834 91.4734 48.1203 89.9062 46.7084C89.217 46.0919 88.4913 45.5332 87.7656 44.9831V34.25ZM68.5 6.42187C68.9234 6.42187 69.3372 6.54741 69.6893 6.78263C70.0413 7.01784 70.3157 7.35216 70.4777 7.74331C70.6397 8.13446 70.6821 8.56487 70.5995 8.98011C70.5169 9.39535 70.313 9.77677 70.0136 10.0761C69.7143 10.3755 69.3329 10.5794 68.9176 10.662C68.5024 10.7446 68.072 10.7022 67.6808 10.5402C67.2897 10.3782 66.9553 10.1038 66.7201 9.75176C66.4849 9.39973 66.3594 8.98587 66.3594 8.56249C66.3594 7.99476 66.5849 7.45029 66.9863 7.04884C67.3878 6.6474 67.9323 6.42187 68.5 6.42187ZM36.3906 29.9687C36.814 29.9687 37.2279 30.0943 37.5799 30.3295C37.9319 30.5647 38.2063 30.899 38.3683 31.2902C38.5303 31.6813 38.5727 32.1117 38.4901 32.527C38.4075 32.9422 38.2036 33.3236 37.9043 33.623C37.6049 33.9224 37.2235 34.1263 36.8082 34.2089C36.393 34.2915 35.9626 34.2491 35.5714 34.087C35.1803 33.925 34.846 33.6507 34.6108 33.2986C34.3755 32.9466 34.25 32.5327 34.25 32.1094C34.25 31.5416 34.4755 30.9972 34.877 30.5957C35.2784 30.1943 35.8229 29.9687 36.3906 29.9687ZM29.9687 36.3906C30.3921 36.3906 30.806 36.5162 31.158 36.7514C31.51 36.9866 31.7844 37.3209 31.9464 37.7121C32.1084 38.1032 32.1508 38.5336 32.0682 38.9489C31.9856 39.3641 31.7818 39.7455 31.4824 40.0449C31.183 40.3443 30.8016 40.5481 30.3864 40.6307C29.9711 40.7133 29.5407 40.6709 29.1496 40.5089C28.7584 40.3469 28.4241 40.0725 28.1889 39.7205C27.9537 39.3685 27.8281 38.9546 27.8281 38.5312C27.8281 37.9635 28.0536 37.419 28.4551 37.0176C28.8565 36.6161 29.401 36.3906 29.9687 36.3906ZM32.1094 51.375V44.5592C33.3572 44.1181 34.4382 43.3022 35.2045 42.2232C35.9709 41.1442 36.3851 39.8547 36.3906 38.5312C37.7141 38.5258 39.0035 38.1115 40.0826 37.3451C41.1616 36.5788 41.9775 35.4978 42.4186 34.25H49.2344V45.028C46.8286 46.8409 44.6842 48.9766 42.8617 51.375H32.1094ZM8.56249 72.7812C8.13912 72.7812 7.72525 72.6557 7.37322 72.4205C7.0212 72.1853 6.74683 71.851 6.58481 71.4598C6.42279 71.0687 6.3804 70.6382 6.463 70.223C6.54559 69.8078 6.74947 69.4263 7.04884 69.127C7.34821 68.8276 7.72964 68.6237 8.14488 68.5411C8.56012 68.4585 8.99052 68.5009 9.38167 68.6629C9.77282 68.825 10.1071 69.0993 10.3424 69.4514C10.5776 69.8034 10.7031 70.2172 10.7031 70.6406C10.7031 71.2084 10.4776 71.7528 10.0761 72.1543C9.6747 72.5557 9.13022 72.7812 8.56249 72.7812ZM68.5 130.578C67.1765 130.573 65.8871 130.158 64.8081 129.392C63.729 128.626 62.9131 127.545 62.472 126.297H74.528C74.0869 127.545 73.271 128.626 72.1919 129.392C71.1129 130.158 69.8235 130.573 68.5 130.578ZM77.0625 122.016H59.9375C59.3698 122.016 58.8253 121.79 58.4238 121.389C58.0224 120.987 57.7969 120.443 57.7969 119.875C57.7969 119.307 58.0224 118.763 58.4238 118.361C58.8253 117.96 59.3698 117.734 59.9375 117.734H77.0625C77.6302 117.734 78.1747 117.96 78.5762 118.361C78.9776 118.763 79.2031 119.307 79.2031 119.875C79.2031 120.443 78.9776 120.987 78.5762 121.389C78.1747 121.79 77.6302 122.016 77.0625 122.016ZM77.0625 113.453H59.9375C59.3698 113.453 58.8253 113.228 58.4238 112.826C58.0224 112.425 57.7969 111.88 57.7969 111.313C57.7969 110.745 58.0224 110.2 58.4238 109.799C58.8253 109.397 59.3698 109.172 59.9375 109.172H77.0625C77.6302 109.172 78.1747 109.397 78.5762 109.799C78.9776 110.2 79.2031 110.745 79.2031 111.313C79.2031 111.88 78.9776 112.425 78.5762 112.826C78.1747 113.228 77.6302 113.453 77.0625 113.453ZM84.955 93.0508C81.0823 95.95 78.4268 100.186 77.5056 104.936C77.3579 104.925 77.2145 104.891 77.0625 104.891H59.9375C59.7855 104.891 59.6421 104.925 59.4922 104.936C58.5611 100.18 55.8973 95.9391 52.0172 93.0359C47.5101 89.7296 44.1041 85.1416 42.2435 79.8706C40.3829 74.5996 40.1541 68.8901 41.587 63.4871C43.0198 58.0841 46.0478 53.2384 50.2759 49.5821C54.504 45.9257 59.7359 43.6285 65.2891 42.9902C69.1889 42.5372 73.1405 42.9145 76.8842 44.0974C80.6279 45.2802 84.0789 47.2419 87.0105 49.8534C89.9421 52.465 92.2879 55.6673 93.8938 59.2499C95.4997 62.8326 96.3293 66.7145 96.3281 70.6406C96.3169 75.0052 95.2821 79.3063 93.3069 83.1984C91.3317 87.0904 88.4711 90.465 84.955 93.0508ZM128.438 72.7812C128.014 72.7812 127.6 72.6557 127.248 72.4205C126.896 72.1853 126.622 71.851 126.46 71.4598C126.298 71.0687 126.255 70.6382 126.338 70.223C126.421 69.8078 126.624 69.4263 126.924 69.127C127.223 68.8276 127.605 68.6237 128.02 68.5411C128.435 68.4585 128.866 68.5009 129.257 68.6629C129.648 68.825 129.982 69.0993 130.217 69.4514C130.453 69.8034 130.578 70.2172 130.578 70.6406C130.578 71.2084 130.353 71.7528 129.951 72.1543C129.55 72.5557 129.005 72.7812 128.438 72.7812Z" fill="white"/>
</svg>
