<svg width="269" height="42" viewBox="0 0 269 42" fill="none" xmlns="http://www.w3.org/2000/svg">
<mask id="mask0_639_1286" style="mask-type:alpha" maskUnits="userSpaceOnUse" x="0" y="0" width="269" height="42">
<path d="M38.5742 0C39.6334 7.16371e-05 40.4922 0.858746 40.4922 1.91797C40.4922 2.45727 40.2685 2.94353 39.9102 3.29199L45.2002 38.1445C45.821 38.4621 46.2471 39.1064 46.2471 39.8516C46.2469 40.9106 45.3882 41.7694 44.3291 41.7695C43.5766 41.7695 42.9274 41.3348 42.6133 40.7041H41.7812C41.4672 41.3349 40.818 41.7695 40.0654 41.7695C39.0062 41.7695 38.1476 40.9108 38.1475 39.8516C38.1475 39.2098 38.4632 38.6421 38.9473 38.2939L35.0449 11.3496C34.364 11.0553 33.8869 10.3788 33.8867 9.58984C33.8867 8.53062 34.7455 7.67194 35.8047 7.67188C36.864 7.67188 37.7226 8.53058 37.7227 9.58984C37.7225 10.2192 37.4176 10.7754 36.9492 11.125L40.8574 38.1055C41.1843 38.254 41.4623 38.4905 41.6602 38.7861H42.7344C42.8773 38.5726 43.0616 38.3893 43.2764 38.248L38.042 3.75879C37.6001 3.6313 37.224 3.35089 36.9756 2.97656C36.6762 3.42769 36.1917 3.74345 35.6299 3.81738L27.1279 20.3486C27.2256 20.5787 27.2793 20.832 27.2793 21.0977C27.2792 22.1568 26.4205 23.0156 25.3613 23.0156C24.3021 23.0156 23.4435 22.1568 23.4434 21.0977C23.4434 20.0384 24.3021 19.1797 25.3613 19.1797C25.4306 19.1797 25.499 19.1833 25.5664 19.1904L33.8525 3.07812C33.6069 2.75578 33.46 2.3545 33.46 1.91797C33.46 0.85871 34.3187 1.32716e-05 35.3779 0C36.0451 0.000148038 36.6321 0.34138 36.9756 0.858398C37.3191 0.341166 37.9068 8.36267e-06 38.5742 0ZM40.1729 38.999C39.7609 38.999 39.4268 39.3332 39.4268 39.7451C39.4269 40.157 39.761 40.4912 40.1729 40.4912C40.5845 40.4909 40.9179 40.1568 40.918 39.7451C40.918 39.3333 40.5846 38.9993 40.1729 38.999ZM44.4355 38.999C44.0238 38.9993 43.6904 39.3333 43.6904 39.7451C43.6906 40.1568 44.0239 40.491 44.4355 40.4912C44.8473 40.4911 45.1815 40.1569 45.1816 39.7451C45.1816 39.3333 44.8474 38.9991 44.4355 38.999ZM25.4678 20.2451C25.0561 20.2454 24.7227 20.5795 24.7227 20.9912C24.7228 21.4029 25.0561 21.737 25.4678 21.7373C25.8796 21.7373 26.2138 21.4031 26.2139 20.9912C26.2138 20.5793 25.8797 20.2451 25.4678 20.2451ZM35.9111 8.7373C35.4994 8.73759 35.166 9.07165 35.166 9.4834C35.1662 9.89499 35.4996 10.2292 35.9111 10.2295C36.3229 10.2295 36.657 9.89517 36.6572 9.4834C36.6572 9.07147 36.3231 8.7373 35.9111 8.7373ZM35.4844 1.06543C35.0727 1.06568 34.7393 1.39975 34.7393 1.81152C34.7393 2.22331 35.0726 2.55737 35.4844 2.55762C35.8961 2.55738 36.2305 2.22332 36.2305 1.81152C36.2304 1.39975 35.8961 1.06566 35.4844 1.06543ZM38.6807 1.06543C38.2689 1.06567 37.9356 1.39975 37.9355 1.81152C37.9355 2.22331 38.2689 2.55737 38.6807 2.55762C39.0925 2.55755 39.4268 2.22342 39.4268 1.81152C39.4267 1.39965 39.0925 1.0655 38.6807 1.06543Z" fill="url(#paint0_linear_639_1286)"/>
<path d="M9.16504 15.3435C10.2243 15.3435 11.083 16.2022 11.083 17.2614C11.083 17.4364 11.0576 17.6053 11.0137 17.7663L21.7461 37.946C22.7015 38.0554 23.4433 38.8666 23.4434 39.8513C23.4433 40.9105 22.5846 41.7693 21.5254 41.7693C20.4663 41.7691 19.6075 40.9104 19.6074 39.8513C19.6074 39.4255 19.7477 39.0328 19.9824 38.7146L9.62891 19.2478L7.17383 34.738C7.60812 35.0896 7.88668 35.6259 7.88672 36.2282C7.88672 37.2875 7.02803 38.1462 5.96875 38.1462C4.90949 38.1462 4.05078 37.2875 4.05078 36.2282C4.05083 35.4122 4.56091 34.7162 5.2793 34.4392L7.79004 18.5964C7.45476 18.251 7.24707 17.7808 7.24707 17.2614C7.24709 16.2023 8.10593 15.3437 9.16504 15.3435ZM21.6328 38.9987C21.221 38.9989 20.8867 39.333 20.8867 39.7448C20.8868 40.1566 21.2211 40.4908 21.6328 40.4909C22.0445 40.4907 22.3778 40.1566 22.3779 39.7448C22.3779 39.333 22.0446 38.999 21.6328 38.9987ZM6.0752 35.3757C5.66353 35.376 5.33016 35.7101 5.33008 36.1218C5.33008 36.5336 5.66348 36.8676 6.0752 36.8679C6.48714 36.8679 6.82129 36.5337 6.82129 36.1218C6.82121 35.7099 6.48709 35.3757 6.0752 35.3757ZM9.27148 16.4089C8.85994 16.4093 8.52641 16.7434 8.52637 17.155C8.52637 17.5667 8.85991 17.9007 9.27148 17.9011C9.68343 17.9011 10.0176 17.5669 10.0176 17.155C10.0175 16.7431 9.6834 16.4089 9.27148 16.4089Z" fill="url(#paint1_linear_639_1286)"/>
<path d="M7.24512 2.55634C8.30439 2.55634 9.16307 3.41504 9.16309 4.4743C9.16308 4.90705 9.01812 5.30475 8.77637 5.62567L8.93848 5.53973L25.2617 36.2331C25.2777 36.234 25.2937 36.2347 25.3096 36.236L29.0156 29.28C28.8599 29.0027 28.7695 28.6831 28.7695 28.3425C28.7697 27.2834 29.6285 26.4246 30.6875 26.4245C31.7467 26.4245 32.6053 27.2834 32.6055 28.3425C32.6055 29.4017 31.7468 30.2604 30.6875 30.2604C30.6806 30.2604 30.6738 30.2586 30.667 30.2585L26.8896 37.3513C27.0003 37.5937 27.0644 37.8623 27.0645 38.1462C27.0644 39.2053 26.2056 40.064 25.1465 40.0641C24.0872 40.0641 23.2286 39.2054 23.2285 38.1462C23.2285 37.7558 23.3446 37.3925 23.5449 37.0895L7.61719 7.1413L3.00781 38.2731C3.20664 38.4107 3.37814 38.5848 3.5127 38.7858H7.99414C8.19119 38.4912 8.46863 38.2558 8.79395 38.1071L10.0449 30.6481C9.63657 30.2964 9.37695 29.7762 9.37695 29.195C9.37719 28.136 10.2359 27.2771 11.2949 27.277C12.3541 27.277 13.2127 28.1359 13.2129 29.195C13.2129 30.0315 12.6766 30.7404 11.9297 31.0026L10.707 38.2946C11.1911 38.6428 11.5078 39.2094 11.5078 39.8513C11.5076 40.9103 10.649 41.7692 9.58984 41.7692C8.83739 41.7692 8.18816 41.3345 7.87402 40.7038H3.63379C3.31967 41.3345 2.67046 41.7692 1.91797 41.7692C0.858809 41.7692 0.000173154 40.9104 0 39.8513C9.56096e-06 39.0882 0.446542 38.4306 1.0918 38.1218L5.875 5.81415C5.53691 5.46836 5.32715 4.99612 5.32715 4.4743C5.32716 3.41519 6.18606 2.55659 7.24512 2.55634ZM2.02441 38.9987C1.61269 38.999 1.2793 39.333 1.2793 39.7448C1.27947 40.1565 1.61279 40.4907 2.02441 40.4909C2.43625 40.4909 2.77033 40.1566 2.77051 39.7448C2.77051 39.3329 2.43636 38.9987 2.02441 38.9987ZM9.69629 38.9987C9.28457 38.999 8.95119 39.333 8.95117 39.7448C8.95139 40.1564 9.28469 40.4907 9.69629 40.4909C10.1081 40.4909 10.4422 40.1566 10.4424 39.7448C10.4424 39.3329 10.1082 38.9987 9.69629 38.9987ZM25.2529 37.2936C24.8412 37.2939 24.5078 37.628 24.5078 38.0397C24.5079 38.4515 24.8412 38.7856 25.2529 38.7858C25.6647 38.7857 25.999 38.4515 25.999 38.0397C25.999 37.6279 25.6647 37.2938 25.2529 37.2936ZM11.4014 28.3425C10.9898 28.3428 10.6565 28.677 10.6562 29.0886C10.6564 29.5002 10.9898 29.8334 11.4014 29.8337C11.8132 29.8337 12.1473 29.5004 12.1475 29.0886C12.1472 28.6768 11.8132 28.3425 11.4014 28.3425ZM30.7939 27.4899C30.3824 27.4903 30.049 27.8245 30.0488 28.236C30.0488 28.6477 30.3823 28.9818 30.7939 28.9821C31.2059 28.9821 31.54 28.648 31.54 28.236C31.5398 27.8243 31.2058 27.4899 30.7939 27.4899ZM7.35156 3.62177C6.94007 3.62226 6.60648 3.95626 6.60645 4.36786C6.60645 4.77949 6.94005 5.11345 7.35156 5.11395C7.7635 5.11395 8.09765 4.7798 8.09766 4.36786C8.09762 3.95595 7.76348 3.62177 7.35156 3.62177Z" fill="url(#paint2_linear_639_1286)"/>
<path d="M10.2285 0C11.2878 0 12.1465 0.858702 12.1465 1.91797C12.1465 2.2842 12.0414 2.62494 11.8633 2.91602L25.0605 27.7285C25.1489 27.7146 25.2391 27.7065 25.3311 27.7051L31.4502 16.2148C31.2383 15.9064 31.1133 15.5333 31.1133 15.1309C31.1133 14.0717 31.9722 13.2131 33.0312 13.2129C34.0905 13.2129 34.9492 14.0716 34.9492 15.1309C34.9492 15.6967 34.7022 16.2027 34.3125 16.5537L37.2236 38.3135C37.8932 38.6127 38.3603 39.2836 38.3604 40.0645C38.3603 41.1236 37.5016 41.9824 36.4424 41.9824C35.3832 41.9824 34.5245 41.1237 34.5244 40.0645C34.5244 39.4266 34.8364 38.8624 35.3154 38.5137L32.5908 18.1523L27.0059 28.6396C27.1778 28.9271 27.2783 29.2627 27.2783 29.6221C27.2781 30.6812 26.4195 31.54 25.3604 31.54C24.3013 31.5399 23.4426 30.6811 23.4424 29.6221C23.4424 29.3973 23.4836 29.1819 23.5547 28.9814L10.1797 3.83301C9.14301 3.80706 8.31055 2.9609 8.31055 1.91797C8.31056 0.85871 9.16926 1.32716e-05 10.2285 0ZM36.5488 39.2119C36.1371 39.2121 35.8038 39.5462 35.8037 39.958C35.8038 40.3697 36.1371 40.7039 36.5488 40.7041C36.9607 40.7041 37.2948 40.3699 37.2949 39.958C37.2949 39.5461 36.9607 39.212 36.5488 39.2119ZM25.4668 28.7695C25.0552 28.7699 24.7217 29.1039 24.7217 29.5156C24.7219 29.9271 25.0553 30.2613 25.4668 30.2617C25.8786 30.2617 26.2127 29.9274 26.2129 29.5156C26.2129 29.1037 25.8787 28.7695 25.4668 28.7695ZM33.1377 14.2783C32.7262 14.2788 32.3926 14.6128 32.3926 15.0244C32.3926 15.436 32.7262 15.77 33.1377 15.7705C33.5496 15.7705 33.8837 15.4363 33.8838 15.0244C33.8838 14.6125 33.5496 14.2783 33.1377 14.2783ZM10.335 1.06543C9.92324 1.06567 9.58987 1.39975 9.58984 1.81152C9.58984 2.22331 9.92323 2.55737 10.335 2.55762C10.7469 2.55762 11.0811 2.22346 11.0811 1.81152C11.081 1.3996 10.7469 1.06543 10.335 1.06543Z" fill="url(#paint3_linear_639_1286)"/>
<path d="M59.2461 32.2855H63.7214V17.5809L72.0327 25.8922L80.4506 17.5809V32.2855H84.9259V9.16299H82.3686L72.0327 19.2857L61.91 9.16299H59.2461V32.2855Z" fill="url(#paint4_linear_639_1286)"/>
<path d="M93.2372 32.2855V9.16299H107.835V13.958H97.606V18.6464H105.065V23.1217H97.606V27.9167H107.835V32.2855H93.2372Z" fill="url(#paint5_linear_639_1286)"/>
<path d="M112.63 13.958V9.16299H129.786V13.958H123.499V32.2855H118.917V13.958H112.63Z" fill="url(#paint6_linear_639_1286)"/>
<path d="M148.858 19.2856L159.194 9.16351H161.965V32.2856H157.17V17.6879L148.858 25.7856L140.548 17.6879V32.2856H136.072V9.16351H138.736L148.858 19.2856ZM184.875 14.0649H174.539V18.5405H181.997V23.3354H174.539V27.81H184.875V32.2856H169.744V9.16351H184.875V14.0649ZM206.825 14.0649H200.432V32.2856H195.743V14.0649H189.35V9.16351H206.825V14.0649ZM222.489 9.16839C223.367 9.19444 224.234 9.3787 225.047 9.71527C225.926 10.0793 226.725 10.613 227.397 11.2856C228.07 11.9583 228.605 12.7573 228.969 13.6362C229.333 14.5152 229.52 15.4582 229.521 16.4096C229.52 17.3609 229.333 18.3031 228.969 19.1821C228.605 20.0611 228.07 20.8598 227.397 21.5327C226.823 22.1067 226.157 22.5784 225.428 22.9311L231.973 32.1821H226.179L220.19 23.6547H217.375V32.1791H212.687V9.16351H222.489V9.16839ZM241.882 32.1791H237.193V9.16351H241.882V32.1791ZM255.754 8.72015C258.066 7.9205 260.568 7.84495 262.925 8.50238C265.282 9.15998 267.383 10.5204 268.947 12.4018L265.221 15.5004C264.262 14.3507 262.968 13.5281 261.52 13.1479C260.068 12.767 258.533 12.8493 257.13 13.3832C255.727 13.9173 254.526 14.8765 253.695 16.1264C252.865 17.3763 252.444 18.8549 252.495 20.3549C252.546 21.855 253.065 23.3026 253.979 24.4936C254.892 25.6843 256.155 26.5604 257.59 26.9985C259.025 27.4364 260.563 27.4141 261.985 26.936C263.129 26.5515 264.152 25.8866 264.967 25.0092L268.505 28.3012C266.838 30.0926 264.665 31.3342 262.275 31.8598C259.886 32.3852 257.392 32.1695 255.128 31.2426C252.864 30.3156 250.935 28.7207 249.6 26.6703C248.264 24.6199 247.585 22.211 247.653 19.7651C247.721 17.3192 248.533 14.952 249.98 12.9789C251.428 11.0059 253.441 9.51992 255.754 8.72015ZM259.738 20.1459L259.691 20.1118L259.696 20.1069L259.738 20.1459ZM217.375 18.9662H222.274V14.2778H217.375V18.9662ZM222.275 18.9662C222.583 18.9662 222.888 18.9061 223.172 18.7885C223.456 18.6707 223.715 18.4973 223.933 18.2797C224.15 18.0621 224.323 17.8033 224.44 17.519C224.558 17.2347 224.619 16.9302 224.619 16.6225C224.619 16.3147 224.558 16.0094 224.44 15.725C224.323 15.4409 224.15 15.1818 223.933 14.9643C223.715 14.7469 223.456 14.5742 223.172 14.4565C222.888 14.3389 222.583 14.2778 222.275 14.2778V18.9662Z" fill="url(#paint7_linear_639_1286)"/>
</mask>
<g mask="url(#mask0_639_1286)">
<rect x="-13.5059" y="-49.9165" width="299.499" height="139.179" rx="3.38113" fill="white"/>
</g>
<defs>
<linearGradient id="paint0_linear_639_1286" x1="23.4434" y1="20.8847" x2="46.2469" y2="20.8847" gradientUnits="userSpaceOnUse">
<stop stop-color="#0F56C9"/>
<stop offset="1" stop-color="#171661"/>
</linearGradient>
<linearGradient id="paint1_linear_639_1286" x1="4.05078" y1="28.5564" x2="23.4434" y2="28.5564" gradientUnits="userSpaceOnUse">
<stop stop-color="#0F56C9"/>
<stop offset="1" stop-color="#171661"/>
</linearGradient>
<linearGradient id="paint2_linear_639_1286" x1="0" y1="22.1628" x2="32.6055" y2="22.1628" gradientUnits="userSpaceOnUse">
<stop stop-color="#0F56C9"/>
<stop offset="1" stop-color="#171661"/>
</linearGradient>
<linearGradient id="paint3_linear_639_1286" x1="8.31055" y1="20.9912" x2="38.3603" y2="20.9912" gradientUnits="userSpaceOnUse">
<stop stop-color="#0F56C9"/>
<stop offset="1" stop-color="#171661"/>
</linearGradient>
<linearGradient id="paint4_linear_639_1286" x1="59.2461" y1="20.7242" x2="129.786" y2="20.7242" gradientUnits="userSpaceOnUse">
<stop stop-color="#0F56C9"/>
<stop offset="1" stop-color="#171661"/>
</linearGradient>
<linearGradient id="paint5_linear_639_1286" x1="59.2461" y1="20.7242" x2="129.786" y2="20.7242" gradientUnits="userSpaceOnUse">
<stop stop-color="#0F56C9"/>
<stop offset="1" stop-color="#171661"/>
</linearGradient>
<linearGradient id="paint6_linear_639_1286" x1="59.2461" y1="20.7242" x2="129.786" y2="20.7242" gradientUnits="userSpaceOnUse">
<stop stop-color="#0F56C9"/>
<stop offset="1" stop-color="#171661"/>
</linearGradient>
<linearGradient id="paint7_linear_639_1286" x1="136.072" y1="20.1725" x2="268.947" y2="20.1725" gradientUnits="userSpaceOnUse">
<stop stop-color="#0F56C9"/>
<stop offset="1" stop-color="#171661"/>
</linearGradient>
</defs>
</svg>
