<svg width="516" height="244" viewBox="0 0 516 244" fill="none" xmlns="http://www.w3.org/2000/svg">
<mask id="mask0_1079_4889" style="mask-type:alpha" maskUnits="userSpaceOnUse" x="0" y="0" width="516" height="244">
<rect width="515.539" height="243.459" rx="16.2306" fill="#D9D9D9"/>
</mask>
<g mask="url(#mask0_1079_4889)">
<rect width="515.539" height="243.459" rx="16.2306" fill="url(#paint0_linear_1079_4889)"/>
<path d="M81.7979 77.7725C81.9767 77.772 82.1554 77.7713 82.3342 77.7704C82.816 77.7687 83.2977 77.7693 83.7794 77.7706C84.286 77.7716 84.7926 77.7706 85.2992 77.77C86.1497 77.7693 87.0002 77.7702 87.8507 77.7721C88.8308 77.7742 89.8108 77.7736 90.7908 77.7714C91.6356 77.7696 92.4803 77.7694 93.3251 77.7704C93.8282 77.771 94.3312 77.7711 94.8343 77.7698C95.3076 77.7687 95.7809 77.7695 96.2542 77.7717C96.5084 77.7725 96.7626 77.7713 97.0167 77.7701C99.2446 77.786 101.206 78.558 102.824 80.0606C104.278 81.5446 105.154 83.4133 105.153 85.4776C105.153 85.6062 105.153 85.6062 105.153 85.7374C105.153 86.0228 105.153 86.3082 105.152 86.5937C105.152 86.799 105.152 87.0043 105.152 87.2097C105.152 87.7659 105.151 88.3221 105.15 88.8783C105.149 89.46 105.149 90.0417 105.149 90.6234C105.149 91.7245 105.148 92.8255 105.146 93.9265C105.145 95.1802 105.144 96.4339 105.143 97.6876C105.142 99.8901 105.14 102.093 105.138 104.295C105.137 104.917 105.642 105.421 106.265 105.42C108.789 105.412 111.508 105.406 113.962 105.403C115.328 105.401 116.695 105.398 118.061 105.394C119.252 105.39 120.443 105.387 121.634 105.386C122.264 105.386 122.894 105.385 123.525 105.382C124.119 105.379 124.713 105.378 125.307 105.379C125.524 105.379 125.741 105.378 125.959 105.376C128.294 105.361 130.258 105.841 131.987 107.471C132.086 107.568 132.184 107.666 132.286 107.766C132.37 107.846 132.455 107.927 132.542 108.009C135.035 110.943 134.657 116.392 134.564 120.183C134.549 120.803 134.051 121.306 133.431 121.306C129.796 121.306 118.166 121.306 111.658 121.306C110.955 119.888 110.252 118.471 109.529 117.01C108.057 114.995 107.288 114.109 105.004 113.365C103.035 113.224 101.654 113.718 100.137 114.942C99.1449 115.845 98.4847 116.912 97.8173 118.051C97.7674 118.134 97.7175 118.217 97.6661 118.303C93.7617 124.838 92.1547 133.241 90.6376 140.589C90.5357 141.076 90.4086 141.539 90.2315 142.006C90.1876 142.006 90.1437 142.006 90.0985 142.006C88.7647 133.117 88.7647 133.117 88.4266 130.436C88.1602 128.327 87.8549 126.224 87.5449 124.121C87.0426 120.713 86.5582 117.302 86.0842 113.889C85.7304 111.342 85.3658 108.797 84.9919 106.253C84.7514 104.616 84.5122 102.979 84.28 101.34C84.1478 100.408 84.0138 99.4769 83.8791 98.5455C83.7892 97.9235 83.7001 97.3014 83.6125 96.679C83.5266 96.0687 83.4388 95.4587 83.3497 94.8488C83.3164 94.6185 83.2838 94.3882 83.2518 94.1577C83.2073 93.8368 83.1603 93.5163 83.1127 93.1958C83.1003 93.1023 83.0879 93.0088 83.0752 92.9125C82.9715 92.2399 82.7599 91.7903 82.3797 91.2325C81.8621 90.8757 81.3986 90.7686 80.7765 90.7977C80.3134 90.8765 80.0628 91.056 79.718 91.3627C79.2015 92.193 79.0273 93.0135 78.854 93.9643C78.7604 94.4771 78.6609 94.9888 78.5624 95.5007C78.5285 95.6781 78.5285 95.6781 78.4939 95.8591C78.2775 96.9847 78.0481 98.1076 77.8169 99.2304C77.7974 99.3252 77.7779 99.4199 77.7578 99.5175C77.6774 99.9084 77.5968 100.299 77.5163 100.69C76.658 104.854 76.658 104.854 75.8503 109.028C75.408 111.39 74.9459 113.749 74.4779 116.107C74.4594 116.2 74.4409 116.293 74.4218 116.389C73.717 119.94 72.9969 123.488 72.2654 127.034C71.9244 127.099 71.9244 127.099 71.4669 127.034C70.7046 126.432 70.2808 125.592 69.8866 124.735C69.8305 124.617 69.7744 124.498 69.7166 124.376C69.1673 123.204 68.6573 122.016 68.1562 120.823C67.9 120.214 67.641 119.606 67.3819 118.999C67.3319 118.881 67.2819 118.764 67.2303 118.643C66.8405 117.73 66.4428 116.821 66.0272 115.919C65.9774 115.81 65.9277 115.701 65.8764 115.588C65.5618 114.915 65.2382 114.353 64.6132 113.91C63.8695 113.663 63.0241 113.549 62.2862 113.87C61.5851 114.259 61.2064 114.711 60.8037 115.382C60.6793 115.579 60.5547 115.776 60.4299 115.973C60.3319 116.129 60.3319 116.129 60.2319 116.289C58.2629 119.386 58.2629 119.386 57.094 120.655C57.0049 120.766 56.9158 120.877 56.824 120.992C56.2764 121.427 55.8779 121.394 55.1925 121.38C55.0074 121.38 55.0074 121.38 54.8185 121.38C54.4116 121.38 54.0049 121.375 53.598 121.37C53.3155 121.368 53.033 121.367 52.7505 121.367C52.0077 121.364 51.2649 121.358 50.5222 121.351C49.7639 121.344 49.0057 121.341 48.2474 121.338C47.128 121.333 46.0087 121.325 44.8894 121.316C44.2767 121.311 43.7815 120.815 43.7772 120.202C43.772 119.464 43.7679 118.727 43.7651 117.989C43.763 117.475 43.7602 116.961 43.7556 116.448C43.7512 115.95 43.7489 115.453 43.7479 114.956C43.7471 114.768 43.7457 114.58 43.7435 114.392C43.7149 111.816 44.3109 109.543 46.1812 107.636C48.1275 105.804 50.1903 105.381 52.7857 105.393C53.0088 105.394 53.2319 105.393 53.455 105.393C54.0576 105.393 54.6602 105.395 55.2628 105.397C55.8937 105.398 56.5246 105.398 57.1555 105.399C58.3489 105.4 59.5422 105.402 60.7356 105.404C62.0947 105.407 63.4539 105.409 64.813 105.41C67.2307 105.412 69.6485 105.416 72.0662 105.421C72.6895 105.422 73.1946 104.916 73.192 104.292C73.1823 102.018 73.1741 99.5765 73.1694 97.3697C73.1667 96.1231 73.1629 94.8765 73.1568 93.63C73.1515 92.5427 73.1481 91.4556 73.1469 90.3683C73.1462 89.7933 73.1446 89.2183 73.1407 88.6432C73.1371 88.1006 73.136 87.558 73.1368 87.0154C73.1366 86.8175 73.1356 86.6197 73.1335 86.4219C73.1104 84.0822 73.7743 81.8891 75.4454 80.1496C76.3926 79.3261 77.4632 78.6434 78.6534 78.2136C78.7937 78.162 78.7937 78.162 78.9368 78.1093C79.8953 77.7913 80.7922 77.7677 81.7979 77.7725Z" fill="#0097A7"/>
<path d="M80.3776 104.267C80.4945 103.745 80.9914 103.66 81.0696 104.189C81.0828 104.277 81.0961 104.364 81.1097 104.454C81.1537 104.747 81.196 105.039 81.2384 105.332C81.2691 105.539 81.3 105.746 81.3309 105.953C81.4128 106.503 81.4933 107.053 81.5736 107.603C81.6371 108.037 81.7015 108.47 81.7661 108.903C82.1399 111.414 82.4966 113.928 82.8415 116.443C83.0154 117.711 83.193 118.978 83.3729 120.245C83.3931 120.387 83.3931 120.387 83.4136 120.532C83.4818 121.012 83.55 121.491 83.6182 121.971C83.69 122.474 83.7615 122.978 83.8331 123.482C84.094 125.319 84.3552 127.157 84.6205 128.994C84.6887 129.466 84.7568 129.938 84.8248 130.411C84.8409 130.522 84.8569 130.633 84.8734 130.748C85.075 132.15 85.2575 133.553 85.4237 134.959C85.6642 136.991 85.9828 139.009 86.3011 141.03C86.6456 143.22 86.9581 145.411 87.219 147.612C87.4014 150.402 87.4014 150.402 88.7674 152.681C89.4608 152.907 90.1963 152.936 90.8718 152.632C91.8121 152 91.9801 150.494 92.2192 149.475C92.2535 149.333 92.2878 149.19 92.323 149.043C92.5706 148.002 92.7947 146.956 93.0132 145.909C93.6781 142.753 94.4538 139.618 95.2642 136.494C95.3104 136.316 95.3566 136.137 95.4028 135.959C95.4258 135.871 95.4488 135.782 95.4724 135.691C95.6299 135.08 95.7791 134.468 95.9256 133.854C96.2811 132.37 96.68 130.9 97.11 129.434C97.1445 129.317 97.179 129.199 97.2146 129.078C100.194 118.946 100.667 118.134 103.233 117.01C103.728 116.795 104.11 116.795 104.604 117.01C106.631 117.981 107.524 120.685 108.318 122.59C108.761 123.641 109.121 124.315 110.194 124.821C110.689 124.985 111.175 124.969 111.694 124.972C111.792 124.972 111.89 124.973 111.991 124.974C112.318 124.976 112.646 124.977 112.973 124.978C113.208 124.979 113.443 124.98 113.678 124.982C114.315 124.985 114.953 124.988 115.59 124.991C116.257 124.993 116.923 124.997 117.589 125C118.851 125.007 120.112 125.013 121.374 125.018C122.811 125.025 124.247 125.032 125.683 125.039C127.842 125.05 131.585 125.038 133.446 125.031C134.065 125.029 134.566 125.527 134.564 126.145C134.563 126.57 134.561 126.996 134.562 127.407C134.564 127.67 134.566 127.932 134.568 128.195C134.595 131.362 134.49 134.135 132.136 136.57C130.676 137.919 128.705 138.768 126.694 138.767C126.601 138.767 126.509 138.767 126.414 138.767C126.105 138.767 125.796 138.767 125.487 138.766C125.266 138.766 125.044 138.766 124.822 138.766C124.221 138.766 123.62 138.765 123.018 138.764C122.39 138.763 121.761 138.763 121.133 138.763C119.943 138.763 118.753 138.762 117.563 138.76C116.208 138.759 114.853 138.758 113.498 138.758C111.087 138.756 108.677 138.755 106.266 138.752C105.643 138.752 105.139 139.258 105.142 139.881C105.151 142.053 105.159 144.38 105.164 146.485C105.167 147.683 105.171 148.88 105.177 150.077C105.182 151.121 105.185 152.166 105.187 153.21C105.187 153.762 105.189 154.315 105.193 154.867C105.197 155.388 105.198 155.91 105.197 156.431C105.197 156.621 105.198 156.811 105.2 157C105.227 159.621 104.494 161.834 102.608 163.747C100.835 165.214 98.9094 165.761 96.6212 165.753C96.4389 165.753 96.2566 165.754 96.0743 165.755C95.5835 165.758 95.0927 165.758 94.6019 165.757C94.1902 165.756 93.7785 165.757 93.3668 165.758C92.3945 165.76 91.4222 165.76 90.4499 165.758C89.4512 165.757 88.4525 165.759 87.4538 165.762C86.5923 165.765 85.7308 165.766 84.8693 165.765C84.3566 165.765 83.8439 165.765 83.3311 165.767C82.8485 165.769 82.3659 165.769 81.8833 165.766C81.6247 165.765 81.3662 165.767 81.1076 165.769C78.9703 165.752 77.0392 164.981 75.4805 163.539C73.7926 161.703 73.2222 159.613 73.2543 157.196C73.2545 156.993 73.2544 156.79 73.254 156.587C73.2538 156.043 73.2577 155.5 73.2624 154.956C73.2666 154.385 73.2669 153.814 73.2677 153.243C73.2698 152.165 73.2752 151.087 73.2819 150.009C73.2894 148.781 73.293 147.552 73.2963 146.324C73.3022 144.177 73.3116 142.031 73.3234 139.884C73.3268 139.26 72.8209 138.753 72.1965 138.754C69.7121 138.762 67.0371 138.768 64.6221 138.771C63.2743 138.773 61.9264 138.776 60.5786 138.781C59.4032 138.784 58.2278 138.787 57.0525 138.788C56.4307 138.788 55.8089 138.789 55.187 138.792C54.6006 138.795 54.0141 138.796 53.4276 138.795C53.2135 138.795 52.9995 138.796 52.7854 138.798C50.2695 138.814 48.0546 138.31 46.1892 136.581C44.9382 135.353 43.9793 133.63 43.9026 131.876C43.9029 131.75 43.9032 131.625 43.9035 131.496C43.9035 131.352 43.9035 131.209 43.9035 131.061C43.9042 130.909 43.9049 130.756 43.9056 130.599C43.9058 130.441 43.906 130.283 43.9062 130.121C43.9069 129.618 43.9086 129.115 43.9103 128.613C43.9109 128.271 43.9116 127.93 43.9121 127.588C43.9129 127.123 43.9093 126.652 43.9064 126.182C43.9026 125.565 44.4017 125.065 45.0192 125.064C46.2545 125.063 47.6338 125.065 48.736 125.057C49.4817 125.052 50.2274 125.048 50.9732 125.046C51.6937 125.044 52.4142 125.039 53.1347 125.033C53.4088 125.031 53.6828 125.03 53.9568 125.03C56.164 125.028 57.876 124.796 59.534 123.245C60.0733 122.709 60.5036 122.113 60.9365 121.493C61.0167 121.379 61.097 121.266 61.1796 121.149C61.6239 120.517 62.0577 119.88 62.4822 119.236C62.8008 118.753 63.4966 118.664 63.7136 119.201C63.7546 119.301 63.7956 119.401 63.8379 119.503C63.9027 119.666 63.9027 119.666 63.9688 119.831C64.0149 119.944 64.061 120.057 64.1084 120.173C64.207 120.414 64.3051 120.656 64.4028 120.898C64.6561 121.524 64.9131 122.149 65.1697 122.773C65.2198 122.896 65.27 123.018 65.3217 123.144C66.9321 127.582 66.9321 127.582 70.402 130.549C71.7251 130.961 72.9623 130.598 74.158 130.014C75.2067 129.374 75.7325 128.111 76.0181 126.973C76.1629 126.325 76.277 125.671 76.3907 125.016C76.4354 124.772 76.4803 124.529 76.5255 124.285C76.6171 123.789 76.7072 123.293 76.7959 122.796C76.9612 121.871 77.1349 120.948 77.3093 120.025C77.3645 119.732 77.4193 119.439 77.474 119.146C77.8941 116.903 78.3407 114.665 78.7869 112.426C79.1238 110.732 79.4487 109.037 79.7509 107.337C79.9352 106.308 80.1493 105.286 80.3776 104.267Z" fill="#00C2CB"/>
<path d="M159.995 138.82C159.012 138.82 158.315 138.553 157.903 138.018C157.522 137.483 157.395 136.744 157.522 135.8L162.04 107.532C162.199 106.651 162.516 106.006 162.991 105.597C163.499 105.157 164.18 104.936 165.036 104.936C165.797 104.936 166.384 105.109 166.796 105.455C167.24 105.77 167.62 106.336 167.937 107.154L176.022 128.485H174.643L189.956 106.682C190.4 106.053 190.876 105.613 191.383 105.361C191.89 105.078 192.524 104.936 193.285 104.936C194.205 104.936 194.87 105.204 195.283 105.739C195.726 106.273 195.869 107.013 195.711 107.957L191.193 136.224C191.066 137.074 190.749 137.719 190.242 138.159C189.766 138.6 189.084 138.82 188.197 138.82C187.309 138.82 186.643 138.553 186.199 138.018C185.755 137.483 185.597 136.744 185.724 135.8L189.195 114.091H190.289L177.306 132.543C176.957 133.047 176.593 133.409 176.212 133.629C175.863 133.818 175.42 133.912 174.881 133.912C174.278 133.912 173.787 133.77 173.406 133.487C173.058 133.204 172.756 132.764 172.503 132.166L165.417 114.28H166.463L162.944 136.224C162.817 137.074 162.5 137.719 161.993 138.159C161.517 138.6 160.851 138.82 159.995 138.82Z" fill="#5FD9F4"/>
<path d="M209.794 139.056C207.448 139.056 205.403 138.631 203.659 137.782C201.947 136.901 200.616 135.674 199.665 134.101C198.713 132.528 198.238 130.687 198.238 128.579C198.238 126 198.777 123.703 199.855 121.689C200.964 119.644 202.486 118.024 204.42 116.829C206.354 115.633 208.574 115.035 211.078 115.035C213.012 115.035 214.629 115.366 215.929 116.026C217.229 116.687 218.259 117.584 219.02 118.716C219.781 119.817 220.288 121.076 220.542 122.492C220.796 123.907 220.843 125.355 220.685 126.833C220.621 127.494 220.447 127.919 220.162 128.107C219.876 128.296 219.48 128.391 218.973 128.391H202.994L203.469 124.993H216.785L215.977 125.701C216.167 124.442 216.119 123.325 215.834 122.35C215.549 121.343 215.01 120.541 214.217 119.943C213.456 119.346 212.394 119.047 211.031 119.047C209.636 119.047 208.463 119.361 207.511 119.99C206.56 120.62 205.815 121.438 205.276 122.444C204.737 123.42 204.373 124.474 204.182 125.606L203.945 127.069C203.564 129.366 203.945 131.191 205.086 132.543C206.227 133.896 207.971 134.573 210.317 134.573C211.268 134.573 212.251 134.478 213.266 134.29C214.28 134.069 215.2 133.723 216.024 133.251C216.627 132.905 217.15 132.764 217.594 132.827C218.069 132.858 218.434 133.031 218.687 133.346C218.973 133.629 219.147 133.991 219.21 134.431C219.274 134.84 219.195 135.281 218.973 135.753C218.782 136.193 218.434 136.586 217.926 136.932C216.817 137.656 215.501 138.191 213.979 138.537C212.457 138.883 211.062 139.056 209.794 139.056Z" fill="#5FD9F4"/>
<path d="M232.716 139.056C230.973 139.056 229.435 138.647 228.103 137.829C226.803 137.011 225.789 135.863 225.06 134.384C224.33 132.874 223.966 131.112 223.966 129.098C223.966 126.456 224.426 124.08 225.345 121.973C226.296 119.833 227.644 118.15 229.387 116.923C231.163 115.665 233.255 115.035 235.665 115.035C237.44 115.035 239.01 115.46 240.373 116.31C241.736 117.159 242.687 118.417 243.226 120.085L242.894 120.038L244.843 107.721C245.002 106.745 245.366 106.037 245.937 105.597C246.508 105.157 247.285 104.936 248.267 104.936C249.187 104.936 249.853 105.219 250.265 105.786C250.709 106.352 250.851 107.186 250.693 108.287L246.27 135.941C246.112 136.917 245.747 137.672 245.176 138.207C244.606 138.71 243.829 138.962 242.846 138.962C241.927 138.962 241.261 138.647 240.849 138.018C240.468 137.357 240.373 136.492 240.563 135.422L240.991 132.827L241.039 134.242C240.183 135.721 239.041 136.901 237.615 137.782C236.188 138.631 234.555 139.056 232.716 139.056ZM235.047 134.573C236.505 134.573 237.726 134.164 238.708 133.346C239.723 132.496 240.5 131.379 241.039 129.995C241.578 128.579 241.847 127.006 241.847 125.276C241.847 123.42 241.388 122.004 240.468 121.029C239.58 120.022 238.344 119.519 236.759 119.519C235.332 119.519 234.111 119.928 233.097 120.746C232.082 121.564 231.305 122.68 230.766 124.096C230.227 125.48 229.958 127.054 229.958 128.815C229.958 130.672 230.402 132.103 231.29 133.11C232.209 134.085 233.461 134.573 235.047 134.573Z" fill="#5FD9F4"/>
<path d="M264.833 138.962C264.009 138.962 263.359 138.726 262.883 138.254C262.408 137.782 262.075 137.074 261.885 136.13L256.463 108.57C256.241 107.469 256.384 106.588 256.891 105.927C257.43 105.267 258.223 104.936 259.269 104.936C260.061 104.936 260.696 105.172 261.171 105.644C261.678 106.085 262.011 106.777 262.17 107.721L266.688 132.591H264.785L277.816 107.201C278.228 106.415 278.688 105.849 279.195 105.503C279.734 105.125 280.384 104.936 281.145 104.936C281.874 104.936 282.445 105.172 282.857 105.644C283.301 106.085 283.618 106.808 283.808 107.815L288.374 132.591H286.662L299.55 107.154C299.93 106.399 300.358 105.849 300.834 105.503C301.309 105.125 301.943 104.936 302.736 104.936C303.909 104.936 304.702 105.314 305.114 106.069C305.526 106.824 305.447 107.752 304.876 108.853L290.514 136.696C290.102 137.483 289.61 138.065 289.04 138.442C288.501 138.789 287.803 138.962 286.947 138.962C286.123 138.962 285.473 138.726 284.997 138.254C284.522 137.782 284.189 137.074 283.999 136.13L279.528 113.053H280.622L268.4 136.696C267.988 137.483 267.512 138.065 266.973 138.442C266.434 138.789 265.721 138.962 264.833 138.962Z" fill="#C6FFFF"/>
<path d="M313.997 139.056C311.714 139.056 309.748 138.631 308.1 137.782C306.483 136.932 305.23 135.721 304.343 134.148C303.487 132.575 303.059 130.734 303.059 128.627C303.059 126.55 303.391 124.678 304.057 123.011C304.723 121.343 305.642 119.912 306.816 118.716C308.02 117.521 309.399 116.608 310.953 115.979C312.507 115.35 314.187 115.035 315.994 115.035C318.277 115.035 320.227 115.46 321.844 116.31C323.492 117.159 324.745 118.37 325.601 119.943C326.488 121.485 326.932 123.325 326.932 125.465C326.932 127.541 326.599 129.413 325.933 131.081C325.268 132.748 324.332 134.179 323.128 135.375C321.955 136.571 320.591 137.483 319.038 138.112C317.484 138.741 315.804 139.056 313.997 139.056ZM314.139 134.573C315.598 134.573 316.818 134.164 317.801 133.346C318.816 132.528 319.593 131.411 320.131 129.995C320.67 128.579 320.94 127.006 320.94 125.276C320.94 123.42 320.48 122.004 319.561 121.029C318.673 120.022 317.437 119.519 315.851 119.519C314.425 119.519 313.204 119.928 312.189 120.746C311.175 121.564 310.398 122.68 309.859 124.096C309.32 125.48 309.051 127.054 309.051 128.815C309.051 130.672 309.495 132.103 310.382 133.11C311.302 134.085 312.554 134.573 314.139 134.573Z" fill="#C6FFFF"/>
<path d="M332.885 138.962C331.934 138.962 331.236 138.678 330.792 138.112C330.38 137.514 330.253 136.681 330.412 135.611L333.218 117.961C333.376 117.017 333.741 116.31 334.312 115.838C334.882 115.366 335.627 115.13 336.547 115.13C337.466 115.13 338.132 115.413 338.544 115.979C338.988 116.545 339.131 117.363 338.972 118.433L338.544 121.076H338.069C338.703 119.22 339.749 117.788 341.207 116.781C342.666 115.743 344.394 115.161 346.391 115.035C347.279 114.972 347.865 115.098 348.151 115.413C348.468 115.727 348.626 116.247 348.626 116.97C348.626 118.008 348.389 118.779 347.913 119.283C347.437 119.755 346.692 120.038 345.678 120.132L344.299 120.274C342.174 120.494 340.653 121.139 339.733 122.208C338.814 123.247 338.195 124.71 337.878 126.597L336.357 136.13C336.23 137.074 335.865 137.782 335.263 138.254C334.692 138.726 333.9 138.962 332.885 138.962Z" fill="#C6FFFF"/>
<path d="M351.508 138.962C350.589 138.962 349.907 138.663 349.463 138.065C349.051 137.467 348.924 136.633 349.083 135.564L353.506 107.768C353.664 106.792 354.029 106.085 354.6 105.644C355.17 105.172 355.947 104.936 356.93 104.936C357.849 104.936 358.515 105.251 358.927 105.88C359.371 106.478 359.514 107.327 359.355 108.428L356.645 125.323H356.74L366.013 116.876C366.647 116.278 367.202 115.838 367.678 115.554C368.185 115.271 368.787 115.13 369.485 115.13C370.278 115.13 370.848 115.35 371.197 115.79C371.577 116.231 371.72 116.781 371.625 117.442C371.562 118.071 371.229 118.669 370.626 119.235L361.305 127.919V125.37L368.867 134.809C369.374 135.438 369.596 136.083 369.532 136.744C369.501 137.373 369.263 137.908 368.819 138.348C368.375 138.757 367.773 138.962 367.012 138.962C366.188 138.962 365.538 138.789 365.062 138.442C364.618 138.065 364.079 137.499 363.445 136.744L356.312 128.06H356.217L354.932 136.13C354.647 138.018 353.506 138.962 351.508 138.962Z" fill="#C6FFFF"/>
<path d="M378.575 138.962C377.655 138.962 376.974 138.663 376.53 138.065C376.118 137.436 375.991 136.586 376.149 135.517L378.67 119.943H376.672C375.911 119.943 375.325 119.786 374.913 119.471C374.532 119.157 374.342 118.716 374.342 118.15C374.342 117.332 374.58 116.687 375.055 116.215C375.563 115.743 376.228 115.507 377.053 115.507H380.001L379.24 116.121L379.526 114.375C379.97 111.669 381.048 109.53 382.76 107.957C384.472 106.383 386.976 105.487 390.274 105.267L391.796 105.172C392.43 105.141 392.921 105.267 393.27 105.55C393.619 105.801 393.84 106.148 393.936 106.588C394.062 106.997 394.062 107.422 393.936 107.862C393.84 108.303 393.634 108.68 393.317 108.995C393.032 109.309 392.652 109.482 392.176 109.514L390.892 109.608C389.243 109.734 387.991 110.175 387.135 110.93C386.279 111.685 385.724 112.802 385.47 114.28L385.185 115.979L384.757 115.507H389.037C389.798 115.507 390.369 115.665 390.749 115.979C391.161 116.262 391.367 116.687 391.367 117.253C391.367 118.103 391.114 118.763 390.607 119.235C390.131 119.707 389.481 119.943 388.657 119.943H384.614L382.046 136.036C381.698 137.986 380.54 138.962 378.575 138.962ZM399.5 139.056C396.868 139.056 394.966 138.317 393.793 136.838C392.62 135.328 392.255 133.141 392.699 130.278L396.313 107.862C396.472 106.887 396.837 106.163 397.407 105.691C397.978 105.188 398.755 104.936 399.738 104.936C400.657 104.936 401.323 105.235 401.735 105.833C402.179 106.431 402.321 107.28 402.163 108.381L398.644 130.231C398.422 131.615 398.533 132.638 398.977 133.299C399.452 133.928 400.213 134.242 401.259 134.242C401.608 134.242 401.893 134.227 402.115 134.195C402.337 134.132 402.543 134.101 402.734 134.101C403.051 134.101 403.304 134.211 403.495 134.431C403.685 134.651 403.78 135.076 403.78 135.705C403.78 136.618 403.59 137.326 403.209 137.829C402.829 138.301 402.369 138.616 401.83 138.773C401.545 138.867 401.18 138.93 400.736 138.962C400.292 139.025 399.88 139.056 399.5 139.056Z" fill="#C6FFFF"/>
<path d="M417.749 139.056C415.466 139.056 413.501 138.631 411.852 137.782C410.235 136.932 408.983 135.721 408.095 134.148C407.239 132.575 406.811 130.734 406.811 128.627C406.811 126.55 407.144 124.678 407.81 123.011C408.475 121.343 409.395 119.912 410.568 118.716C411.773 117.521 413.152 116.608 414.705 115.979C416.259 115.35 417.939 115.035 419.746 115.035C422.029 115.035 423.979 115.46 425.596 116.31C427.245 117.159 428.497 118.37 429.353 119.943C430.241 121.485 430.685 123.325 430.685 125.465C430.685 127.541 430.352 129.413 429.686 131.081C429.02 132.748 428.085 134.179 426.88 135.375C425.707 136.571 424.344 137.483 422.79 138.112C421.237 138.741 419.556 139.056 417.749 139.056ZM417.892 134.573C419.35 134.573 420.571 134.164 421.554 133.346C422.568 132.528 423.345 131.411 423.884 129.995C424.423 128.579 424.692 127.006 424.692 125.276C424.692 123.42 424.233 122.004 423.313 121.029C422.425 120.022 421.189 119.519 419.604 119.519C418.177 119.519 416.956 119.928 415.942 120.746C414.927 121.564 414.151 122.68 413.612 124.096C413.073 125.48 412.803 127.054 412.803 128.815C412.803 130.672 413.247 132.103 414.135 133.11C415.054 134.085 416.306 134.573 417.892 134.573Z" fill="#C6FFFF"/>
<path d="M442.213 138.962C441.42 138.962 440.754 138.741 440.215 138.301C439.676 137.86 439.296 137.168 439.074 136.224L435.032 119.188C434.841 118.37 434.825 117.662 434.984 117.065C435.174 116.467 435.507 115.995 435.983 115.649C436.458 115.303 437.045 115.13 437.742 115.13C438.503 115.13 439.074 115.334 439.454 115.743C439.866 116.121 440.168 116.781 440.358 117.725L443.544 133.204H442.355L451.058 116.876C451.407 116.247 451.787 115.806 452.2 115.554C452.643 115.271 453.198 115.13 453.864 115.13C454.498 115.13 455.021 115.303 455.434 115.649C455.877 115.995 456.179 116.545 456.337 117.301L459.619 133.204H458.667L467.037 117.301C467.481 116.483 467.941 115.916 468.417 115.602C468.892 115.287 469.526 115.13 470.319 115.13C471.08 115.13 471.666 115.303 472.078 115.649C472.491 115.963 472.713 116.388 472.744 116.923C472.776 117.458 472.617 118.056 472.269 118.716L462.282 136.744C461.87 137.499 461.362 138.065 460.76 138.442C460.189 138.789 459.508 138.962 458.715 138.962C457.922 138.962 457.241 138.741 456.67 138.301C456.131 137.829 455.751 137.137 455.529 136.224L451.962 120.132H454.673L445.827 136.649C445.415 137.436 444.908 138.018 444.305 138.395C443.734 138.773 443.037 138.962 442.213 138.962Z" fill="#C6FFFF"/>
</g>
<defs>
<linearGradient id="paint0_linear_1079_4889" x1="59.1523" y1="-40.2355" x2="330.276" y2="245.352" gradientUnits="userSpaceOnUse">
<stop stop-color="#106E75"/>
<stop offset="1" stop-color="#012366"/>
</linearGradient>
</defs>
</svg>
