<svg width="710" height="462" viewBox="0 0 710 462" fill="none" xmlns="http://www.w3.org/2000/svg">
<path d="M332.722 0.00962878C333.258 0.00803649 333.795 0.00594693 334.332 0.00340295C335.778 -0.00190434 337.224 0.000114742 338.67 0.00384741C340.191 0.00683598 341.712 0.00405727 343.232 0.00222219C345.786 9.46969e-05 348.339 0.0028853 350.892 0.0084838C353.834 0.0148608 356.776 0.0127982 359.718 0.00634241C362.254 0.00100263 364.79 0.000280441 367.326 0.00333935C368.836 0.00515709 370.346 0.00543919 371.856 0.00153789C373.277 -0.00187697 374.698 0.000550893 376.119 0.0072762C376.882 0.00953785 377.645 0.00610655 378.408 0.00243687C385.096 0.0500735 390.984 2.36763 395.842 6.87855C400.206 11.3334 402.837 16.9431 402.832 23.1399C402.832 23.5259 402.832 23.5259 402.833 23.9197C402.834 24.7766 402.831 25.6335 402.829 26.4903C402.829 27.1068 402.829 27.7232 402.829 28.3396C402.83 30.0093 402.827 31.6789 402.824 33.3486C402.822 35.0949 402.822 36.8412 402.821 38.5875C402.82 41.8927 402.817 45.1979 402.813 48.5031C402.808 52.2667 402.806 56.0303 402.804 59.7939C402.8 66.7654 402.794 73.7368 402.786 80.7083C402.785 81.9808 403.818 83.012 405.09 83.0083C412.966 82.9852 421.559 82.9655 429.278 82.9544C433.379 82.9484 437.48 82.9401 441.58 82.9267C445.156 82.915 448.731 82.9074 452.307 82.9048C454.199 82.9033 456.091 82.8997 457.983 82.8912C459.767 82.8832 461.55 82.8808 463.334 82.8825C463.986 82.8822 464.638 82.8799 465.29 82.8754C472.302 82.8292 478.196 84.2712 483.388 89.1629C483.683 89.4556 483.979 89.7483 484.283 90.0499C484.538 90.2902 484.792 90.5305 485.054 90.7781C492.776 99.867 491.322 116.997 491.1 128.4C491.075 129.668 490.068 130.695 488.799 130.695C479.329 130.695 442.596 130.695 422.36 130.695C420.25 126.439 418.141 122.183 415.968 117.798C411.55 111.748 409.241 109.091 402.384 106.855C396.473 106.433 392.33 107.916 387.776 111.591C384.796 114.3 382.815 117.504 380.811 120.925C380.661 121.174 380.512 121.423 380.357 121.679C368.636 141.297 363.812 166.522 359.258 188.582C358.952 190.043 358.571 191.435 358.039 192.836C357.907 192.836 357.775 192.836 357.64 192.836C353.636 166.151 353.636 166.151 352.621 158.101C351.821 151.771 350.905 145.46 349.974 139.147C348.466 128.914 347.012 118.674 345.589 108.429C344.527 100.784 343.433 93.144 342.31 85.5071C341.588 80.5923 340.87 75.677 340.173 70.7588C339.776 67.9616 339.374 65.1652 338.969 62.3691C338.7 60.5018 338.432 58.6343 338.169 56.7661C337.911 54.9339 337.648 53.1026 337.38 51.2718C337.28 50.5806 337.182 49.8891 337.086 49.1973C336.953 48.2339 336.812 47.2717 336.669 46.3096C336.631 46.029 336.594 45.7484 336.556 45.4593C336.245 43.4401 335.61 42.0905 334.468 40.4158C332.914 39.3449 331.523 39.0233 329.655 39.1105C328.265 39.3471 327.513 39.8861 326.478 40.8066C324.927 43.2993 324.405 45.7623 323.884 48.6165C323.603 50.1559 323.305 51.6921 323.009 53.2289C322.907 53.7614 322.907 53.7614 322.803 54.3046C322.154 57.6837 321.465 61.0547 320.771 64.4253C320.712 64.7097 320.654 64.9941 320.594 65.2872C320.352 66.4606 320.11 67.634 319.869 68.8074C317.292 81.3072 317.292 81.3072 314.867 93.836C313.54 100.928 312.152 108.009 310.747 115.087C310.692 115.367 310.636 115.647 310.579 115.935C308.463 126.595 306.301 137.246 304.106 147.891C303.082 148.087 303.082 148.087 301.709 147.891C299.42 146.084 298.148 143.561 296.964 140.989C296.796 140.633 296.628 140.277 296.454 139.911C294.805 136.392 293.274 132.825 291.77 129.245C291.001 127.418 290.223 125.593 289.446 123.769C289.295 123.416 289.145 123.064 288.991 122.701C287.82 119.961 286.626 117.233 285.379 114.525C285.229 114.196 285.08 113.868 284.926 113.529C283.982 111.51 283.01 109.822 281.134 108.492C278.901 107.751 276.364 107.407 274.149 108.373C272.044 109.541 270.907 110.897 269.698 112.913C269.325 113.504 268.951 114.095 268.576 114.685C268.282 115.155 268.282 115.155 267.982 115.634C262.071 124.932 262.071 124.932 258.562 128.741C258.294 129.075 258.027 129.408 257.751 129.752C256.107 131.058 254.911 130.959 252.854 130.917C252.298 130.917 252.298 130.917 251.731 130.918C250.509 130.917 249.288 130.901 248.067 130.886C247.219 130.882 246.371 130.88 245.523 130.878C243.293 130.87 241.063 130.851 238.833 130.829C236.557 130.809 234.281 130.8 232.005 130.791C228.292 130.773 224.58 130.747 220.868 130.715C219.615 130.704 218.603 129.691 218.593 128.438C218.574 125.871 218.559 123.304 218.549 120.736C218.543 119.194 218.534 117.652 218.521 116.11C218.508 114.618 218.5 113.125 218.497 111.633C218.495 111.068 218.491 110.503 218.484 109.938C218.398 102.206 220.188 95.384 225.802 89.6591C231.645 84.1582 237.837 82.8903 245.629 82.9264C246.298 82.9266 246.968 82.9265 247.638 82.9261C249.447 82.9258 251.256 82.9304 253.065 82.9359C254.959 82.9408 256.853 82.9412 258.746 82.9422C262.329 82.9446 265.911 82.951 269.494 82.9589C273.574 82.9676 277.654 82.9719 281.734 82.9758C289.353 82.9832 296.971 82.9952 304.59 83.0104C305.864 83.013 306.897 81.9776 306.892 80.703C306.861 73.573 306.834 65.8156 306.819 58.8395C306.811 55.0973 306.8 51.3551 306.782 47.6129C306.766 44.3492 306.755 41.0855 306.752 37.8217C306.75 36.0954 306.745 34.3692 306.733 32.643C306.722 31.014 306.719 29.3852 306.721 27.7562C306.721 27.1623 306.718 26.5684 306.712 25.9746C306.642 18.9511 308.635 12.3673 313.652 7.14572C316.495 4.6736 319.709 2.62392 323.282 1.3338C323.703 1.17878 323.703 1.17878 324.133 1.02064C327.01 0.0660444 329.703 -0.00486876 332.722 0.00962878Z" fill="#0097A7"/>
<path d="M328.455 79.5457C328.806 77.9799 330.298 77.7247 330.532 79.3121C330.572 79.5749 330.612 79.8376 330.653 80.1084C330.785 80.9858 330.912 81.8638 331.039 82.742C331.131 83.3634 331.224 83.9848 331.317 84.6062C331.563 86.2572 331.805 87.9089 332.046 89.5606C332.236 90.8617 332.43 92.1623 332.623 93.463C333.745 101.002 334.816 108.547 335.852 116.097C336.374 119.903 336.907 123.707 337.447 127.511C337.507 127.937 337.507 127.937 337.569 128.372C337.774 129.812 337.978 131.252 338.183 132.691C338.399 134.204 338.614 135.716 338.828 137.228C339.612 142.744 340.396 148.26 341.192 153.773C341.397 155.192 341.601 156.61 341.806 158.028C341.854 158.362 341.902 158.696 341.951 159.04C342.556 163.249 343.104 167.46 343.603 171.682C344.325 177.781 345.282 183.84 346.237 189.907C347.271 196.481 348.21 203.058 348.993 209.666C349.54 218.04 349.54 218.04 353.641 224.883C355.722 225.562 357.93 225.649 359.958 224.736C362.781 222.837 363.285 218.317 364.003 215.259C364.106 214.831 364.209 214.403 364.315 213.961C365.058 210.835 365.731 207.697 366.387 204.553C368.383 195.078 370.711 185.666 373.144 176.29C373.283 175.755 373.421 175.219 373.56 174.684C373.629 174.418 373.698 174.153 373.769 173.879C374.242 172.045 374.69 170.207 375.13 168.366C376.197 163.908 377.394 159.497 378.685 155.097C378.789 154.744 378.892 154.39 378.999 154.026C387.943 123.612 389.362 121.175 397.067 117.798C398.551 117.155 399.699 117.155 401.182 117.798C407.266 120.713 409.947 128.833 412.331 134.552C413.66 137.705 414.742 139.729 417.962 141.247C419.449 141.739 420.906 141.693 422.467 141.7C422.76 141.702 423.053 141.704 423.356 141.706C424.339 141.712 425.322 141.715 426.306 141.718C427.01 141.722 427.715 141.726 428.42 141.73C430.334 141.741 432.248 141.749 434.162 141.757C436.162 141.765 438.162 141.776 440.162 141.786C443.95 141.806 447.737 141.824 451.525 141.84C455.837 141.86 460.149 141.881 464.461 141.903C471.384 141.938 483.739 141.895 488.828 141.875C490.093 141.87 491.124 142.888 491.122 144.153C491.12 145.78 491.109 147.433 491.115 149.011C491.119 149.8 491.125 150.588 491.132 151.377C491.214 160.883 490.898 169.209 483.83 176.517C479.448 180.568 473.532 183.117 467.494 183.112C467.216 183.112 466.939 183.113 466.653 183.113C465.726 183.114 464.799 183.112 463.872 183.109C463.207 183.109 462.542 183.109 461.876 183.11C460.071 183.11 458.266 183.107 456.461 183.105C454.574 183.102 452.687 183.102 450.8 183.102C447.228 183.1 443.655 183.097 440.082 183.093C436.015 183.089 431.947 183.087 427.88 183.085C420.284 183.081 412.687 183.075 405.091 183.067C403.817 183.066 402.785 184.101 402.791 185.375C402.822 192.198 402.848 199.612 402.863 206.283C402.871 209.877 402.883 213.471 402.901 217.065C402.917 220.201 402.927 223.336 402.931 226.471C402.933 228.129 402.938 229.786 402.949 231.444C402.96 233.009 402.964 234.575 402.961 236.14C402.962 236.71 402.965 237.279 402.971 237.849C403.052 245.716 400.85 252.36 395.19 258.103C389.866 262.505 384.087 264.147 377.218 264.123C376.67 264.125 376.123 264.128 375.576 264.131C374.103 264.138 372.629 264.137 371.156 264.135C369.92 264.134 368.684 264.136 367.448 264.139C364.529 264.144 361.61 264.144 358.692 264.139C355.694 264.135 352.696 264.14 349.698 264.151C347.111 264.159 344.525 264.162 341.939 264.16C340.4 264.158 338.861 264.159 337.321 264.166C335.873 264.172 334.424 264.17 332.975 264.163C332.199 264.161 331.423 264.167 330.647 264.172C324.231 264.12 318.433 261.806 313.754 257.478C308.687 251.966 306.975 245.692 307.071 238.436C307.072 237.827 307.072 237.218 307.07 236.609C307.07 234.976 307.082 233.344 307.096 231.712C307.108 229.998 307.109 228.284 307.112 226.57C307.118 223.334 307.134 220.098 307.154 216.862C307.177 213.174 307.188 209.486 307.198 205.798C307.216 198.993 307.246 192.188 307.285 185.383C307.292 184.106 306.257 183.068 304.98 183.072C297.221 183.095 288.76 183.115 281.158 183.126C277.112 183.132 273.066 183.14 269.019 183.154C265.491 183.165 261.963 183.173 258.434 183.175C256.568 183.177 254.701 183.181 252.834 183.189C251.074 183.197 249.313 183.199 247.553 183.198C246.91 183.198 246.267 183.2 245.625 183.205C238.072 183.255 231.423 181.741 225.823 176.549C222.068 172.865 219.189 167.692 218.959 162.426C218.96 162.049 218.961 161.673 218.962 161.285C218.962 160.855 218.962 160.424 218.962 159.981C218.964 159.523 218.966 159.065 218.968 158.593C218.969 158.119 218.969 157.646 218.97 157.157C218.972 155.648 218.977 154.139 218.982 152.63C218.984 151.605 218.986 150.58 218.988 149.555C218.991 147.804 218.973 146.03 218.965 144.266C218.959 143.003 219.98 141.98 221.243 141.979C225.207 141.974 229.838 141.983 233.469 141.957C235.707 141.942 237.946 141.929 240.185 141.923C242.348 141.917 244.51 141.904 246.673 141.885C247.496 141.879 248.319 141.876 249.141 141.876C255.767 141.871 260.906 141.173 265.884 136.518C267.503 134.907 268.795 133.119 270.094 131.257C270.335 130.916 270.576 130.576 270.824 130.225C272.277 128.159 273.693 126.071 275.076 123.962C275.849 122.782 277.562 122.539 278.179 123.808C278.266 123.985 278.349 124.174 278.431 124.376C278.554 124.676 278.677 124.976 278.804 125.285C278.998 125.771 278.998 125.771 279.197 126.268C279.335 126.607 279.473 126.945 279.616 127.294C279.912 128.019 280.206 128.744 280.5 129.47C281.26 131.35 282.031 133.225 282.802 135.101C282.952 135.468 283.103 135.836 283.258 136.214C288.092 149.535 288.092 149.535 298.509 158.443C302.481 159.678 306.195 158.59 309.784 156.837C312.932 154.915 314.511 151.124 315.368 147.709C315.803 145.761 316.145 143.799 316.487 141.834C316.621 141.102 316.756 140.371 316.891 139.639C317.166 138.15 317.437 136.66 317.703 135.168C318.199 132.393 318.721 129.622 319.244 126.851C319.41 125.972 319.574 125.092 319.739 124.212C321 117.478 322.34 110.759 323.68 104.04C324.691 98.9546 325.667 93.8653 326.574 88.761C327.127 85.673 327.77 82.6058 328.455 79.5457Z" fill="#00C2CB"/>
<path d="M32.9974 383.669C30.9543 383.669 29.5044 383.113 28.6476 382.001C27.8567 380.889 27.593 379.352 27.8567 377.39L37.2484 318.628C37.578 316.796 38.237 315.456 39.2257 314.605C40.2802 313.69 41.6972 313.232 43.4767 313.232C45.0584 313.232 46.2777 313.592 47.1345 314.311C48.0572 314.965 48.8481 316.142 49.5072 317.843L66.3135 362.185H63.4465L95.2797 316.862C96.2024 315.554 97.191 314.638 98.2455 314.115C99.3 313.526 100.618 313.232 102.2 313.232C104.111 313.232 105.495 313.788 106.352 314.9C107.275 316.011 107.571 317.548 107.242 319.51L97.85 378.273C97.5864 380.039 96.9273 381.38 95.8728 382.295C94.8842 383.211 93.4672 383.669 91.6218 383.669C89.7764 383.669 88.3924 383.113 87.4697 382.001C86.547 380.889 86.2174 379.352 86.4811 377.39L93.6979 332.264H95.9717L68.9827 370.621C68.2577 371.668 67.4998 372.42 66.7089 372.878C65.9839 373.27 65.0612 373.466 63.9408 373.466C62.6886 373.466 61.667 373.172 60.8761 372.583C60.1512 371.995 59.5251 371.079 58.9978 369.837L44.2675 332.656H46.4425L39.1268 378.273C38.8632 380.039 38.2041 381.38 37.1496 382.295C36.161 383.211 34.7769 383.669 32.9974 383.669Z" fill="#5FD9F4"/>
<path d="M136.518 384.159C131.641 384.159 127.39 383.276 123.765 381.511C120.206 379.679 117.438 377.129 115.461 373.859C113.484 370.589 112.495 366.763 112.495 362.381C112.495 357.018 113.616 352.244 115.857 348.058C118.163 343.807 121.327 340.439 125.347 337.954C129.368 335.468 133.981 334.226 139.188 334.226C143.208 334.226 146.569 334.912 149.272 336.286C151.974 337.659 154.116 339.523 155.697 341.878C157.279 344.167 158.334 346.783 158.861 349.726C159.388 352.669 159.487 355.677 159.158 358.751C159.026 360.124 158.663 361.007 158.07 361.4C157.477 361.792 156.653 361.988 155.599 361.988H122.381L123.37 354.925H151.051L149.37 356.397C149.766 353.781 149.667 351.459 149.074 349.431C148.481 347.339 147.36 345.671 145.713 344.428C144.131 343.186 141.923 342.564 139.089 342.564C136.189 342.564 133.75 343.218 131.773 344.526C129.796 345.834 128.247 347.535 127.127 349.628C126.006 351.655 125.248 353.846 124.853 356.2L124.359 359.242C123.568 364.016 124.359 367.809 126.731 370.621C129.104 373.434 132.729 374.84 137.606 374.84C139.583 374.84 141.626 374.643 143.735 374.251C145.844 373.793 147.756 373.074 149.469 372.093C150.721 371.373 151.809 371.079 152.732 371.21C153.72 371.275 154.478 371.635 155.005 372.289C155.599 372.878 155.961 373.63 156.093 374.545C156.225 375.396 156.06 376.311 155.599 377.292C155.203 378.208 154.478 379.025 153.424 379.745C151.117 381.249 148.382 382.361 145.218 383.08C142.055 383.8 139.155 384.159 136.518 384.159Z" fill="#5FD9F4"/>
<path d="M184.169 384.159C180.544 384.159 177.347 383.309 174.579 381.609C171.877 379.908 169.768 377.521 168.252 374.447C166.736 371.308 165.978 367.646 165.978 363.46C165.978 357.966 166.934 353.028 168.845 348.647C170.822 344.199 173.623 340.7 177.248 338.15C180.939 335.534 185.289 334.226 190.298 334.226C193.989 334.226 197.251 335.109 200.085 336.874C202.919 338.64 204.896 341.256 206.017 344.723L205.325 344.624L209.378 319.02C209.708 316.992 210.466 315.521 211.652 314.605C212.838 313.69 214.453 313.232 216.496 313.232C218.407 313.232 219.791 313.821 220.648 314.998C221.571 316.175 221.867 317.908 221.538 320.197L212.344 377.685C212.014 379.712 211.256 381.282 210.07 382.394C208.884 383.44 207.269 383.963 205.226 383.963C203.315 383.963 201.931 383.309 201.074 382.001C200.283 380.628 200.085 378.829 200.481 376.606L201.37 371.21L201.469 374.153C199.69 377.227 197.317 379.679 194.351 381.511C191.385 383.276 187.991 384.159 184.169 384.159ZM189.013 374.84C192.044 374.84 194.582 373.989 196.625 372.289C198.734 370.523 200.349 368.201 201.469 365.324C202.59 362.381 203.15 359.111 203.15 355.514C203.15 351.655 202.194 348.712 200.283 346.685C198.437 344.592 195.867 343.545 192.572 343.545C189.606 343.545 187.068 344.396 184.959 346.096C182.85 347.796 181.236 350.118 180.115 353.061C178.995 355.939 178.435 359.209 178.435 362.871C178.435 366.73 179.357 369.706 181.203 371.799C183.114 373.826 185.717 374.84 189.013 374.84Z" fill="#5FD9F4"/>
<path d="M249.864 383.963C248.15 383.963 246.799 383.473 245.811 382.492C244.822 381.511 244.13 380.039 243.735 378.077L232.465 320.786C232.003 318.497 232.3 316.665 233.354 315.292C234.475 313.919 236.122 313.232 238.297 313.232C239.945 313.232 241.263 313.722 242.252 314.703C243.306 315.619 243.998 317.058 244.328 319.02L253.72 370.719H249.765L276.853 317.941C277.71 316.306 278.665 315.129 279.72 314.409C280.84 313.624 282.191 313.232 283.773 313.232C285.289 313.232 286.475 313.722 287.332 314.703C288.255 315.619 288.914 317.123 289.309 319.216L298.8 370.719H295.241L322.032 317.843C322.823 316.273 323.713 315.129 324.702 314.409C325.69 313.624 327.008 313.232 328.656 313.232C331.095 313.232 332.742 314.017 333.599 315.586C334.456 317.156 334.291 319.085 333.105 321.374L303.249 379.254C302.392 380.889 301.37 382.099 300.184 382.884C299.064 383.603 297.614 383.963 295.834 383.963C294.121 383.963 292.77 383.473 291.781 382.492C290.792 381.511 290.1 380.039 289.705 378.077L280.412 330.105H282.686L257.279 379.254C256.422 380.889 255.433 382.099 254.313 382.884C253.192 383.603 251.709 383.963 249.864 383.963Z" fill="#C6FFFF"/>
<path d="M352.064 384.159C347.319 384.159 343.233 383.276 339.806 381.511C336.444 379.745 333.841 377.227 331.996 373.957C330.216 370.687 329.326 366.861 329.326 362.479C329.326 358.162 330.018 354.271 331.402 350.805C332.787 347.339 334.698 344.363 337.136 341.878C339.641 339.392 342.508 337.496 345.737 336.188C348.967 334.88 352.46 334.226 356.216 334.226C360.962 334.226 365.015 335.109 368.376 336.874C371.804 338.64 374.407 341.158 376.186 344.428C378.032 347.633 378.954 351.459 378.954 355.906C378.954 360.223 378.262 364.114 376.878 367.58C375.494 371.046 373.55 374.022 371.046 376.507C368.607 378.993 365.773 380.889 362.544 382.197C359.314 383.505 355.821 384.159 352.064 384.159ZM352.361 374.84C355.393 374.84 357.93 373.989 359.973 372.289C362.082 370.589 363.697 368.267 364.817 365.324C365.938 362.381 366.498 359.111 366.498 355.514C366.498 351.655 365.542 348.712 363.631 346.685C361.786 344.592 359.215 343.545 355.92 343.545C352.954 343.545 350.417 344.396 348.308 346.096C346.199 347.796 344.584 350.118 343.463 353.061C342.343 355.939 341.783 359.209 341.783 362.871C341.783 366.73 342.706 369.706 344.551 371.799C346.462 373.826 349.066 374.84 352.361 374.84Z" fill="#C6FFFF"/>
<path d="M391.329 383.963C389.352 383.963 387.902 383.375 386.979 382.197C386.122 380.955 385.859 379.222 386.188 376.998L392.021 340.308C392.351 338.346 393.109 336.874 394.295 335.893C395.481 334.912 397.03 334.422 398.941 334.422C400.853 334.422 402.237 335.01 403.093 336.188C404.016 337.365 404.313 339.065 403.983 341.289L403.093 346.783H402.105C403.423 342.924 405.598 339.948 408.63 337.855C411.661 335.697 415.253 334.487 419.405 334.226C421.251 334.095 422.47 334.356 423.063 335.01C423.722 335.664 424.052 336.744 424.052 338.248C424.052 340.406 423.558 342.008 422.569 343.055C421.58 344.036 420.032 344.624 417.923 344.821L415.056 345.115C410.64 345.573 407.476 346.913 405.565 349.137C403.654 351.295 402.368 354.336 401.709 358.261L398.546 378.077C398.282 380.039 397.524 381.511 396.272 382.492C395.086 383.473 393.438 383.963 391.329 383.963Z" fill="#C6FFFF"/>
<path d="M430.043 383.963C428.132 383.963 426.715 383.342 425.792 382.099C424.935 380.857 424.672 379.123 425.001 376.9L434.195 319.118C434.525 317.091 435.283 315.619 436.469 314.703C437.655 313.722 439.27 313.232 441.313 313.232C443.224 313.232 444.609 313.886 445.465 315.194C446.388 316.437 446.685 318.202 446.355 320.491L440.72 355.612H440.918L460.196 338.052C461.514 336.809 462.667 335.893 463.656 335.305C464.71 334.716 465.962 334.422 467.412 334.422C469.06 334.422 470.246 334.88 470.971 335.795C471.762 336.711 472.059 337.855 471.861 339.229C471.729 340.537 471.037 341.779 469.785 342.957L450.408 361.007V355.71L466.127 375.33C467.182 376.638 467.643 377.979 467.511 379.352C467.445 380.66 466.951 381.772 466.028 382.688C465.106 383.538 463.853 383.963 462.272 383.963C460.558 383.963 459.207 383.603 458.218 382.884C457.296 382.099 456.175 380.922 454.857 379.352L440.028 361.302H439.83L437.161 378.077C436.568 382.001 434.195 383.963 430.043 383.963Z" fill="#C6FFFF"/>
<path d="M486.308 383.963C484.397 383.963 482.98 383.342 482.057 382.099C481.2 380.791 480.936 379.025 481.266 376.802L486.506 344.428H482.353C480.772 344.428 479.552 344.101 478.696 343.447C477.905 342.793 477.509 341.878 477.509 340.7C477.509 339 478.004 337.659 478.992 336.678C480.047 335.697 481.431 335.207 483.144 335.207H489.274L487.692 336.482L488.285 332.852C489.208 327.228 491.449 322.78 495.008 319.51C498.567 316.24 503.773 314.376 510.628 313.919L513.791 313.722C515.109 313.657 516.131 313.919 516.856 314.507C517.581 315.03 518.042 315.75 518.24 316.665C518.504 317.516 518.504 318.399 518.24 319.314C518.042 320.23 517.614 321.015 516.955 321.669C516.362 322.323 515.571 322.682 514.582 322.748L511.913 322.944C508.486 323.206 505.882 324.121 504.103 325.691C502.323 327.26 501.17 329.582 500.643 332.656L500.05 336.188L499.16 335.207H508.057C509.639 335.207 510.825 335.534 511.616 336.188C512.473 336.776 512.901 337.659 512.901 338.836C512.901 340.602 512.374 341.976 511.32 342.957C510.331 343.938 508.98 344.428 507.266 344.428H498.863L493.525 377.881C492.8 381.936 490.394 383.963 486.308 383.963ZM529.807 384.159C524.336 384.159 520.382 382.622 517.943 379.549C515.505 376.409 514.747 371.864 515.67 365.912L523.183 319.314C523.512 317.287 524.27 315.783 525.457 314.802C526.643 313.755 528.258 313.232 530.301 313.232C532.212 313.232 533.596 313.853 534.453 315.096C535.376 316.338 535.672 318.104 535.343 320.393L528.027 365.814C527.566 368.692 527.796 370.818 528.719 372.191C529.708 373.499 531.289 374.153 533.464 374.153C534.189 374.153 534.783 374.12 535.244 374.055C535.705 373.924 536.134 373.859 536.529 373.859C537.188 373.859 537.715 374.088 538.111 374.545C538.506 375.003 538.704 375.886 538.704 377.194C538.704 379.091 538.309 380.562 537.518 381.609C536.727 382.59 535.771 383.244 534.651 383.571C534.058 383.767 533.3 383.898 532.377 383.963C531.454 384.094 530.598 384.159 529.807 384.159Z" fill="#C6FFFF"/>
<path d="M567.743 384.159C562.997 384.159 558.911 383.276 555.484 381.511C552.123 379.745 549.52 377.227 547.674 373.957C545.895 370.687 545.005 366.861 545.005 362.479C545.005 358.162 545.697 354.271 547.081 350.805C548.465 347.339 550.376 344.363 552.815 341.878C555.319 339.392 558.186 337.496 561.416 336.188C564.645 334.88 568.138 334.226 571.895 334.226C576.64 334.226 580.694 335.109 584.055 336.874C587.482 338.64 590.085 341.158 591.865 344.428C593.71 347.633 594.633 351.459 594.633 355.906C594.633 360.223 593.941 364.114 592.557 367.58C591.173 371.046 589.229 374.022 586.724 376.507C584.286 378.993 581.452 380.889 578.222 382.197C574.993 383.505 571.5 384.159 567.743 384.159ZM568.039 374.84C571.071 374.84 573.609 373.989 575.652 372.289C577.761 370.589 579.375 368.267 580.496 365.324C581.616 362.381 582.177 359.111 582.177 355.514C582.177 351.655 581.221 348.712 579.309 346.685C577.464 344.592 574.894 343.545 571.598 343.545C568.633 343.545 566.095 344.396 563.986 346.096C561.877 347.796 560.262 350.118 559.142 353.061C558.022 355.939 557.461 359.209 557.461 362.871C557.461 366.73 558.384 369.706 560.229 371.799C562.141 373.826 564.744 374.84 568.039 374.84Z" fill="#C6FFFF"/>
<path d="M618.597 383.963C616.95 383.963 615.566 383.505 614.445 382.59C613.325 381.674 612.534 380.235 612.073 378.273L603.669 342.859C603.274 341.158 603.241 339.687 603.571 338.444C603.966 337.201 604.658 336.22 605.647 335.501C606.635 334.782 607.855 334.422 609.304 334.422C610.886 334.422 612.073 334.847 612.863 335.697C613.72 336.482 614.346 337.855 614.742 339.817L621.366 371.995H618.894L636.986 338.052C637.71 336.744 638.501 335.828 639.358 335.305C640.281 334.716 641.434 334.422 642.818 334.422C644.136 334.422 645.224 334.782 646.081 335.501C647.003 336.22 647.629 337.365 647.959 338.935L654.78 371.995H652.803L670.203 338.935C671.125 337.234 672.081 336.057 673.07 335.403C674.058 334.749 675.376 334.422 677.024 334.422C678.606 334.422 679.825 334.782 680.682 335.501C681.539 336.155 682 337.038 682.066 338.15C682.132 339.262 681.802 340.504 681.077 341.878L660.317 379.352C659.46 380.922 658.405 382.099 657.153 382.884C655.967 383.603 654.55 383.963 652.902 383.963C651.254 383.963 649.837 383.505 648.651 382.59C647.531 381.609 646.74 380.17 646.278 378.273L638.864 344.821H644.499L626.111 379.156C625.254 380.791 624.199 382.001 622.947 382.786C621.761 383.571 620.311 383.963 618.597 383.963Z" fill="#C6FFFF"/>
<path d="M86.1504 415.575V412.918H109.309V415.575H99.1879V445.318H96.2716V415.575H86.1504Z" fill="#8FE7F1"/>
<path d="M118.074 430.13V445.318H115.298V412.918H118.074V424.83H118.323C118.885 423.575 119.753 422.573 120.928 421.825C122.113 421.076 123.61 420.701 125.419 420.701C127.041 420.701 128.465 421.039 129.692 421.714C130.919 422.389 131.875 423.385 132.562 424.704C133.248 426.022 133.591 427.646 133.591 429.577V445.318H130.799V429.751C130.799 427.747 130.248 426.17 129.146 425.02C128.055 423.86 126.578 423.28 124.717 423.28C123.438 423.28 122.3 423.554 121.302 424.103C120.304 424.651 119.514 425.442 118.931 426.476C118.36 427.499 118.074 428.717 118.074 430.13Z" fill="#8FE7F1"/>
<path d="M150.586 445.824C148.35 445.824 146.416 445.297 144.784 444.242C143.152 443.177 141.889 441.706 140.995 439.828C140.111 437.94 139.669 435.768 139.669 433.31C139.669 430.863 140.111 428.691 140.995 426.792C141.889 424.883 143.121 423.391 144.691 422.315C146.271 421.229 148.096 420.685 150.165 420.685C151.464 420.685 152.717 420.928 153.923 421.413C155.129 421.888 156.21 422.621 157.167 423.612C158.134 424.593 158.898 425.832 159.459 427.33C160.021 428.817 160.301 430.579 160.301 432.614V434.006H141.587V431.523H157.463C157.463 429.962 157.151 428.559 156.527 427.314C155.914 426.059 155.056 425.068 153.954 424.34C152.862 423.612 151.599 423.248 150.165 423.248C148.647 423.248 147.311 423.66 146.157 424.482C145.003 425.305 144.098 426.391 143.443 427.741C142.798 429.091 142.471 430.568 142.461 432.171V433.658C142.461 435.588 142.788 437.276 143.443 438.721C144.108 440.155 145.049 441.268 146.266 442.059C147.482 442.85 148.922 443.246 150.586 443.246C151.719 443.246 152.712 443.066 153.564 442.708C154.427 442.349 155.15 441.869 155.732 441.268C156.325 440.656 156.772 439.987 157.073 439.259L159.709 440.129C159.345 441.152 158.747 442.096 157.915 442.961C157.094 443.826 156.065 444.522 154.827 445.049C153.601 445.566 152.187 445.824 150.586 445.824Z" fill="#8FE7F1"/>
<path d="M179.347 445.318V412.918H197.827V415.575H182.263V427.773H196.377V430.431H182.263V445.318H179.347Z" fill="#8FE7F1"/>
<path d="M218.222 436.031V421.018H220.998V445.318H218.222V441.284H218.003C217.442 442.528 216.553 443.567 215.337 444.4C214.12 445.223 212.633 445.634 210.876 445.634C209.348 445.634 207.991 445.297 206.806 444.622C205.621 443.936 204.69 442.934 204.015 441.616C203.339 440.298 203.001 438.679 203.001 436.759V421.018H205.777V436.585C205.777 438.484 206.328 440.013 207.43 441.173C208.532 442.323 209.946 442.898 211.672 442.898C212.753 442.898 213.793 442.634 214.791 442.106C215.789 441.579 216.61 440.809 217.255 439.797C217.899 438.774 218.222 437.519 218.222 436.031Z" fill="#8FE7F1"/>
<path d="M237.782 421.018V423.47H226.351V421.018H237.782ZM229.922 415.196H232.713V438.974C232.713 439.987 232.885 440.783 233.228 441.363C233.571 441.932 234.018 442.339 234.569 442.581C235.12 442.813 235.708 442.929 236.332 442.929C236.695 442.929 237.007 442.908 237.267 442.866C237.527 442.813 237.756 442.76 237.953 442.708L238.546 445.255C238.276 445.36 237.943 445.455 237.548 445.54C237.153 445.634 236.664 445.682 236.082 445.682C235.063 445.682 234.081 445.455 233.135 445.002C232.199 444.548 231.429 443.873 230.826 442.977C230.223 442.08 229.922 440.967 229.922 439.638V415.196Z" fill="#8FE7F1"/>
<path d="M259.307 436.031V421.018H262.083V445.318H259.307V441.284H259.089C258.527 442.528 257.638 443.567 256.422 444.4C255.206 445.223 253.719 445.634 251.962 445.634C250.433 445.634 249.077 445.297 247.891 444.622C246.706 443.936 245.776 442.934 245.1 441.616C244.424 440.298 244.086 438.679 244.086 436.759V421.018H246.862V436.585C246.862 438.484 247.413 440.013 248.515 441.173C249.617 442.323 251.031 442.898 252.757 442.898C253.838 442.898 254.878 442.634 255.876 442.106C256.874 441.579 257.696 440.809 258.34 439.797C258.985 438.774 259.307 437.519 259.307 436.031Z" fill="#8FE7F1"/>
<path d="M269.432 445.318V421.018H272.13V424.751H272.333C272.811 423.528 273.643 422.542 274.828 421.793C276.024 421.033 277.375 420.654 278.883 420.654C279.112 420.654 279.366 420.659 279.647 420.67C279.928 420.68 280.162 420.691 280.349 420.701V423.565C280.224 423.544 280.006 423.512 279.694 423.47C279.382 423.428 279.044 423.407 278.68 423.407C277.432 423.407 276.32 423.676 275.343 424.213C274.376 424.741 273.612 425.474 273.05 426.412C272.489 427.351 272.208 428.422 272.208 429.624V445.318H269.432Z" fill="#8FE7F1"/>
<path d="M294.041 445.824C291.806 445.824 289.872 445.297 288.24 444.242C286.608 443.177 285.344 441.706 284.45 439.828C283.567 437.94 283.125 435.768 283.125 433.31C283.125 430.863 283.567 428.691 284.45 426.792C285.344 424.883 286.576 423.391 288.146 422.315C289.727 421.229 291.551 420.685 293.62 420.685C294.92 420.685 296.173 420.928 297.379 421.413C298.585 421.888 299.666 422.621 300.622 423.612C301.589 424.593 302.354 425.832 302.915 427.33C303.476 428.817 303.757 430.579 303.757 432.614V434.006H285.043V431.523H300.919C300.919 429.962 300.607 428.559 299.983 427.314C299.37 426.059 298.512 425.068 297.41 424.34C296.318 423.612 295.055 423.248 293.62 423.248C292.102 423.248 290.766 423.66 289.612 424.482C288.458 425.305 287.554 426.391 286.899 427.741C286.254 429.091 285.927 430.568 285.916 432.171V433.658C285.916 435.588 286.244 437.276 286.899 438.721C287.564 440.155 288.505 441.268 289.721 442.059C290.938 442.85 292.378 443.246 294.041 443.246C295.175 443.246 296.167 443.066 297.02 442.708C297.883 442.349 298.605 441.869 299.188 441.268C299.78 440.656 300.227 439.987 300.529 439.259L303.164 440.129C302.801 441.152 302.203 442.096 301.371 442.961C300.55 443.826 299.52 444.522 298.283 445.049C297.056 445.566 295.642 445.824 294.041 445.824Z" fill="#8FE7F1"/>
<path d="M331.536 445.824C329.467 445.824 327.637 445.292 326.046 444.226C324.466 443.161 323.229 441.69 322.335 439.813C321.441 437.925 320.994 435.747 320.994 433.279C320.994 430.79 321.441 428.601 322.335 426.713C323.229 424.815 324.466 423.338 326.046 422.283C327.637 421.218 329.467 420.685 331.536 420.685C333.605 420.685 335.43 421.218 337.01 422.283C338.59 423.349 339.827 424.825 340.721 426.713C341.626 428.601 342.078 430.79 342.078 433.279C342.078 435.747 341.631 437.925 340.737 439.813C339.843 441.69 338.601 443.161 337.01 444.226C335.43 445.292 333.605 445.824 331.536 445.824ZM331.536 443.246C333.199 443.246 334.608 442.792 335.762 441.885C336.916 440.978 337.79 439.77 338.382 438.262C338.985 436.754 339.287 435.093 339.287 433.279C339.287 431.465 338.985 429.798 338.382 428.279C337.79 426.761 336.916 425.542 335.762 424.625C334.608 423.707 333.199 423.248 331.536 423.248C329.883 423.248 328.474 423.707 327.31 424.625C326.156 425.542 325.277 426.761 324.674 428.279C324.081 429.798 323.785 431.465 323.785 433.279C323.785 435.093 324.081 436.754 324.674 438.262C325.277 439.77 326.156 440.978 327.31 441.885C328.464 442.792 329.872 443.246 331.536 443.246Z" fill="#8FE7F1"/>
<path d="M358.028 421.018V423.47H346.254V421.018H358.028ZM349.934 445.318V417.458C349.934 416.15 350.231 415.048 350.823 414.152C351.426 413.255 352.211 412.575 353.178 412.111C354.145 411.647 355.169 411.415 356.25 411.415C356.978 411.415 357.581 411.478 358.059 411.604C358.548 411.72 358.933 411.836 359.213 411.952L358.402 414.42C358.194 414.357 357.94 414.283 357.638 414.199C357.337 414.115 356.957 414.072 356.5 414.072C355.294 414.072 354.363 414.415 353.708 415.101C353.053 415.786 352.726 416.767 352.726 418.043L352.71 445.318H349.934Z" fill="#8FE7F1"/>
<path d="M376.497 445.318V412.918H386.805C389.072 412.918 390.964 413.36 392.482 414.246C394.01 415.122 395.159 416.314 395.928 417.822C396.708 419.33 397.098 421.028 397.098 422.916C397.098 424.804 396.713 426.507 395.944 428.026C395.174 429.534 394.031 430.731 392.513 431.617C390.995 432.493 389.108 432.931 386.852 432.931H378.742V430.273H386.774C388.448 430.273 389.836 429.956 390.938 429.323C392.04 428.68 392.861 427.805 393.402 426.697C393.953 425.59 394.228 424.329 394.228 422.916C394.228 421.503 393.953 420.242 393.402 419.135C392.861 418.028 392.035 417.157 390.922 416.525C389.82 415.892 388.422 415.575 386.727 415.575H379.413V445.318H376.497Z" fill="#8FE7F1"/>
<path d="M410.057 445.872C408.612 445.872 407.292 445.587 406.096 445.017C404.901 444.437 403.949 443.604 403.242 442.518C402.535 441.421 402.182 440.092 402.182 438.531C402.182 437.329 402.405 436.316 402.852 435.493C403.299 434.671 403.934 433.996 404.755 433.468C405.576 432.941 406.548 432.524 407.671 432.219C408.794 431.913 410.031 431.675 411.383 431.507C412.724 431.338 413.857 431.19 414.783 431.064C415.718 430.937 416.431 430.737 416.919 430.463C417.408 430.188 417.652 429.745 417.652 429.134V428.564C417.652 426.908 417.164 425.606 416.186 424.656C415.219 423.697 413.826 423.217 412.007 423.217C410.281 423.217 408.872 423.602 407.781 424.372C406.699 425.142 405.94 426.049 405.504 427.093L402.868 426.128C403.409 424.799 404.157 423.739 405.114 422.948C406.07 422.146 407.141 421.571 408.326 421.223C409.512 420.865 410.712 420.685 411.929 420.685C412.844 420.685 413.795 420.807 414.783 421.049C415.781 421.292 416.706 421.714 417.559 422.315C418.411 422.906 419.103 423.734 419.633 424.799C420.163 425.853 420.428 427.193 420.428 428.817V445.318H417.652V441.474H417.481C417.148 442.191 416.654 442.887 415.999 443.562C415.344 444.237 414.523 444.791 413.535 445.223C412.547 445.656 411.388 445.872 410.057 445.872ZM410.432 443.293C411.908 443.293 413.187 442.961 414.268 442.296C415.349 441.632 416.181 440.751 416.763 439.654C417.356 438.547 417.652 437.329 417.652 436V432.488C417.444 432.688 417.096 432.867 416.607 433.025C416.129 433.184 415.573 433.326 414.939 433.453C414.315 433.569 413.691 433.669 413.067 433.753C412.443 433.838 411.882 433.911 411.383 433.975C410.031 434.143 408.877 434.407 407.921 434.766C406.964 435.124 406.231 435.62 405.722 436.253C405.213 436.875 404.958 437.677 404.958 438.658C404.958 440.134 405.478 441.279 406.517 442.091C407.557 442.892 408.862 443.293 410.432 443.293Z" fill="#8FE7F1"/>
<path d="M437.248 421.018V423.47H425.816V421.018H437.248ZM429.388 415.196H432.179V438.974C432.179 439.987 432.351 440.783 432.694 441.363C433.037 441.932 433.484 442.339 434.035 442.581C434.586 442.813 435.173 442.929 435.797 442.929C436.161 442.929 436.473 442.908 436.733 442.866C436.993 442.813 437.222 442.76 437.419 442.708L438.012 445.255C437.741 445.36 437.409 445.455 437.014 445.54C436.618 445.634 436.13 445.682 435.548 445.682C434.529 445.682 433.546 445.455 432.6 445.002C431.664 444.548 430.895 443.873 430.292 442.977C429.689 442.08 429.388 440.967 429.388 439.638V415.196Z" fill="#8FE7F1"/>
<path d="M443.583 445.318V421.018H446.375V445.318H443.583ZM445.002 416.841C444.43 416.841 443.942 416.646 443.536 416.256C443.131 415.855 442.928 415.375 442.928 414.816C442.928 414.257 443.131 413.782 443.536 413.392C443.942 412.991 444.43 412.791 445.002 412.791C445.574 412.791 446.063 412.991 446.468 413.392C446.874 413.782 447.076 414.257 447.076 414.816C447.076 415.375 446.874 415.855 446.468 416.256C446.063 416.646 445.574 416.841 445.002 416.841Z" fill="#8FE7F1"/>
<path d="M463.401 445.824C461.165 445.824 459.231 445.297 457.599 444.242C455.967 443.177 454.704 441.706 453.81 439.828C452.926 437.94 452.484 435.768 452.484 433.31C452.484 430.863 452.926 428.691 453.81 426.792C454.704 424.883 455.936 423.391 457.506 422.315C459.086 421.229 460.911 420.685 462.979 420.685C464.279 420.685 465.532 420.928 466.738 421.413C467.944 421.888 469.025 422.621 469.982 423.612C470.949 424.593 471.713 425.832 472.274 427.33C472.836 428.817 473.116 430.579 473.116 432.614V434.006H454.402V431.523H470.278C470.278 429.962 469.966 428.559 469.342 427.314C468.729 426.059 467.871 425.068 466.769 424.34C465.677 423.612 464.414 423.248 462.979 423.248C461.462 423.248 460.126 423.66 458.972 424.482C457.818 425.305 456.913 426.391 456.258 427.741C455.613 429.091 455.286 430.568 455.276 432.171V433.658C455.276 435.588 455.603 437.276 456.258 438.721C456.923 440.155 457.864 441.268 459.081 442.059C460.297 442.85 461.737 443.246 463.401 443.246C464.534 443.246 465.527 443.066 466.379 442.708C467.242 442.349 467.965 441.869 468.547 441.268C469.14 440.656 469.587 439.987 469.888 439.259L472.524 440.129C472.16 441.152 471.562 442.096 470.73 442.961C469.909 443.826 468.88 444.522 467.642 445.049C466.416 445.566 465.002 445.824 463.401 445.824Z" fill="#8FE7F1"/>
<path d="M482.009 430.13V445.318H479.234V421.018H481.931V424.83H482.181C482.742 423.586 483.616 422.589 484.801 421.84C485.997 421.081 487.473 420.701 489.23 420.701C490.841 420.701 492.255 421.044 493.472 421.73C494.699 422.405 495.65 423.401 496.326 424.72C497.012 426.038 497.355 427.657 497.355 429.577V445.318H494.579V429.751C494.579 427.757 494.028 426.18 492.926 425.02C491.834 423.86 490.368 423.28 488.528 423.28C487.27 423.28 486.153 423.554 485.175 424.103C484.198 424.651 483.423 425.442 482.852 426.476C482.29 427.499 482.009 428.717 482.009 430.13Z" fill="#8FE7F1"/>
<path d="M514.1 421.018V423.47H502.669V421.018H514.1ZM506.24 415.196H509.032V438.974C509.032 439.987 509.203 440.783 509.547 441.363C509.89 441.932 510.337 442.339 510.888 442.581C511.439 442.813 512.026 442.929 512.65 442.929C513.014 442.929 513.326 442.908 513.586 442.866C513.846 442.813 514.074 442.76 514.272 442.708L514.865 445.255C514.594 445.36 514.261 445.455 513.866 445.54C513.471 445.634 512.983 445.682 512.4 445.682C511.382 445.682 510.399 445.455 509.453 445.002C508.517 444.548 507.748 443.873 507.145 442.977C506.542 442.08 506.24 440.967 506.24 439.638V415.196Z" fill="#8FE7F1"/>
<path d="M533.333 445.318V412.918H551.813V415.575H536.249V427.773H550.363V430.431H536.249V445.318H533.333Z" fill="#8FE7F1"/>
<path d="M561.264 412.918V445.318H558.488V412.918H561.264Z" fill="#8FE7F1"/>
<path d="M577.92 445.824C575.851 445.824 574.021 445.292 572.43 444.226C570.85 443.161 569.613 441.69 568.718 439.813C567.824 437.925 567.377 435.747 567.377 433.279C567.377 430.79 567.824 428.601 568.718 426.713C569.613 424.815 570.85 423.338 572.43 422.283C574.021 421.218 575.851 420.685 577.92 420.685C579.988 420.685 581.813 421.218 583.393 422.283C584.974 423.349 586.211 424.825 587.105 426.713C588.01 428.601 588.462 430.79 588.462 433.279C588.462 435.747 588.015 437.925 587.121 439.813C586.227 441.69 584.984 443.161 583.393 444.226C581.813 445.292 579.988 445.824 577.92 445.824ZM577.92 443.246C579.583 443.246 580.992 442.792 582.146 441.885C583.3 440.978 584.173 439.77 584.766 438.262C585.369 436.754 585.67 435.093 585.67 433.279C585.67 431.465 585.369 429.798 584.766 428.279C584.173 426.761 583.3 425.542 582.146 424.625C580.992 423.707 579.583 423.248 577.92 423.248C576.266 423.248 574.858 423.707 573.693 424.625C572.539 425.542 571.661 426.761 571.058 428.279C570.465 429.798 570.169 431.465 570.169 433.279C570.169 435.093 570.465 436.754 571.058 438.262C571.661 439.77 572.539 440.978 573.693 441.885C574.847 442.792 576.256 443.246 577.92 443.246Z" fill="#8FE7F1"/>
<path d="M599.059 445.318L591.823 421.018H594.754L600.431 441.062H600.634L606.295 421.018H609.242L614.857 441.015H615.075L620.752 421.018H623.683L616.447 445.318H613.578L607.901 425.4H607.605L601.928 445.318H599.059Z" fill="#8FE7F1"/>
</svg>
