<svg width="432" height="244" viewBox="0 0 432 244" fill="none" xmlns="http://www.w3.org/2000/svg">
<mask id="mask0_1019_2181" style="mask-type:alpha" maskUnits="userSpaceOnUse" x="0" y="0" width="432" height="244">
<rect x="0.193359" y="0.364746" width="431.464" height="243.459" rx="16.2306" fill="#D9D9D9"/>
</mask>
<g mask="url(#mask0_1019_2181)">
<rect x="0.193359" y="0.364746" width="431.464" height="243.459" rx="16.2306" fill="url(#paint0_linear_1019_2181)"/>
<g filter="url(#filter0_d_1019_2181)">
<path d="M141.03 110.867C141.64 110.867 142.281 111.27 142.666 111.966L149.372 123.943L156.046 111.929C156.463 111.197 157.136 110.867 157.746 110.867C158.676 110.867 159.543 111.6 159.543 112.918V132.294C159.543 133.576 158.548 134.199 157.65 134.199C156.719 134.199 155.821 133.576 155.821 132.294V119.951L151.04 128.485C150.687 129.218 150.014 129.547 149.372 129.547C148.73 129.547 147.992 129.108 147.639 128.375L142.923 119.987V132.294C142.923 133.576 141.96 134.199 141.062 134.199C140.132 134.199 139.201 133.576 139.201 132.294V112.955C139.201 111.673 140.1 110.867 141.03 110.867Z" fill="white"/>
<path d="M171.823 130.939C173.042 130.939 174.294 130.573 175.32 129.657C177.278 127.643 179.524 130.426 177.727 132.368C176.219 134.016 174.037 134.602 171.92 134.565C166.882 134.565 163.449 130.793 163.449 125.298C163.449 119.291 166.69 115.189 171.823 115.189C176.957 115.189 179.844 119.035 179.876 124.712C179.876 125.921 179.684 126.91 177.855 126.91H167.171C167.749 129.291 169.545 130.939 171.823 130.939ZM171.855 118.815C169.353 118.815 167.588 120.757 167.139 123.65H176.476C176.251 120.757 174.871 118.815 171.855 118.815Z" fill="white"/>
<path d="M197.142 110.501C198.041 110.501 199.003 111.05 199.003 112.332V132.331C199.003 133.503 198.33 134.199 197.142 134.199C195.987 134.199 195.442 133.54 195.41 132.441C194.03 133.833 192.201 134.529 190.661 134.529C185.849 134.529 182.897 130.5 182.897 124.676C182.897 119.145 186.073 115.189 190.79 115.189C192.201 115.189 193.934 115.812 195.346 117.094V112.332C195.346 111.05 196.244 110.501 197.142 110.501ZM190.758 130.829C192.875 130.829 194.8 129.694 195.41 127.606L195.378 121.965C194.64 119.987 192.811 118.888 191.046 118.888C188.351 118.888 186.555 121.379 186.555 124.712C186.555 128.302 188.223 130.829 190.758 130.829Z" fill="white"/>
<path d="M211.779 127.35L217.618 114.127C217.907 113.321 218.549 112.918 219.287 112.918C219.993 112.918 220.73 113.321 221.083 114.054L226.923 127.35L232.923 112.332C233.276 111.453 233.949 110.867 234.783 110.867C235.906 110.867 237.222 112.039 236.516 113.797L228.72 132.99C228.399 133.796 227.693 134.199 226.955 134.199C226.217 134.199 225.639 133.906 225.286 133.064L219.319 119.621L213.415 133.064C213.126 133.759 212.356 134.199 211.586 134.199C210.848 134.199 210.207 133.833 209.918 132.99L202.25 113.944C201.576 112.259 202.699 110.867 203.886 110.867C204.72 110.867 205.394 111.38 205.843 112.515L211.779 127.35Z" fill="white"/>
<path d="M246.027 115.189C251.161 115.189 254.562 119.145 254.562 124.969C254.498 130.719 251.065 134.565 246.027 134.565C240.99 134.565 237.557 130.719 237.493 124.969C237.493 119.145 240.926 115.189 246.027 115.189ZM246.027 130.902C248.915 130.902 250.808 128.485 250.808 124.969C250.808 121.379 248.915 118.852 246.027 118.852C243.14 118.852 241.247 121.379 241.247 124.969C241.247 128.485 243.14 130.902 246.027 130.902Z" fill="white"/>
<path d="M264.212 115.555C265.367 115.555 266.105 116.105 266.105 117.35C266.105 118.522 265.367 119.255 264.212 119.255C261.517 119.255 260.554 121.599 260.554 125.372V132.331C260.554 133.43 259.752 134.199 258.79 134.199C257.667 134.199 256.929 133.43 256.929 132.331V117.423C256.929 116.251 257.891 115.555 258.79 115.555C259.688 115.555 260.554 116.215 260.554 117.423V117.643C261.485 116.215 262.736 115.555 264.212 115.555Z" fill="white"/>
<path d="M280.412 131.049C281.503 132.587 280.38 134.199 279.096 134.199C278.551 134.199 278.005 133.906 277.62 133.393L272.198 126.507L271.268 127.459V132.331C271.268 133.54 270.305 134.199 269.407 134.199C268.476 134.199 267.61 133.54 267.61 132.331V112.369C267.61 109.878 271.268 109.878 271.268 112.369V122.478L277.203 116.141C277.588 115.775 278.134 115.555 278.551 115.555C279.578 115.555 280.412 116.434 280.412 117.423C280.412 117.9 280.187 118.376 279.738 118.852L274.701 123.943L280.412 131.049Z" fill="white"/>
<path d="M288.919 113.541C288.149 113.541 287.379 114.127 287.379 115.336V115.958H289.497C290.556 115.958 291.037 116.837 291.037 117.68C291.037 118.559 290.556 119.401 289.497 119.401H287.379V132.368C287.379 133.576 286.449 134.199 285.551 134.199C284.62 134.199 283.722 133.576 283.722 132.368V119.401H282.888C281.829 119.401 281.251 118.559 281.251 117.68C281.251 116.837 281.797 115.958 282.888 115.958H283.722V115.336C283.722 111.929 286.192 109.988 288.791 109.988C290.01 109.988 291.262 110.318 292.256 111.307C293.893 112.955 291.711 115.775 290.042 114.054C289.754 113.724 289.337 113.541 288.919 113.541Z" fill="white"/>
<path d="M297.217 132.368C297.217 133.357 296.415 134.199 295.388 134.199C294.297 134.199 293.559 133.357 293.559 132.368V112.332C293.559 111.343 294.297 110.501 295.388 110.501C296.415 110.501 297.217 111.343 297.217 112.332V132.368Z" fill="white"/>
<path d="M307.777 115.189C312.911 115.189 316.312 119.145 316.312 124.969C316.248 130.719 312.815 134.565 307.777 134.565C302.74 134.565 299.307 130.719 299.243 124.969C299.243 119.145 302.676 115.189 307.777 115.189ZM307.777 130.902C310.665 130.902 312.558 128.485 312.558 124.969C312.558 121.379 310.665 118.852 307.777 118.852C304.89 118.852 302.997 121.379 302.997 124.969C302.997 128.485 304.89 130.902 307.777 130.902Z" fill="white"/>
<path d="M317.348 118.302C316.77 116.764 318.022 115.555 319.112 115.555C319.818 115.555 320.556 116.178 320.781 116.801L324.952 127.679L328.962 118.266C329.251 117.46 329.893 117.02 330.631 117.02C331.401 117.02 332.01 117.46 332.331 118.229L336.374 127.752L340.513 116.874C340.834 116.032 341.379 115.555 342.245 115.555C343.368 115.555 344.395 116.764 343.85 118.266L338.171 133.503C337.914 134.272 337.368 134.565 336.534 134.565C335.796 134.565 335.123 134.272 334.802 133.54L330.695 123.614L326.492 133.503C326.203 134.199 325.561 134.565 324.759 134.565C324.021 134.565 323.444 134.309 323.123 133.466L317.348 118.302Z" fill="white"/>
</g>
<g filter="url(#filter1_d_1019_2181)">
<path d="M102.369 100C104.448 100 107.257 101.905 107.59 105.4H122.836C125.146 105.4 128.611 107.954 128.611 112.372V114.42H124.827C123.379 114.42 122.205 115.594 122.205 117.042C122.205 118.49 123.379 119.664 124.827 119.664H128.611V132.772H122.547C121.099 132.773 119.926 133.946 119.926 135.394C119.926 136.841 121.099 138.015 122.547 138.016H128.513C128.2 140.631 126.996 143.015 122.929 143.253H93.5479C93.3834 143.261 93.2182 143.261 93.0537 143.253C90.4932 143.123 88 140.978 88 136.87V135.395H98.4932C99.9411 135.394 101.115 134.22 101.115 132.772C101.115 131.325 99.9411 130.15 98.4932 130.15H88V124.907H105.904C107.352 124.907 108.525 123.734 108.525 122.286C108.525 120.838 107.352 119.664 105.904 119.664H88V114.253C88.2849 114.359 88.5921 114.42 88.9141 114.42H97.3525C98.8004 114.42 99.9745 113.247 99.9746 111.799C99.9746 110.351 98.8005 109.177 97.3525 109.177H88.9141C88.5922 109.177 88.2849 109.238 88 109.344V105.4C88 103.24 89.6172 100 92.8975 100H102.369Z" fill="url(#paint1_linear_1019_2181)"/>
</g>
</g>
<defs>
<filter id="filter0_d_1019_2181" x="131.703" y="109.988" width="219.795" height="39.5751" filterUnits="userSpaceOnUse" color-interpolation-filters="sRGB">
<feFlood flood-opacity="0" result="BackgroundImageFix"/>
<feColorMatrix in="SourceAlpha" type="matrix" values="0 0 0 0 0 0 0 0 0 0 0 0 0 0 0 0 0 0 127 0" result="hardAlpha"/>
<feOffset dy="7.49805"/>
<feGaussianBlur stdDeviation="3.74902"/>
<feComposite in2="hardAlpha" operator="out"/>
<feColorMatrix type="matrix" values="0 0 0 0 0 0 0 0 0 0 0 0 0 0 0 0 0 0 0.25 0"/>
<feBlend mode="normal" in2="BackgroundImageFix" result="effect1_dropShadow_1019_2181"/>
<feBlend mode="normal" in="SourceGraphic" in2="effect1_dropShadow_1019_2181" result="shape"/>
</filter>
<filter id="filter1_d_1019_2181" x="80.502" y="100" width="55.6074" height="58.2553" filterUnits="userSpaceOnUse" color-interpolation-filters="sRGB">
<feFlood flood-opacity="0" result="BackgroundImageFix"/>
<feColorMatrix in="SourceAlpha" type="matrix" values="0 0 0 0 0 0 0 0 0 0 0 0 0 0 0 0 0 0 127 0" result="hardAlpha"/>
<feOffset dy="7.49805"/>
<feGaussianBlur stdDeviation="3.74902"/>
<feComposite in2="hardAlpha" operator="out"/>
<feColorMatrix type="matrix" values="0 0 0 0 0 0 0 0 0 0 0 0 0 0 0 0 0 0 0.25 0"/>
<feBlend mode="normal" in2="BackgroundImageFix" result="effect1_dropShadow_1019_2181"/>
<feBlend mode="normal" in="SourceGraphic" in2="effect1_dropShadow_1019_2181" result="shape"/>
</filter>
<linearGradient id="paint0_linear_1019_2181" x1="49.699" y1="-39.8708" x2="211.499" y2="198.466" gradientUnits="userSpaceOnUse">
<stop stop-color="#30A3E2"/>
<stop offset="1" stop-color="#163A81"/>
</linearGradient>
<linearGradient id="paint1_linear_1019_2181" x1="108.306" y1="100" x2="108.306" y2="143.259" gradientUnits="userSpaceOnUse">
<stop stop-color="#328CBE"/>
<stop offset="1" stop-color="#67DB6B"/>
</linearGradient>
</defs>
</svg>
