<svg width="570" height="371" viewBox="0 0 570 371" fill="none" xmlns="http://www.w3.org/2000/svg">
<path d="M267.178 0.00773198C267.609 0.00645336 268.04 0.00477543 268.471 0.00273259C269.632 -0.0015292 270.793 9.21384e-05 271.955 0.0030895C273.176 0.00548934 274.397 0.00325802 275.618 0.00178443C277.668 7.60423e-05 279.719 0.00231692 281.769 0.00681255C284.131 0.0119333 286.494 0.0102771 288.856 0.005093C290.893 0.000805122 292.929 0.000225196 294.965 0.00268152C296.178 0.00414118 297.391 0.0043677 298.603 0.00123493C299.744 -0.00150722 300.885 0.000442371 302.026 0.00584284C302.639 0.00765896 303.252 0.00490361 303.864 0.00195683C309.235 0.0402094 313.963 1.90122 317.865 5.52353C321.369 9.10079 323.481 13.6054 323.477 18.5815C323.478 18.8915 323.478 18.8915 323.478 19.2077C323.479 19.8958 323.477 20.5839 323.475 21.2719C323.475 21.7669 323.475 22.2619 323.475 22.7569C323.475 24.0976 323.473 25.4384 323.471 26.7792C323.469 28.1814 323.469 29.5837 323.469 30.986C323.468 33.6401 323.465 36.2943 323.462 38.9484C323.458 41.9705 323.456 44.9927 323.455 48.0149C323.452 53.6131 323.447 59.2112 323.441 64.8093C323.44 65.8311 324.269 66.6592 325.291 66.6562C331.615 66.6377 338.515 66.6219 344.714 66.613C348.007 66.6081 351.299 66.6015 354.592 66.5907C357.464 66.5813 360.335 66.5753 363.206 66.5732C364.725 66.5719 366.245 66.5691 367.764 66.5622C369.196 66.5558 370.628 66.5539 372.06 66.5553C372.584 66.555 373.108 66.5532 373.631 66.5495C379.262 66.5124 383.995 67.6704 388.164 71.5985C388.401 71.8335 388.639 72.0686 388.883 72.3107C389.088 72.5037 389.292 72.6967 389.502 72.8955C395.703 80.1939 394.535 93.9495 394.357 103.106C394.337 104.124 393.528 104.949 392.51 104.949C384.905 104.949 355.408 104.949 339.158 104.949C337.464 101.532 335.77 98.1139 334.025 94.5927C330.478 89.7346 328.623 87.6008 323.118 85.8055C318.371 85.4668 315.044 86.6572 311.387 89.6082C308.994 91.7839 307.403 94.3565 305.794 97.1034C305.674 97.3034 305.554 97.5034 305.43 97.7094C296.018 113.462 292.144 133.719 288.487 151.433C288.241 152.606 287.935 153.724 287.508 154.848C287.402 154.848 287.296 154.848 287.187 154.848C283.972 133.421 283.972 133.421 283.157 126.957C282.515 121.873 281.779 116.805 281.032 111.736C279.821 103.518 278.653 95.296 277.511 87.0693C276.658 80.9302 275.779 74.7953 274.878 68.6628C274.298 64.7162 273.721 60.7692 273.161 56.8198C272.843 54.5736 272.52 52.3281 272.195 50.0828C271.978 48.5834 271.764 47.0838 271.552 45.5836C271.345 44.1123 271.134 42.6418 270.919 41.1716C270.839 40.6166 270.76 40.0613 270.683 39.5058C270.576 38.7322 270.462 37.9595 270.348 37.1869C270.318 36.9616 270.288 36.7363 270.257 36.5041C270.007 34.8827 269.497 33.799 268.581 32.4542C267.333 31.5943 266.216 31.336 264.716 31.406C263.6 31.596 262.996 32.0288 262.164 32.768C260.919 34.7696 260.499 36.7474 260.082 39.0394C259.856 40.2755 259.616 41.5091 259.379 42.7432C259.297 43.1708 259.297 43.1708 259.214 43.607C258.692 46.3204 258.139 49.0274 257.582 51.7339C257.535 51.9623 257.488 52.1907 257.439 52.4261C257.245 53.3683 257.051 54.3106 256.857 55.2528C254.788 65.2903 254.788 65.2903 252.841 75.351C251.775 81.0462 250.661 86.7318 249.533 92.4155C249.488 92.6403 249.443 92.8652 249.397 93.0968C247.698 101.657 245.963 110.21 244.199 118.758C243.377 118.915 243.377 118.915 242.274 118.758C240.437 117.306 239.415 115.281 238.465 113.215C238.33 112.93 238.194 112.644 238.055 112.349C236.731 109.524 235.502 106.659 234.294 103.785C233.676 102.317 233.052 100.852 232.427 99.3872C232.307 99.1043 232.186 98.8213 232.062 98.5298C231.122 96.3292 230.163 94.1387 229.161 91.9644C229.041 91.7004 228.922 91.4365 228.798 91.1646C228.039 89.5434 227.26 88.1882 225.753 87.1196C223.96 86.5246 221.922 86.2489 220.144 87.0246C218.453 87.9618 217.541 89.0514 216.57 90.6698C216.27 91.1446 215.97 91.619 215.669 92.0931C215.432 92.47 215.432 92.47 215.191 92.8545C210.445 100.321 210.445 100.321 207.627 103.38C207.412 103.648 207.198 103.916 206.976 104.191C205.656 105.241 204.696 105.161 203.043 105.127C202.597 105.128 202.597 105.128 202.142 105.128C201.161 105.127 200.181 105.115 199.2 105.102C198.519 105.099 197.838 105.097 197.157 105.096C195.366 105.09 193.576 105.074 191.785 105.057C189.957 105.041 188.13 105.034 186.302 105.026C183.321 105.012 180.34 104.991 177.359 104.965C176.353 104.957 175.54 104.143 175.532 103.137C175.517 101.075 175.505 99.0138 175.497 96.9522C175.492 95.7139 175.485 94.4757 175.474 93.2375C175.463 92.0389 175.458 90.8405 175.455 89.6419C175.453 89.1883 175.45 88.7346 175.445 88.2811C175.376 82.072 176.813 76.5941 181.321 71.9969C186.013 67.5796 190.985 66.5615 197.242 66.5905C197.78 66.5907 198.317 66.5906 198.855 66.5902C200.308 66.59 201.76 66.5937 203.213 66.5981C204.734 66.6021 206.255 66.6024 207.775 66.6031C210.652 66.6051 213.529 66.6102 216.406 66.6166C219.682 66.6236 222.958 66.627 226.235 66.6302C232.352 66.6361 238.47 66.6458 244.588 66.658C245.611 66.66 246.441 65.8286 246.437 64.8051C246.412 59.0797 246.39 52.8504 246.378 47.2485C246.372 44.2435 246.363 41.2385 246.348 38.2335C246.335 35.6127 246.327 32.9919 246.324 30.3711C246.322 28.9849 246.319 27.5987 246.309 26.2126C246.3 24.9045 246.298 23.5965 246.3 22.2885C246.299 21.8116 246.297 21.3347 246.292 20.8578C246.236 15.2179 247.837 9.93105 251.865 5.73806C254.148 3.75293 256.729 2.10703 259.598 1.07105C259.936 0.946571 259.936 0.946571 260.281 0.819578C262.592 0.0530341 264.754 -0.00390965 267.178 0.00773198Z" fill="#0097A7"/>
<path d="M263.753 63.8756C264.035 62.6183 265.233 62.4133 265.421 63.688C265.453 63.899 265.485 64.11 265.518 64.3274C265.624 65.032 265.726 65.7371 265.828 66.4422C265.902 66.9412 265.977 67.4402 266.051 67.9392C266.249 69.265 266.443 70.5913 266.636 71.9176C266.79 72.9624 266.945 74.0068 267.1 75.0513C268.001 81.105 268.861 87.1637 269.693 93.2269C270.112 96.283 270.54 99.3377 270.974 102.392C271.022 102.734 271.022 102.734 271.072 103.084C271.236 104.24 271.401 105.396 271.565 106.552C271.738 107.766 271.911 108.981 272.083 110.195C272.712 114.624 273.342 119.053 273.981 123.481C274.146 124.62 274.31 125.759 274.474 126.898C274.512 127.166 274.551 127.434 274.591 127.71C275.077 131.09 275.517 134.471 275.917 137.862C276.497 142.759 277.265 147.625 278.033 152.496C278.863 157.776 279.616 163.057 280.245 168.363C280.685 175.087 280.685 175.087 283.978 180.582C285.649 181.127 287.422 181.197 289.05 180.465C291.317 178.94 291.722 175.31 292.299 172.854C292.381 172.51 292.464 172.167 292.549 171.812C293.146 169.302 293.686 166.782 294.212 164.257C295.815 156.649 297.685 149.091 299.639 141.562C299.75 141.132 299.862 140.702 299.973 140.272C300.028 140.059 300.084 139.846 300.141 139.626C300.52 138.154 300.88 136.677 301.233 135.199C302.09 131.619 303.052 128.077 304.088 124.544C304.171 124.26 304.255 123.976 304.34 123.684C311.523 99.261 312.662 97.304 318.849 94.5926C320.04 94.0759 320.963 94.0759 322.154 94.5926C327.039 96.9334 329.192 103.454 331.106 108.046C332.173 110.578 333.042 112.203 335.628 113.423C336.822 113.817 337.992 113.78 339.245 113.786C339.481 113.788 339.716 113.789 339.959 113.791C340.749 113.796 341.538 113.798 342.328 113.801C342.894 113.804 343.46 113.807 344.026 113.81C345.563 113.819 347.1 113.825 348.637 113.832C350.243 113.838 351.849 113.847 353.455 113.855C356.496 113.871 359.538 113.885 362.579 113.899C366.042 113.914 369.504 113.931 372.967 113.949C378.526 113.977 388.447 113.943 392.534 113.926C393.55 113.922 394.377 114.74 394.376 115.756C394.375 117.062 394.365 118.39 394.371 119.657C394.374 120.29 394.378 120.923 394.384 121.557C394.45 129.19 394.196 135.876 388.521 141.745C385.001 144.997 380.251 147.044 375.402 147.04C375.179 147.04 374.957 147.041 374.727 147.041C373.983 147.041 373.239 147.04 372.494 147.038C371.96 147.038 371.426 147.038 370.891 147.038C369.442 147.038 367.992 147.036 366.543 147.034C365.028 147.032 363.512 147.032 361.997 147.032C359.128 147.031 356.26 147.028 353.391 147.025C350.125 147.022 346.858 147.02 343.592 147.018C337.492 147.015 331.392 147.01 325.292 147.004C324.269 147.003 323.441 147.835 323.446 148.857C323.47 154.336 323.492 160.29 323.503 165.647C323.51 168.533 323.519 171.419 323.534 174.305C323.547 176.822 323.555 179.34 323.558 181.858C323.559 183.189 323.563 184.52 323.573 185.851C323.582 187.108 323.584 188.365 323.582 189.622C323.583 190.08 323.585 190.537 323.59 190.994C323.655 197.312 321.887 202.646 317.342 207.258C313.067 210.793 308.426 212.112 302.91 212.092C302.47 212.094 302.031 212.096 301.592 212.099C300.408 212.104 299.225 212.104 298.042 212.102C297.05 212.101 296.057 212.103 295.065 212.105C292.721 212.11 290.377 212.109 288.034 212.105C285.626 212.102 283.219 212.106 280.811 212.115C278.734 212.122 276.658 212.124 274.581 212.122C273.345 212.121 272.109 212.122 270.873 212.127C269.71 212.132 268.546 212.131 267.383 212.125C266.76 212.123 266.136 212.127 265.513 212.132C260.361 212.09 255.706 210.232 251.948 206.757C247.88 202.33 246.505 197.292 246.582 191.466C246.582 190.977 246.582 190.487 246.581 189.998C246.581 188.687 246.59 187.377 246.601 186.066C246.612 184.69 246.612 183.313 246.614 181.937C246.619 179.339 246.632 176.74 246.649 174.142C246.667 171.18 246.675 168.219 246.683 165.257C246.698 159.793 246.723 154.328 246.753 148.864C246.759 147.838 245.928 147.005 244.903 147.008C238.672 147.027 231.878 147.042 225.773 147.051C222.524 147.056 219.275 147.063 216.026 147.073C213.193 147.083 210.359 147.089 207.526 147.091C206.027 147.092 204.528 147.095 203.029 147.102C201.616 147.108 200.202 147.11 198.788 147.109C198.272 147.109 197.756 147.111 197.24 147.115C191.175 147.155 185.836 145.939 181.339 141.77C178.324 138.812 176.012 134.658 175.827 130.429C175.828 130.127 175.829 129.824 175.829 129.513C175.829 129.167 175.829 128.822 175.829 128.466C175.831 128.098 175.833 127.73 175.834 127.351C175.835 126.971 175.835 126.59 175.836 126.198C175.838 124.986 175.842 123.775 175.846 122.563C175.847 121.74 175.849 120.917 175.85 120.094C175.853 118.687 175.838 117.263 175.832 115.846C175.827 114.832 176.647 114.011 177.661 114.01C180.844 114.006 184.563 114.013 187.478 113.992C189.276 113.98 191.074 113.97 192.871 113.965C194.608 113.96 196.345 113.95 198.082 113.935C198.743 113.93 199.403 113.927 200.064 113.927C205.384 113.923 209.511 113.363 213.508 109.625C214.808 108.331 215.845 106.895 216.889 105.4C217.082 105.127 217.276 104.853 217.475 104.571C218.642 102.912 219.779 101.236 220.889 99.5421C221.51 98.5944 222.886 98.3992 223.382 99.4183C223.451 99.561 223.518 99.7124 223.583 99.8747C223.682 100.116 223.781 100.356 223.883 100.604C224.039 100.995 224.039 100.995 224.199 101.394C224.31 101.666 224.421 101.938 224.535 102.218C224.773 102.8 225.009 103.382 225.245 103.965C225.855 105.475 226.475 106.981 227.093 108.487C227.214 108.782 227.335 109.077 227.46 109.381C231.342 120.078 231.342 120.078 239.706 127.231C242.896 128.223 245.878 127.349 248.76 125.941C251.288 124.398 252.556 121.354 253.244 118.611C253.594 117.047 253.868 115.471 254.143 113.893C254.25 113.306 254.359 112.718 254.467 112.131C254.688 110.935 254.906 109.738 255.119 108.541C255.518 106.312 255.937 104.087 256.357 101.862C256.49 101.156 256.622 100.449 256.754 99.7428C257.767 94.3356 258.843 88.9402 259.919 83.5447C260.731 79.4611 261.514 75.3743 262.243 71.2756C262.687 68.7959 263.203 66.3329 263.753 63.8756Z" fill="#00C2CB"/>
<path d="M26.4975 308.089C24.8568 308.089 23.6925 307.642 23.0045 306.749C22.3694 305.857 22.1577 304.623 22.3694 303.047L29.9111 255.86C30.1757 254.39 30.7049 253.313 31.4988 252.63C32.3456 251.895 33.4834 251.527 34.9124 251.527C36.1826 251.527 37.1617 251.816 37.8497 252.394C38.5906 252.919 39.2257 253.864 39.7549 255.23L53.2505 290.837H50.9483L76.5106 254.442C77.2515 253.392 78.0454 252.656 78.8922 252.236C79.7389 251.764 80.7974 251.527 82.0676 251.527C83.6024 251.527 84.7138 251.974 85.4018 252.867C86.1427 253.759 86.3809 254.993 86.1163 256.569L78.5746 303.756C78.3629 305.174 77.8337 306.251 76.9869 306.986C76.193 307.721 75.0552 308.089 73.5733 308.089C72.0914 308.089 70.98 307.642 70.2391 306.749C69.4982 305.857 69.2335 304.623 69.4452 303.047L75.2404 266.81H77.0663L55.3939 297.611C54.8118 298.452 54.2031 299.056 53.5681 299.423C52.9859 299.738 52.245 299.896 51.3453 299.896C50.3397 299.896 49.5194 299.66 48.8843 299.187C48.3021 298.714 47.7994 297.979 47.376 296.981L35.5475 267.125H37.294L31.4194 303.756C31.2077 305.174 30.6785 306.251 29.8317 306.986C29.0378 307.721 27.9264 308.089 26.4975 308.089Z" fill="#5FD9F4"/>
<path d="M109.626 308.483C105.709 308.483 102.296 307.774 99.3849 306.356C96.527 304.885 94.3042 302.837 92.7164 300.211C91.1287 297.585 90.3349 294.513 90.3349 290.994C90.3349 286.688 91.2346 282.854 93.034 279.493C94.8863 276.079 97.4267 273.375 100.655 271.379C103.883 269.383 107.588 268.385 111.769 268.385C114.997 268.385 117.697 268.937 119.866 270.04C122.036 271.143 123.756 272.639 125.026 274.53C126.297 276.368 127.143 278.469 127.567 280.832C127.99 283.195 128.07 285.611 127.805 288.08C127.699 289.182 127.408 289.891 126.932 290.206C126.455 290.522 125.794 290.679 124.947 290.679H98.2735L99.0673 285.007H121.295L119.946 286.189C120.263 284.088 120.184 282.224 119.708 280.596C119.231 278.915 118.332 277.576 117.009 276.578C115.738 275.58 113.965 275.081 111.69 275.081C109.361 275.081 107.403 275.607 105.815 276.657C104.227 277.707 102.984 279.073 102.084 280.753C101.184 282.381 100.576 284.141 100.258 286.031L99.8612 288.473C99.2261 292.307 99.8612 295.353 101.766 297.611C103.672 299.87 106.583 300.999 110.499 300.999C112.087 300.999 113.727 300.841 115.421 300.526C117.114 300.159 118.649 299.581 120.025 298.793C121.031 298.215 121.904 297.979 122.645 298.084C123.439 298.137 124.047 298.425 124.471 298.951C124.947 299.423 125.238 300.027 125.344 300.762C125.45 301.445 125.318 302.18 124.947 302.968C124.63 303.703 124.047 304.36 123.201 304.938C121.348 306.146 119.152 307.038 116.612 307.616C114.071 308.194 111.743 308.483 109.626 308.483Z" fill="#5FD9F4"/>
<path d="M147.889 308.483C144.978 308.483 142.411 307.8 140.189 306.434C138.019 305.069 136.325 303.152 135.108 300.684C133.891 298.163 133.282 295.222 133.282 291.861C133.282 287.449 134.049 283.484 135.584 279.966C137.172 276.394 139.421 273.585 142.332 271.537C145.296 269.436 148.789 268.385 152.811 268.385C155.775 268.385 158.394 269.094 160.67 270.512C162.946 271.93 164.534 274.031 165.433 276.815L164.878 276.736L168.132 256.175C168.397 254.547 169.006 253.365 169.958 252.63C170.911 251.895 172.208 251.527 173.848 251.527C175.383 251.527 176.494 252 177.182 252.945C177.923 253.891 178.161 255.282 177.897 257.12L170.514 303.283C170.249 304.911 169.641 306.172 168.688 307.065C167.735 307.905 166.439 308.325 164.798 308.325C163.263 308.325 162.152 307.8 161.464 306.749C160.829 305.647 160.67 304.202 160.988 302.417L161.702 298.084L161.782 300.447C160.353 302.916 158.447 304.885 156.066 306.356C153.684 307.774 150.959 308.483 147.889 308.483ZM151.779 300.999C154.213 300.999 156.251 300.316 157.892 298.951C159.585 297.533 160.882 295.668 161.782 293.358C162.681 290.994 163.131 288.368 163.131 285.48C163.131 282.381 162.364 280.018 160.829 278.39C159.347 276.709 157.283 275.869 154.637 275.869C152.255 275.869 150.218 276.552 148.524 277.917C146.831 279.283 145.534 281.147 144.634 283.51C143.734 285.821 143.285 288.447 143.285 291.388C143.285 294.487 144.026 296.876 145.507 298.557C147.042 300.185 149.133 300.999 151.779 300.999Z" fill="#5FD9F4"/>
<path d="M200.643 308.325C199.267 308.325 198.182 307.931 197.388 307.143C196.594 306.356 196.039 305.174 195.721 303.598L186.671 257.593C186.301 255.755 186.539 254.285 187.386 253.182C188.285 252.079 189.608 251.527 191.355 251.527C192.678 251.527 193.736 251.921 194.53 252.709C195.377 253.444 195.933 254.6 196.197 256.175L203.739 297.69H200.564L222.315 255.309C223.003 253.996 223.771 253.05 224.618 252.473C225.517 251.842 226.602 251.527 227.872 251.527C229.09 251.527 230.042 251.921 230.73 252.709C231.471 253.444 232 254.652 232.318 256.333L239.939 297.69H237.081L258.595 255.23C259.23 253.969 259.944 253.05 260.738 252.473C261.532 251.842 262.59 251.527 263.914 251.527C265.872 251.527 267.195 252.158 267.883 253.418C268.571 254.678 268.438 256.228 267.486 258.066L243.511 304.544C242.823 305.857 242.003 306.828 241.05 307.458C240.151 308.036 238.986 308.325 237.557 308.325C236.181 308.325 235.096 307.931 234.303 307.143C233.509 306.356 232.953 305.174 232.635 303.598L225.173 265.077H226.999L206.597 304.544C205.909 305.857 205.115 306.828 204.215 307.458C203.316 308.036 202.125 308.325 200.643 308.325Z" fill="#C6FFFF"/>
<path d="M282.711 308.483C278.9 308.483 275.619 307.774 272.867 306.356C270.168 304.938 268.077 302.916 266.595 300.29C265.166 297.664 264.452 294.592 264.452 291.073C264.452 287.607 265.008 284.482 266.119 281.699C267.23 278.915 268.765 276.526 270.723 274.53C272.734 272.534 275.037 271.011 277.63 269.961C280.223 268.911 283.028 268.385 286.045 268.385C289.855 268.385 293.11 269.094 295.809 270.512C298.561 271.93 300.652 273.952 302.081 276.578C303.563 279.152 304.304 282.224 304.304 285.795C304.304 289.261 303.748 292.386 302.636 295.169C301.525 297.953 299.964 300.342 297.953 302.338C295.994 304.334 293.719 305.857 291.125 306.907C288.532 307.957 285.727 308.483 282.711 308.483ZM282.949 300.999C285.383 300.999 287.421 300.316 289.061 298.951C290.755 297.585 292.052 295.721 292.951 293.358C293.851 290.994 294.301 288.368 294.301 285.48C294.301 282.381 293.534 280.018 291.999 278.39C290.517 276.709 288.453 275.869 285.807 275.869C283.425 275.869 281.387 276.552 279.694 277.917C278 279.283 276.704 281.147 275.804 283.51C274.904 285.821 274.454 288.447 274.454 291.388C274.454 294.487 275.195 296.876 276.677 298.557C278.212 300.185 280.303 300.999 282.949 300.999Z" fill="#C6FFFF"/>
<path d="M314.24 308.325C312.653 308.325 311.488 307.852 310.747 306.907C310.059 305.909 309.848 304.517 310.112 302.732L314.796 273.27C315.061 271.694 315.669 270.512 316.622 269.725C317.575 268.937 318.818 268.543 320.353 268.543C321.888 268.543 322.999 269.016 323.687 269.961C324.428 270.906 324.666 272.272 324.402 274.057L323.687 278.469H322.893C323.952 275.37 325.698 272.981 328.133 271.3C330.567 269.567 333.452 268.596 336.786 268.385C338.268 268.28 339.247 268.49 339.723 269.016C340.253 269.541 340.517 270.407 340.517 271.615C340.517 273.348 340.12 274.635 339.326 275.475C338.532 276.263 337.289 276.736 335.595 276.893L333.293 277.13C329.747 277.497 327.207 278.574 325.672 280.359C324.137 282.093 323.105 284.535 322.576 287.686L320.036 303.598C319.824 305.174 319.215 306.356 318.21 307.143C317.257 307.931 315.934 308.325 314.24 308.325Z" fill="#C6FFFF"/>
<path d="M345.328 308.325C343.793 308.325 342.655 307.826 341.914 306.828C341.226 305.83 341.015 304.439 341.279 302.653L348.662 256.254C348.927 254.626 349.535 253.444 350.488 252.709C351.441 251.921 352.737 251.527 354.378 251.527C355.913 251.527 357.024 252.053 357.712 253.103C358.453 254.101 358.691 255.519 358.427 257.357L353.902 285.559H354.06L369.541 271.458C370.599 270.46 371.525 269.725 372.319 269.252C373.166 268.779 374.172 268.543 375.336 268.543C376.659 268.543 377.612 268.911 378.194 269.646C378.829 270.381 379.067 271.3 378.908 272.403C378.802 273.453 378.247 274.451 377.241 275.397L361.681 289.891V285.637L374.304 301.393C375.151 302.443 375.521 303.52 375.415 304.623C375.362 305.673 374.965 306.566 374.224 307.301C373.484 307.984 372.478 308.325 371.208 308.325C369.832 308.325 368.747 308.036 367.953 307.458C367.212 306.828 366.312 305.883 365.254 304.623L353.346 290.128H353.187L351.044 303.598C350.568 306.749 348.662 308.325 345.328 308.325Z" fill="#C6FFFF"/>
<path d="M390.509 308.325C388.974 308.325 387.836 307.826 387.096 306.828C386.408 305.778 386.196 304.36 386.46 302.574L390.668 276.578H387.334C386.063 276.578 385.084 276.316 384.396 275.79C383.761 275.265 383.444 274.53 383.444 273.585C383.444 272.219 383.841 271.143 384.635 270.355C385.481 269.567 386.593 269.173 387.969 269.173H392.891L391.621 270.197L392.097 267.283C392.838 262.766 394.637 259.195 397.495 256.569C400.353 253.943 404.534 252.446 410.038 252.079L412.578 251.921C413.637 251.869 414.457 252.079 415.039 252.551C415.621 252.972 415.992 253.549 416.151 254.285C416.362 254.967 416.362 255.676 416.151 256.411C415.992 257.147 415.648 257.777 415.119 258.302C414.642 258.827 414.007 259.116 413.213 259.169L411.07 259.326C408.318 259.536 406.228 260.272 404.799 261.532C403.37 262.792 402.443 264.657 402.02 267.125L401.544 269.961L400.829 269.173H407.974C409.244 269.173 410.197 269.436 410.832 269.961C411.52 270.434 411.864 271.143 411.864 272.088C411.864 273.506 411.441 274.609 410.594 275.397C409.8 276.184 408.715 276.578 407.339 276.578H400.591L396.304 303.441C395.722 306.697 393.79 308.325 390.509 308.325ZM425.439 308.483C421.046 308.483 417.871 307.248 415.913 304.78C413.954 302.259 413.346 298.609 414.087 293.83L420.12 256.411C420.385 254.783 420.993 253.576 421.946 252.788C422.899 251.947 424.195 251.527 425.836 251.527C427.371 251.527 428.482 252.026 429.17 253.024C429.911 254.022 430.149 255.44 429.884 257.278L424.01 293.751C423.639 296.062 423.825 297.769 424.566 298.872C425.359 299.922 426.63 300.447 428.376 300.447C428.958 300.447 429.435 300.421 429.805 300.369C430.176 300.264 430.52 300.211 430.837 300.211C431.366 300.211 431.79 300.395 432.107 300.762C432.425 301.13 432.584 301.839 432.584 302.889C432.584 304.412 432.266 305.594 431.631 306.434C430.996 307.222 430.228 307.747 429.329 308.01C428.852 308.167 428.244 308.272 427.503 308.325C426.762 308.43 426.074 308.483 425.439 308.483Z" fill="#C6FFFF"/>
<path d="M455.902 308.483C452.091 308.483 448.81 307.774 446.058 306.356C443.359 304.938 441.268 302.916 439.787 300.29C438.358 297.664 437.643 294.592 437.643 291.073C437.643 287.607 438.199 284.482 439.31 281.699C440.422 278.915 441.956 276.526 443.915 274.53C445.926 272.534 448.228 271.011 450.821 269.961C453.415 268.911 456.22 268.385 459.236 268.385C463.047 268.385 466.301 269.094 469.001 270.512C471.753 271.93 473.843 273.952 475.272 276.578C476.754 279.152 477.495 282.224 477.495 285.795C477.495 289.261 476.939 292.386 475.828 295.169C474.716 297.953 473.155 300.342 471.144 302.338C469.186 304.334 466.91 305.857 464.317 306.907C461.724 307.957 458.919 308.483 455.902 308.483ZM456.14 300.999C458.575 300.999 460.612 300.316 462.253 298.951C463.946 297.585 465.243 295.721 466.143 293.358C467.042 290.994 467.492 288.368 467.492 285.48C467.492 282.381 466.725 280.018 465.19 278.39C463.708 276.709 461.644 275.869 458.998 275.869C456.616 275.869 454.579 276.552 452.885 277.917C451.192 279.283 449.895 281.147 448.995 283.51C448.096 285.821 447.646 288.447 447.646 291.388C447.646 294.487 448.387 296.876 449.869 298.557C451.403 300.185 453.494 300.999 456.14 300.999Z" fill="#C6FFFF"/>
<path d="M496.738 308.325C495.415 308.325 494.304 307.957 493.404 307.222C492.505 306.487 491.87 305.332 491.499 303.756L484.751 275.318C484.434 273.952 484.407 272.771 484.672 271.773C484.989 270.775 485.545 269.987 486.339 269.41C487.133 268.832 488.112 268.543 489.276 268.543C490.546 268.543 491.499 268.884 492.134 269.567C492.822 270.197 493.325 271.3 493.642 272.876L498.961 298.714H496.977L511.504 271.458C512.086 270.407 512.722 269.672 513.41 269.252C514.15 268.779 515.077 268.543 516.188 268.543C517.246 268.543 518.12 268.832 518.808 269.41C519.549 269.987 520.051 270.906 520.316 272.167L525.794 298.714H524.206L538.178 272.167C538.919 270.801 539.686 269.856 540.48 269.331C541.274 268.806 542.332 268.543 543.656 268.543C544.926 268.543 545.905 268.832 546.593 269.41C547.281 269.935 547.651 270.644 547.704 271.537C547.757 272.429 547.493 273.427 546.91 274.53L530.239 304.623C529.551 305.883 528.705 306.828 527.699 307.458C526.746 308.036 525.608 308.325 524.285 308.325C522.962 308.325 521.824 307.957 520.872 307.222C519.972 306.434 519.337 305.279 518.967 303.756L513.013 276.893H517.538L502.772 304.465C502.084 305.778 501.237 306.749 500.231 307.38C499.279 308.01 498.115 308.325 496.738 308.325Z" fill="#C6FFFF"/>
<path d="M69.1787 333.71V331.576H87.7754V333.71H79.6479V357.594H77.3061V333.71H69.1787Z" fill="#8FE7F1"/>
<path d="M94.8133 345.398V357.594H92.5842V331.576H94.8133V341.142H95.0137C95.4645 340.134 96.1616 339.33 97.105 338.728C98.0568 338.127 99.259 337.826 100.712 337.826C102.014 337.826 103.158 338.097 104.143 338.639C105.128 339.182 105.896 339.982 106.447 341.041C106.998 342.099 107.274 343.403 107.274 344.953V357.594H105.032V345.093C105.032 343.484 104.59 342.218 103.705 341.295C102.828 340.363 101.643 339.897 100.148 339.897C99.1212 339.897 98.207 340.117 97.4056 340.558C96.6041 340.998 95.9696 341.633 95.5021 342.463C95.0429 343.285 94.8133 344.263 94.8133 345.398Z" fill="#8FE7F1"/>
<path d="M120.921 358C119.126 358 117.573 357.577 116.262 356.73C114.951 355.875 113.937 354.693 113.219 353.186C112.509 351.67 112.155 349.925 112.155 347.952C112.155 345.987 112.509 344.242 113.219 342.717C113.937 341.185 114.926 339.986 116.187 339.122C117.456 338.25 118.921 337.814 120.583 337.814C121.626 337.814 122.632 338.009 123.601 338.398C124.569 338.779 125.437 339.368 126.205 340.164C126.982 340.952 127.595 341.947 128.046 343.149C128.497 344.344 128.722 345.758 128.722 347.393V348.511H113.695V346.516H126.443C126.443 345.263 126.193 344.136 125.692 343.137C125.199 342.129 124.511 341.333 123.626 340.748C122.749 340.164 121.735 339.872 120.583 339.872C119.364 339.872 118.291 340.202 117.364 340.863C116.437 341.523 115.711 342.396 115.185 343.48C114.667 344.564 114.404 345.75 114.396 347.037V348.231C114.396 349.781 114.659 351.136 115.185 352.296C115.719 353.448 116.475 354.342 117.452 354.977C118.429 355.612 119.585 355.93 120.921 355.93C121.831 355.93 122.628 355.786 123.313 355.498C124.005 355.21 124.586 354.824 125.053 354.342C125.529 353.85 125.888 353.313 126.13 352.728L128.247 353.427C127.954 354.249 127.474 355.007 126.806 355.701C126.147 356.395 125.32 356.954 124.327 357.378C123.342 357.793 122.206 358 120.921 358Z" fill="#8FE7F1"/>
<path d="M144.016 357.594V331.576H158.856V333.71H146.358V343.505H157.691V345.639H146.358V357.594H144.016Z" fill="#8FE7F1"/>
<path d="M175.233 350.137V338.08H177.462V357.594H175.233V354.354H175.058C174.607 355.354 173.893 356.188 172.916 356.857C171.939 357.518 170.745 357.848 169.335 357.848C168.107 357.848 167.018 357.577 166.066 357.035C165.114 356.484 164.367 355.68 163.824 354.621C163.282 353.562 163.01 352.262 163.01 350.721V338.08H165.24V350.581C165.24 352.106 165.682 353.334 166.567 354.265C167.452 355.189 168.587 355.65 169.973 355.65C170.841 355.65 171.676 355.438 172.478 355.015C173.279 354.592 173.939 353.973 174.456 353.16C174.974 352.339 175.233 351.331 175.233 350.137Z" fill="#8FE7F1"/>
<path d="M190.94 338.08V340.05H181.76V338.08H190.94ZM184.628 333.405H186.87V352.5C186.87 353.313 187.008 353.952 187.283 354.418C187.559 354.875 187.918 355.201 188.36 355.396C188.803 355.582 189.274 355.676 189.775 355.676C190.067 355.676 190.318 355.659 190.527 355.625C190.735 355.582 190.919 355.54 191.078 355.498L191.553 357.543C191.336 357.628 191.069 357.704 190.752 357.772C190.435 357.848 190.042 357.886 189.575 357.886C188.757 357.886 187.968 357.704 187.208 357.34C186.457 356.976 185.839 356.434 185.355 355.714C184.87 354.994 184.628 354.1 184.628 353.033V333.405Z" fill="#8FE7F1"/>
<path d="M208.225 350.137V338.08H210.454V357.594H208.225V354.354H208.049C207.599 355.354 206.885 356.188 205.908 356.857C204.931 357.518 203.737 357.848 202.326 357.848C201.099 357.848 200.01 357.577 199.058 357.035C198.106 356.484 197.359 355.68 196.816 354.621C196.274 353.562 196.002 352.262 196.002 350.721V338.08H198.231V350.581C198.231 352.106 198.674 353.334 199.559 354.265C200.444 355.189 201.579 355.65 202.965 355.65C203.833 355.65 204.668 355.438 205.47 355.015C206.271 354.592 206.931 353.973 207.448 353.16C207.966 352.339 208.225 351.331 208.225 350.137Z" fill="#8FE7F1"/>
<path d="M216.355 357.594V338.08H218.522V341.079H218.685C219.069 340.096 219.736 339.304 220.688 338.703C221.648 338.093 222.734 337.788 223.944 337.788C224.128 337.788 224.332 337.793 224.558 337.801C224.783 337.809 224.971 337.818 225.121 337.826V340.126C225.021 340.109 224.846 340.084 224.595 340.05C224.345 340.016 224.074 339.999 223.781 339.999C222.78 339.999 221.886 340.215 221.102 340.647C220.325 341.07 219.711 341.659 219.261 342.413C218.81 343.166 218.584 344.026 218.584 344.991V357.594H216.355Z" fill="#8FE7F1"/>
<path d="M236.117 358C234.322 358 232.769 357.577 231.458 356.73C230.147 355.875 229.133 354.693 228.415 353.186C227.705 351.67 227.35 349.925 227.35 347.952C227.35 345.987 227.705 344.242 228.415 342.717C229.133 341.185 230.122 339.986 231.383 339.122C232.652 338.25 234.117 337.814 235.778 337.814C236.822 337.814 237.828 338.009 238.797 338.398C239.765 338.779 240.633 339.368 241.401 340.164C242.178 340.952 242.791 341.947 243.242 343.149C243.693 344.344 243.918 345.758 243.918 347.393V348.511H228.891V346.516H241.639C241.639 345.263 241.389 344.136 240.888 343.137C240.395 342.129 239.707 341.333 238.822 340.748C237.945 340.164 236.931 339.872 235.778 339.872C234.56 339.872 233.487 340.202 232.56 340.863C231.633 341.523 230.907 342.396 230.381 343.48C229.863 344.564 229.6 345.75 229.592 347.037V348.231C229.592 349.781 229.855 351.136 230.381 352.296C230.915 353.448 231.671 354.342 232.648 354.977C233.625 355.612 234.781 355.93 236.117 355.93C237.027 355.93 237.824 355.786 238.508 355.498C239.201 355.21 239.782 354.824 240.249 354.342C240.725 353.85 241.084 353.313 241.326 352.728L243.443 353.427C243.15 354.249 242.67 355.007 242.002 355.701C241.343 356.395 240.516 356.954 239.523 357.378C238.538 357.793 237.402 358 236.117 358Z" fill="#8FE7F1"/>
<path d="M266.225 358C264.564 358 263.094 357.573 261.817 356.717C260.548 355.862 259.554 354.68 258.836 353.173C258.118 351.657 257.759 349.908 257.759 347.926C257.759 345.927 258.118 344.17 258.836 342.654C259.554 341.129 260.548 339.944 261.817 339.097C263.094 338.241 264.564 337.814 266.225 337.814C267.886 337.814 269.352 338.241 270.621 339.097C271.89 339.952 272.883 341.138 273.601 342.654C274.327 344.17 274.691 345.927 274.691 347.926C274.691 349.908 274.332 351.657 273.614 353.173C272.896 354.68 271.898 355.862 270.621 356.717C269.352 357.573 267.886 358 266.225 358ZM266.225 355.93C267.561 355.93 268.692 355.565 269.619 354.837C270.545 354.109 271.247 353.139 271.723 351.928C272.207 350.717 272.449 349.383 272.449 347.926C272.449 346.469 272.207 345.131 271.723 343.912C271.247 342.692 270.545 341.714 269.619 340.977C268.692 340.24 267.561 339.872 266.225 339.872C264.898 339.872 263.766 340.24 262.831 340.977C261.905 341.714 261.199 342.692 260.715 343.912C260.239 345.131 260.001 346.469 260.001 347.926C260.001 349.383 260.239 350.717 260.715 351.928C261.199 353.139 261.905 354.109 262.831 354.837C263.758 355.565 264.889 355.93 266.225 355.93Z" fill="#8FE7F1"/>
<path d="M287.498 338.08V340.05H278.044V338.08H287.498ZM280.999 357.594V335.222C280.999 334.172 281.237 333.287 281.713 332.567C282.197 331.847 282.827 331.301 283.604 330.928C284.38 330.555 285.203 330.369 286.071 330.369C286.655 330.369 287.139 330.42 287.524 330.522C287.916 330.615 288.225 330.708 288.45 330.801L287.799 332.783C287.632 332.732 287.428 332.673 287.185 332.605C286.943 332.537 286.639 332.503 286.271 332.503C285.303 332.503 284.556 332.779 284.03 333.329C283.504 333.88 283.241 334.667 283.241 335.692L283.228 357.594H280.999Z" fill="#8FE7F1"/>
<path d="M302.329 357.594V331.576H310.607C312.427 331.576 313.946 331.932 315.165 332.643C316.392 333.346 317.315 334.303 317.932 335.514C318.559 336.725 318.872 338.089 318.872 339.605C318.872 341.121 318.563 342.489 317.945 343.708C317.327 344.92 316.409 345.881 315.19 346.592C313.971 347.295 312.456 347.647 310.644 347.647H304.132V345.512H310.581C311.926 345.512 313.04 345.258 313.925 344.75C314.81 344.233 315.47 343.531 315.904 342.641C316.346 341.752 316.567 340.74 316.567 339.605C316.567 338.47 316.346 337.458 315.904 336.569C315.47 335.679 314.806 334.981 313.913 334.473C313.028 333.964 311.905 333.71 310.544 333.71H304.671V357.594H302.329Z" fill="#8FE7F1"/>
<path d="M329.278 358.039C328.118 358.039 327.058 357.81 326.098 357.353C325.137 356.887 324.373 356.218 323.806 355.345C323.238 354.464 322.954 353.397 322.954 352.144C322.954 351.178 323.134 350.365 323.493 349.705C323.852 349.044 324.361 348.502 325.021 348.079C325.68 347.655 326.461 347.321 327.362 347.075C328.264 346.829 329.257 346.639 330.343 346.503C331.42 346.368 332.33 346.249 333.073 346.148C333.824 346.046 334.396 345.885 334.788 345.665C335.181 345.445 335.377 345.089 335.377 344.598V344.14C335.377 342.811 334.985 341.765 334.2 341.002C333.423 340.232 332.305 339.846 330.844 339.846C329.458 339.846 328.327 340.155 327.45 340.774C326.582 341.392 325.972 342.12 325.622 342.959L323.505 342.184C323.939 341.117 324.54 340.266 325.309 339.63C326.077 338.987 326.937 338.525 327.888 338.246C328.84 337.958 329.804 337.814 330.781 337.814C331.516 337.814 332.28 337.911 333.073 338.106C333.874 338.301 334.617 338.639 335.302 339.122C335.986 339.597 336.542 340.261 336.967 341.117C337.393 341.964 337.606 343.039 337.606 344.344V357.594H335.377V354.507H335.239C334.972 355.083 334.576 355.642 334.05 356.184C333.524 356.726 332.864 357.17 332.071 357.518C331.278 357.865 330.347 358.039 329.278 358.039ZM329.579 355.968C330.764 355.968 331.791 355.701 332.66 355.167C333.528 354.634 334.196 353.927 334.663 353.046C335.139 352.157 335.377 351.178 335.377 350.111V347.291C335.21 347.452 334.93 347.596 334.538 347.723C334.154 347.85 333.707 347.964 333.198 348.066C332.697 348.159 332.196 348.239 331.695 348.307C331.194 348.375 330.744 348.434 330.343 348.485C329.257 348.621 328.331 348.832 327.563 349.12C326.795 349.408 326.206 349.806 325.797 350.314C325.388 350.814 325.183 351.458 325.183 352.246C325.183 353.431 325.601 354.35 326.436 355.002C327.27 355.646 328.318 355.968 329.579 355.968Z" fill="#8FE7F1"/>
<path d="M351.112 338.08V340.05H341.933V338.08H351.112ZM344.801 333.405H347.042V352.5C347.042 353.313 347.18 353.952 347.455 354.418C347.731 354.875 348.09 355.201 348.532 355.396C348.975 355.582 349.447 355.676 349.948 355.676C350.24 355.676 350.49 355.659 350.699 355.625C350.908 355.582 351.091 355.54 351.25 355.498L351.726 357.543C351.509 357.628 351.242 357.704 350.924 357.772C350.607 357.848 350.215 357.886 349.747 357.886C348.929 357.886 348.14 357.704 347.38 357.34C346.629 356.976 346.011 356.434 345.527 355.714C345.043 354.994 344.801 354.1 344.801 353.033V333.405Z" fill="#8FE7F1"/>
<path d="M356.2 357.594V338.08H358.441V357.594H356.2ZM357.339 334.727C356.88 334.727 356.488 334.57 356.162 334.257C355.836 333.935 355.674 333.549 355.674 333.101C355.674 332.652 355.836 332.271 356.162 331.957C356.488 331.635 356.88 331.474 357.339 331.474C357.798 331.474 358.191 331.635 358.516 331.957C358.842 332.271 359.005 332.652 359.005 333.101C359.005 333.549 358.842 333.935 358.516 334.257C358.191 334.57 357.798 334.727 357.339 334.727Z" fill="#8FE7F1"/>
<path d="M372.113 358C370.318 358 368.765 357.577 367.455 356.73C366.144 355.875 365.13 354.693 364.412 353.186C363.702 351.67 363.347 349.925 363.347 347.952C363.347 345.987 363.702 344.242 364.412 342.717C365.13 341.185 366.119 339.986 367.38 339.122C368.649 338.25 370.114 337.814 371.775 337.814C372.819 337.814 373.825 338.009 374.793 338.398C375.762 338.779 376.63 339.368 377.398 340.164C378.174 340.952 378.788 341.947 379.239 343.149C379.69 344.344 379.915 345.758 379.915 347.393V348.511H364.887V346.516H377.636C377.636 345.263 377.385 344.136 376.885 343.137C376.392 342.129 375.703 341.333 374.818 340.748C373.942 340.164 372.927 339.872 371.775 339.872C370.556 339.872 369.483 340.202 368.557 340.863C367.63 341.523 366.904 342.396 366.378 343.48C365.86 344.564 365.597 345.75 365.589 347.037V348.231C365.589 349.781 365.852 351.136 366.378 352.296C366.912 353.448 367.668 354.342 368.644 354.977C369.621 355.612 370.777 355.93 372.113 355.93C373.023 355.93 373.821 355.786 374.505 355.498C375.198 355.21 375.778 354.824 376.246 354.342C376.722 353.85 377.081 353.313 377.323 352.728L379.439 353.427C379.147 354.249 378.667 355.007 377.999 355.701C377.34 356.395 376.513 356.954 375.52 357.378C374.534 357.793 373.399 358 372.113 358Z" fill="#8FE7F1"/>
<path d="M387.056 345.398V357.594H384.827V338.08H386.994V341.142H387.194C387.645 340.143 388.346 339.342 389.298 338.741C390.258 338.131 391.444 337.826 392.854 337.826C394.149 337.826 395.284 338.102 396.261 338.652C397.246 339.194 398.01 339.995 398.552 341.053C399.103 342.112 399.379 343.412 399.379 344.953V357.594H397.15V345.093C397.15 343.492 396.707 342.226 395.822 341.295C394.946 340.363 393.769 339.897 392.291 339.897C391.281 339.897 390.383 340.117 389.599 340.558C388.814 340.998 388.192 341.633 387.733 342.463C387.282 343.285 387.056 344.263 387.056 345.398Z" fill="#8FE7F1"/>
<path d="M412.826 338.08V340.05H403.646V338.08H412.826ZM406.514 333.405H408.756V352.5C408.756 353.313 408.893 353.952 409.169 354.418C409.444 354.875 409.803 355.201 410.246 355.396C410.688 355.582 411.16 355.676 411.661 355.676C411.953 355.676 412.204 355.659 412.412 355.625C412.621 355.582 412.805 355.54 412.963 355.498L413.439 357.543C413.222 357.628 412.955 357.704 412.638 357.772C412.32 357.848 411.928 357.886 411.461 357.886C410.642 357.886 409.853 357.704 409.094 357.34C408.342 356.976 407.725 356.434 407.24 355.714C406.756 354.994 406.514 354.1 406.514 353.033V333.405Z" fill="#8FE7F1"/>
<path d="M428.27 357.594V331.576H443.109V333.71H430.611V343.505H441.945V345.639H430.611V357.594H428.27Z" fill="#8FE7F1"/>
<path d="M450.698 331.576V357.594H448.469V331.576H450.698Z" fill="#8FE7F1"/>
<path d="M464.073 358C462.411 358 460.942 357.573 459.665 356.717C458.396 355.862 457.402 354.68 456.684 353.173C455.966 351.657 455.607 349.908 455.607 347.926C455.607 345.927 455.966 344.17 456.684 342.654C457.402 341.129 458.396 339.944 459.665 339.097C460.942 338.241 462.411 337.814 464.073 337.814C465.734 337.814 467.199 338.241 468.468 339.097C469.737 339.952 470.731 341.138 471.449 342.654C472.175 344.17 472.538 345.927 472.538 347.926C472.538 349.908 472.179 351.657 471.461 353.173C470.743 354.68 469.746 355.862 468.468 356.717C467.199 357.573 465.734 358 464.073 358ZM464.073 355.93C465.409 355.93 466.54 355.565 467.467 354.837C468.393 354.109 469.095 353.139 469.57 351.928C470.055 350.717 470.297 349.383 470.297 347.926C470.297 346.469 470.055 345.131 469.57 343.912C469.095 342.692 468.393 341.714 467.467 340.977C466.54 340.24 465.409 339.872 464.073 339.872C462.745 339.872 461.614 340.24 460.679 340.977C459.752 341.714 459.047 342.692 458.563 343.912C458.087 345.131 457.849 346.469 457.849 347.926C457.849 349.383 458.087 350.717 458.563 351.928C459.047 353.139 459.752 354.109 460.679 354.837C461.606 355.565 462.737 355.93 464.073 355.93Z" fill="#8FE7F1"/>
<path d="M481.048 357.594L475.237 338.08H477.591L482.15 354.177H482.313L486.858 338.08H489.225L493.734 354.138H493.909L498.467 338.08H500.822L495.011 357.594H492.707L488.148 341.6H487.91L483.352 357.594H481.048Z" fill="#8FE7F1"/>
</svg>
