<svg width="363" height="59" viewBox="0 0 363 59" fill="none" xmlns="http://www.w3.org/2000/svg">
<g filter="url(#filter0_d_9_14)">
<path d="M78.6402 11.8644C79.4753 11.8644 80.3543 12.3043 80.8818 13.0641L90.0676 26.1405L99.2094 13.0241C99.7808 12.2243 100.704 11.8644 101.539 11.8644C102.813 11.8644 104 12.6642 104 14.1038V35.2581C104 36.6577 102.638 37.3375 101.407 37.3375C100.132 37.3375 98.9018 36.6577 98.9018 35.2581V21.7817L92.353 31.0992C91.8696 31.899 90.9466 32.2589 90.0676 32.2589C89.1886 32.2589 88.1777 31.779 87.6942 30.9792L81.2334 21.8217V35.2581C81.2334 36.6577 79.9148 37.3375 78.6842 37.3375C77.4096 37.3375 76.135 36.6577 76.135 35.2581V14.1438C76.135 12.7442 77.3657 11.8644 78.6402 11.8644Z" fill="white"/>
<path d="M120.823 33.7785C122.493 33.7785 124.207 33.3786 125.614 32.3789C128.295 30.1794 131.371 33.2186 128.91 35.3381C126.844 37.1376 123.855 37.7774 120.955 37.7374C114.054 37.7374 109.352 33.6185 109.352 27.6201C109.352 21.0619 113.791 16.5831 120.823 16.5831C127.855 16.5831 131.811 20.782 131.855 26.9803C131.855 28.3 131.591 29.3797 129.086 29.3797H114.45C115.241 31.979 117.702 33.7785 120.823 33.7785ZM120.867 20.5421C117.439 20.5421 115.021 22.6615 114.406 25.8206H127.196C126.888 22.6615 124.998 20.5421 120.867 20.5421Z" fill="white"/>
<path d="M155.507 11.4645C156.737 11.4645 158.056 12.0643 158.056 13.464V35.2981C158.056 36.5777 157.133 37.3375 155.507 37.3375C153.924 37.3375 153.177 36.6177 153.133 35.418C151.243 36.9376 148.738 37.6974 146.628 37.6974C140.036 37.6974 135.992 33.2986 135.992 26.9403C135.992 20.902 140.343 16.5831 146.804 16.5831C148.738 16.5831 151.111 17.2629 153.045 18.6626V13.464C153.045 12.0643 154.276 11.4645 155.507 11.4645ZM146.76 33.6585C149.661 33.6585 152.298 32.4188 153.133 30.1395L153.089 23.9811C152.078 21.8217 149.573 20.622 147.156 20.622C143.464 20.622 141.003 23.3413 141.003 26.9803C141.003 30.8993 143.288 33.6585 146.76 33.6585Z" fill="white"/>
<path d="M175.557 29.8595L183.556 15.4234C183.951 14.5437 184.83 14.1038 185.841 14.1038C186.808 14.1038 187.819 14.5437 188.302 15.3435L196.302 29.8595L204.52 13.464C205.004 12.5042 205.927 11.8644 207.07 11.8644C208.608 11.8644 210.41 13.1441 209.443 15.0635L198.763 36.0179C198.323 36.8976 197.356 37.3375 196.346 37.3375C195.335 37.3375 194.544 37.0176 194.06 36.0978L185.885 21.4218L177.798 36.0978C177.403 36.8576 176.348 37.3375 175.293 37.3375C174.282 37.3375 173.403 36.9376 173.007 36.0179L162.503 15.2235C161.58 13.384 163.118 11.8644 164.745 11.8644C165.887 11.8644 166.81 12.4243 167.426 13.6639L175.557 29.8595Z" fill="white"/>
<path d="M222.472 16.5831C229.504 16.5831 234.163 20.902 234.163 27.2602C234.075 33.5385 229.373 37.7374 222.472 37.7374C215.572 37.7374 210.869 33.5385 210.781 27.2602C210.781 20.902 215.484 16.5831 222.472 16.5831ZM222.472 33.7385C226.428 33.7385 229.021 31.0992 229.021 27.2602C229.021 23.3413 226.428 20.582 222.472 20.582C218.517 20.582 215.923 23.3413 215.923 27.2602C215.923 31.0992 218.517 33.7385 222.472 33.7385Z" fill="white"/>
<path d="M247.383 16.983C248.965 16.983 249.976 17.5829 249.976 18.9425C249.976 20.2221 248.965 21.0219 247.383 21.0219C243.691 21.0219 242.372 23.5812 242.372 27.7001V35.2981C242.372 36.4977 241.273 37.3375 239.955 37.3375C238.416 37.3375 237.406 36.4977 237.406 35.2981V19.0225C237.406 17.7428 238.724 16.983 239.955 16.983C241.185 16.983 242.372 17.7028 242.372 19.0225V19.2624C243.647 17.7028 245.361 16.983 247.383 16.983Z" fill="white"/>
<path d="M269.574 33.8984C271.069 35.578 269.53 37.3375 267.772 37.3375C267.025 37.3375 266.278 37.0176 265.75 36.4578L258.323 28.9398L257.048 29.9795V35.2981C257.048 36.6177 255.73 37.3375 254.499 37.3375C253.224 37.3375 252.038 36.6177 252.038 35.2981V13.504C252.038 10.7847 257.048 10.7847 257.048 13.504V24.541L265.179 17.6228C265.706 17.223 266.454 16.983 267.025 16.983C268.431 16.983 269.574 17.9428 269.574 19.0225C269.574 19.5423 269.267 20.0622 268.651 20.582L261.751 26.1405L269.574 33.8984Z" fill="white"/>
<path d="M281.228 14.7836C280.174 14.7836 279.119 15.4234 279.119 16.7431V17.4229H282.02C283.47 17.4229 284.129 18.3826 284.129 19.3024C284.129 20.2621 283.47 21.1819 282.02 21.1819H279.119V35.3381C279.119 36.6577 277.844 37.3375 276.614 37.3375C275.339 37.3375 274.108 36.6577 274.108 35.3381V21.1819H272.966C271.515 21.1819 270.724 20.2621 270.724 19.3024C270.724 18.3826 271.471 17.4229 272.966 17.4229H274.108V16.7431C274.108 13.0241 277.493 10.9047 281.053 10.9047C282.723 10.9047 284.437 11.2646 285.799 12.3443C288.041 14.1438 285.052 17.223 282.767 15.3435C282.371 14.9836 281.8 14.7836 281.228 14.7836Z" fill="white"/>
<path d="M292.595 35.3381C292.595 36.4178 291.496 37.3375 290.089 37.3375C288.595 37.3375 287.584 36.4178 287.584 35.3381V13.464C287.584 12.3843 288.595 11.4645 290.089 11.4645C291.496 11.4645 292.595 12.3843 292.595 13.464V35.3381Z" fill="white"/>
<path d="M307.061 16.5831C314.093 16.5831 318.752 20.902 318.752 27.2602C318.664 33.5385 313.962 37.7374 307.061 37.7374C300.161 37.7374 295.458 33.5385 295.37 27.2602C295.37 20.902 300.073 16.5831 307.061 16.5831ZM307.061 33.7385C311.017 33.7385 313.61 31.0992 313.61 27.2602C313.61 23.3413 311.017 20.582 307.061 20.582C303.106 20.582 300.512 23.3413 300.512 27.2602C300.512 31.0992 303.106 33.7385 307.061 33.7385Z" fill="white"/>
<path d="M320.171 19.9822C319.38 18.3027 321.094 16.983 322.589 16.983C323.556 16.983 324.566 17.6628 324.874 18.3427L330.588 30.2194L336.082 19.9422C336.477 19.0625 337.356 18.5826 338.367 18.5826C339.422 18.5826 340.257 19.0625 340.697 19.9022L346.234 30.2994L351.904 18.4226C352.344 17.5029 353.091 16.983 354.278 16.983C355.816 16.983 357.222 18.3027 356.475 19.9422L348.696 36.5777C348.344 37.4175 347.597 37.7374 346.454 37.7374C345.443 37.7374 344.52 37.4175 344.081 36.6177L338.455 25.7806L332.697 36.5777C332.302 37.3375 331.423 37.7374 330.324 37.7374C329.313 37.7374 328.522 37.4575 328.083 36.5377L320.171 19.9822Z" fill="white"/>
</g>
<g filter="url(#filter1_d_9_14)">
<path d="M25.6826 0C28.5307 0 32.3793 2.08011 32.835 5.89648H53.7207C56.8852 5.89675 61.6318 8.68402 61.6318 13.5078V15.7432H55.7178C54.1371 15.7432 52.8557 17.0248 52.8555 18.6055C52.8555 20.1863 54.1369 21.4678 55.7178 21.4678H61.6318V35.7803H52.5938C51.0129 35.7803 49.7314 37.0617 49.7314 38.6426C49.7316 40.2233 51.013 41.5049 52.5938 41.5049H61.4951C61.0665 44.3599 59.418 46.962 53.8467 47.2217H13.6006C13.3751 47.2308 13.1485 47.2308 12.9229 47.2217C9.41532 47.08 6.00002 44.739 6 40.2539V38.6426H21.0986C22.6794 38.6426 23.9608 37.361 23.9609 35.7803C23.9609 34.1994 22.6795 32.918 21.0986 32.918H6V27.1934H31.251C32.8317 27.1932 34.1132 25.9118 34.1133 24.3311C34.1133 22.7503 32.8317 21.4689 31.251 21.4688H6V15.6934C6.16913 15.7245 6.34335 15.7432 6.52148 15.7432H19.5381C21.1189 15.7432 22.4004 14.4617 22.4004 12.8809C22.4002 11.3002 21.1188 10.0186 19.5381 10.0186H6.52148C6.3434 10.0186 6.16908 10.0372 6 10.0684V5.89648C6 3.53821 8.21474 0.000242499 12.708 0H25.6826Z" fill="url(#paint0_linear_9_14)"/>
</g>
<defs>
<filter id="filter0_d_9_14" x="70.5914" y="10.9047" width="291.634" height="37.9217" filterUnits="userSpaceOnUse" color-interpolation-filters="sRGB">
<feFlood flood-opacity="0" result="BackgroundImageFix"/>
<feColorMatrix in="SourceAlpha" type="matrix" values="0 0 0 0 0 0 0 0 0 0 0 0 0 0 0 0 0 0 127 0" result="hardAlpha"/>
<feOffset dy="5.54364"/>
<feGaussianBlur stdDeviation="2.77182"/>
<feComposite in2="hardAlpha" operator="out"/>
<feColorMatrix type="matrix" values="0 0 0 0 0 0 0 0 0 0 0 0 0 0 0 0 0 0 0.25 0"/>
<feBlend mode="normal" in2="BackgroundImageFix" result="effect1_dropShadow_9_14"/>
<feBlend mode="normal" in="SourceGraphic" in2="effect1_dropShadow_9_14" result="shape"/>
</filter>
<filter id="filter1_d_9_14" x="0.456363" y="0" width="66.7191" height="58.3158" filterUnits="userSpaceOnUse" color-interpolation-filters="sRGB">
<feFlood flood-opacity="0" result="BackgroundImageFix"/>
<feColorMatrix in="SourceAlpha" type="matrix" values="0 0 0 0 0 0 0 0 0 0 0 0 0 0 0 0 0 0 127 0" result="hardAlpha"/>
<feOffset dy="5.54364"/>
<feGaussianBlur stdDeviation="2.77182"/>
<feComposite in2="hardAlpha" operator="out"/>
<feColorMatrix type="matrix" values="0 0 0 0 0 0 0 0 0 0 0 0 0 0 0 0 0 0 0.25 0"/>
<feBlend mode="normal" in2="BackgroundImageFix" result="effect1_dropShadow_9_14"/>
<feBlend mode="normal" in="SourceGraphic" in2="effect1_dropShadow_9_14" result="shape"/>
</filter>
<linearGradient id="paint0_linear_9_14" x1="33.8159" y1="0" x2="33.8159" y2="47.2285" gradientUnits="userSpaceOnUse">
<stop stop-color="#328CBE"/>
<stop offset="1" stop-color="#67DB6B"/>
</linearGradient>
</defs>
</svg>
