<svg width="393" height="393" viewBox="0 0 393 393" fill="none" xmlns="http://www.w3.org/2000/svg">
<g filter="url(#filter0_f_177_3620)">
<circle cx="196.5" cy="196.5" r="172.5" fill="#030326" fill-opacity="0.5"/>
</g>
<circle cx="197.093" cy="197.095" r="168.336" fill="url(#paint0_linear_177_3620)"/>
<g filter="url(#filter1_f_177_3620)">
<circle cx="196.762" cy="196.763" r="122.797" fill="url(#paint1_linear_177_3620)"/>
</g>
<path d="M250.098 124.419C253.735 124.42 256.684 127.368 256.684 131.005C256.684 132.859 255.916 134.533 254.683 135.73L272.847 255.396C274.979 256.486 276.439 258.703 276.439 261.262C276.439 264.9 273.491 267.848 269.854 267.848C267.268 267.848 265.031 266.357 263.953 264.189H261.116C260.038 266.357 257.801 267.848 255.215 267.848C251.578 267.848 248.629 264.899 248.629 261.262C248.629 259.059 249.712 257.109 251.374 255.914L237.974 163.399C235.633 162.389 233.994 160.061 233.994 157.35C233.994 153.713 236.943 150.764 240.58 150.764C244.217 150.764 247.166 153.713 247.166 157.35C247.166 159.511 246.125 161.428 244.518 162.628L257.934 255.263C259.057 255.773 260.011 256.588 260.691 257.603H264.378C264.869 256.87 265.503 256.241 266.24 255.756L248.265 137.331C246.75 136.892 245.46 135.927 244.607 134.643C243.579 136.192 241.913 137.278 239.984 137.532L210.791 194.294C211.126 195.084 211.311 195.953 211.312 196.865C211.312 200.502 208.363 203.45 204.726 203.451C201.088 203.45 198.139 200.502 198.139 196.865C198.139 193.228 201.089 190.279 204.726 190.279C204.964 190.279 205.199 190.292 205.431 190.317L233.881 134.999C233.035 133.891 232.531 132.507 232.531 131.005C232.531 127.368 235.48 124.42 239.117 124.419C241.409 124.419 243.428 125.591 244.607 127.367C245.787 125.59 247.806 124.419 250.098 124.419ZM255.582 258.335C254.168 258.336 253.022 259.482 253.021 260.896C253.021 262.31 254.168 263.457 255.582 263.458C256.997 263.458 258.144 262.311 258.144 260.896C258.143 259.482 256.996 258.335 255.582 258.335ZM270.221 258.335C268.806 258.335 267.659 259.482 267.659 260.896C267.659 262.311 268.806 263.458 270.221 263.458C271.635 263.457 272.782 262.31 272.782 260.896C272.782 259.482 271.635 258.336 270.221 258.335ZM205.089 193.937C203.675 193.937 202.528 195.084 202.528 196.499C202.528 197.913 203.675 199.06 205.089 199.06C206.503 199.06 207.65 197.913 207.65 196.499C207.65 195.084 206.503 193.937 205.089 193.937ZM240.944 154.423C239.53 154.423 238.383 155.57 238.383 156.985C238.383 158.399 239.53 159.546 240.944 159.546C242.359 159.546 243.505 158.399 243.505 156.985C243.505 155.57 242.359 154.423 240.944 154.423ZM239.483 128.078C238.069 128.078 236.923 129.225 236.923 130.639C236.923 132.053 238.069 133.2 239.483 133.201C240.898 133.201 242.045 132.054 242.045 130.639C242.045 129.225 240.898 128.078 239.483 128.078ZM250.463 128.078C249.049 128.078 247.902 129.225 247.902 130.639C247.902 132.053 249.049 133.2 250.463 133.201C251.877 133.2 253.024 132.053 253.024 130.639C253.024 129.225 251.877 128.078 250.463 128.078Z" fill="url(#paint2_linear_177_3620)"/>
<path d="M149.11 177.107C152.748 177.107 155.697 180.056 155.697 183.693C155.697 184.296 155.614 184.879 155.463 185.434L192.312 254.72C195.593 255.095 198.142 257.88 198.142 261.262C198.142 264.899 195.193 267.848 191.556 267.848C187.918 267.848 184.97 264.899 184.97 261.262C184.97 259.799 185.447 258.448 186.254 257.354L150.704 190.513L142.274 243.703C143.764 244.91 144.718 246.754 144.718 248.821C144.718 252.459 141.769 255.407 138.132 255.407C134.495 255.407 131.546 252.458 131.546 248.821C131.546 246.017 133.3 243.624 135.77 242.674L144.389 188.283C143.235 187.097 142.524 185.478 142.524 183.693C142.525 180.056 145.473 177.108 149.11 177.107ZM191.922 258.335C190.507 258.335 189.36 259.482 189.36 260.896C189.36 262.311 190.507 263.458 191.922 263.458C193.336 263.458 194.482 262.311 194.482 260.896C194.482 259.482 193.336 258.335 191.922 258.335ZM138.498 245.894C137.084 245.894 135.937 247.041 135.937 248.455C135.937 249.869 137.084 251.016 138.498 251.017C139.913 251.017 141.06 249.87 141.06 248.455C141.059 247.041 139.912 245.894 138.498 245.894ZM149.477 180.767C148.063 180.767 146.916 181.913 146.916 183.327C146.916 184.741 148.062 185.888 149.477 185.889C150.891 185.889 152.038 184.742 152.038 183.327C152.038 181.913 150.891 180.767 149.477 180.767Z" fill="url(#paint3_linear_177_3620)"/>
<path d="M142.523 133.202C146.16 133.202 149.109 136.15 149.109 139.788C149.109 141.269 148.619 142.636 147.793 143.737L148.34 143.447L204.391 248.834C204.447 248.838 204.503 248.842 204.559 248.847L217.278 224.967C216.743 224.015 216.436 222.916 216.436 221.746C216.436 218.109 219.385 215.16 223.022 215.16C226.659 215.16 229.609 218.108 229.609 221.746C229.609 225.383 226.659 228.332 223.022 228.332C222.998 228.332 222.974 228.33 222.95 228.33L209.985 252.672C210.366 253.506 210.58 254.431 210.581 255.408C210.581 259.045 207.632 261.993 203.995 261.994C200.357 261.994 197.409 259.045 197.409 255.408C197.409 254.067 197.809 252.82 198.498 251.78L143.803 148.944L127.975 255.845C128.657 256.317 129.245 256.914 129.707 257.604H145.099C145.776 256.592 146.726 255.779 147.844 255.269L152.136 229.667C150.732 228.459 149.842 226.67 149.842 224.673C149.842 221.036 152.791 218.088 156.428 218.087C160.066 218.087 163.014 221.036 163.014 224.673C163.014 227.546 161.174 229.987 158.609 230.887L154.414 255.913C156.077 257.108 157.161 259.058 157.161 261.262C157.161 264.9 154.212 267.848 150.575 267.848C147.989 267.848 145.753 266.358 144.675 264.19H130.13C129.053 266.358 126.816 267.848 124.231 267.848C120.594 267.848 117.645 264.9 117.645 261.262C117.645 258.64 119.177 256.376 121.395 255.316L137.819 144.396C136.655 143.208 135.936 141.582 135.936 139.788C135.936 136.15 138.886 133.202 142.523 133.202ZM124.597 258.335C123.183 258.335 122.036 259.482 122.036 260.896C122.036 262.311 123.183 263.458 124.597 263.458C126.011 263.457 127.158 262.31 127.158 260.896C127.157 259.482 126.011 258.336 124.597 258.335ZM150.942 258.335C149.528 258.336 148.381 259.482 148.38 260.896C148.38 262.31 149.527 263.457 150.942 263.458C152.356 263.458 153.503 262.311 153.503 260.896C153.503 259.482 152.356 258.335 150.942 258.335ZM204.362 252.48C202.947 252.48 201.801 253.627 201.8 255.042C201.8 256.456 202.947 257.603 204.362 257.603C205.776 257.603 206.922 256.456 206.922 255.042C206.922 253.627 205.776 252.48 204.362 252.48ZM156.792 221.748C155.378 221.748 154.231 222.894 154.231 224.308C154.231 225.723 155.378 226.87 156.792 226.87C158.207 226.87 159.354 225.723 159.354 224.308C159.354 222.894 158.207 221.748 156.792 221.748ZM223.388 218.819C221.974 218.819 220.828 219.965 220.828 221.379C220.828 222.794 221.974 223.941 223.388 223.941C224.803 223.941 225.95 222.794 225.95 221.379C225.949 219.965 224.803 218.819 223.388 218.819ZM142.889 136.861C141.475 136.861 140.329 138.008 140.329 139.422C140.329 140.836 141.475 141.982 142.889 141.983C144.303 141.983 145.45 140.837 145.451 139.422C145.451 138.008 144.304 136.861 142.889 136.861Z" fill="url(#paint4_linear_177_3620)"/>
<path d="M152.765 124.419C156.402 124.42 159.351 127.368 159.351 131.005C159.351 132.265 158.997 133.441 158.384 134.441L203.693 219.63C203.998 219.582 204.311 219.557 204.629 219.552L225.637 180.104C224.908 179.044 224.481 177.76 224.481 176.375C224.481 172.738 227.429 169.79 231.067 169.79C234.704 169.79 237.652 172.738 237.653 176.375C237.653 178.32 236.808 180.067 235.467 181.273L245.463 255.982C247.76 257.01 249.361 259.314 249.362 261.994C249.362 265.631 246.413 268.579 242.776 268.58C239.138 268.58 236.19 265.631 236.19 261.994C236.19 259.801 237.261 257.86 238.909 256.663L229.557 186.756L210.38 222.763C210.97 223.75 211.31 224.903 211.31 226.136C211.31 229.773 208.36 232.722 204.723 232.722C201.086 232.722 198.137 229.773 198.137 226.136C198.137 225.361 198.272 224.617 198.518 223.926L152.598 137.586C149.038 137.498 146.178 134.587 146.178 131.005C146.178 127.368 149.128 124.42 152.765 124.419ZM243.141 259.066C241.727 259.066 240.581 260.213 240.58 261.627C240.58 263.042 241.727 264.189 243.141 264.189C244.555 264.189 245.702 263.042 245.702 261.627C245.702 260.213 244.555 259.066 243.141 259.066ZM205.089 223.209C203.675 223.21 202.529 224.356 202.529 225.77C202.529 227.184 203.675 228.331 205.089 228.332C206.504 228.332 207.65 227.184 207.651 225.77C207.65 224.356 206.504 223.209 205.089 223.209ZM231.434 173.448C230.019 173.448 228.873 174.595 228.872 176.009C228.872 177.424 230.019 178.571 231.434 178.571C232.848 178.57 233.994 177.424 233.994 176.009C233.994 174.595 232.848 173.448 231.434 173.448ZM153.131 128.078C151.717 128.078 150.571 129.225 150.571 130.639C150.571 132.053 151.717 133.2 153.131 133.201C154.546 133.201 155.693 132.054 155.693 130.639C155.693 129.225 154.546 128.078 153.131 128.078Z" fill="url(#paint5_linear_177_3620)"/>
<defs>
<filter id="filter0_f_177_3620" x="0.388704" y="0.388704" width="392.223" height="392.223" filterUnits="userSpaceOnUse" color-interpolation-filters="sRGB">
<feFlood flood-opacity="0" result="BackgroundImageFix"/>
<feBlend mode="normal" in="SourceGraphic" in2="BackgroundImageFix" result="shape"/>
<feGaussianBlur stdDeviation="11.8056" result="effect1_foregroundBlur_177_3620"/>
</filter>
<filter id="filter1_f_177_3620" x="73.0128" y="73.0135" width="247.499" height="247.499" filterUnits="userSpaceOnUse" color-interpolation-filters="sRGB">
<feFlood flood-opacity="0" result="BackgroundImageFix"/>
<feBlend mode="normal" in="SourceGraphic" in2="BackgroundImageFix" result="shape"/>
<feGaussianBlur stdDeviation="0.476393" result="effect1_foregroundBlur_177_3620"/>
</filter>
<linearGradient id="paint0_linear_177_3620" x1="76.3428" y1="45.414" x2="365.429" y2="355.914" gradientUnits="userSpaceOnUse">
<stop offset="0.00934902" stop-color="white"/>
<stop offset="0.97127" stop-color="#DADADA"/>
</linearGradient>
<linearGradient id="paint1_linear_177_3620" x1="196.762" y1="73.9663" x2="196.762" y2="319.56" gradientUnits="userSpaceOnUse">
<stop stop-color="#DEDEDE"/>
<stop offset="1" stop-color="white"/>
</linearGradient>
<linearGradient id="paint2_linear_177_3620" x1="174.347" y1="188.751" x2="245.311" y2="182.45" gradientUnits="userSpaceOnUse">
<stop offset="0.229618" stop-color="#2EA0DE"/>
<stop offset="1" stop-color="#072055"/>
</linearGradient>
<linearGradient id="paint3_linear_177_3620" x1="101.392" y1="231.527" x2="178.075" y2="220.438" gradientUnits="userSpaceOnUse">
<stop offset="0.229618" stop-color="#2EA0DE"/>
<stop offset="1" stop-color="#072055"/>
</linearGradient>
<linearGradient id="paint4_linear_177_3620" x1="93.1301" y1="247.358" x2="181" y2="259.437" gradientUnits="userSpaceOnUse">
<stop offset="0.229618" stop-color="#2EA0DE"/>
<stop offset="1" stop-color="#072055"/>
</linearGradient>
<linearGradient id="paint5_linear_177_3620" x1="115.648" y1="148.627" x2="232.219" y2="221.877" gradientUnits="userSpaceOnUse">
<stop stop-color="#2EA0DE"/>
<stop offset="1" stop-color="#072055"/>
</linearGradient>
</defs>
</svg>
