<svg width="735" height="735" viewBox="0 0 735 735" fill="none" xmlns="http://www.w3.org/2000/svg">
<g filter="url(#filter0_f_75_411)">
<circle cx="367.5" cy="367.5" r="322.5" fill="#030326" fill-opacity="0.5"/>
</g>
<circle cx="368.609" cy="368.612" r="314.716" fill="url(#paint0_linear_75_411)"/>
<g filter="url(#filter1_f_75_411)">
<circle cx="367.991" cy="367.992" r="229.576" fill="url(#paint1_linear_75_411)"/>
</g>
<path d="M467.703 232.741C474.503 232.741 480.017 238.254 480.017 245.054C480.016 248.52 478.582 251.648 476.277 253.885L510.236 477.611C514.222 479.649 516.952 483.793 516.952 488.577C516.952 495.377 511.44 500.89 504.64 500.89C499.805 500.89 495.623 498.104 493.608 494.05H488.304C486.289 498.103 482.107 500.89 477.273 500.89C470.473 500.89 464.96 495.377 464.96 488.577C464.96 484.458 466.984 480.814 470.091 478.579L445.039 305.618C440.662 303.73 437.598 299.377 437.598 294.307C437.598 287.507 443.11 281.994 449.91 281.994C456.71 281.994 462.223 287.507 462.224 294.307C462.223 298.347 460.277 301.932 457.271 304.177L482.355 477.363C484.455 478.316 486.24 479.838 487.511 481.736H494.402C495.32 480.366 496.506 479.19 497.885 478.284L464.278 256.884C461.445 256.065 459.034 254.255 457.44 251.855C455.517 254.752 452.402 256.789 448.793 257.261L394.217 363.379C394.843 364.855 395.19 366.479 395.19 368.183C395.19 374.983 389.677 380.496 382.877 380.496C376.077 380.496 370.564 374.983 370.563 368.183C370.564 361.383 376.077 355.87 382.877 355.87C383.323 355.87 383.763 355.894 384.197 355.94L437.387 252.518C435.806 250.447 434.865 247.861 434.865 245.054C434.865 238.254 440.378 232.741 447.178 232.741C451.462 232.741 455.235 234.931 457.44 238.251C459.646 234.93 463.418 232.741 467.703 232.741ZM477.959 483.105C475.315 483.105 473.171 485.249 473.171 487.893C473.171 490.538 475.315 492.681 477.959 492.681C480.603 492.681 482.748 490.538 482.748 487.893C482.748 485.249 480.603 483.105 477.959 483.105ZM505.325 483.105C502.681 483.105 500.537 485.249 500.537 487.893C500.537 490.538 502.681 492.681 505.325 492.681C507.97 492.681 510.113 490.538 510.113 487.893C510.113 485.249 507.969 483.105 505.325 483.105ZM383.559 362.71C380.914 362.71 378.771 364.853 378.771 367.498C378.771 370.142 380.914 372.287 383.559 372.287C386.203 372.287 388.347 370.142 388.347 367.498C388.346 364.854 386.203 362.71 383.559 362.71ZM450.592 288.835C447.947 288.835 445.804 290.979 445.804 293.624C445.804 296.268 447.947 298.412 450.592 298.412C453.236 298.412 455.38 296.268 455.38 293.624C455.38 290.98 453.236 288.835 450.592 288.835ZM447.862 239.581C445.218 239.581 443.074 241.725 443.074 244.369C443.074 247.013 445.218 249.158 447.862 249.158C450.507 249.158 452.651 247.013 452.651 244.369C452.651 241.725 450.507 239.581 447.862 239.581ZM468.388 239.581C465.743 239.581 463.6 241.725 463.6 244.369C463.6 247.013 465.743 249.158 468.388 249.158C471.032 249.158 473.176 247.013 473.176 244.369C473.176 241.725 471.032 239.581 468.388 239.581Z" fill="url(#paint2_linear_75_411)"/>
<path d="M278.902 331.244C285.702 331.245 291.215 336.758 291.215 343.558C291.215 344.685 291.062 345.777 290.778 346.815L359.669 476.345C365.801 477.048 370.564 482.256 370.564 488.576C370.564 495.376 365.051 500.889 358.251 500.889C351.451 500.889 345.939 495.376 345.938 488.576C345.939 485.84 346.831 483.312 348.341 481.268L281.88 356.306L266.12 455.747C268.908 458.005 270.691 461.453 270.691 465.32C270.691 472.119 265.178 477.632 258.378 477.632C251.578 477.632 246.065 472.12 246.064 465.32C246.064 460.077 249.341 455.602 253.958 453.825L270.073 352.136C267.918 349.919 266.589 346.894 266.589 343.558C266.589 336.758 272.102 331.244 278.902 331.244ZM358.936 483.105C356.291 483.105 354.148 485.249 354.147 487.893C354.147 490.537 356.291 492.681 358.936 492.681C361.58 492.681 363.724 490.537 363.724 487.893C363.723 485.249 361.58 483.105 358.936 483.105ZM259.062 459.846C256.418 459.846 254.275 461.99 254.274 464.634C254.274 467.279 256.418 469.423 259.062 469.423C261.707 469.423 263.851 467.278 263.851 464.634C263.85 461.99 261.707 459.846 259.062 459.846ZM279.586 338.085C276.942 338.085 274.798 340.229 274.798 342.873C274.798 345.518 276.942 347.662 279.586 347.662C282.23 347.662 284.375 345.518 284.375 342.873C284.375 340.229 282.23 338.085 279.586 338.085Z" fill="url(#paint3_linear_75_411)"/>
<path d="M266.585 249.16C273.385 249.16 278.898 254.673 278.898 261.473C278.898 264.243 277.982 266.798 276.438 268.855L277.46 268.313L382.249 465.343C382.356 465.349 382.462 465.357 382.568 465.366L406.344 420.722C405.343 418.942 404.771 416.888 404.771 414.7C404.771 407.9 410.283 402.386 417.083 402.386C423.883 402.387 429.396 407.9 429.396 414.7C429.396 421.5 423.883 427.012 417.083 427.012C417.037 427.012 416.991 427.011 416.945 427.01L392.709 472.518C393.422 474.076 393.822 475.807 393.822 477.633C393.822 484.433 388.31 489.946 381.51 489.946C374.709 489.946 369.196 484.433 369.196 477.633C369.196 475.127 369.946 472.796 371.232 470.851L268.979 278.589L239.386 478.451C240.66 479.334 241.761 480.449 242.624 481.738H271.4C272.666 479.847 274.443 478.328 276.532 477.374L284.558 429.507C281.934 427.249 280.271 423.907 280.271 420.174C280.271 413.373 285.783 407.86 292.583 407.86C299.383 407.86 304.896 413.373 304.896 420.174C304.896 425.544 301.455 430.109 296.659 431.792L288.815 478.576C291.925 480.811 293.953 484.456 293.953 488.578C293.953 495.378 288.44 500.891 281.64 500.891C276.806 500.891 272.625 498.104 270.609 494.051H243.415C241.4 498.104 237.219 500.891 232.386 500.891C225.586 500.891 220.072 495.378 220.072 488.578C220.072 483.675 222.938 479.441 227.086 477.461L257.791 270.087C255.616 267.866 254.273 264.827 254.272 261.473C254.272 254.673 259.785 249.16 266.585 249.16ZM233.07 483.106C230.426 483.106 228.282 485.25 228.282 487.894C228.282 490.539 230.426 492.682 233.07 492.682C235.714 492.682 237.858 490.539 237.858 487.894C237.858 485.25 235.715 483.107 233.07 483.106ZM282.325 483.106C279.681 483.106 277.537 485.25 277.537 487.894C277.537 490.539 279.681 492.682 282.325 492.682C284.969 492.682 287.114 490.539 287.114 487.894C287.114 485.25 284.97 483.106 282.325 483.106ZM382.195 472.16C379.551 472.16 377.407 474.304 377.407 476.948C377.407 479.593 379.551 481.737 382.195 481.737C384.84 481.737 386.983 479.592 386.983 476.948C386.983 474.304 384.84 472.16 382.195 472.16ZM293.265 414.702C290.62 414.702 288.477 416.846 288.477 419.491C288.477 422.135 290.62 424.279 293.265 424.279C295.909 424.279 298.052 422.135 298.053 419.491C298.053 416.847 295.909 414.702 293.265 414.702ZM417.768 409.227C415.123 409.227 412.98 411.371 412.979 414.015C412.98 416.66 415.123 418.803 417.768 418.803C420.412 418.803 422.556 416.66 422.556 414.015C422.556 411.371 420.412 409.228 417.768 409.227ZM267.271 256.001C264.627 256.001 262.484 258.144 262.483 260.789C262.484 263.433 264.627 265.578 267.271 265.578C269.916 265.578 272.059 263.433 272.06 260.789C272.059 258.144 269.916 256.001 267.271 256.001Z" fill="url(#paint4_linear_75_411)"/>
<path d="M285.736 232.741C292.536 232.741 298.048 238.254 298.048 245.054C298.048 247.408 297.387 249.607 296.241 251.477L380.947 410.744C381.519 410.654 382.104 410.605 382.699 410.596L421.975 336.846C420.612 334.865 419.812 332.465 419.812 329.878C419.812 323.077 425.325 317.564 432.125 317.564C438.926 317.564 444.439 323.078 444.439 329.878C444.439 333.514 442.86 336.781 440.353 339.035L459.041 478.705C463.335 480.628 466.327 484.936 466.328 489.946C466.327 496.746 460.815 502.258 454.015 502.259C447.215 502.259 441.702 496.746 441.702 489.946C441.702 485.847 443.706 482.216 446.788 479.978L429.301 349.285L393.451 416.601C394.553 418.446 395.189 420.603 395.189 422.908C395.189 429.708 389.675 435.22 382.875 435.22C376.075 435.22 370.563 429.708 370.563 422.908C370.563 421.46 370.815 420.07 371.274 418.779L285.424 257.363C278.768 257.198 273.423 251.75 273.422 245.054C273.422 238.254 278.936 232.741 285.736 232.741ZM454.699 484.472C452.055 484.473 449.911 486.616 449.911 489.26C449.911 491.905 452.054 494.049 454.699 494.05C457.343 494.05 459.488 491.905 459.488 489.26C459.487 486.616 457.343 484.472 454.699 484.472ZM383.56 417.435C380.916 417.435 378.772 419.579 378.772 422.223C378.772 424.868 380.916 427.011 383.56 427.011C386.204 427.011 388.348 424.868 388.348 422.223C388.348 419.579 386.204 417.436 383.56 417.435ZM432.811 324.404C430.167 324.404 428.023 326.548 428.023 329.192C428.023 331.836 430.167 333.981 432.811 333.981C435.455 333.981 437.6 331.836 437.6 329.192C437.6 326.548 435.455 324.404 432.811 324.404ZM286.421 239.581C283.777 239.581 281.634 241.725 281.633 244.369C281.633 247.013 283.777 249.158 286.421 249.158C289.066 249.158 291.209 247.013 291.209 244.369C291.209 241.725 289.066 239.581 286.421 239.581Z" fill="url(#paint5_linear_75_411)"/>
<defs>
<filter id="filter0_f_75_411" x="0.857143" y="0.857143" width="733.286" height="733.286" filterUnits="userSpaceOnUse" color-interpolation-filters="sRGB">
<feFlood flood-opacity="0" result="BackgroundImageFix"/>
<feBlend mode="normal" in="SourceGraphic" in2="BackgroundImageFix" result="shape"/>
<feGaussianBlur stdDeviation="22.0714" result="effect1_foregroundBlur_75_411"/>
</filter>
<filter id="filter1_f_75_411" x="136.633" y="136.634" width="462.715" height="462.715" filterUnits="userSpaceOnUse" color-interpolation-filters="sRGB">
<feFlood flood-opacity="0" result="BackgroundImageFix"/>
<feBlend mode="normal" in="SourceGraphic" in2="BackgroundImageFix" result="shape"/>
<feGaussianBlur stdDeviation="0.890648" result="effect1_foregroundBlur_75_411"/>
</filter>
<linearGradient id="paint0_linear_75_411" x1="142.859" y1="85.0349" x2="683.324" y2="665.535" gradientUnits="userSpaceOnUse">
<stop offset="0.00934902" stop-color="white"/>
<stop offset="0.97127" stop-color="#DADADA"/>
</linearGradient>
<linearGradient id="paint1_linear_75_411" x1="367.991" y1="138.415" x2="367.991" y2="597.568" gradientUnits="userSpaceOnUse">
<stop stop-color="#DEDEDE"/>
<stop offset="1" stop-color="white"/>
</linearGradient>
<linearGradient id="paint2_linear_75_411" x1="326.085" y1="353.013" x2="458.756" y2="341.234" gradientUnits="userSpaceOnUse">
<stop offset="0.229618" stop-color="#2EA0DE"/>
<stop offset="1" stop-color="#072055"/>
</linearGradient>
<linearGradient id="paint3_linear_75_411" x1="189.69" y1="432.986" x2="333.051" y2="412.255" gradientUnits="userSpaceOnUse">
<stop offset="0.229618" stop-color="#2EA0DE"/>
<stop offset="1" stop-color="#072055"/>
</linearGradient>
<linearGradient id="paint4_linear_75_411" x1="174.239" y1="462.584" x2="338.519" y2="485.166" gradientUnits="userSpaceOnUse">
<stop offset="0.229618" stop-color="#2EA0DE"/>
<stop offset="1" stop-color="#072055"/>
</linearGradient>
<linearGradient id="paint5_linear_75_411" x1="216.346" y1="277.998" x2="434.281" y2="414.94" gradientUnits="userSpaceOnUse">
<stop stop-color="#2EA0DE"/>
<stop offset="1" stop-color="#072055"/>
</linearGradient>
</defs>
</svg>
