<svg width="265" height="264" viewBox="0 0 265 264" fill="none" xmlns="http://www.w3.org/2000/svg">
<g clip-path="url(#clip0_129_2343)">
<path d="M251.45 8.68311C251.45 7.58909 251.015 6.53988 250.241 5.76629C249.468 4.9927 248.419 4.55811 247.325 4.55811H10.9951C9.9011 4.55811 8.85189 4.9927 8.0783 5.76629C7.30471 6.53988 6.87012 7.58909 6.87012 8.68311V195.525C6.87012 196.619 7.30471 197.668 8.0783 198.442C8.85189 199.215 9.9011 199.65 10.9951 199.65H192.875L193.543 245.231C193.605 248.976 195.135 252.546 197.803 255.173C200.472 257.8 204.066 259.274 207.811 259.277H208.022H209.003C210.876 259.249 212.724 258.853 214.443 258.112C216.162 257.37 217.718 256.296 219.023 254.953C220.327 253.61 221.354 252.023 222.045 250.282C222.736 248.542 223.077 246.683 223.049 244.81L222.385 199.65H247.325C248.419 199.65 249.468 199.215 250.241 198.442C251.015 197.668 251.45 196.619 251.45 195.525V156.094C260.244 145.552 265.061 132.258 265.061 118.53C265.061 104.801 260.244 91.5076 251.45 80.9655V8.68311ZM243.2 12.8081V42.9H15.1201V12.8081H243.2ZM15.1201 51.15H243.2V72.8475C235.991 67.0175 227.505 62.9762 218.435 61.0539C209.365 59.1315 199.969 59.3828 191.015 61.787C182.061 64.1912 173.803 68.6803 166.916 74.8871C160.029 81.094 154.709 88.8425 151.39 97.4993C148.071 106.156 146.847 115.475 147.82 124.695C148.792 133.916 151.932 142.775 156.984 150.549C162.036 158.323 168.855 164.791 176.886 169.425C184.916 174.059 193.929 176.726 203.187 177.21L203.356 188.611L196.855 188.706C196.015 188.711 195.196 188.978 194.515 189.469C193.833 189.961 193.322 190.653 193.052 191.449H15.1201V51.15ZM201.083 196.861L214.085 196.672L214.18 203.004L201.178 203.197L201.083 196.861ZM213.104 249.208C212.555 249.775 211.9 250.227 211.176 250.54C210.451 250.852 209.672 251.017 208.884 251.027H207.898H207.811C206.237 251.024 204.726 250.404 203.602 249.301C202.479 248.198 201.832 246.698 201.801 245.124L201.306 211.447L214.312 211.254L214.807 244.93C214.822 245.721 214.678 246.506 214.386 247.24C214.093 247.975 213.657 248.644 213.104 249.208ZM222.059 191.4C221.835 190.532 221.331 189.762 220.625 189.21C219.918 188.658 219.049 188.355 218.153 188.347H218.091L211.59 188.442L211.421 176.987C223.038 175.954 234.09 171.505 243.183 164.2V191.425L222.059 191.4ZM250.728 142.51C245.977 151.313 238.722 158.509 229.881 163.187C221.04 167.865 211.01 169.816 201.06 168.793C191.109 167.769 181.686 163.817 173.983 157.436C166.279 151.056 160.642 142.534 157.783 132.949C154.924 123.363 154.972 113.145 157.922 103.587C160.872 94.0294 166.591 85.5614 174.355 79.2545C182.118 72.9476 191.578 69.0853 201.538 68.1563C211.497 67.2273 221.509 69.2733 230.305 74.0355C242.087 80.4181 250.855 91.2152 254.684 104.057C258.513 116.898 257.09 130.734 250.728 142.527V142.51Z" fill="white"/>
<path d="M224.977 23.7148H145.29V31.9648H224.977V23.7148Z" fill="white"/>
<path d="M48.8421 23.7148H30.3291V31.9648H48.8421V23.7148Z" fill="white"/>
<path d="M77.6856 23.7148H59.1768V31.9648H77.6856V23.7148Z" fill="white"/>
<path d="M226.073 81.9015C218.834 77.9899 210.598 76.3126 202.406 77.0815C194.214 77.8505 186.434 81.0312 180.049 86.2216C173.665 91.412 168.963 98.379 166.538 106.242C164.113 114.104 164.073 122.509 166.425 130.394C168.776 138.279 173.413 145.29 179.749 150.54C186.084 155.79 193.834 159.043 202.019 159.889C210.203 160.734 218.455 159.134 225.73 155.29C233.005 151.447 238.977 145.532 242.891 138.294C248.125 128.583 249.294 117.193 246.141 106.621C242.988 96.0493 235.771 87.1595 226.073 81.9015ZM235.627 134.372C231.956 141.158 226.046 146.462 218.904 149.379C211.762 152.297 203.829 152.648 196.457 150.373C189.084 148.098 182.729 143.337 178.473 136.901C174.218 130.466 172.325 122.754 173.118 115.079C173.91 107.405 177.339 100.242 182.82 94.8126C188.301 89.3827 195.496 86.0211 203.177 85.3006C210.859 84.5801 218.553 86.5451 224.948 90.861C231.343 95.1769 236.044 101.577 238.25 108.97C239.515 113.167 239.934 117.573 239.484 121.934C239.033 126.294 237.722 130.521 235.627 134.372ZM133.162 67.6909H100.987C99.8927 67.6909 98.8435 68.1255 98.0699 68.8991C97.2963 69.6727 96.8617 70.7219 96.8617 71.8159V106.808H72.9367V89.5947C72.9367 88.5006 72.5021 87.4514 71.7285 86.6779C70.9549 85.9043 69.9057 85.4697 68.8117 85.4697H36.6367C35.5427 85.4697 34.4935 85.9043 33.7199 86.6779C32.9463 87.4514 32.5117 88.5006 32.5117 89.5947V160.714C32.5117 161.808 32.9463 162.857 33.7199 163.631C34.4935 164.404 35.5427 164.839 36.6367 164.839H133.162C134.256 164.839 135.305 164.404 136.079 163.631C136.852 162.857 137.287 161.808 137.287 160.714V71.8159C137.287 70.7219 136.852 69.6727 136.079 68.8991C135.305 68.1255 134.256 67.6909 133.162 67.6909ZM40.704 93.7197H64.6496V156.589H40.7246L40.704 93.7197ZM72.879 115.058H96.804V156.589H72.879V115.058ZM129.037 156.589H105.112V75.9409H129.037V156.589Z" fill="white"/>
</g>
<defs>
<clipPath id="clip0_129_2343">
<rect width="264" height="264" fill="white" transform="translate(0.5)"/>
</clipPath>
</defs>
</svg>
