<svg width="101" height="100" viewBox="0 0 101 100" fill="none" xmlns="http://www.w3.org/2000/svg">
<path d="M50.333 34.375C48.4788 34.375 46.6662 33.8252 45.1245 32.795C43.5828 31.7649 42.3812 30.3007 41.6716 28.5877C40.9621 26.8746 40.7764 24.9896 41.1381 23.171C41.4999 21.3525 42.3928 19.682 43.7039 18.3709C45.015 17.0598 46.6855 16.1669 48.504 15.8051C50.3226 15.4434 52.2076 15.6291 53.9207 16.3386C55.6337 17.0482 57.0979 18.2498 58.128 19.7915C59.1582 21.3332 59.708 23.1458 59.708 25C59.708 27.4864 58.7203 29.871 56.9621 31.6291C55.204 33.3873 52.8194 34.375 50.333 34.375ZM50.333 18.75C49.0969 18.75 47.8885 19.1166 46.8607 19.8033C45.8329 20.4901 45.0318 21.4662 44.5588 22.6082C44.0857 23.7503 43.9619 25.0069 44.2031 26.2193C44.4443 27.4317 45.0395 28.5453 45.9136 29.4194C46.7877 30.2935 47.9013 30.8888 49.1137 31.1299C50.3261 31.3711 51.5827 31.2473 52.7248 30.7742C53.8668 30.3012 54.8429 29.5001 55.5297 28.4723C56.2165 27.4445 56.583 26.2361 56.583 25C56.583 23.3424 55.9245 21.7527 54.7524 20.5806C53.5803 19.4085 51.9906 18.75 50.333 18.75ZM50.333 45.3125C49.9186 45.3125 49.5212 45.1479 49.2282 44.8549C48.9351 44.5618 48.7705 44.1644 48.7705 43.75V37.5C48.7705 37.0856 48.9351 36.6882 49.2282 36.3951C49.5212 36.1021 49.9186 35.9375 50.333 35.9375C50.7474 35.9375 51.1448 36.1021 51.4379 36.3951C51.7309 36.6882 51.8955 37.0856 51.8955 37.5V43.75C51.8955 44.1644 51.7309 44.5618 51.4379 44.8549C51.1448 45.1479 50.7474 45.3125 50.333 45.3125ZM50.333 14.0625C49.9186 14.0625 49.5212 13.8979 49.2282 13.6049C48.9351 13.3118 48.7705 12.9144 48.7705 12.5V6.25C48.7705 5.8356 48.9351 5.43817 49.2282 5.14515C49.5212 4.85212 49.9186 4.6875 50.333 4.6875C50.7474 4.6875 51.1448 4.85212 51.4379 5.14515C51.7309 5.43817 51.8955 5.8356 51.8955 6.25V12.5C51.8955 12.9144 51.7309 13.3118 51.4379 13.6049C51.1448 13.8979 50.7474 14.0625 50.333 14.0625ZM69.083 26.5625H62.833C62.4186 26.5625 62.0212 26.3979 61.7282 26.1049C61.4351 25.8118 61.2705 25.4144 61.2705 25C61.2705 24.5856 61.4351 24.1882 61.7282 23.8951C62.0212 23.6021 62.4186 23.4375 62.833 23.4375H69.083C69.4974 23.4375 69.8948 23.6021 70.1879 23.8951C70.4809 24.1882 70.6455 24.5856 70.6455 25C70.6455 25.4144 70.4809 25.8118 70.1879 26.1049C69.8948 26.3979 69.4974 26.5625 69.083 26.5625ZM37.833 26.5625H31.583C31.1686 26.5625 30.7712 26.3979 30.4782 26.1049C30.1851 25.8118 30.0205 25.4144 30.0205 25C30.0205 24.5856 30.1851 24.1882 30.4782 23.8951C30.7712 23.6021 31.1686 23.4375 31.583 23.4375H37.833C38.2474 23.4375 38.6448 23.6021 38.9379 23.8951C39.2309 24.1882 39.3955 24.5856 39.3955 25C39.3955 25.4144 39.2309 25.8118 38.9379 26.1049C38.6448 26.3979 38.2474 26.5625 37.833 26.5625ZM59.1768 17.7188C58.9711 17.7199 58.7673 17.6805 58.5769 17.6028C58.3865 17.525 58.2134 17.4104 58.0674 17.2656C57.7764 16.9729 57.613 16.5769 57.613 16.1641C57.613 15.7513 57.7764 15.3553 58.0674 15.0625L62.4893 10.6406C62.7882 10.3846 63.1727 10.2509 63.5659 10.2661C63.9592 10.2813 64.3322 10.4443 64.6104 10.7226C64.8887 11.0008 65.0517 11.3739 65.0669 11.7671C65.0821 12.1603 64.9484 12.5448 64.6924 12.8438L60.2705 17.2656C59.9795 17.5543 59.5867 17.717 59.1768 17.7188ZM37.0674 39.8281C36.6552 39.8223 36.2621 39.6538 35.9736 39.3594C35.6826 39.0666 35.5193 38.6706 35.5193 38.2578C35.5193 37.845 35.6826 37.449 35.9736 37.1563L40.3955 32.8125C40.6944 32.5565 41.0789 32.4228 41.4722 32.438C41.8654 32.4531 42.2384 32.6162 42.5167 32.8944C42.795 33.1727 42.958 33.5457 42.9732 33.939C42.9884 34.3322 42.8546 34.7167 42.5986 35.0156L38.1768 39.4375C37.872 39.7072 37.4739 39.8474 37.0674 39.8281ZM63.5986 39.8281C63.3919 39.8273 63.1874 39.7854 62.997 39.7049C62.8065 39.6245 62.634 39.507 62.4893 39.3594L58.1455 34.9375C57.9804 34.6406 57.9165 34.2981 57.9635 33.9617C58.0106 33.6252 58.1659 33.3133 58.4061 33.0731C58.6463 32.8329 58.9583 32.6776 59.2947 32.6305C59.6311 32.5835 59.9737 32.6474 60.2705 32.8125L64.6924 37.2344C64.9834 37.5271 65.1467 37.9231 65.1467 38.3359C65.1467 38.7487 64.9834 39.1447 64.6924 39.4375C64.3915 39.7034 63.9999 39.8433 63.5986 39.8281ZM41.4893 17.7188C41.0794 17.717 40.6865 17.5543 40.3955 17.2656L35.9736 12.8438C35.7177 12.5448 35.5839 12.1603 35.5991 11.7671C35.6143 11.3739 35.7773 11.0008 36.0556 10.7226C36.3338 10.4443 36.7069 10.2813 37.1001 10.2661C37.4934 10.2509 37.8778 10.3846 38.1768 10.6406L42.5986 15.0625C42.8896 15.3553 43.053 15.7513 43.053 16.1641C43.053 16.5769 42.8896 16.9729 42.5986 17.2656C42.4526 17.4104 42.2795 17.525 42.0891 17.6028C41.8987 17.6805 41.6949 17.7199 41.4893 17.7188ZM62.833 95.3125H37.833C37.4186 95.3125 37.0212 95.1479 36.7282 94.8549C36.4351 94.5618 36.2705 94.1644 36.2705 93.75C36.2705 91.678 37.0936 89.6909 38.5587 88.2257C40.0239 86.7606 42.011 85.9375 44.083 85.9375H56.583C57.609 85.9375 58.6249 86.1396 59.5727 86.5322C60.5206 86.9248 61.3818 87.5003 62.1073 88.2257C62.8327 88.9512 63.4082 89.8124 63.8008 90.7603C64.1934 91.7081 64.3955 92.724 64.3955 93.75C64.3955 94.1644 64.2309 94.5618 63.9379 94.8549C63.6448 95.1479 63.2474 95.3125 62.833 95.3125ZM39.6611 92.1875H61.0049C60.6816 91.2732 60.0828 90.4817 59.2908 89.922C58.4988 89.3623 57.5528 89.062 56.583 89.0625H44.083C43.1132 89.062 42.1672 89.3623 41.3752 89.922C40.5833 90.4817 39.9844 91.2732 39.6611 92.1875Z" fill="white"/>
<path d="M53.458 89.0625H47.208C46.7936 89.0625 46.3962 88.8979 46.1032 88.6049C45.8101 88.3118 45.6455 87.9144 45.6455 87.5V81.25C45.6455 80.8356 45.8101 80.4382 46.1032 80.1451C46.3962 79.8521 46.7936 79.6875 47.208 79.6875H53.458C53.8724 79.6875 54.2698 79.8521 54.5629 80.1451C54.8559 80.4382 55.0205 80.8356 55.0205 81.25V87.5C55.0205 87.9144 54.8559 88.3118 54.5629 88.6049C54.2698 88.8979 53.8724 89.0625 53.458 89.0625ZM48.7705 85.9375H51.8955V82.8125H48.7705V85.9375Z" fill="white"/>
<path d="M80.0206 82.8125H20.6456C20.4276 82.812 20.212 82.7659 20.0129 82.6771C19.8138 82.5882 19.6354 82.4587 19.4894 82.2969C19.3432 82.1378 19.2317 81.9501 19.1618 81.7457C19.0918 81.5413 19.065 81.3247 19.0831 81.1094L22.0675 49.8594C22.1027 49.4698 22.2827 49.1076 22.572 48.8444C22.8613 48.5811 23.2388 48.4359 23.63 48.4375H77.0519C77.443 48.4359 77.8205 48.5811 78.1098 48.8444C78.3991 49.1076 78.5791 49.4698 78.6144 49.8594L81.5987 81.1094C81.6168 81.3247 81.59 81.5413 81.5201 81.7457C81.4502 81.9501 81.3386 82.1378 81.1925 82.2969C81.0446 82.4607 80.8638 82.5914 80.6618 82.6802C80.4598 82.7691 80.2413 82.8142 80.0206 82.8125ZM22.3644 79.6875H78.3019L75.63 51.5625H25.0362L22.3644 79.6875Z" fill="white"/>
<path d="M31.7863 82.8125H31.5831C31.171 82.7767 30.7899 82.579 30.5234 82.2626C30.2568 81.9463 30.1266 81.5372 30.1613 81.125L32.9581 50C32.9954 49.5856 33.1958 49.203 33.5152 48.9363C33.8346 48.6697 34.2469 48.5408 34.6613 48.5781C35.0757 48.6154 35.4583 48.8158 35.7249 49.1352C35.9916 49.4546 36.1204 49.8668 36.0831 50.2812L33.3488 81.3281C33.3287 81.7288 33.1553 82.1064 32.8644 82.3828C32.5735 82.6591 32.1875 82.813 31.7863 82.8125ZM42.7238 82.8125H42.5206C42.1085 82.7767 41.7274 82.579 41.4609 82.2626C41.1943 81.9463 41.0641 81.5372 41.0988 81.125L43.8956 50C43.9329 49.5856 44.1333 49.203 44.4527 48.9363C44.7721 48.6697 45.1844 48.5408 45.5988 48.5781C46.0132 48.6154 46.3958 48.8158 46.6624 49.1352C46.9291 49.4546 47.0579 49.8668 47.0206 50.2812L44.2863 81.3281C44.2662 81.7288 44.0928 82.1064 43.8019 82.3828C43.511 82.6591 43.125 82.813 42.7238 82.8125ZM68.88 82.8125C68.4889 82.8141 68.1113 82.6689 67.822 82.4056C67.5327 82.1424 67.3527 81.7802 67.3175 81.3906L64.5988 50.2031C64.5615 49.7887 64.6903 49.3764 64.957 49.0571C65.2236 48.7377 65.6062 48.5373 66.0206 48.5C66.435 48.4627 66.8473 48.5915 67.1667 48.8582C67.4861 49.1248 67.6865 49.5074 67.7238 49.9218L70.4425 81.0625C70.4687 81.2667 70.4544 81.4742 70.4002 81.6728C70.346 81.8715 70.253 82.0575 70.1267 82.2201C70.0004 82.3828 69.8431 82.5188 69.664 82.6205C69.485 82.7221 69.2875 82.7874 69.0831 82.8125H68.88ZM57.9425 82.8125C57.5514 82.8141 57.1738 82.6689 56.8845 82.4056C56.5952 82.1424 56.4152 81.7802 56.38 81.3906L53.6613 50.2031C53.6428 49.9979 53.6649 49.7911 53.7264 49.5944C53.7878 49.3978 53.8874 49.2152 54.0195 49.0571C54.1515 48.8989 54.3134 48.7683 54.4959 48.6727C54.6784 48.5771 54.8779 48.5184 55.0831 48.5C55.2883 48.4815 55.4951 48.5036 55.6918 48.5651C55.8884 48.6266 56.071 48.7261 56.2292 48.8582C56.3873 48.9902 56.5179 49.1521 56.6135 49.3346C56.7091 49.5171 56.7678 49.7167 56.7863 49.9218L59.505 81.0625C59.5312 81.2667 59.5169 81.4742 59.4627 81.6728C59.4085 81.8715 59.3155 82.0575 59.1892 82.2201C59.0629 82.3828 58.9056 82.5188 58.7265 82.6205C58.5475 82.7221 58.35 82.7874 58.1456 82.8125H57.9425Z" fill="white"/>
<path d="M79.1298 73.4373H21.5361C21.1217 73.4373 20.7242 73.2727 20.4312 72.9796C20.1382 72.6866 19.9736 72.2892 19.9736 71.8748C19.9736 71.4604 20.1382 71.063 20.4312 70.7699C20.7242 70.4769 21.1217 70.3123 21.5361 70.3123H79.1298C79.5442 70.3123 79.9417 70.4769 80.2347 70.7699C80.5277 71.063 80.6923 71.4604 80.6923 71.8748C80.6923 72.2892 80.5277 72.6866 80.2347 72.9796C79.9417 73.2727 79.5442 73.4373 79.1298 73.4373ZM77.9423 60.9373H22.7236C22.3092 60.9373 21.9117 60.7727 21.6187 60.4796C21.3257 60.1866 21.1611 59.7892 21.1611 59.3748C21.1611 58.9604 21.3257 58.563 21.6187 58.2699C21.9117 57.9769 22.3092 57.8123 22.7236 57.8123H77.9423C78.3567 57.8123 78.7542 57.9769 79.0472 58.2699C79.3402 58.563 79.5048 58.9604 79.5048 59.3748C79.5048 59.7892 79.3402 60.1866 79.0472 60.4796C78.7542 60.7727 78.3567 60.9373 77.9423 60.9373ZM94.083 62.4998C93.8739 62.4959 93.6673 62.4535 93.4736 62.3748C88.1716 60.0915 82.709 58.201 77.1298 56.7185C76.9308 56.6652 76.7442 56.5732 76.5807 56.4477C76.4173 56.3223 76.2801 56.1658 76.1771 55.9874C76.0741 55.8089 76.0072 55.6119 75.9804 55.4076C75.9535 55.2033 75.9671 54.9957 76.0204 54.7967C76.0738 54.5976 76.1658 54.4111 76.2913 54.2476C76.4167 54.0841 76.5732 53.947 76.7516 53.8439C76.9301 53.7409 77.1271 53.6741 77.3314 53.6472C77.5357 53.6203 77.7433 53.6339 77.9423 53.6873C83.6552 55.2292 89.2524 57.1715 94.6923 59.4998C95.0234 59.6408 95.2957 59.8919 95.4631 60.2104C95.6305 60.529 95.6828 60.8956 95.6112 61.2483C95.5396 61.601 95.3484 61.9182 95.0699 62.1462C94.7915 62.3742 94.4428 62.4991 94.083 62.4998ZM6.58295 62.4998C6.22306 62.4991 5.87443 62.3742 5.59599 62.1462C5.31755 61.9182 5.12635 61.601 5.05471 61.2483C4.98307 60.8956 5.03538 60.529 5.20279 60.2104C5.37021 59.8919 5.64247 59.6408 5.97357 59.4998C11.4135 57.1715 17.0107 55.2292 22.7236 53.6873C22.9226 53.6339 23.1302 53.6203 23.3345 53.6472C23.5388 53.6741 23.7358 53.7409 23.9143 53.8439C24.0927 53.947 24.2492 54.0841 24.3746 54.2476C24.5001 54.4111 24.5921 54.5976 24.6455 54.7967C24.6988 54.9957 24.7124 55.2033 24.6855 55.4076C24.6587 55.6119 24.5918 55.8089 24.4888 55.9874C24.3858 56.1658 24.2486 56.3223 24.0852 56.4477C23.9217 56.5732 23.7351 56.6652 23.5361 56.7185C17.9578 58.1908 12.4952 60.0709 7.19232 62.3435C7.00066 62.433 6.79401 62.486 6.58295 62.4998Z" fill="white"/>
</svg>
