<svg width="124" height="124" viewBox="0 0 124 124" fill="none" xmlns="http://www.w3.org/2000/svg">
<path d="M69.6465 113.99H54.5727C54.2302 113.99 53.9016 114.126 53.6594 114.368C53.4172 114.61 53.2811 114.939 53.2811 115.281C53.2811 115.624 53.4172 115.952 53.6594 116.195C53.9016 116.437 54.2302 116.573 54.5727 116.573H69.6465C69.9891 116.573 70.3176 116.437 70.5598 116.195C70.8021 115.952 70.9381 115.624 70.9381 115.281C70.9381 114.939 70.8021 114.61 70.5598 114.368C70.3176 114.126 69.9891 113.99 69.6465 113.99Z" fill="white"/>
<path d="M102.326 54.5083H99.4586V6.03208C99.4586 5.23994 99.3026 4.45555 98.9995 3.7237C98.6963 2.99186 98.252 2.32689 97.6919 1.76676C97.1318 1.20663 96.4668 0.762306 95.7349 0.459165C95.0031 0.156024 94.2187 0 93.4266 0L30.574 0C28.9742 0 27.44 0.635521 26.3087 1.76676C25.1775 2.89799 24.542 4.43228 24.542 6.03208V16.7917H17.8253C17.4827 16.7917 17.1542 16.9278 16.912 17.17C16.6697 17.4122 16.5336 17.7408 16.5336 18.0833V62C16.5336 62.3426 16.6697 62.6711 16.912 62.9133C17.1542 63.1556 17.4827 63.2917 17.8253 63.2917H24.542V74.8262H17.6186C17.2761 74.8262 16.9475 74.9623 16.7053 75.2046C16.4631 75.4468 16.327 75.7753 16.327 76.1179V96.5521C16.327 96.8947 16.4631 97.2232 16.7053 97.4654C16.9475 97.7077 17.2761 97.8438 17.6186 97.8438H24.542V117.968C24.542 119.568 25.1775 121.102 26.3087 122.233C27.44 123.364 28.9742 124 30.574 124H93.4266C94.2187 124 95.0031 123.844 95.7349 123.541C96.4668 123.238 97.1318 122.793 97.6919 122.233C98.252 121.673 98.6963 121.008 98.9995 120.276C99.3026 119.544 99.4586 118.76 99.4586 117.968V77.5904H102.326C102.669 77.5904 102.997 77.4543 103.239 77.2121C103.482 76.9699 103.618 76.6413 103.618 76.2987V55.8C103.618 55.4574 103.482 55.1289 103.239 54.8867C102.997 54.6444 102.669 54.5083 102.326 54.5083ZM27.1253 6.03208C27.1287 5.11847 27.4931 4.24324 28.1392 3.59721C28.7852 2.95118 29.6604 2.58674 30.574 2.58333H93.4266C94.3402 2.58674 95.2154 2.95118 95.8614 3.59721C96.5075 4.24324 96.8719 5.11847 96.8753 6.03208V8.42167C95.8694 7.70281 94.6629 7.3187 93.4266 7.32375H30.574C29.3377 7.3187 28.1312 7.70281 27.1253 8.42167V6.03208ZM19.117 19.375H53.2816V39.0471L49.0836 34.875C48.9636 34.7539 48.8207 34.6578 48.6633 34.5923C48.5059 34.5267 48.3371 34.4929 48.1666 34.4929C47.996 34.4929 47.8272 34.5267 47.6698 34.5923C47.5124 34.6578 47.3695 34.7539 47.2495 34.875L43.3745 38.75L36.167 31.4521C35.925 31.2115 35.5976 31.0765 35.2563 31.0765C34.9151 31.0765 34.5877 31.2115 34.3457 31.4521L19.117 46.6938V19.375ZM53.2816 48.5279L45.2086 40.5067L48.1278 37.5875L53.2945 42.7542L53.2816 48.5279ZM19.117 60.7083V50.375L35.2757 34.2292L53.2816 52.1833V60.7083H19.117ZM18.9103 95.3121V77.3579H53.5011V95.2604L18.9103 95.3121ZM96.8753 117.968C96.8719 118.882 96.5075 119.757 95.8614 120.403C95.2154 121.049 94.3402 121.413 93.4266 121.417H30.574C29.6604 121.413 28.7852 121.049 28.1392 120.403C27.4931 119.757 27.1287 118.882 27.1253 117.968V108.5C28.1354 109.209 29.3401 109.588 30.574 109.585H93.4266C94.6605 109.588 95.8652 109.209 96.8753 108.5V117.968ZM96.8753 103.553C96.8719 104.465 96.507 105.339 95.8606 105.983C95.2142 106.627 94.339 106.989 93.4266 106.989H30.574C29.6616 106.989 28.7864 106.627 28.14 105.983C27.4936 105.339 27.1287 104.465 27.1253 103.553V97.8438H54.7928C55.1354 97.8438 55.4639 97.7077 55.7061 97.4654C55.9484 97.2232 56.0845 96.8947 56.0845 96.5521V76.0662C56.0845 75.7237 55.9484 75.3951 55.7061 75.1529C55.4639 74.9107 55.1354 74.7746 54.7928 74.7746H27.1253V63.2917H54.5732C54.9158 63.2917 55.2443 63.1556 55.4866 62.9133C55.7288 62.6711 55.8649 62.3426 55.8649 62V18.0833C55.8649 17.7408 55.7288 17.4122 55.4866 17.17C55.2443 16.9278 54.9158 16.7917 54.5732 16.7917H27.1253V13.3429C27.1287 12.4305 27.4936 11.5566 28.14 10.9126C28.7864 10.2687 29.6616 9.90708 30.574 9.90708H93.4266C94.339 9.90708 95.2142 10.2687 95.8606 10.9126C96.507 11.5566 96.8719 12.4305 96.8753 13.3429V54.5083H65.152C64.8094 54.5083 64.4809 54.6444 64.2386 54.8867C63.9964 55.1289 63.8603 55.4574 63.8603 55.8V76.2987C63.8603 76.6413 63.9964 76.9699 64.2386 77.2121C64.4809 77.4543 64.8094 77.5904 65.152 77.5904H96.8753V103.553ZM101.034 75.0071H66.4436V57.0917H101.034V75.0071Z" fill="white"/>
<path d="M77.7205 38.3238C79.169 38.3238 80.585 37.8942 81.7893 37.0895C82.9937 36.2848 83.9324 35.1409 84.4867 33.8027C85.0411 32.4645 85.1861 30.9919 84.9035 29.5712C84.6209 28.1506 83.9234 26.8456 82.8992 25.8214C81.8749 24.7971 80.5699 24.0996 79.1493 23.817C77.7286 23.5344 76.256 23.6794 74.9178 24.2338C73.5796 24.7881 72.4357 25.7268 71.631 26.9312C70.8263 28.1355 70.3967 29.5515 70.3967 31C70.4001 32.9414 71.1728 34.8022 72.5456 36.1749C73.9183 37.5477 75.7791 38.3204 77.7205 38.3238ZM77.7205 26.2596C78.658 26.2596 79.5746 26.5376 80.3541 27.0585C81.1337 27.5794 81.7413 28.3197 82.1001 29.1859C82.4588 30.0521 82.5527 31.0053 82.3698 31.9248C82.1869 32.8444 81.7354 33.689 81.0725 34.352C80.4095 35.015 79.5648 35.4664 78.6453 35.6494C77.7257 35.8323 76.7726 35.7384 75.9064 35.3796C75.0402 35.0208 74.2999 34.4132 73.779 33.6337C73.2581 32.8541 72.9801 31.9376 72.9801 31C72.9801 29.7428 73.4795 28.537 74.3685 27.648C75.2575 26.759 76.4632 26.2596 77.7205 26.2596Z" fill="white"/>
<path d="M69.9702 44.9889V43.8135H85.4702V44.9889C85.4702 45.3315 85.6063 45.66 85.8486 45.9022C86.0908 46.1445 86.4193 46.2806 86.7619 46.2806H91.709C92.0516 46.2806 92.3801 46.1445 92.6223 45.9022C92.8646 45.66 93.0007 45.3315 93.0007 44.9889V40.0418C93.0007 39.6992 92.8646 39.3707 92.6223 39.1285C92.3801 38.8862 92.0516 38.7501 91.709 38.7501H90.5207V23.2501H91.709C92.0516 23.2501 92.3801 23.1141 92.6223 22.8718C92.8646 22.6296 93.0007 22.301 93.0007 21.9585V17.0114C93.0007 16.6688 92.8646 16.3403 92.6223 16.098C92.3801 15.8558 92.0516 15.7197 91.709 15.7197H86.7619C86.4193 15.7197 86.0908 15.8558 85.8486 16.098C85.6063 16.3403 85.4702 16.6688 85.4702 17.0114V18.1868H69.9702V17.0114C69.9702 16.6688 69.8342 16.3403 69.5919 16.098C69.3497 15.8558 69.0211 15.7197 68.6786 15.7197H63.7186C63.376 15.7197 63.0475 15.8558 62.8052 16.098C62.563 16.3403 62.4269 16.6688 62.4269 17.0114V21.9585C62.4269 22.301 62.563 22.6296 62.8052 22.8718C63.0475 23.1141 63.376 23.2501 63.7186 23.2501H64.9069V38.7501H63.7186C63.376 38.7501 63.0475 38.8862 62.8052 39.1285C62.563 39.3707 62.4269 39.6992 62.4269 40.0418V44.9889C62.4269 45.3315 62.563 45.66 62.8052 45.9022C63.0475 46.1445 63.376 46.2806 63.7186 46.2806H68.6786C69.0211 46.2806 69.3497 46.1445 69.5919 45.9022C69.8342 45.66 69.9702 45.3315 69.9702 44.9889ZM90.4173 43.6972H88.0536V41.3335H90.4173V43.6972ZM90.4173 18.3031V20.6668H88.0536V18.3031H90.4173ZM65.0102 18.3031H67.3869V20.6668H65.0102V18.3031ZM67.4902 23.2501H68.6786C69.0211 23.2501 69.3497 23.1141 69.5919 22.8718C69.8342 22.6296 69.9702 22.301 69.9702 21.9585V20.7701H85.4702V21.9585C85.4702 22.301 85.6063 22.6296 85.8486 22.8718C86.0908 23.1141 86.4193 23.2501 86.7619 23.2501H87.9373V38.7501H86.7619C86.4193 38.7501 86.0908 38.8862 85.8486 39.1285C85.6063 39.3707 85.4702 39.6992 85.4702 40.0418V41.2301H69.9702V40.0418C69.9702 39.6992 69.8342 39.3707 69.5919 39.1285C69.3497 38.8862 69.0211 38.7501 68.6786 38.7501H67.4902V23.2501ZM65.0102 43.6972V41.3335H67.3869V43.6972H65.0102ZM31.0007 55.7485H41.334C41.6766 55.7485 42.0051 55.6124 42.2473 55.3702C42.4896 55.1279 42.6257 54.7994 42.6257 54.4568C42.6257 54.1142 42.4896 53.7857 42.2473 53.5435C42.0051 53.3012 41.6766 53.1651 41.334 53.1651H31.0007C30.6581 53.1651 30.3295 53.3012 30.0873 53.5435C29.8451 53.7857 29.709 54.1142 29.709 54.4568C29.709 54.7994 29.8451 55.1279 30.0873 55.3702C30.3295 55.6124 30.6581 55.7485 31.0007 55.7485ZM95.8294 60.8893H71.6623C71.3197 60.8893 70.9912 61.0254 70.749 61.2676C70.5067 61.5099 70.3707 61.8384 70.3707 62.181C70.3707 62.5235 70.5067 62.8521 70.749 63.0943C70.9912 63.3366 71.3197 63.4726 71.6623 63.4726H95.8294C96.172 63.4726 96.5005 63.3366 96.7428 63.0943C96.985 62.8521 97.1211 62.5235 97.1211 62.181C97.1211 61.8384 96.985 61.5099 96.7428 61.2676C96.5005 61.0254 96.172 60.8893 95.8294 60.8893ZM81.3757 68.3164H71.6623C71.3197 68.3164 70.9912 68.4525 70.749 68.6947C70.5067 68.9369 70.3707 69.2655 70.3707 69.6081C70.3707 69.9506 70.5067 70.2792 70.749 70.5214C70.9912 70.7636 71.3197 70.8997 71.6623 70.8997H81.3757C81.7182 70.8997 82.0468 70.7636 82.289 70.5214C82.5312 70.2792 82.6673 69.9506 82.6673 69.6081C82.6673 69.2655 82.5312 68.9369 82.289 68.6947C82.0468 68.4525 81.7182 68.3164 81.3757 68.3164ZM95.8294 68.3164H87.3432C87.0006 68.3164 86.6721 68.4525 86.4298 68.6947C86.1876 68.9369 86.0515 69.2655 86.0515 69.6081C86.0515 69.9506 86.1876 70.2792 86.4298 70.5214C86.6721 70.7636 87.0006 70.8997 87.3432 70.8997H95.8294C96.172 70.8997 96.5005 70.7636 96.7428 70.5214C96.985 70.2792 97.1211 69.9506 97.1211 69.6081C97.1211 69.2655 96.985 68.9369 96.7428 68.6947C96.5005 68.4525 96.172 68.3164 95.8294 68.3164ZM24.1161 83.726H48.2832C48.6257 83.726 48.9543 83.5899 49.1965 83.3477C49.4387 83.1054 49.5748 82.7769 49.5748 82.4343C49.5748 82.0917 49.4387 81.7632 49.1965 81.521C48.9543 81.2787 48.6257 81.1426 48.2832 81.1426H24.1161C23.7735 81.1426 23.445 81.2787 23.2027 81.521C22.9605 81.7632 22.8244 82.0917 22.8244 82.4343C22.8244 82.7769 22.9605 83.1054 23.2027 83.3477C23.445 83.5899 23.7735 83.726 24.1161 83.726ZM33.8294 91.1531C34.172 91.1531 34.5005 91.017 34.7427 90.7747C34.985 90.5325 35.1211 90.204 35.1211 89.8614C35.1211 89.5188 34.985 89.1903 34.7427 88.948C34.5005 88.7058 34.172 88.5697 33.8294 88.5697H24.1161C23.7735 88.5697 23.445 88.7058 23.2027 88.948C22.9605 89.1903 22.8244 89.5188 22.8244 89.8614C22.8244 90.204 22.9605 90.5325 23.2027 90.7747C23.445 91.017 23.7735 91.1531 24.1161 91.1531H33.8294ZM48.2832 88.5697H39.8098C39.4672 88.5697 39.1387 88.7058 38.8965 88.948C38.6542 89.1903 38.5182 89.5188 38.5182 89.8614C38.5182 90.204 38.6542 90.5325 38.8965 90.7747C39.1387 91.017 39.4672 91.1531 39.8098 91.1531H48.2832C48.6257 91.1531 48.9543 91.017 49.1965 90.7747C49.4387 90.5325 49.5748 90.204 49.5748 89.8614C49.5748 89.5188 49.4387 89.1903 49.1965 88.948C48.9543 88.7058 48.6257 88.5697 48.2832 88.5697ZM63.8607 91.1272V96.5522C63.8607 96.8948 63.9967 97.2233 64.239 97.4656C64.4812 97.7078 64.8097 97.8439 65.1523 97.8439C65.4949 97.8439 65.8234 97.7078 66.0657 97.4656C66.3079 97.2233 66.444 96.8948 66.444 96.5522V95.1314H91.709V96.5522C91.709 96.8948 91.8451 97.2233 92.0873 97.4656C92.3295 97.7078 92.6581 97.8439 93.0007 97.8439C93.3432 97.8439 93.6718 97.7078 93.914 97.4656C94.1562 97.2233 94.2923 96.8948 94.2923 96.5522V91.1272C94.2923 90.7847 94.1562 90.4561 93.914 90.2139C93.6718 89.9716 93.3432 89.8356 93.0007 89.8356C92.6581 89.8356 92.3295 89.9716 92.0873 90.2139C91.8451 90.4561 91.709 90.7847 91.709 91.1272V92.5481H66.444V91.1272C66.444 90.7847 66.3079 90.4561 66.0657 90.2139C65.8234 89.9716 65.4949 89.8356 65.1523 89.8356C64.8097 89.8356 64.4812 89.9716 64.239 90.2139C63.9967 90.4561 63.8607 90.7847 63.8607 91.1272Z" fill="white"/>
</svg>
