<svg width="137" height="137" viewBox="0 0 137 137" fill="none" xmlns="http://www.w3.org/2000/svg">
<path d="M68.3997 21.4062C57.7779 21.4062 49.134 30.0501 49.134 40.6719C49.134 46.824 52.0889 52.2496 56.5928 55.7817C51.2969 56.1156 46.6063 58.5739 43.3226 62.3457C41.9825 61.4852 40.5687 60.8302 39.0831 60.3807C42.0115 57.8119 43.8995 54.0863 43.8995 49.895C43.8995 42.0474 37.7494 35.9056 29.9019 35.9056C22.1828 35.9056 15.9042 42.1759 15.9042 49.895C15.9042 54.1077 17.8124 57.8497 20.7708 60.4141C13.7367 62.5419 8.5625 69.013 8.5625 76.7364V100.609C8.5625 101.791 9.5215 102.75 10.7031 102.75H38.5312V113.453C38.5312 114.635 39.4902 115.594 40.6719 115.594H53.5156H83.4844H96.3281C97.5098 115.594 98.4688 114.635 98.4688 113.453V102.75H126.297C127.479 102.75 128.438 101.791 128.438 100.609V76.7364C128.438 69.013 123.263 62.5462 116.229 60.4141C119.183 57.8454 121.096 54.1077 121.096 49.895C121.096 42.1759 114.817 35.8973 107.098 35.8973C99.2506 35.8973 93.1005 42.0474 93.1005 49.895C93.1005 54.0863 94.9885 57.8078 97.9169 60.3723C96.4313 60.8218 95.0175 61.4768 93.6774 62.3373C90.3595 58.5227 85.6003 56.0477 80.2316 55.7566C84.7227 52.2246 87.6653 46.8112 87.6653 40.6719C87.6653 29.8703 79.2012 21.4062 68.3997 21.4062ZM68.3997 25.6875C76.7995 25.6875 83.384 32.2721 83.384 40.6719C83.384 49.0717 76.7995 55.6562 68.3997 55.6562C60.1368 55.6562 53.4153 48.9347 53.4153 40.6719C53.4153 32.2721 59.9998 25.6875 68.3997 25.6875ZM29.9019 40.1785C35.3476 40.1785 39.6183 44.4492 39.6183 49.895C39.6183 55.3407 35.3476 59.6114 29.9019 59.6114C24.546 59.6114 20.1854 55.2508 20.1854 49.895C20.1854 44.4449 24.4518 40.1785 29.9019 40.1785ZM107.098 40.1785C112.544 40.1785 116.815 44.4492 116.815 49.895C116.815 55.2508 112.458 59.6114 107.098 59.6114C101.652 59.6114 97.3817 55.3407 97.3817 49.895C97.3817 44.4492 101.652 40.1785 107.098 40.1785ZM57.7969 59.9375H79.2031C84.3192 59.9375 88.8394 62.5254 91.5452 66.4514C91.6907 66.6654 91.7928 66.8936 91.9298 67.1119C92.2552 67.6428 92.5634 68.1898 92.8245 68.7592C92.9572 69.0503 93.0728 69.3542 93.1841 69.6539C93.3981 70.2148 93.578 70.7857 93.7192 71.3765C93.7877 71.659 93.8602 71.9342 93.9116 72.221C94.0742 73.0987 94.1875 73.9971 94.1875 74.9219V100.609V111.312H85.625V79.2031C85.625 78.0215 84.666 77.0625 83.4844 77.0625C82.3027 77.0625 81.3438 78.0215 81.3438 79.2031V111.312H55.6562V79.2031C55.6562 78.0215 54.6973 77.0625 53.5156 77.0625C52.334 77.0625 51.375 78.0215 51.375 79.2031V111.312H42.8125V100.609V74.9219C42.8125 73.9971 42.9258 73.1027 43.0884 72.2294C43.1398 71.9425 43.2123 71.6674 43.2808 71.3848C43.4263 70.794 43.6061 70.2148 43.8159 69.6539C43.9315 69.3542 44.0428 69.0503 44.1755 68.7592C44.4366 68.1898 44.7405 67.6512 45.0702 67.1203C45.2072 66.902 45.3093 66.6654 45.4548 66.4514C48.1606 62.5212 52.6808 59.9375 57.7969 59.9375ZM102.758 63.8843H111.321C118.402 63.8843 124.165 69.6468 124.165 76.728V98.4688H124.156H119.875V79.2031C119.875 78.0215 118.916 77.0625 117.734 77.0625C116.553 77.0625 115.594 78.0215 115.594 79.2031V98.4688H98.4688V74.9219C98.4688 73.7531 98.3314 72.603 98.1259 71.4684C98.0831 71.2244 98.0351 70.985 97.9838 70.741C97.7483 69.6921 97.4332 68.6614 97.0222 67.6638C96.928 67.4284 96.8155 67.2093 96.7128 66.9781C96.5287 66.5757 96.3623 66.1636 96.1525 65.774C98.1647 64.5325 100.421 63.8843 102.758 63.8843ZM25.6875 63.8926H34.25C36.5876 63.8926 38.8436 64.5408 40.8558 65.7824C40.6461 66.172 40.4797 66.5757 40.2956 66.9781C40.1928 67.2093 40.072 67.4284 39.9778 67.6638C39.5668 68.6614 39.2517 69.6921 39.0162 70.741C38.9606 70.9807 38.9253 71.2285 38.8824 71.4768C38.6727 72.6071 38.5312 73.7531 38.5312 74.9219V98.4688H21.4062V79.2031C21.4062 78.0215 20.4473 77.0625 19.2656 77.0625C18.084 77.0625 17.125 78.0215 17.125 79.2031V98.4688H12.8438V76.7364C12.8438 69.6552 18.6063 63.8926 25.6875 63.8926Z" fill="white"/>
</svg>
