<svg width="544" height="612" viewBox="0 0 544 612" fill="none" xmlns="http://www.w3.org/2000/svg">
<g clip-path="url(#clip0_1155_9513)">
<path d="M543.03 180.01C543.026 169.747 540.831 160.678 536.392 152.895C532.032 145.242 525.502 138.827 516.744 133.755C444.448 92.069 372.082 50.5103 299.81 8.78163C280.325 -2.46699 261.434 -2.05691 242.094 9.3532C213.318 26.3239 69.2468 108.865 26.3155 133.732C8.63514 143.967 0.0318718 159.631 0.0276222 179.991C0 263.824 0.0276222 347.655 0 431.491C0.00424958 441.529 2.10566 450.421 6.34887 458.087C10.7111 465.972 17.3319 472.563 26.2921 477.75C69.2256 502.616 213.316 585.151 242.086 602.126C261.434 613.543 280.325 613.951 299.816 602.698C372.091 560.967 444.461 519.411 516.767 477.724C525.728 472.54 532.349 465.944 536.711 458.066C540.948 450.4 543.053 441.507 543.057 431.468C543.057 431.468 543.057 263.845 543.03 180.01Z" fill="#5C8DBC"/>
<path d="M272.36 304.926L6.34912 458.089C10.7113 465.974 17.3321 472.565 26.2924 477.752C69.2258 502.618 213.316 585.153 242.086 602.128C261.434 613.545 280.326 613.953 299.816 602.7C372.091 560.969 444.461 519.412 516.768 477.726C525.728 472.542 532.349 465.946 536.711 458.068L272.36 304.926Z" fill="#1A4674"/>
<path d="M193.57 350.294C209.049 377.317 238.148 395.544 271.529 395.544C305.115 395.544 334.38 377.086 349.78 349.774L272.36 304.926L193.57 350.294Z" fill="#1A4674"/>
<path d="M543.03 180.011C543.025 169.748 540.831 160.68 536.392 152.896L272.359 304.925L536.711 458.067C540.947 450.401 543.053 441.509 543.057 431.469C543.057 431.469 543.057 263.847 543.03 180.011Z" fill="#1B598E"/>
<path d="M528.494 315.871H507.837V336.532H487.176V315.871H466.521V295.216H487.176V274.559H507.837V295.216H528.494V315.871ZM453.117 315.871H432.462V336.532H411.805V315.871H391.148V295.216H411.805V274.559H432.462V295.216H453.117V315.871Z" fill="white"/>
<path d="M349.78 349.774C334.38 377.086 305.115 395.544 271.529 395.544C238.148 395.544 209.049 377.317 193.57 350.294C185.794 336.734 181.711 321.373 181.727 305.742C181.727 256.147 221.934 215.942 271.529 215.942C304.695 215.942 333.641 233.941 349.196 260.688L427.688 215.489C396.49 161.634 338.243 125.402 271.529 125.402C171.927 125.402 91.1875 206.144 91.1875 305.742C91.1875 338.417 99.88 369.058 115.072 395.488C146.192 449.628 204.604 486.083 271.529 486.083C338.576 486.083 397.08 449.481 428.155 395.182L349.78 349.774Z" fill="white"/>
</g>
<defs>
<clipPath id="clip0_1155_9513">
<rect width="543.946" height="612" fill="white"/>
</clipPath>
</defs>
</svg>
