<svg width="423" height="543" viewBox="0 0 423 543" fill="none" xmlns="http://www.w3.org/2000/svg">
<g clip-path="url(#clip0_1155_9528)">
<path d="M126.242 335.571C110.153 322.914 92.9857 310.785 81.2577 293.694C56.5689 263.554 37.565 228.667 24.5729 192C16.7179 168.154 14.0281 142.591 3.89578 119.671C-6.68867 103.019 5.71926 84.8284 23.9574 79.5378C32.0715 77.9734 46.3475 70.3131 29.1143 75.7951C13.6617 87.1255 12.1732 65.4978 28.0153 64.1281C38.8274 62.6941 42.8078 53.8473 39.1063 45.8834C27.4954 38.3089 67.2507 29.9984 47.2452 18.6995C26.4195 -3.77642 76.3879 -8.10328 64.0575 17.4271C61.1102 37.0564 98.9859 13.8214 90.1903 36.4937C99.1261 47.3834 123.643 38.9772 123.028 54.245C136.041 55.1394 140.508 66.082 152.712 66.9236C165.38 72.6432 188.323 77.1417 192.627 91.4077C180.069 101.347 150.997 70.8742 149.593 98.3914C153.392 139.049 152.423 180.93 167.293 219.646C174.326 243.085 191.386 261.536 206.784 279.796C221.526 297.674 241.488 310.269 261.84 320.865C279.687 329.281 298.929 334.858 318.385 338.367C326.273 332.334 340.202 309.901 352.503 319.353C353.097 329.995 328.086 341.583 351.329 340.406C364.99 336.284 374.454 350.958 385.697 337.718C396.057 349.989 428.751 329.885 421.383 354.963C411.412 361.396 396.877 357.509 386.897 366.359C370.441 358.136 357.338 373.708 339.113 371.744C318.881 375.368 298.29 376.827 277.78 376.856C244.122 374.201 209.755 373.081 177.737 361.361C159.695 356.12 142.096 345.846 126.242 335.571ZM154.666 347.895C172.277 355.503 189.5 363.531 208.804 365.958C239.429 370.211 271.055 376.771 301.787 370.793C287.879 364.514 273.494 373.232 259.639 366.305C243.021 369.876 225.186 365.387 208.284 363.174C189.076 354.62 168.339 348.738 150.35 337.621C127.861 329.411 161.973 348.154 168.047 349.677C182.097 357.648 152.593 345.585 148.426 342.273C136.657 335.669 135.158 337.05 147.264 343.751C149.702 345.177 152.109 346.677 154.666 347.895ZM121.15 324.21C138.221 330.533 121.074 312.209 113.262 313.269C109.796 307.257 100.022 303.458 106.917 300.232C94.5188 304.539 93.9247 283.862 88.0994 286.821C74.977 282.677 82.9937 268 67.3579 258.982C65.9322 249.483 51.8295 241.25 47.3409 226.93C45.3557 219.593 31.4031 198.541 39.971 218.134C47.265 236.996 60.0954 253.163 70.7788 269.296C79.0662 284.659 88.8651 300.729 103.961 310.312C109.055 315.199 113.965 322.677 121.15 324.21ZM71.9884 270.223C72.5792 267.644 75.1073 275.801 71.9884 270.223V270.223ZM141.599 331.784C136.16 329.649 145.375 330.091 141.599 331.784V331.784ZM150.857 335.164C146.627 337.774 149.898 330.5 150.857 335.164V335.164ZM162.458 339.999C153.943 336.682 167.971 334.74 162.458 339.999V339.999ZM182.335 351.077C171.597 349.212 185.69 346.124 182.335 351.077V351.077ZM144.169 324.47C133.086 324.393 152.733 318.922 144.169 324.47V324.47ZM152.865 328.807C149.768 330.122 152.616 325.881 152.865 328.807V328.807ZM196.34 355.945C203.332 360.359 237.163 365.613 215.981 357.757C212.428 358.503 176.701 347.646 196.34 355.945ZM127.323 302.186C116.465 298.938 126.643 299.253 127.323 302.186V302.186ZM147.555 313.993C136.624 311.155 152.831 310.313 147.555 313.993V313.993ZM164.582 324.427C152.326 321.568 172.146 321.579 164.582 324.427V324.427ZM119.079 293.219C127.28 299.508 152.166 294.027 131.639 289.464C122.305 284.489 101.263 281.081 115.607 292.465L119.079 293.219ZM176.12 328.03C161.788 324.705 179.539 322.213 176.12 328.03V328.03ZM158.788 314.259C178.838 319.926 141.923 301.569 153.837 312.166L156.483 313.364L158.788 314.259ZM193.538 334.342C176.379 331.721 212.529 334.523 193.538 334.342V334.342ZM111.775 282.232C107.092 282.525 111.029 278.694 111.775 282.232V282.232ZM225.661 352.362C219.466 357.121 226.168 345.976 225.661 352.362V352.362ZM144.19 302.077C138.256 301.937 143.035 298.711 144.19 302.077V302.077ZM113.575 280.01C98.641 275.208 124.477 279.354 113.575 280.01V280.01ZM77.3071 256.571C65.4486 247.174 75.9489 251.34 77.3071 256.571V256.571ZM172.516 316.992C170.519 314.713 171.575 317.487 172.516 316.992V316.992ZM231.767 353.357C228.541 354.671 231.585 349.87 231.767 353.357V353.357ZM167.272 311.574C157.971 310.213 168.341 307.085 167.272 311.574V311.574ZM123.125 283.593C110.121 278.111 131.241 282.728 123.125 283.593V283.593ZM197.801 329.995C185.477 327.555 210.446 324.987 197.801 329.995V329.995ZM158.963 303.633C173.529 305.508 141.622 293.715 155.758 302.574L158.963 303.633ZM209.591 334.763C223.201 326.639 218.712 353.809 232.676 337.061C246.444 327.005 220.783 349.493 237.747 338.854C250.026 330.641 268.154 342.748 279.605 346.687C287.836 346.288 295.844 353.809 304.292 349.232C320.543 344.85 272.504 342.738 285.095 334.977C270.227 339.307 259.243 329.82 251.926 320.292C235.242 316.439 215.959 307.915 207.629 293.143C204.23 287.608 212.53 293.932 204.695 284.867C194.649 275.931 189.632 265.776 182.886 254.911C174.825 250.615 173.876 237.958 173.065 254.492C173.132 244.056 163.333 237.031 160.936 239.945C160.894 229.897 171.427 234.937 164.055 227.502C162.471 217.088 157.247 206.234 155.681 194.472C153.245 188.807 155.334 176.668 147.352 189.496C144.448 203.061 146.391 172.836 150.913 182.796C156.847 172.631 148.774 173.828 148.451 175.232C152.316 166.654 150.902 154.48 147.438 159.121C149.499 150.023 150.697 125.648 144.363 129.975C148.203 120.458 151.647 86.4423 134.962 99.4162C128.208 99.5119 116.501 101.867 110.976 104.618C128.317 114.179 109.227 108.07 102.159 106.548C101.242 115.397 94.2498 111.577 85.5086 111.662C99.4727 113.389 78.7097 125.937 70.7161 121.062C60.3132 126.026 79.6834 138.435 70.9207 142.276C72.0016 148.05 54.9929 140.185 56.3213 153.543C46.2303 149.289 54.9401 169.384 59.9897 162.586C77.1585 167.237 72.0759 177.823 72.5066 187.889C69.7111 193.747 58.6943 174.11 70.056 175.017C61.0888 160.458 60.1416 169.75 52.6942 176.516C50.968 177.003 71.6864 186.14 58.6844 190.651C70.122 192.422 70.457 202.436 72.7888 208.771C79.6619 215.933 78.246 200.858 86.4822 209.472C81.2676 201.799 58.899 187.854 76.911 192.326C76.812 184.61 73.6502 178.382 79.1751 178.532C84.6472 168.638 73.4456 202.942 85.7693 190.361C89.177 188.873 90.0318 180.455 96.1607 191.16C105.062 199.922 99.377 206.264 86.8156 198.237C89.0599 205.866 103.616 208.584 100.875 220.51C103.776 230.999 107.836 227.134 111.374 226.53C114.146 236.717 115.726 229.228 115.854 224.372C128.554 227.095 125.576 234.603 129.556 239.848C138.307 243.795 117.029 213.075 132.051 230.61C147.857 244.886 137.985 250.841 123.797 248.556C132.774 247.83 135.663 260.696 146.9 260.243C157.139 265.119 164.078 283.831 146.424 276.038C140.306 270.513 118.625 263.705 136.335 274.205C152.672 281.779 165.664 286.301 181.429 295.81C192.706 303.859 197.581 313.082 201.855 314.909C192.371 319.439 173.283 311.293 187.46 308.802C178.612 307.193 168.664 302.716 177.133 313.732C184.341 319.754 202.654 319.115 205.946 319.795C203.162 325.926 198.383 326.413 206.053 326.886C197.495 331.451 208.804 332.164 209.591 334.763ZM192.089 285.331C186.878 279.882 185.53 269.685 191.162 278.552C194.055 279.718 200.411 295.227 192.089 285.331ZM249.099 321.545C249.195 324.013 252.347 321.33 249.099 321.545V321.545ZM183.869 271.972C183.661 263.738 185.744 278.326 183.869 271.972V271.972ZM178.203 264.353C171.643 251.696 186.457 267.936 178.203 264.353V264.353ZM109.529 216.961C111.428 223.54 113.382 215.933 109.529 216.961V216.961ZM164.186 246.58C166.549 237.699 166.96 254.028 164.186 246.58V246.58ZM125.576 219.731C122.858 214.834 131.264 224.331 125.576 219.731V219.731ZM158.704 230.351C152.499 216.453 163.106 222.753 160.085 232.628L158.704 230.351ZM101.567 192.247C98.7944 187.684 94.2069 174.303 95.6855 170.215C97.0122 176.872 109.833 198.853 101.965 179.323C93.2794 162.953 112.358 184.63 114.321 188.721C115.239 192.779 108.958 187.61 113.209 197.137C105.451 186.292 108.633 203.127 101.567 192.247ZM83.9128 180.077C84.6356 169.469 87.9493 187.349 83.9128 180.077V180.077ZM91.8553 182.816C95.6425 174.813 98.2746 193.975 91.8553 182.816V182.816ZM72.7442 168.035C66.1714 161.494 61.4122 155.474 73.0561 163.976C77.5348 164.149 63.0872 150.284 74.137 159.573C85.7462 161.69 79.8649 178.621 72.7442 168.035ZM82.7792 167.776C84.8089 171.499 86.601 163.989 82.7792 167.776V167.776ZM88.9625 169.75C83.167 158.905 95.9874 174.304 88.9625 169.75V169.75ZM76.6833 158.022C57.5738 141.002 100.692 166.912 79.8022 161.17L76.6833 158.022ZM131.446 189.831C123.17 184.877 129.244 154.924 132.073 175.405C140.112 172.803 131.627 185.991 137.617 185.861C136.68 194.178 133.993 197.171 131.446 189.831ZM151.7 201.809C152.509 192.779 153.405 207.984 151.7 201.809V201.809ZM148.184 198.323C148.269 202.866 149.09 194.472 148.184 198.323V198.323ZM80.426 152.431C68.1484 135.488 116.112 169.565 88.2942 156.726C85.3898 155.961 81.8847 155.69 80.426 152.431ZM119.435 173.108C118.272 158.842 122.026 175.468 119.435 173.108V173.108ZM149.045 192.107C149.22 197.483 151.332 183.983 149.045 192.107V192.107ZM82.3154 145.967C89.611 144.403 112.551 158.776 91.4873 150.068C89.1473 147.477 84.1505 148.655 82.3154 145.967ZM144.976 177.196C145.756 162.608 149.339 168.487 145.009 179.29L144.976 177.196ZM87.743 140.886C90.72 136.525 79.8418 121.171 89.3057 135.381C93.3983 138.629 101.143 140.82 94.3026 142.19C105.06 151.677 91.682 144.759 87.743 140.886ZM141.878 172.643C143.693 182.376 143.931 156.025 141.878 172.643V172.643ZM81.5266 125.541C82.7346 128.57 83.8039 124.567 81.5266 125.541V125.541ZM95.6525 133.947C99.2862 126.316 102.352 142.449 95.6525 133.947V133.947ZM135.48 156.099C135.447 153.175 136.234 160.362 135.48 156.099V156.099ZM133.17 150.997C127.645 137.356 138.319 158.215 133.17 150.997V150.997ZM129.78 142.049C128.856 136.416 132.932 149.129 129.78 142.049V142.049ZM135.305 133.072C131.508 126.391 140.099 103.613 141.06 117.739C137.055 128.745 139.905 134.897 142.687 120.135C147.847 108.524 141.576 143.066 135.305 133.072ZM140.982 99.2C141.35 101.647 142.636 97.1703 140.982 99.2V99.2ZM131.5 286.02C129.254 284.057 131.789 287.263 131.5 286.02V286.02ZM151.03 295.895C161.895 298.691 161.842 294.21 152.02 292.872C146.745 287.964 130.073 282.751 144.997 292.268C145.981 294.773 149.099 294.707 151.03 295.895ZM112.465 270.276C118.442 274.746 135.005 282.923 120.988 271.984C125.714 266.489 111.945 263.566 116.511 259.888C104.889 252.774 107.336 253.411 115.486 253.638C101.522 247.389 117.503 247.864 116.749 244.661C111.364 243.602 89.9972 235.163 102.568 245.351C89.7925 238.843 99.5238 247.778 95.6624 246.839C82.5927 243.278 107.296 256.79 93.5897 253.434C101.08 259.368 113.759 268.649 96.7515 259.713C94.5188 262.939 108.927 267.829 112.465 270.276ZM132.889 282.017C120.706 272.23 157.72 290.014 132.889 282.017V282.017ZM237.453 345.359C234.064 349.567 237.777 340.428 237.453 345.359V345.359ZM248.201 349.88C253.931 344.336 248.439 358.729 257.697 348.522C257.792 341.215 257.416 336.901 247.058 345.78C244.196 347.367 242.926 354.087 248.201 349.88ZM77.5991 242.742C65.2638 235.854 75.8384 235.824 77.5991 242.742V242.742ZM89.0681 250.26C73.8631 243.863 84.8056 243.194 89.0681 250.26V250.26ZM154.364 289.636C160.743 295.303 183.64 293.791 162.103 290.339C158.918 285.623 141.858 286.756 154.364 289.636ZM244.11 345.072C234.605 348.74 253.919 336.837 244.11 345.072V345.072ZM264.517 359.087C260.287 360.242 264.58 356.443 264.517 359.087V359.087ZM264.55 355.385C254.028 356.065 275.415 343.883 264.55 355.385V355.385ZM49.369 219.108C40.1113 205.899 43.618 199.964 34.6838 189.173C32.9873 180.919 19.3616 162.207 27.6374 182.029C35.2118 193.63 37.4545 211.584 49.369 219.108ZM261.139 351.727C252.939 346.105 281.136 338.809 261.139 351.727V351.727ZM276.398 357.704C270.063 355.912 286.412 349.113 276.398 357.704V357.704ZM74.1981 228.138C66.7969 227.588 77.0595 223.875 74.1981 228.138V228.138ZM273.214 353.625C282.904 347.379 270.981 348.337 271.456 354.196L273.214 353.625ZM141.695 270.73C136.571 271.086 141.362 266.5 141.695 270.73V270.73ZM149.821 275.403C145.85 276.223 147.231 270.18 149.821 275.403V275.403ZM288.763 357.846C301.183 348.887 281.243 356.128 286.163 359.551L288.763 357.846ZM284.006 355.547C273.332 359.301 294.127 347.075 284.006 355.547V355.547ZM308.304 371.721C300.051 370.254 315.094 367.178 308.304 371.721V371.721ZM80.426 225.063C89.5219 227.101 116.8 247.475 100.712 226.478C92.4692 224.039 97.4116 203.891 89.0054 207.452C94.6491 216.883 93.6425 220.885 81.794 214.952C66.9157 207.678 73.4324 218.547 76.3483 221.547C72.3746 222.453 81.591 224.989 80.4243 225.062L80.426 225.063ZM38.9562 192.315C40.5849 185.569 23.9458 155.236 31.1012 177.11C33.6788 181.696 33.4114 190.381 38.9562 192.315ZM115.074 239.242C110.381 235.326 114.848 238.681 115.074 239.242V239.242ZM126.609 241.932C113.856 239.027 126.609 234.786 126.609 241.932V241.932ZM226.641 304.981C219.1 304.872 224.732 300.102 226.641 304.981V304.981ZM231.443 308.486C228.668 309.016 230.729 305.757 231.443 308.486V308.486ZM271.088 333.467C266.329 333.103 274.898 330.652 271.088 333.467V333.467ZM59.6646 197.602C47.9762 194.59 70.5725 193.381 59.6646 197.602V197.602ZM217.834 297.242C210.875 299.003 217.707 290.186 217.834 297.242V297.242ZM55.3576 187.554C48.8723 186.003 62.3611 185.194 55.3576 187.554V187.554ZM75.6882 197.406C73.5413 198.292 75.5677 195.087 75.6882 197.406V197.406ZM323.715 349.502C332.725 347.679 353.26 354.09 356.572 347.12C345.631 346.849 318.73 339.392 317.456 348.887L319.852 349.266L323.717 349.502H323.715ZM82.1504 199.036C76.5727 198.767 82.3154 191.881 82.1504 199.036V199.036ZM28.6968 161.948C19.4589 159.885 26.2693 148.317 28.6968 161.948V161.948ZM41.4397 165.152C29.7727 161.213 41.6031 160.771 41.4397 165.152V165.152ZM48.7238 168.735C46.6197 167.029 47.0834 170.88 48.7238 168.735V168.735ZM94.5732 198.14C89.4592 196.673 96.7333 196.153 94.5732 198.14V198.14ZM43.8787 160.664C29.1061 159.121 42.6394 150.37 43.8787 160.664V160.664ZM17.7311 143.7C15.1832 145.49 17.3631 138.952 17.7311 143.7V143.7ZM21.6256 140.767C18.2807 141.477 20.9903 135.132 21.6256 140.767V140.767ZM43.1031 153.584C52.1892 150.023 26.5581 146.203 41.2467 152.916L43.1031 153.584ZM330.613 331.18C323.231 329.53 336.428 325.85 330.613 331.18V331.18ZM365.348 349.179C359.477 350.087 367.68 342.296 365.348 349.179V349.179ZM45.2979 142.33C38.0914 143.657 46.26 135.663 45.2979 142.33V142.33ZM14.7311 121.851C13.0908 112.441 13.3168 95.9194 29.0186 101.499C8.06091 105.664 43.5322 127.556 39.0535 110.27C47.8689 110.704 56.2982 105.06 51.6677 113.615C69.0412 111.705 81.0745 96.6422 97.8522 98.7578C110.919 97.0218 125.206 95.7148 139.289 90.449C150.867 89.6173 162.012 77.1532 155.671 69.7619C139.883 68.4253 123.35 70.3989 105.902 73.8743C86.5664 77.8876 68.9999 85.5264 49.4878 88.8087C30.4625 91.3665 53.308 95.8435 47.8574 96.8468C37.9396 100.289 59.696 102.609 46.5735 106.245C38.471 104.704 30.0318 101.92 33.4956 93.3732C15.2806 95.7462 -0.733063 103.299 13.6634 121.838L14.7327 121.848L14.7311 121.851ZM58.6399 99.4905C62.9024 83.759 81.5151 112.441 65.6318 101.585C63.7423 100.159 60.6119 99.0037 58.6399 99.4905ZM59.4683 91.8599C62.739 94.4408 65.6318 87.2756 59.4683 91.8599V91.8599ZM67.2919 91.9919C67.8563 84.7508 85.2182 95.8221 70.1534 94.5927L67.2919 91.9919ZM77.9968 87.6865C79.1322 91.7427 81.9144 83.1088 77.9968 87.6865V87.6865ZM80.7395 85.8531C87.2562 78.0295 117.61 80.8547 95.3917 85.0841C89.4345 80.5956 84.8716 87.7278 80.7395 85.8531ZM120.361 79.7441C119.381 58.3656 140.055 87.3301 120.361 79.7441V79.7441ZM131.607 79.678C135.716 68.9104 147.565 75.3529 133.517 77.5097C133.817 78.6648 133.096 83.0791 131.607 79.678ZM40.8671 136.805C27.8304 130.278 53.1447 129.283 40.8671 136.805V136.805ZM49.9515 139.32C40.5849 137.464 54.2586 134.746 49.9515 139.32V139.32ZM23.1917 120.339C14.8829 118.29 30.2051 114.943 23.1917 120.339V120.339ZM385.849 347.215C380.485 350.03 386.053 340.956 385.849 347.215V347.215ZM348.998 322.061C344.262 322.688 350.044 314.866 348.998 322.061V322.061ZM395.981 349.644C405.791 349.677 425.708 346.588 404.364 346.6C401.009 347.12 384.845 347.012 395.981 349.644ZM57.9385 134.904C65.881 134.364 70.358 126.151 56.3939 126.617C34.7597 124.384 75.4819 134.031 53.6216 131.269C50.6875 133.211 57.7636 135.444 57.9385 134.904ZM64.9305 138.445C62.4684 141.152 64.0988 133.351 64.9305 138.445V138.445ZM73.2277 116.323C68.4586 115.179 76.6701 112.049 73.2277 116.323V116.323ZM46.8112 72.1795C60.9914 67.3675 80.3715 61.9498 87.0631 74.5558C80.2527 66.3658 84.3122 58.293 90.7431 70.2817C99.839 82.4009 104.39 64.7684 98.4776 60.699C105.224 69.0721 112.884 73.0343 102.988 61.2303C113.747 48.291 81.4606 62.9235 74.1238 62.7716C70.5956 64.3558 37.6706 71.1663 46.8112 72.1795ZM55.12 56.2764C63.2044 50.1805 83.0795 59.9118 70.325 50.2102C69.0742 49.1112 42.4001 57.5702 55.12 56.2764ZM84.5911 57.4943C94.0435 57.7319 80.5134 44.7827 91.7778 50.6525C89.9328 44.6111 78.6569 43.4774 73.1436 41.0615C70.0247 46.5864 79.4853 57.5702 84.5911 57.4943ZM60.2884 30.7427C54.549 32.9985 63.5592 26.3086 60.2884 30.7427V30.7427ZM72.335 33.6223C87.5796 31.6058 68.4471 27.0627 69.2557 33.4622L72.335 33.6223ZM49.8426 16.0344C39.1047 2.01747 70.0329 18.3876 59.1217 3.71058C49.94 -3.59325 41.1245 11.9451 49.8426 16.0344ZM187.586 90.2229C192.51 81.5015 167.268 78.4602 184.274 87.1337C185.838 87.6535 185.485 90.8252 187.586 90.2229ZM87.639 415.019C86.5499 419.32 85.875 426.536 85.6225 436.665C85.6225 438.655 84.7264 439.652 82.9293 439.652C81.1322 439.652 79.8814 438.782 79.1734 437.051C77.2493 432.368 75.4275 429.102 73.6881 427.237C71.6386 425.059 68.9124 423.742 65.5114 423.293C61.8561 422.716 52.7503 422.427 38.1921 422.427C34.8587 422.427 32.6755 422.782 31.6523 423.49C31.0104 423.935 30.6903 424.899 30.6903 426.376V469.956C30.6903 471.432 31.6193 472.135 33.4758 472.073C39.1872 472.007 47.4597 471.618 58.295 470.918C60.4138 470.658 61.8429 469.969 62.5789 468.846C63.3215 467.724 64.0427 464.826 64.744 460.141C65.1896 457.575 66.7011 456.58 69.2656 457.161C71.4439 457.609 72.3812 458.604 72.0594 460.141C70.2607 468.867 69.6798 480.219 70.3217 494.201C70.3894 495.865 69.3316 496.766 67.1484 496.894C65.3496 497.087 64.2275 496.124 63.7819 494.006C62.1185 485.991 59.0178 481.707 54.5011 481.16C49.9796 480.618 42.6147 480.344 32.4213 480.344C31.2662 480.344 30.6903 480.759 30.6903 481.594V524.887C30.6903 528.095 31.8735 530.278 34.2448 531.428C36.1095 532.39 40.1163 533.258 46.2699 534.027C49.4168 534.347 50.7915 535.73 50.4119 538.163C50.0241 540.28 47.2056 541.115 41.9414 540.666C26.7429 539.445 14.2013 539.511 4.32813 540.863C1.56733 541.242 0.192705 540.12 0.192705 537.494C0.192705 535.823 1.56733 534.862 4.32813 534.607C10.6138 533.899 13.7541 528.382 13.7541 518.06V435.701C13.7541 431.473 12.9983 428.219 11.495 425.94C9.98506 423.663 7.17805 421.592 3.07892 419.734C0.511196 418.579 -0.449227 417.009 0.191055 415.019C0.511196 413.803 1.02606 413.126 1.7274 413.001C2.36933 412.806 4.07235 412.935 6.8249 413.387C10.8679 414.027 20.3946 414.349 35.4 414.349C53.1051 414.349 68.3976 413.961 81.2923 413.194C85.5878 412.933 87.7397 413.288 87.7397 414.25C87.7397 414.511 87.7067 414.763 87.639 415.019ZM150.029 537.146C150.029 539.712 148.585 540.834 145.7 540.513C136.855 539.678 125.884 539.803 112.801 540.894C110.169 541.155 108.554 541.087 107.94 540.707C107.329 540.32 107.029 539.263 107.029 537.526C107.029 535.991 108.773 534.694 112.268 533.631C115.769 532.577 117.511 529.417 117.511 524.159V437.091C117.511 431.892 116.757 428.077 115.254 425.638C113.744 423.201 111.098 421.31 107.316 419.966C105.326 419.257 104.329 418.263 104.329 416.98C104.329 415.055 105.773 413.613 108.659 412.651C113.023 411.24 117.546 409.063 122.229 406.11C126.077 403.799 128.516 402.649 129.538 402.649C131.909 402.649 133.101 404.28 133.101 407.552C133.101 407.299 132.972 410.506 132.711 417.173C132.525 423.521 132.459 429.774 132.525 435.936L132.904 521.846C132.904 525.76 133.868 528.6 135.792 530.364C137.716 532.126 141.023 533.296 145.7 533.872C148.585 534.191 150.029 535.282 150.029 537.145V537.146ZM237.043 531.473C237.043 532.823 234.59 534.856 229.686 537.579C224.777 540.306 220.847 541.669 217.9 541.669C215.395 541.669 213.185 540.453 211.261 538.014C209.337 535.577 207.986 534.361 207.218 534.361C206.642 534.361 203.596 535.676 198.076 538.301C192.566 540.933 187.015 542.25 181.435 542.25C176.178 542.25 171.782 540.707 168.255 537.635C164.407 534.232 162.483 529.615 162.483 523.776C162.483 512.68 175.183 504.729 200.583 499.919C204.939 499.084 207.157 497.32 207.217 494.627L207.413 488.468C207.799 477.952 203.149 472.694 193.462 472.694C190.703 472.694 188.091 475.159 185.617 480.097C183.153 485.041 179.605 487.699 174.988 488.087C169.73 488.595 167.098 486.384 167.098 481.447C167.098 478.366 171.013 474.78 178.836 470.671C187.048 466.375 194.939 464.223 202.507 464.223C215.524 464.223 221.969 470.417 221.842 482.795L221.455 522.428C221.395 526.598 223.159 528.681 226.747 528.681C227.455 528.681 228.803 528.522 230.788 528.2C232.78 527.88 233.935 527.719 234.257 527.719C236.113 527.719 237.043 528.974 237.043 531.473ZM207.413 509.542C207.479 507.936 207.104 506.873 206.302 506.367C205.5 505.853 204.24 505.751 202.507 506.073C187.048 508.832 179.318 513.868 179.318 521.179C179.318 528.555 183.326 532.242 191.343 532.242C194.551 532.242 197.858 531.635 201.251 530.418C205.233 529.002 207.218 527.306 207.218 525.314L207.413 509.542ZM308.569 520.405C308.569 527.204 305.949 532.612 300.726 536.618C295.5 540.628 288.366 542.632 279.319 542.632C273.293 542.632 267.26 541.991 261.233 540.707C256.035 539.552 253.022 538.496 252.188 537.534C251.673 536.631 251.419 532.243 251.419 524.352C251.419 520.953 252.188 519.187 253.729 519.062C255.267 518.867 256.584 519.704 257.673 521.56C262.482 529.965 270.245 534.168 280.956 534.168C289.994 534.168 294.518 531.021 294.518 524.733C294.518 521.981 293.495 519.669 291.438 517.811C289.192 515.694 284.838 513.223 278.357 510.401C268.991 506.235 262.736 502.579 259.596 499.432C256.195 496.099 254.497 491.61 254.497 485.963C254.497 479.034 257.159 473.651 262.482 469.803C267.42 466.08 274.027 464.223 282.298 464.223C287.496 464.223 292.24 464.636 296.543 465.473C301.16 466.308 303.564 467.331 303.757 468.552C304.266 472.139 305.328 477.338 306.932 484.14C307.125 484.968 306.223 485.643 304.239 486.156C302.12 486.605 300.711 486.25 300.003 485.1C294.939 476.823 288.526 472.687 280.762 472.687C271.976 472.687 267.581 475.509 267.581 481.153C267.581 484.298 268.769 486.797 271.141 488.655C273.26 490.259 278.228 492.764 286.054 496.165C294.264 499.691 299.843 502.866 302.797 505.687C306.645 509.34 308.569 514.251 308.569 520.405ZM421.752 537.242C421.752 539.486 420.242 540.674 417.229 540.802C412.739 540.867 406.866 541.188 399.625 541.764C396.03 542.471 393.464 542.024 391.928 540.42C381.792 529.517 373.195 518.1 366.138 506.167C365.564 505.144 364.828 504.63 363.927 504.63C362.838 504.63 360.949 505.593 358.255 507.518C355.236 509.182 353.732 511.558 353.732 514.631C353.732 516.816 353.792 519.956 353.925 524.067C354.054 528.167 355.076 530.859 357 532.143C358.348 533.045 361.463 533.747 366.332 534.262C369.347 534.648 370.856 535.77 370.856 537.628C370.856 539.105 370.616 540.021 370.134 540.367C369.655 540.721 368.384 540.802 366.332 540.608C359.919 540.034 349.082 540.354 333.817 541.57C329.969 541.891 327.883 541.409 327.563 540.127C327.436 539.681 327.368 539.037 327.368 538.202C327.368 536.219 329.327 534.707 333.243 533.687C336.77 532.783 338.532 528.648 338.532 521.273V437.186C338.532 431.929 338.021 428.274 336.989 426.222C335.58 423.59 332.626 421.537 328.137 420.062C326.025 419.361 324.964 418.366 324.964 417.082C324.964 415.217 326.474 413.775 329.486 412.753C334.334 411.132 338.956 408.9 343.242 406.113C346.772 403.808 348.955 402.651 349.783 402.651C352.417 402.651 353.732 404.314 353.732 407.656C353.732 407.202 353.699 410.382 353.632 417.178C353.562 423.464 353.532 429.75 353.539 436.036L353.732 496.259C353.732 497.929 354.179 498.757 355.076 498.757C356.038 498.757 357.515 497.929 359.505 496.259C364.828 492.089 371.37 486.638 379.127 479.904C380.67 478.301 381.438 477.018 381.438 476.055C381.438 474.326 378.84 473.102 373.649 472.402C371.404 472.139 370.342 470.892 370.467 468.646C370.662 466.402 371.786 465.44 373.835 465.76C378.459 466.403 385.194 466.757 394.039 466.823C400.199 466.882 406.324 466.917 412.419 466.917C414.402 466.983 415.399 468.166 415.399 470.478C415.399 472.656 413.828 473.844 410.688 474.039C405.744 474.225 401.093 475.347 396.738 477.405C390.644 480.158 384.131 485.001 377.203 491.93C376.695 492.317 376.434 492.797 376.434 493.373C376.434 494.269 377.523 496.421 379.708 499.82C387.725 512.007 395.294 521.207 402.41 527.431C406.966 531.342 411.229 533.298 415.204 533.298C418.158 533.298 419.987 533.506 420.688 533.925C421.397 534.343 421.752 535.45 421.752 537.242Z" fill="white"/>
</g>
<defs>
<clipPath id="clip0_1155_9528">
<rect width="422.454" height="543" fill="white"/>
</clipPath>
</defs>
</svg>
