<svg width="570" height="570" viewBox="0 0 570 570" fill="none" xmlns="http://www.w3.org/2000/svg">
<g clip-path="url(#clip0_1155_9520)">
<path d="M0 0H569.192V569.192H0V0Z" fill="#F7DF1E"/>
<path d="M149.662 475.658L193.218 449.298C201.623 464.197 209.267 476.803 227.603 476.803C245.179 476.803 256.263 469.929 256.263 443.185V261.315H309.752V443.941C309.752 499.342 277.277 524.56 229.896 524.56C187.106 524.56 162.269 502.399 149.66 475.654M338.805 469.926L382.357 444.711C393.823 463.434 408.724 477.188 435.085 477.188C457.25 477.188 471.382 466.107 471.382 450.823C471.382 432.484 456.863 425.987 432.41 415.293L419.041 409.556C380.449 393.132 354.851 372.499 354.851 328.942C354.851 288.823 385.416 258.256 433.177 258.256C467.182 258.256 491.635 270.102 509.209 301.05L467.56 327.797C458.389 311.369 448.459 304.874 433.175 304.874C417.509 304.874 407.575 314.808 407.575 327.797C407.575 343.844 417.509 350.343 440.432 360.277L453.804 366.007C499.273 385.495 524.871 405.361 524.871 450.06C524.871 498.206 487.046 524.567 436.23 524.567C386.561 524.567 354.467 500.878 338.803 469.929" fill="black"/>
</g>
<defs>
<clipPath id="clip0_1155_9520">
<rect width="569.192" height="569.192" fill="white"/>
</clipPath>
</defs>
</svg>
