<svg width="464" height="462" viewBox="0 0 464 462" fill="none" xmlns="http://www.w3.org/2000/svg">
<g clip-path="url(#clip0_1155_9509)">
<path d="M229.942 0.128906C112.482 0.128906 119.816 51.0667 119.816 51.0667L119.947 103.84H232.037V119.684H75.426C75.426 119.684 0.263184 111.159 0.263184 229.676C0.263184 348.196 65.8672 343.993 65.8672 343.993H105.019V288.995C105.019 288.995 102.909 223.391 169.576 223.391H280.75C280.75 223.391 343.21 224.4 343.21 163.025V61.5441C343.21 61.5441 352.697 0.128906 229.942 0.128906ZM168.136 35.6178C170.785 35.6154 173.408 36.1353 175.855 37.1479C178.303 38.1604 180.527 39.6457 182.4 41.5186C184.273 43.3916 185.758 45.6155 186.771 48.0631C187.783 50.5107 188.303 53.1339 188.301 55.7827C188.303 58.4315 187.783 61.0547 186.771 63.5023C185.758 65.9499 184.273 68.1738 182.4 70.0468C180.527 71.9198 178.303 73.405 175.855 74.4175C173.408 75.4301 170.785 75.95 168.136 75.9476C165.487 75.95 162.864 75.4301 160.416 74.4175C157.969 73.405 155.745 71.9198 153.872 70.0468C151.999 68.1738 150.514 65.9499 149.501 63.5023C148.488 61.0547 147.969 58.4315 147.971 55.7827C147.969 53.1339 148.488 50.5107 149.501 48.0631C150.514 45.6155 151.999 43.3916 153.872 41.5186C155.745 39.6457 157.969 38.1604 160.416 37.1479C162.864 36.1353 165.487 35.6154 168.136 35.6178Z" fill="url(#paint0_linear_1155_9509)"/>
<path d="M233.278 460.416C350.738 460.416 343.404 409.478 343.404 409.478L343.274 356.707H231.182V340.863H387.793C387.793 340.863 462.955 349.387 462.955 230.867C462.955 112.348 397.351 116.552 397.351 116.552H358.199V171.548C358.199 171.548 360.31 237.152 293.642 237.152H182.469C182.469 237.152 120.008 236.143 120.008 297.52V399.002C120.008 399.002 110.524 460.416 233.276 460.416H233.278ZM295.085 424.93C292.436 424.933 289.813 424.413 287.365 423.4C284.917 422.388 282.693 420.902 280.82 419.029C278.948 417.157 277.462 414.933 276.45 412.485C275.437 410.037 274.917 407.414 274.92 404.765C274.917 402.116 275.437 399.493 276.449 397.045C277.462 394.597 278.947 392.373 280.82 390.5C282.693 388.627 284.917 387.142 287.365 386.129C289.812 385.116 292.436 384.596 295.085 384.599C297.733 384.596 300.357 385.116 302.804 386.129C305.252 387.141 307.476 388.627 309.349 390.499C311.222 392.372 312.707 394.596 313.719 397.044C314.732 399.492 315.252 402.115 315.249 404.764C315.252 407.412 314.732 410.036 313.719 412.483C312.707 414.931 311.222 417.155 309.349 419.028C307.476 420.901 305.252 422.386 302.804 423.398C300.357 424.411 297.733 424.933 295.085 424.93Z" fill="url(#paint1_linear_1155_9509)"/>
</g>
<defs>
<linearGradient id="paint0_linear_1155_9509" x1="4446.72" y1="4140.13" x2="27376.3" y2="26841" gradientUnits="userSpaceOnUse">
<stop stop-color="#387EB8"/>
<stop offset="1" stop-color="#366994"/>
</linearGradient>
<linearGradient id="paint1_linear_1155_9509" x1="6682.98" y1="7193.29" x2="31306.8" y2="30470.9" gradientUnits="userSpaceOnUse">
<stop stop-color="#FFE052"/>
<stop offset="1" stop-color="#FFC331"/>
</linearGradient>
<clipPath id="clip0_1155_9509">
<rect width="463.855" height="462" fill="white"/>
</clipPath>
</defs>
</svg>
