<svg width="542" height="542" viewBox="0 0 542 542" fill="none" xmlns="http://www.w3.org/2000/svg">
<path d="M271.003 240.516C292.752 240.516 310.383 222.885 310.383 201.136C310.383 179.387 292.752 161.756 271.003 161.756C249.254 161.756 231.623 179.387 231.623 201.136C231.623 222.885 249.254 240.516 271.003 240.516Z" fill="#61DAFB"/>
<path d="M271.003 345.952C301.914 376.017 332.402 393.801 356.962 393.801C365.007 393.801 372.629 392.107 378.981 388.296C401 375.593 409.045 343.835 401.423 298.527C400.153 290.481 398.459 282.436 396.342 273.967C404.811 271.427 412.433 268.886 420.055 266.345C462.822 249.831 486.535 226.965 486.535 201.982C486.535 176.576 462.822 153.71 420.055 137.619C412.433 134.655 404.811 132.114 396.342 129.997C398.459 121.528 400.153 113.483 401.423 105.437C408.622 59.2822 400.576 27.1006 378.557 14.3973C372.206 10.5863 364.584 8.89258 356.538 8.89258C332.402 8.89258 301.491 26.6771 270.58 56.7415C240.092 26.6771 209.604 8.89258 185.044 8.89258C176.999 8.89258 169.377 10.5863 163.025 14.3973C141.006 27.1006 132.961 58.8587 140.583 104.167C141.853 112.212 143.547 120.258 145.664 128.727C137.195 131.267 129.574 133.808 121.952 136.349C79.1839 152.863 55.4712 175.729 55.4712 200.712C55.4712 226.118 79.1839 248.984 121.952 265.075C129.574 268.039 137.195 270.58 145.664 272.697C143.547 281.166 141.853 289.211 140.583 297.256C133.384 342.565 141.43 374.746 163.025 387.026C169.377 390.837 176.999 392.531 185.044 392.531C209.604 393.378 240.092 375.593 271.003 345.952ZM247.29 288.788C254.912 289.211 262.958 289.211 271.003 289.211C279.049 289.211 287.094 289.211 294.716 288.788C287.094 298.95 279.049 308.266 271.003 317.158C262.958 308.266 254.912 298.95 247.29 288.788ZM194.784 245.173C199.018 252.372 202.829 259.147 207.487 265.922C194.36 264.228 182.08 262.111 170.224 259.57C174.035 248.137 178.269 236.281 183.351 224.424C186.738 231.2 190.549 238.398 194.784 245.173ZM170.224 143.124C182.08 140.583 194.36 138.466 207.487 136.772C203.252 143.547 199.018 150.322 194.784 157.521C190.549 164.719 186.738 171.494 183.351 178.693C177.846 166.413 173.611 154.557 170.224 143.124ZM193.513 201.135C199.018 189.702 204.946 178.269 211.721 166.836C218.073 155.827 225.271 144.817 232.47 133.808C245.173 132.961 257.876 132.538 271.003 132.538C284.553 132.538 297.257 132.961 309.536 133.808C317.158 144.817 323.933 155.827 330.285 166.836C337.06 178.269 342.988 189.702 348.493 201.135C342.988 212.568 337.06 224.001 330.285 235.434C323.933 246.443 316.735 257.453 309.536 268.462C296.833 269.309 284.13 269.733 271.003 269.733C257.453 269.733 244.75 269.309 232.47 268.462C224.848 257.453 218.073 246.443 211.721 235.434C204.946 224.001 199.018 212.568 193.513 201.135ZM359.079 178.269L347.646 157.097C343.412 149.899 339.601 143.124 334.943 136.349C348.07 138.042 360.349 140.16 372.206 142.7C368.395 154.557 364.16 166.413 359.079 178.269ZM359.079 224.001C364.16 235.857 368.395 247.714 372.206 259.147C360.349 261.687 348.07 263.805 334.943 265.498C339.177 258.723 343.412 251.948 347.646 244.75C351.457 238.398 355.268 231.2 359.079 224.001ZM368.818 370.935C365.431 373.053 361.196 373.899 356.538 373.899C335.79 373.899 309.96 356.962 284.553 331.555C296.833 318.429 308.689 303.608 320.546 287.094C340.448 285.4 359.502 282.436 377.287 278.202C379.404 285.824 380.675 293.445 381.945 301.067C387.873 337.06 383.215 362.89 368.818 370.935ZM390.837 147.782C438.263 161.332 466.633 182.08 466.633 201.135C466.633 217.649 447.155 234.164 412.856 247.29C406.081 249.831 398.459 252.372 390.837 254.489C385.332 237.128 378.557 219.343 370.089 201.135C378.557 182.927 385.756 165.143 390.837 147.782ZM356.962 28.3709C361.62 28.3709 365.431 29.2178 369.242 31.335C383.215 39.3804 388.297 64.7869 382.368 101.203C381.098 108.401 379.404 116.023 377.71 124.069C359.926 120.258 340.871 117.294 320.969 115.176C309.536 98.6622 297.257 83.8418 284.977 70.7151C310.383 45.732 336.213 28.3709 356.962 28.3709ZM294.716 113.483C287.094 113.059 279.049 113.059 271.003 113.059C262.958 113.059 254.912 113.059 247.29 113.483C254.912 103.32 262.958 94.0044 271.003 85.1121C279.049 94.0044 287.094 103.744 294.716 113.483ZM173.188 31.335C176.576 29.2178 180.81 28.3709 185.468 28.3709C206.216 28.3709 232.046 45.3086 257.453 70.7151C245.173 83.8418 233.317 98.6622 221.46 115.176C201.559 116.87 182.504 119.834 164.719 124.069C162.602 116.447 161.332 108.825 160.061 101.203C154.133 65.2103 158.791 39.8038 173.188 31.335ZM151.169 254.489C103.744 240.939 75.373 220.19 75.373 201.135C75.373 184.621 94.8513 168.107 129.15 154.98C135.925 152.439 143.547 149.899 151.169 147.782C156.674 165.143 163.449 182.927 171.918 201.135C163.449 219.343 156.25 237.551 151.169 254.489ZM160.061 301.067C161.332 293.869 163.025 286.247 164.719 278.202C182.504 282.013 201.559 284.977 221.46 287.094C232.893 303.608 245.173 318.429 257.453 331.555C232.046 356.538 206.216 373.899 185.468 373.899C180.81 373.899 176.999 373.053 173.188 370.935C158.791 362.89 154.133 337.06 160.061 301.067ZM142.277 475.526C151.592 464.093 152.016 451.389 146.935 438.686C141.853 425.983 131.267 420.055 118.141 419.631C102.473 419.208 86.3825 419.631 70.7151 419.631H67.751V529.303H80.4543V487.805H100.356C102.897 487.805 105.014 488.652 106.284 490.769L131.691 530.149C132.114 530.996 133.384 532.267 134.231 532.267H150.746C140.583 516.599 130.844 501.779 120.681 486.535C129.574 485.265 137.195 482.301 142.277 475.526ZM80.4543 474.679V432.758H85.1121C94.8513 432.758 105.014 432.334 114.753 433.181C126.186 433.605 134.231 442.497 134.231 453.93C134.231 465.363 124.916 474.255 113.483 474.679C103.32 475.102 93.1575 474.679 80.4543 474.679ZM244.326 480.183C237.551 450.542 210.451 442.92 189.702 452.236C173.611 459.435 166.413 473.408 165.99 490.769C165.566 503.896 169.377 515.752 179.54 524.645C190.973 534.807 204.946 536.078 219.343 533.537C227.389 531.843 234.587 528.032 240.092 522.104C237.975 519.14 235.857 516.176 233.74 513.635C221.884 523.798 208.757 527.185 194.36 520.41C185.044 515.752 180.387 504.32 179.54 495.851H245.173V490.346C245.597 486.535 245.173 483.147 244.326 480.183ZM180.387 486.958C179.116 474.255 191.819 460.705 205.793 460.705C221.884 460.282 232.046 470.021 232.47 486.958H180.387ZM310.383 450.119C304.032 448.849 297.257 448.425 290.905 448.849C280.742 449.696 271.85 454.353 264.651 461.975C266.769 464.939 268.462 467.904 271.003 471.291C271.85 470.444 272.697 469.597 273.544 469.174C280.319 462.822 288.364 459.435 298.103 460.282C305.725 460.705 312.924 463.246 315.041 470.868C316.735 476.796 316.311 483.147 316.735 489.499C315.465 489.499 315.041 489.076 314.618 488.652C304.455 480.183 293.022 478.49 280.742 481.454C269.309 484.418 262.111 493.31 261.264 504.743C260.417 517.87 266.345 527.609 277.778 532.267C284.977 535.231 293.022 535.231 300.644 533.537C306.572 532.267 309.113 528.879 317.582 524.221V529.726H329.438C329.438 512.788 329.862 492.04 329.438 472.561C329.438 460.282 322.24 452.66 310.383 450.119ZM316.311 503.473C315.888 504.743 316.311 506.013 316.311 507.284C316.311 516.176 314.194 519.14 305.725 522.528C299.797 524.645 293.446 525.492 287.094 523.374C279.895 521.257 274.814 514.906 274.814 507.707C274.391 500.509 279.049 493.31 286.247 491.193C295.986 487.805 304.878 489.923 312.924 495.851C315.465 497.968 317.158 500.085 316.311 503.473ZM382.368 461.552C393.378 458.164 403.54 460.282 411.162 469.597L412.433 470.444C415.397 467.904 417.937 465.363 421.325 462.399C420.055 461.128 419.631 460.282 418.784 459.011C406.505 445.885 382.368 444.191 367.548 454.777C346.799 470.021 347.223 499.662 357.385 515.329C367.124 530.149 381.098 535.231 397.612 533.114C407.351 531.843 415.397 527.185 421.748 519.14C418.784 516.599 415.82 514.059 412.856 511.095C412.009 511.941 411.586 512.365 411.162 513.212C399.729 525.915 380.675 524.645 370.512 511.095C364.584 503.049 363.313 493.733 365.007 484.418C365.854 473.832 371.359 465.363 382.368 461.552ZM470.444 519.14C469.597 519.563 469.174 519.987 469.174 519.987C465.786 522.528 462.399 522.951 458.588 521.681C454.777 519.987 454.353 516.599 453.93 513.212V464.939C453.93 464.093 453.93 465.786 454.353 461.552H470.444V448.849H453.507V427.677H440.803V450.542H429.794C428.947 450.542 427.677 451.389 427.677 452.236C427.253 455.2 427.677 457.318 427.677 461.552H441.227V515.752C441.227 522.528 442.921 528.456 448.849 531.843C455.2 535.654 467.48 534.807 472.985 530.149C473.832 529.726 474.255 528.032 474.255 527.609C472.985 525.068 471.715 522.104 470.444 519.14Z" fill="#61DAFB"/>
</svg>
