<svg width="443" height="462" viewBox="0 0 443 462" fill="none" xmlns="http://www.w3.org/2000/svg">
<g clip-path="url(#clip0_1155_9507)">
<path d="M293.87 231.019L374.72 91.476L413.798 231.096L374.72 370.659L293.87 231.096V231.019ZM254.466 253.677L335.335 393.316L194.502 357.203L92.7657 253.677H254.466ZM335.316 68.7225L254.466 208.343H92.7657L194.502 104.816L335.296 68.7225H335.316ZM450.816 183.51L401.42 0L217.313 49.1838L190.055 97.097L134.75 96.6927L0 231.019L134.75 365.327L190.017 364.903L217.313 412.816L401.42 461.981L450.7 278.509L422.73 231L450.816 183.51Z" fill="white"/>
</g>
<defs>
<clipPath id="clip0_1155_9507">
<rect width="442.75" height="462" fill="white"/>
</clipPath>
</defs>
</svg>
