<svg width="201" height="61" viewBox="0 0 201 61" fill="none" xmlns="http://www.w3.org/2000/svg">
<path d="M25.5874 29.9106V35.1971C25.5874 36.8769 24.2257 38.2387 22.5459 38.2387H16.14C14.4602 38.2387 13.0985 36.8769 13.0985 35.1971V28.7913C13.0985 27.1115 11.7367 25.7497 10.0569 25.7497H4.04136C2.36156 25.7497 0.999817 24.388 0.999817 22.7082V15.8995C0.999817 14.2197 2.36156 12.8579 4.04136 12.8579H18.9527C22.6447 12.8579 25.5874 15.3904 25.5874 18.4988V22.9296" stroke="white" stroke-width="2" stroke-linecap="round"/>
<path d="M14.452 9.32816V4.04164C14.452 2.36184 15.8137 1.00009 17.4935 1.00009H23.8994C25.5792 1.00009 26.9409 2.36184 26.9409 4.04164V10.4475C26.9409 12.1273 28.3027 13.489 29.9825 13.489H35.9981C37.6779 13.489 39.0396 14.8508 39.0396 16.5306V16.6403M14.452 16.3091V20.74C14.452 23.8483 17.3947 26.3809 21.0867 26.3809H30.3027H37.1468C38.1922 26.3809 39.0396 25.5334 39.0396 24.488V23.2043" stroke="white" stroke-width="2" stroke-linecap="round"/>
<path d="M62.2968 46.8042L66.868 57.1528L71.455 46.8032L71.5829 46.5161H74.0018L73.701 47.1958L67.8827 60.355L67.8778 60.3657L67.8729 60.3755C67.7809 60.5595 67.6475 60.7234 67.4637 60.8384C67.2795 60.9535 67.0736 61.0014 66.8671 61.0015C66.642 61.0015 66.4284 60.9385 66.2401 60.813L66.2411 60.811C66.0662 60.6984 65.9347 60.5431 65.8514 60.356V60.355L60.0145 47.1958L59.7128 46.5161H62.1698L62.2968 46.8042ZM38.3593 46.5161C38.9539 46.5294 39.5164 46.6544 40.0409 46.894C40.5739 47.1206 41.0451 47.4364 41.4481 47.8394C41.852 48.2433 42.1665 48.7197 42.3925 49.2632C42.6216 49.8025 42.7361 50.3745 42.7362 50.9741C42.7362 51.5882 42.6154 52.1747 42.3729 52.7271L42.3719 52.7261C42.1447 53.259 41.8241 53.7338 41.412 54.146C41.0092 54.5487 40.5341 54.8684 39.993 55.106L39.9882 55.1079C39.4475 55.3377 38.8688 55.4506 38.2587 55.4507H33.6942V60.894H31.4725V47.6089C31.4726 47.312 31.5847 47.0455 31.7938 46.8364L31.8016 46.8286L31.8104 46.8208C32.0247 46.6261 32.2886 46.5161 32.5839 46.5161H38.3593ZM50.5116 46.5337C51.1117 46.5471 51.6793 46.6745 52.2079 46.9185H52.2069C52.7343 47.1563 53.2005 47.4746 53.6005 47.8745C54.0045 48.2786 54.3188 48.7557 54.5448 49.2993L54.6259 49.5024C54.8013 49.9815 54.8876 50.4853 54.8876 51.0103C54.8876 51.5705 54.7874 52.1046 54.5839 52.6069C54.397 53.0971 54.1293 53.5413 53.785 53.939L53.786 53.9399C53.4521 54.3273 53.0581 54.6538 52.6083 54.9185L52.5995 54.9243C52.3735 55.0506 52.1369 55.1545 51.8925 55.2378L55.8192 60.106L56.455 60.894H53.5995L53.454 60.7134L49.2489 55.4868H45.8466V60.894H43.6249V47.644C43.625 47.3473 43.7372 47.0816 43.9462 46.8726C44.1571 46.6617 44.426 46.5337 44.7362 46.5337H50.5116ZM58.7411 60.894H56.5194V46.5161H58.7411V60.894ZM77.7919 46.3901C77.9969 46.3902 78.2007 46.4403 78.3817 46.5571C78.516 46.6439 78.6222 46.7572 78.705 46.8843L78.7802 47.0161L78.7811 47.0181L85.2987 60.1948L85.6434 60.894H83.1864L83.0526 60.6265L81.3788 57.2778H74.2118L72.6073 60.6196L72.4755 60.894H69.9784L70.3212 60.1958L76.8026 47.019L76.8046 47.0161C76.8948 46.8358 77.0237 46.6728 77.203 46.5571C77.384 46.4405 77.587 46.3902 77.7919 46.3901ZM94.201 48.7192H89.9755V60.894H87.7538V48.7192H83.5282V46.5151H94.201V48.7192ZM104.198 48.7192H97.0009V51.9399H103.04L102.852 52.563L102.476 53.8169L102.373 54.1616H97.0009V58.6724H104.198V60.894H95.8895C95.5943 60.8939 95.3313 60.7831 95.1171 60.5884L95.0995 60.5728L95.0839 60.5562C94.8891 60.3418 94.7792 60.078 94.7792 59.7827V47.6079C94.7794 47.3114 94.8908 47.0453 95.0995 46.8364L95.1083 46.8276L95.1171 46.8198C95.3312 46.6254 95.5945 46.5152 95.8895 46.5151H104.198V48.7192ZM78.3466 47.2329L84.8641 60.4097L78.3475 47.2329C78.3325 47.2029 78.3158 47.1752 78.2987 47.1489L78.3466 47.2329ZM66.3827 60.3022C66.4007 60.3233 66.4203 60.3428 66.4413 60.3608L66.3837 60.3022C66.3656 60.2812 66.3489 60.2589 66.3339 60.2349L66.3827 60.3022ZM74.5155 55.5405H81.0682V55.5396H74.5155V55.5405ZM75.2958 55.0562H80.2889L77.7919 50.0073L75.2958 55.0562ZM41.2362 53.6245C41.2576 53.6005 41.278 53.5757 41.2987 53.5513C41.278 53.5757 41.2576 53.6005 41.2362 53.6245ZM41.495 53.3013C41.4687 53.3379 41.4416 53.3739 41.4139 53.4097C41.4416 53.3739 41.4687 53.3379 41.495 53.3013ZM45.8466 53.2651H50.411C50.7165 53.2651 51.0045 53.2062 51.2772 53.0894C51.5559 52.9698 51.797 52.8068 52.0028 52.6011C52.2112 52.3925 52.3742 52.1554 52.493 51.8882C52.6075 51.6189 52.6669 51.3277 52.6669 51.0103C52.6668 50.6906 52.6072 50.3973 52.4911 50.1265C52.3724 49.8496 52.2113 49.6184 52.0106 49.4272L52.0028 49.4194C51.797 49.2136 51.556 49.0507 51.2772 48.9312C51.0045 48.8143 50.7165 48.7554 50.411 48.7554H45.8466V53.2651ZM33.6942 53.2476H38.2587C38.5641 53.2475 38.8522 53.1887 39.1249 53.0718C39.4037 52.9522 39.6447 52.7893 39.8505 52.5835C40.0562 52.3776 40.2192 52.1368 40.3387 51.8579C40.4547 51.5871 40.5145 51.2937 40.5145 50.9741C40.5145 50.6687 40.4556 50.3815 40.3387 50.1089C40.2192 49.8299 40.0563 49.5892 39.8505 49.3833C39.6446 49.1775 39.4037 49.0146 39.1249 48.895C38.8522 48.7781 38.5641 48.7193 38.2587 48.7192H33.6942V53.2476ZM41.5887 53.1665C41.6065 53.1395 41.6234 53.1119 41.6405 53.0845C41.6234 53.1119 41.6065 53.1395 41.5887 53.1665ZM41.9286 52.5327C41.8714 52.6673 41.8068 52.7973 41.7362 52.9233C41.7443 52.9088 41.7537 52.895 41.7616 52.8804C41.8228 52.7676 41.8788 52.6511 41.9296 52.5317L41.9286 52.5327ZM42.2069 51.5649C42.2203 51.4754 42.2295 51.3848 42.2372 51.2935C42.2298 51.3848 42.2203 51.4753 42.2069 51.5649ZM42.163 50.1421C42.2204 50.4114 42.2509 50.689 42.2509 50.9751C42.2508 51.0698 42.2467 51.1635 42.2401 51.2563C42.242 51.2306 42.2457 51.205 42.2469 51.1792L42.2518 50.9741C42.2518 50.7056 42.2254 50.4445 42.1747 50.1909C42.1714 50.1745 42.1665 50.1584 42.163 50.1421ZM44.288 47.2144C44.2582 47.2441 44.2312 47.2754 44.2089 47.3081L44.2098 47.3091C44.2322 47.2763 44.2582 47.2451 44.288 47.2153C44.3174 47.1859 44.3475 47.1591 44.3788 47.1362C44.3476 47.159 44.3173 47.185 44.288 47.2144ZM32.5829 47.0005H38.3485V46.9995H32.5839L32.5829 47.0005ZM60.4579 47.0005H61.8534L61.8544 46.9995H60.4579V47.0005ZM77.537 46.9253C77.5119 46.9365 77.4878 46.9495 77.4647 46.9644C77.488 46.9493 77.5126 46.9366 77.538 46.9253C77.563 46.9142 77.589 46.9045 77.6161 46.897L77.537 46.9253Z" fill="white"/>
<mask id="path-4-outside-1_14_850" maskUnits="userSpaceOnUse" x="107.618" y="45.8745" width="92" height="16" fill="black">
<rect fill="white" x="107.618" y="45.8745" width="92" height="16"/>
<path d="M117.068 46.9998H118.322V60.4097H117.068V53.6779H109.871V60.4097H108.618V46.9998H109.871V52.4247H117.068V46.9998Z"/>
<path d="M127.023 60.5171C125.948 60.5171 124.987 60.362 124.14 60.0517C123.305 59.7413 122.594 59.2937 122.01 58.7089C121.425 58.124 120.977 57.4138 120.667 56.5783C120.356 55.7309 120.201 54.7701 120.201 53.6958C120.201 52.6335 120.356 51.6787 120.667 50.8312C120.977 49.9838 121.425 49.2676 122.01 48.6828C122.594 48.0979 123.305 47.6503 124.14 47.34C124.987 47.0297 125.948 46.8745 127.023 46.8745C128.097 46.8745 129.052 47.0297 129.887 47.34C130.735 47.6503 131.451 48.0979 132.036 48.6828C132.62 49.2676 133.068 49.9838 133.378 50.8312C133.689 51.6787 133.844 52.6335 133.844 53.6958C133.844 54.7701 133.689 55.7309 133.378 56.5783C133.068 57.4138 132.62 58.124 132.036 58.7089C131.451 59.2937 130.735 59.7413 129.887 60.0517C129.052 60.362 128.097 60.5171 127.023 60.5171ZM127.023 48.1278C125.208 48.1278 123.824 48.6052 122.869 49.5601C121.926 50.5149 121.454 51.8935 121.454 53.6958C121.454 55.5101 121.926 56.8946 122.869 57.8495C123.824 58.8044 125.208 59.2818 127.023 59.2818C128.837 59.2818 130.215 58.8044 131.158 57.8495C132.113 56.8946 132.591 55.5101 132.591 53.6958C132.591 51.8935 132.113 50.5149 131.158 49.5601C130.215 48.6052 128.837 48.1278 127.023 48.1278Z"/>
<path d="M140.007 53.105C140.58 53.2244 141.147 53.3616 141.708 53.5168C142.28 53.66 142.788 53.8629 143.229 54.1255C143.671 54.3881 144.029 54.7342 144.304 55.1639C144.578 55.5817 144.715 56.1307 144.715 56.8111C144.715 57.9808 144.286 58.8939 143.426 59.5503C142.579 60.1949 141.391 60.5171 139.863 60.5171C138.336 60.5171 137.148 60.1949 136.301 59.5503C135.453 58.8939 135.029 57.9808 135.029 56.8111H136.283C136.283 57.3482 136.402 57.7779 136.641 58.1001C136.891 58.4224 137.196 58.6731 137.554 58.8521C137.924 59.0311 138.318 59.1505 138.736 59.2102C139.153 59.2579 139.529 59.2818 139.863 59.2818C140.198 59.2818 140.574 59.2579 140.991 59.2102C141.409 59.1505 141.797 59.0311 142.155 58.8521C142.525 58.6731 142.835 58.4224 143.086 58.1001C143.337 57.7779 143.462 57.3482 143.462 56.8111C143.462 56.4411 143.402 56.1307 143.283 55.8801C143.164 55.6294 142.961 55.4146 142.674 55.2355C142.388 55.0565 142.006 54.8954 141.528 54.7521C141.051 54.6089 140.454 54.4657 139.738 54.3225C139.165 54.2031 138.592 54.0718 138.019 53.9286C137.458 53.7734 136.957 53.5645 136.515 53.3019C136.074 53.0394 135.716 52.6932 135.441 52.2635C135.167 51.8338 135.029 51.2788 135.029 50.5985C135.029 49.4288 135.453 48.5157 136.301 47.8592C137.148 47.2027 138.336 46.8745 139.863 46.8745C141.391 46.8745 142.579 47.2027 143.426 47.8592C144.286 48.5157 144.715 49.4288 144.715 50.5985H143.462C143.462 50.0614 143.337 49.6317 143.086 49.3094C142.835 48.9872 142.525 48.7365 142.155 48.5575C141.797 48.3784 141.409 48.265 140.991 48.2173C140.574 48.1576 140.198 48.1278 139.863 48.1278C139.529 48.1278 139.153 48.1576 138.736 48.2173C138.318 48.265 137.924 48.3784 137.554 48.5575C137.196 48.7365 136.891 48.9872 136.641 49.3094C136.402 49.6317 136.283 50.0614 136.283 50.5985C136.283 50.9685 136.342 51.2788 136.462 51.5295C136.593 51.7801 136.802 52.0009 137.088 52.1919C137.387 52.371 137.769 52.5321 138.234 52.6753C138.712 52.8185 139.302 52.9618 140.007 53.105Z"/>
<path d="M152.958 46.9998C153.495 47.0118 153.997 47.1252 154.462 47.34C154.94 47.5429 155.357 47.8234 155.715 48.1815C156.073 48.5396 156.354 48.9633 156.557 49.4526C156.76 49.9301 156.861 50.4374 156.861 50.9745C156.861 51.5235 156.754 52.0427 156.539 52.5321C156.336 53.0095 156.05 53.4332 155.68 53.8033C155.321 54.1613 154.898 54.4478 154.408 54.6626C153.931 54.8655 153.418 54.967 152.869 54.967H147.82V60.4097H146.567V47.6086C146.567 47.4415 146.626 47.2982 146.746 47.1789C146.877 47.0595 147.026 46.9998 147.193 46.9998H152.958ZM152.869 53.7316C153.239 53.7316 153.591 53.66 153.925 53.5168C154.259 53.3736 154.552 53.1766 154.802 52.926C155.053 52.6753 155.25 52.3829 155.393 52.0487C155.536 51.7145 155.608 51.3564 155.608 50.9745C155.608 50.6045 155.536 50.2523 155.393 49.9181C155.25 49.5839 155.053 49.2915 154.802 49.0409C154.552 48.7902 154.259 48.5933 153.925 48.45C153.591 48.3068 153.239 48.2352 152.869 48.2352H147.82V53.7316H152.869Z"/>
<path d="M159.077 46.9998H160.33V60.4097H159.077V46.9998Z"/>
<path d="M162.531 46.9998H172.235V48.2352H168.01V60.4097H166.756V48.2352H162.531V46.9998Z"/>
<path d="M184.363 56.7932H176.593L174.856 60.4097H173.442L179.923 47.2326C180.042 46.9939 180.227 46.8745 180.478 46.8745C180.728 46.8745 180.913 46.9939 181.033 47.2326L187.55 60.4097H186.171L184.363 56.7932ZM183.754 55.5399L180.478 48.9155L177.201 55.5399H183.754Z"/>
<path d="M198.571 59.1565L198.195 60.4097H190.371C190.204 60.4097 190.054 60.35 189.923 60.2307C189.804 60.0994 189.744 59.9502 189.744 59.7831V46.9998H190.997V59.1565H198.571Z"/>
</mask>
<path d="M117.068 46.9998H118.322V60.4097H117.068V53.6779H109.871V60.4097H108.618V46.9998H109.871V52.4247H117.068V46.9998Z" fill="white"/>
<path d="M127.023 60.5171C125.948 60.5171 124.987 60.362 124.14 60.0517C123.305 59.7413 122.594 59.2937 122.01 58.7089C121.425 58.124 120.977 57.4138 120.667 56.5783C120.356 55.7309 120.201 54.7701 120.201 53.6958C120.201 52.6335 120.356 51.6787 120.667 50.8312C120.977 49.9838 121.425 49.2676 122.01 48.6828C122.594 48.0979 123.305 47.6503 124.14 47.34C124.987 47.0297 125.948 46.8745 127.023 46.8745C128.097 46.8745 129.052 47.0297 129.887 47.34C130.735 47.6503 131.451 48.0979 132.036 48.6828C132.62 49.2676 133.068 49.9838 133.378 50.8312C133.689 51.6787 133.844 52.6335 133.844 53.6958C133.844 54.7701 133.689 55.7309 133.378 56.5783C133.068 57.4138 132.62 58.124 132.036 58.7089C131.451 59.2937 130.735 59.7413 129.887 60.0517C129.052 60.362 128.097 60.5171 127.023 60.5171ZM127.023 48.1278C125.208 48.1278 123.824 48.6052 122.869 49.5601C121.926 50.5149 121.454 51.8935 121.454 53.6958C121.454 55.5101 121.926 56.8946 122.869 57.8495C123.824 58.8044 125.208 59.2818 127.023 59.2818C128.837 59.2818 130.215 58.8044 131.158 57.8495C132.113 56.8946 132.591 55.5101 132.591 53.6958C132.591 51.8935 132.113 50.5149 131.158 49.5601C130.215 48.6052 128.837 48.1278 127.023 48.1278Z" fill="white"/>
<path d="M140.007 53.105C140.58 53.2244 141.147 53.3616 141.708 53.5168C142.28 53.66 142.788 53.8629 143.229 54.1255C143.671 54.3881 144.029 54.7342 144.304 55.1639C144.578 55.5817 144.715 56.1307 144.715 56.8111C144.715 57.9808 144.286 58.8939 143.426 59.5503C142.579 60.1949 141.391 60.5171 139.863 60.5171C138.336 60.5171 137.148 60.1949 136.301 59.5503C135.453 58.8939 135.029 57.9808 135.029 56.8111H136.283C136.283 57.3482 136.402 57.7779 136.641 58.1001C136.891 58.4224 137.196 58.6731 137.554 58.8521C137.924 59.0311 138.318 59.1505 138.736 59.2102C139.153 59.2579 139.529 59.2818 139.863 59.2818C140.198 59.2818 140.574 59.2579 140.991 59.2102C141.409 59.1505 141.797 59.0311 142.155 58.8521C142.525 58.6731 142.835 58.4224 143.086 58.1001C143.337 57.7779 143.462 57.3482 143.462 56.8111C143.462 56.4411 143.402 56.1307 143.283 55.8801C143.164 55.6294 142.961 55.4146 142.674 55.2355C142.388 55.0565 142.006 54.8954 141.528 54.7521C141.051 54.6089 140.454 54.4657 139.738 54.3225C139.165 54.2031 138.592 54.0718 138.019 53.9286C137.458 53.7734 136.957 53.5645 136.515 53.3019C136.074 53.0394 135.716 52.6932 135.441 52.2635C135.167 51.8338 135.029 51.2788 135.029 50.5985C135.029 49.4288 135.453 48.5157 136.301 47.8592C137.148 47.2027 138.336 46.8745 139.863 46.8745C141.391 46.8745 142.579 47.2027 143.426 47.8592C144.286 48.5157 144.715 49.4288 144.715 50.5985H143.462C143.462 50.0614 143.337 49.6317 143.086 49.3094C142.835 48.9872 142.525 48.7365 142.155 48.5575C141.797 48.3784 141.409 48.265 140.991 48.2173C140.574 48.1576 140.198 48.1278 139.863 48.1278C139.529 48.1278 139.153 48.1576 138.736 48.2173C138.318 48.265 137.924 48.3784 137.554 48.5575C137.196 48.7365 136.891 48.9872 136.641 49.3094C136.402 49.6317 136.283 50.0614 136.283 50.5985C136.283 50.9685 136.342 51.2788 136.462 51.5295C136.593 51.7801 136.802 52.0009 137.088 52.1919C137.387 52.371 137.769 52.5321 138.234 52.6753C138.712 52.8185 139.302 52.9618 140.007 53.105Z" fill="white"/>
<path d="M152.958 46.9998C153.495 47.0118 153.997 47.1252 154.462 47.34C154.94 47.5429 155.357 47.8234 155.715 48.1815C156.073 48.5396 156.354 48.9633 156.557 49.4526C156.76 49.9301 156.861 50.4374 156.861 50.9745C156.861 51.5235 156.754 52.0427 156.539 52.5321C156.336 53.0095 156.05 53.4332 155.68 53.8033C155.321 54.1613 154.898 54.4478 154.408 54.6626C153.931 54.8655 153.418 54.967 152.869 54.967H147.82V60.4097H146.567V47.6086C146.567 47.4415 146.626 47.2982 146.746 47.1789C146.877 47.0595 147.026 46.9998 147.193 46.9998H152.958ZM152.869 53.7316C153.239 53.7316 153.591 53.66 153.925 53.5168C154.259 53.3736 154.552 53.1766 154.802 52.926C155.053 52.6753 155.25 52.3829 155.393 52.0487C155.536 51.7145 155.608 51.3564 155.608 50.9745C155.608 50.6045 155.536 50.2523 155.393 49.9181C155.25 49.5839 155.053 49.2915 154.802 49.0409C154.552 48.7902 154.259 48.5933 153.925 48.45C153.591 48.3068 153.239 48.2352 152.869 48.2352H147.82V53.7316H152.869Z" fill="white"/>
<path d="M159.077 46.9998H160.33V60.4097H159.077V46.9998Z" fill="white"/>
<path d="M162.531 46.9998H172.235V48.2352H168.01V60.4097H166.756V48.2352H162.531V46.9998Z" fill="white"/>
<path d="M184.363 56.7932H176.593L174.856 60.4097H173.442L179.923 47.2326C180.042 46.9939 180.227 46.8745 180.478 46.8745C180.728 46.8745 180.913 46.9939 181.033 47.2326L187.55 60.4097H186.171L184.363 56.7932ZM183.754 55.5399L180.478 48.9155L177.201 55.5399H183.754Z" fill="white"/>
<path d="M198.571 59.1565L198.195 60.4097H190.371C190.204 60.4097 190.054 60.35 189.923 60.2307C189.804 60.0994 189.744 59.9502 189.744 59.7831V46.9998H190.997V59.1565H198.571Z" fill="white"/>
<path d="M117.068 46.9998H118.322V60.4097H117.068V53.6779H109.871V60.4097H108.618V46.9998H109.871V52.4247H117.068V46.9998Z" stroke="white" stroke-width="0.968343" mask="url(#path-4-outside-1_14_850)"/>
<path d="M127.023 60.5171C125.948 60.5171 124.987 60.362 124.14 60.0517C123.305 59.7413 122.594 59.2937 122.01 58.7089C121.425 58.124 120.977 57.4138 120.667 56.5783C120.356 55.7309 120.201 54.7701 120.201 53.6958C120.201 52.6335 120.356 51.6787 120.667 50.8312C120.977 49.9838 121.425 49.2676 122.01 48.6828C122.594 48.0979 123.305 47.6503 124.14 47.34C124.987 47.0297 125.948 46.8745 127.023 46.8745C128.097 46.8745 129.052 47.0297 129.887 47.34C130.735 47.6503 131.451 48.0979 132.036 48.6828C132.62 49.2676 133.068 49.9838 133.378 50.8312C133.689 51.6787 133.844 52.6335 133.844 53.6958C133.844 54.7701 133.689 55.7309 133.378 56.5783C133.068 57.4138 132.62 58.124 132.036 58.7089C131.451 59.2937 130.735 59.7413 129.887 60.0517C129.052 60.362 128.097 60.5171 127.023 60.5171ZM127.023 48.1278C125.208 48.1278 123.824 48.6052 122.869 49.5601C121.926 50.5149 121.454 51.8935 121.454 53.6958C121.454 55.5101 121.926 56.8946 122.869 57.8495C123.824 58.8044 125.208 59.2818 127.023 59.2818C128.837 59.2818 130.215 58.8044 131.158 57.8495C132.113 56.8946 132.591 55.5101 132.591 53.6958C132.591 51.8935 132.113 50.5149 131.158 49.5601C130.215 48.6052 128.837 48.1278 127.023 48.1278Z" stroke="white" stroke-width="0.968343" mask="url(#path-4-outside-1_14_850)"/>
<path d="M140.007 53.105C140.58 53.2244 141.147 53.3616 141.708 53.5168C142.28 53.66 142.788 53.8629 143.229 54.1255C143.671 54.3881 144.029 54.7342 144.304 55.1639C144.578 55.5817 144.715 56.1307 144.715 56.8111C144.715 57.9808 144.286 58.8939 143.426 59.5503C142.579 60.1949 141.391 60.5171 139.863 60.5171C138.336 60.5171 137.148 60.1949 136.301 59.5503C135.453 58.8939 135.029 57.9808 135.029 56.8111H136.283C136.283 57.3482 136.402 57.7779 136.641 58.1001C136.891 58.4224 137.196 58.6731 137.554 58.8521C137.924 59.0311 138.318 59.1505 138.736 59.2102C139.153 59.2579 139.529 59.2818 139.863 59.2818C140.198 59.2818 140.574 59.2579 140.991 59.2102C141.409 59.1505 141.797 59.0311 142.155 58.8521C142.525 58.6731 142.835 58.4224 143.086 58.1001C143.337 57.7779 143.462 57.3482 143.462 56.8111C143.462 56.4411 143.402 56.1307 143.283 55.8801C143.164 55.6294 142.961 55.4146 142.674 55.2355C142.388 55.0565 142.006 54.8954 141.528 54.7521C141.051 54.6089 140.454 54.4657 139.738 54.3225C139.165 54.2031 138.592 54.0718 138.019 53.9286C137.458 53.7734 136.957 53.5645 136.515 53.3019C136.074 53.0394 135.716 52.6932 135.441 52.2635C135.167 51.8338 135.029 51.2788 135.029 50.5985C135.029 49.4288 135.453 48.5157 136.301 47.8592C137.148 47.2027 138.336 46.8745 139.863 46.8745C141.391 46.8745 142.579 47.2027 143.426 47.8592C144.286 48.5157 144.715 49.4288 144.715 50.5985H143.462C143.462 50.0614 143.337 49.6317 143.086 49.3094C142.835 48.9872 142.525 48.7365 142.155 48.5575C141.797 48.3784 141.409 48.265 140.991 48.2173C140.574 48.1576 140.198 48.1278 139.863 48.1278C139.529 48.1278 139.153 48.1576 138.736 48.2173C138.318 48.265 137.924 48.3784 137.554 48.5575C137.196 48.7365 136.891 48.9872 136.641 49.3094C136.402 49.6317 136.283 50.0614 136.283 50.5985C136.283 50.9685 136.342 51.2788 136.462 51.5295C136.593 51.7801 136.802 52.0009 137.088 52.1919C137.387 52.371 137.769 52.5321 138.234 52.6753C138.712 52.8185 139.302 52.9618 140.007 53.105Z" stroke="white" stroke-width="0.968343" mask="url(#path-4-outside-1_14_850)"/>
<path d="M152.958 46.9998C153.495 47.0118 153.997 47.1252 154.462 47.34C154.94 47.5429 155.357 47.8234 155.715 48.1815C156.073 48.5396 156.354 48.9633 156.557 49.4526C156.76 49.9301 156.861 50.4374 156.861 50.9745C156.861 51.5235 156.754 52.0427 156.539 52.5321C156.336 53.0095 156.05 53.4332 155.68 53.8033C155.321 54.1613 154.898 54.4478 154.408 54.6626C153.931 54.8655 153.418 54.967 152.869 54.967H147.82V60.4097H146.567V47.6086C146.567 47.4415 146.626 47.2982 146.746 47.1789C146.877 47.0595 147.026 46.9998 147.193 46.9998H152.958ZM152.869 53.7316C153.239 53.7316 153.591 53.66 153.925 53.5168C154.259 53.3736 154.552 53.1766 154.802 52.926C155.053 52.6753 155.25 52.3829 155.393 52.0487C155.536 51.7145 155.608 51.3564 155.608 50.9745C155.608 50.6045 155.536 50.2523 155.393 49.9181C155.25 49.5839 155.053 49.2915 154.802 49.0409C154.552 48.7902 154.259 48.5933 153.925 48.45C153.591 48.3068 153.239 48.2352 152.869 48.2352H147.82V53.7316H152.869Z" stroke="white" stroke-width="0.968343" mask="url(#path-4-outside-1_14_850)"/>
<path d="M159.077 46.9998H160.33V60.4097H159.077V46.9998Z" stroke="white" stroke-width="0.968343" mask="url(#path-4-outside-1_14_850)"/>
<path d="M162.531 46.9998H172.235V48.2352H168.01V60.4097H166.756V48.2352H162.531V46.9998Z" stroke="white" stroke-width="0.968343" mask="url(#path-4-outside-1_14_850)"/>
<path d="M184.363 56.7932H176.593L174.856 60.4097H173.442L179.923 47.2326C180.042 46.9939 180.227 46.8745 180.478 46.8745C180.728 46.8745 180.913 46.9939 181.033 47.2326L187.55 60.4097H186.171L184.363 56.7932ZM183.754 55.5399L180.478 48.9155L177.201 55.5399H183.754Z" stroke="white" stroke-width="0.968343" mask="url(#path-4-outside-1_14_850)"/>
<path d="M198.571 59.1565L198.195 60.4097H190.371C190.204 60.4097 190.054 60.35 189.923 60.2307C189.804 60.0994 189.744 59.9502 189.744 59.7831V46.9998H190.997V59.1565H198.571Z" stroke="white" stroke-width="0.968343" mask="url(#path-4-outside-1_14_850)"/>
<path d="M47.4429 30.2227C48.6493 30.893 49.6237 31.8291 50.3661 33.0309C51.1086 34.2097 51.4798 35.5271 51.4798 36.9833C51.4798 38.0233 51.2826 39.0172 50.8882 39.9648C50.4938 40.8894 49.9485 41.6983 49.2525 42.3917C48.5565 43.0851 47.7445 43.6398 46.8165 44.0558C45.9117 44.4719 44.9373 44.6915 43.8933 44.7146H32.6876C32.3628 44.7146 32.0728 44.599 31.8175 44.3679C31.5855 44.1136 31.4695 43.8247 31.4695 43.5011V19.9258C31.4695 19.6023 31.5855 19.3249 31.8175 19.0938C32.0728 18.8626 32.3628 18.7471 32.6876 18.7471H43.3365C44.2413 18.7471 45.0765 18.9204 45.8421 19.2671C46.6309 19.5907 47.3153 20.053 47.8953 20.6539C48.4985 21.2317 48.9625 21.9136 49.2873 22.6994C49.6353 23.4621 49.8093 24.2942 49.8093 25.1956C49.8093 26.2126 49.6005 27.1602 49.1829 28.0385C48.7653 28.8937 48.1853 29.6218 47.4429 30.2227ZM33.9056 29.252H43.3365C43.8933 29.252 44.4153 29.1479 44.9025 28.9399C45.4129 28.7319 45.8421 28.443 46.1901 28.0732C46.5613 27.7034 46.8513 27.2758 47.0601 26.7904C47.2921 26.2819 47.4081 25.7503 47.4081 25.1956C47.4081 24.6409 47.2921 24.1209 47.0601 23.6355C46.8513 23.127 46.5613 22.6994 46.1901 22.3527C45.8421 21.9829 45.4129 21.694 44.9025 21.486C44.4153 21.2548 43.8933 21.1393 43.3365 21.1393H33.9056V29.252ZM43.7193 42.2877C44.4385 42.2877 45.1229 42.149 45.7725 41.8717C46.4221 41.5943 46.9905 41.2245 47.4777 40.7622C47.9649 40.2769 48.3477 39.7106 48.6261 39.0634C48.9045 38.4163 49.0437 37.7229 49.0437 36.9833C49.0437 36.2668 48.9045 35.5849 48.6261 34.9378C48.3477 34.2906 47.9649 33.7243 47.4777 33.2389C46.9905 32.7536 46.4221 32.3722 45.7725 32.0949C45.1229 31.8175 44.4385 31.6788 43.7193 31.6788H33.9056V42.2877H43.7193Z" fill="white"/>
<path d="M75.0116 37.7113H59.9083L56.5326 44.7146H53.7834L66.3811 19.1978C66.6131 18.7355 66.9727 18.5044 67.4599 18.5044C67.9471 18.5044 68.3067 18.7355 68.5387 19.1978L81.2061 44.7146H78.5265L75.0116 37.7113ZM73.8284 35.2844L67.4599 22.4567L61.0915 35.2844H73.8284Z" fill="white"/>
<path d="M99.6498 18.7471L89.5577 33.2389V44.7146H87.1564V33.1349L77.0643 18.7471H80.0224L88.3745 30.7427L96.6918 18.7471H99.6498Z" fill="white"/>
<path d="M138.796 18.7471L127.486 44.2292C127.254 44.6915 126.883 44.9226 126.373 44.9226C125.862 44.9226 125.491 44.6915 125.259 44.2292L120.352 33.1696L115.445 44.2292C115.213 44.6915 114.842 44.9226 114.332 44.9226C114.077 44.9226 113.845 44.8532 113.636 44.7146C113.45 44.599 113.311 44.4372 113.218 44.2292L101.873 18.7471H104.588L114.332 40.7276L119.03 30.188L116.837 25.369H119.552L126.373 40.7276L136.152 18.7471H138.796Z" fill="white"/>
<path d="M144.088 21.1393V29.252H155.502L154.771 31.6788H144.088V42.2877H158.077V44.7146H142.87C142.545 44.7146 142.255 44.599 142 44.3679C141.768 44.1136 141.652 43.8247 141.652 43.5011V19.9258C141.652 19.6023 141.768 19.3249 142 19.0938C142.255 18.8626 142.545 18.7471 142.87 18.7471H158.077V21.1393H144.088Z" fill="white"/>
<path d="M169.901 30.5694C171.015 30.8005 172.117 31.0663 173.207 31.3668C174.321 31.6441 175.307 32.0371 176.165 32.5456C177.024 33.054 177.72 33.7243 178.253 34.5564C178.787 35.3653 179.054 36.4285 179.054 37.746C179.054 40.0111 178.218 41.7792 176.548 43.0504C174.901 44.2985 172.592 44.9226 169.623 44.9226C166.653 44.9226 164.345 44.2985 162.697 43.0504C161.05 41.7792 160.227 40.0111 160.227 37.746H162.663C162.663 38.7861 162.895 39.6181 163.359 40.2422C163.846 40.8662 164.438 41.3516 165.134 41.6983C165.853 42.045 166.618 42.2761 167.43 42.3917C168.242 42.4842 168.973 42.5304 169.623 42.5304C170.272 42.5304 171.003 42.4842 171.815 42.3917C172.627 42.2761 173.381 42.045 174.077 41.6983C174.796 41.3516 175.4 40.8662 175.887 40.2422C176.374 39.6181 176.618 38.7861 176.618 37.746C176.618 37.0295 176.502 36.4285 176.27 35.9432C176.038 35.4578 175.643 35.0418 175.086 34.6951C174.53 34.3484 173.787 34.0363 172.859 33.759C171.931 33.4816 170.771 33.2043 169.379 32.9269C168.266 32.6958 167.152 32.4415 166.038 32.1642C164.948 31.8637 163.973 31.4592 163.115 30.9508C162.257 30.4423 161.561 29.772 161.027 28.9399C160.493 28.1079 160.227 27.0331 160.227 25.7157C160.227 23.4506 161.05 21.6824 162.697 20.4112C164.345 19.14 166.653 18.5044 169.623 18.5044C172.592 18.5044 174.901 19.14 176.548 20.4112C178.218 21.6824 179.054 23.4506 179.054 25.7157H176.618C176.618 24.6756 176.374 23.8435 175.887 23.2195C175.4 22.5954 174.796 22.11 174.077 21.7633C173.381 21.4166 172.627 21.1971 171.815 21.1046C171.003 20.989 170.272 20.9313 169.623 20.9313C168.973 20.9313 168.242 20.989 167.43 21.1046C166.618 21.1971 165.853 21.4166 165.134 21.7633C164.438 22.11 163.846 22.5954 163.359 23.2195C162.895 23.8435 162.663 24.6756 162.663 25.7157C162.663 26.4322 162.779 27.0331 163.011 27.5185C163.266 28.0038 163.672 28.4314 164.229 28.8012C164.809 29.1479 165.551 29.46 166.456 29.7373C167.384 30.0147 168.532 30.292 169.901 30.5694Z" fill="white"/>
<path d="M181.33 18.7471H200.191V21.1393H191.978V44.7146H189.542V21.1393H181.33V18.7471Z" fill="white"/>
</svg>
