<svg width="201" height="61" viewBox="0 0 201 61" fill="none" xmlns="http://www.w3.org/2000/svg">
<path d="M25.5876 29.9106V37.2387C25.5876 37.791 25.1399 38.2387 24.5876 38.2387H14.0987C13.5464 38.2387 13.0987 37.791 13.0987 37.2387V26.7497C13.0987 26.1974 12.651 25.7497 12.0987 25.7497H2C1.44772 25.7497 1 25.302 1 24.7497V13.8579C1 13.3056 1.44772 12.8579 2 12.8579H18.9529C22.6449 12.8579 25.5876 15.3904 25.5876 18.4988V22.9296" stroke="#0077B6" stroke-width="2" stroke-linecap="round"/>
<path d="M14.4522 9.32816V2.00009C14.4522 1.44781 14.8999 1.00009 15.4522 1.00009H25.9411C26.4934 1.00009 26.9411 1.44781 26.9411 2.00009V12.489C26.9411 13.0413 27.3888 13.489 27.9411 13.489H38.0398C38.5921 13.489 39.0398 13.9368 39.0398 14.489V16.6403M14.4522 16.3091V20.74C14.4522 23.8483 17.3949 26.3809 21.0869 26.3809H30.3029H37.1469H38.0398C38.5921 26.3809 39.0398 25.9331 39.0398 25.3809V23.2043" stroke="#00BFA6" stroke-width="2" stroke-linecap="round"/>
<path d="M62.297 46.8042L66.8683 57.1528L71.4552 46.8032L71.5831 46.5161H74.0021L73.7013 47.1958L67.8829 60.355L67.8781 60.3657L67.8732 60.3755C67.7812 60.5595 67.6478 60.7234 67.464 60.8384C67.2797 60.9535 67.0738 61.0014 66.8673 61.0015C66.6423 61.0015 66.4287 60.9385 66.2404 60.813L66.2413 60.811C66.0665 60.6984 65.9349 60.5431 65.8517 60.356V60.355L60.0148 47.1958L59.713 46.5161H62.17L62.297 46.8042ZM38.3595 46.5161C38.9542 46.5294 39.5167 46.6544 40.0411 46.894C40.5741 47.1206 41.0454 47.4364 41.4484 47.8394C41.8523 48.2433 42.1668 48.7197 42.3927 49.2632C42.6219 49.8025 42.7364 50.3745 42.7365 50.9741C42.7365 51.5882 42.6156 52.1747 42.3732 52.7271L42.3722 52.7261C42.145 53.259 41.8243 53.7338 41.4122 54.146C41.0095 54.5487 40.5343 54.8684 39.9933 55.106L39.9884 55.1079C39.4478 55.3377 38.869 55.4506 38.2589 55.4507H33.6945V60.894H31.4728V47.6089C31.4728 47.312 31.585 47.0455 31.7941 46.8364L31.8019 46.8286L31.8107 46.8208C32.025 46.6261 32.2888 46.5161 32.5841 46.5161H38.3595ZM50.5118 46.5337C51.1119 46.5471 51.6796 46.6745 52.2081 46.9185H52.2072C52.7345 47.1563 53.2008 47.4746 53.6007 47.8745C54.0047 48.2786 54.3191 48.7557 54.545 49.2993L54.6261 49.5024C54.8015 49.9815 54.8878 50.4853 54.8878 51.0103C54.8878 51.5705 54.7877 52.1046 54.5841 52.6069C54.3972 53.0971 54.1295 53.5413 53.7853 53.939L53.7863 53.9399C53.4524 54.3273 53.0584 54.6538 52.6085 54.9185L52.5997 54.9243C52.3738 55.0506 52.1371 55.1545 51.8927 55.2378L55.8195 60.106L56.4552 60.894H53.5997L53.4542 60.7134L49.2491 55.4868H45.8468V60.894H43.6251V47.644C43.6252 47.3473 43.7374 47.0816 43.9464 46.8726C44.1574 46.6617 44.4263 46.5337 44.7365 46.5337H50.5118ZM58.7413 60.894H56.5197V46.5161H58.7413V60.894ZM77.7921 46.3901C77.9971 46.3902 78.2009 46.4403 78.382 46.5571C78.5163 46.6439 78.6225 46.7572 78.7052 46.8843L78.7804 47.0161L78.7814 47.0181L85.299 60.1948L85.6437 60.894H83.1866L83.0529 60.6265L81.379 57.2778H74.212L72.6075 60.6196L72.4757 60.894H69.9786L70.3214 60.1958L76.8029 47.019L76.8048 47.0161C76.895 46.8358 77.024 46.6728 77.2032 46.5571C77.3842 46.4405 77.5872 46.3902 77.7921 46.3901ZM94.2013 48.7192H89.9757V60.894H87.754V48.7192H83.5284V46.5151H94.2013V48.7192ZM104.198 48.7192H97.0011V51.9399H103.04L102.853 52.563L102.477 53.8169L102.373 54.1616H97.0011V58.6724H104.198V60.894H95.8898C95.5945 60.8939 95.3316 60.7831 95.1173 60.5884L95.0997 60.5728L95.0841 60.5562C94.8894 60.3418 94.7794 60.078 94.7794 59.7827V47.6079C94.7796 47.3114 94.891 47.0453 95.0997 46.8364L95.1085 46.8276L95.1173 46.8198C95.3315 46.6254 95.5948 46.5152 95.8898 46.5151H104.198V48.7192ZM78.3468 47.2329L84.8644 60.4097L78.3478 47.2329C78.3328 47.2029 78.316 47.1752 78.299 47.1489L78.3468 47.2329ZM66.3829 60.3022C66.4009 60.3233 66.4205 60.3428 66.4415 60.3608L66.3839 60.3022C66.3659 60.2812 66.3491 60.2589 66.3341 60.2349L66.3829 60.3022ZM74.5157 55.5405H81.0685V55.5396H74.5157V55.5405ZM75.296 55.0562H80.2892L77.7921 50.0073L75.296 55.0562ZM41.2365 53.6245C41.2578 53.6005 41.2782 53.5757 41.299 53.5513C41.2782 53.5757 41.2578 53.6005 41.2365 53.6245ZM41.4952 53.3013C41.4689 53.3379 41.4418 53.3739 41.4142 53.4097C41.4418 53.3739 41.4689 53.3379 41.4952 53.3013ZM45.8468 53.2651H50.4113C50.7167 53.2651 51.0048 53.2062 51.2775 53.0894C51.5562 52.9698 51.7973 52.8068 52.0031 52.6011C52.2115 52.3925 52.3745 52.1554 52.4933 51.8882C52.6077 51.6189 52.6671 51.3277 52.6671 51.0103C52.6671 50.6906 52.6074 50.3973 52.4913 50.1265C52.3726 49.8496 52.2115 49.6184 52.0109 49.4272L52.0031 49.4194C51.7973 49.2136 51.5562 49.0507 51.2775 48.9312C51.0048 48.8143 50.7167 48.7554 50.4113 48.7554H45.8468V53.2651ZM33.6945 53.2476H38.2589C38.5644 53.2475 38.8524 53.1887 39.1251 53.0718C39.4039 52.9522 39.6449 52.7893 39.8507 52.5835C40.0564 52.3776 40.2195 52.1368 40.339 51.8579C40.455 51.5871 40.5148 51.2937 40.5148 50.9741C40.5147 50.6687 40.4558 50.3815 40.339 50.1089C40.2194 49.8299 40.0565 49.5892 39.8507 49.3833C39.6449 49.1775 39.404 49.0146 39.1251 48.895C38.8524 48.7781 38.5644 48.7193 38.2589 48.7192H33.6945V53.2476ZM41.589 53.1665C41.6068 53.1395 41.6236 53.1119 41.6407 53.0845C41.6236 53.1119 41.6068 53.1395 41.589 53.1665ZM41.9288 52.5327C41.8716 52.6673 41.807 52.7973 41.7365 52.9233C41.7446 52.9088 41.7539 52.895 41.7618 52.8804C41.8231 52.7676 41.8791 52.6511 41.9298 52.5317L41.9288 52.5327ZM42.2072 51.5649C42.2205 51.4754 42.2297 51.3848 42.2374 51.2935C42.2301 51.3848 42.2205 51.4753 42.2072 51.5649ZM42.1632 50.1421C42.2207 50.4114 42.2511 50.689 42.2511 50.9751C42.2511 51.0698 42.247 51.1635 42.2404 51.2563C42.2423 51.2306 42.2459 51.205 42.2472 51.1792L42.2521 50.9741C42.252 50.7056 42.2257 50.4445 42.1749 50.1909C42.1716 50.1745 42.1667 50.1584 42.1632 50.1421ZM44.2882 47.2144C44.2584 47.2441 44.2314 47.2754 44.2091 47.3081L44.2101 47.3091C44.2324 47.2763 44.2584 47.2451 44.2882 47.2153C44.3177 47.1859 44.3478 47.1591 44.379 47.1362C44.3478 47.159 44.3176 47.185 44.2882 47.2144ZM32.5831 47.0005H38.3488V46.9995H32.5841L32.5831 47.0005ZM60.4581 47.0005H61.8536L61.8546 46.9995H60.4581V47.0005ZM77.5372 46.9253C77.5121 46.9365 77.488 46.9495 77.465 46.9644C77.4883 46.9493 77.5128 46.9366 77.5382 46.9253C77.5633 46.9142 77.5893 46.9045 77.6163 46.897L77.5372 46.9253Z" fill="#0077B6"/>
<mask id="path-4-outside-1_77_506" maskUnits="userSpaceOnUse" x="107.618" y="45.8745" width="92" height="16" fill="black">
<rect fill="white" x="107.618" y="45.8745" width="92" height="16"/>
<path d="M117.069 46.9998H118.322V60.4097H117.069V53.6779H109.871V60.4097H108.618V46.9998H109.871V52.4247H117.069V46.9998Z"/>
<path d="M127.023 60.5171C125.949 60.5171 124.988 60.362 124.14 60.0517C123.305 59.7413 122.595 59.2937 122.01 58.7089C121.425 58.124 120.977 57.4138 120.667 56.5783C120.357 55.7309 120.201 54.7701 120.201 53.6958C120.201 52.6335 120.357 51.6787 120.667 50.8312C120.977 49.9838 121.425 49.2676 122.01 48.6828C122.595 48.0979 123.305 47.6503 124.14 47.34C124.988 47.0297 125.949 46.8745 127.023 46.8745C128.097 46.8745 129.052 47.0297 129.887 47.34C130.735 47.6503 131.451 48.0979 132.036 48.6828C132.621 49.2676 133.068 49.9838 133.379 50.8312C133.689 51.6787 133.844 52.6335 133.844 53.6958C133.844 54.7701 133.689 55.7309 133.379 56.5783C133.068 57.4138 132.621 58.124 132.036 58.7089C131.451 59.2937 130.735 59.7413 129.887 60.0517C129.052 60.362 128.097 60.5171 127.023 60.5171ZM127.023 48.1278C125.209 48.1278 123.824 48.6052 122.869 49.5601C121.926 50.5149 121.455 51.8935 121.455 53.6958C121.455 55.5101 121.926 56.8946 122.869 57.8495C123.824 58.8044 125.209 59.2818 127.023 59.2818C128.837 59.2818 130.216 58.8044 131.159 57.8495C132.113 56.8946 132.591 55.5101 132.591 53.6958C132.591 51.8935 132.113 50.5149 131.159 49.5601C130.216 48.6052 128.837 48.1278 127.023 48.1278Z"/>
<path d="M140.007 53.105C140.58 53.2244 141.147 53.3616 141.708 53.5168C142.281 53.66 142.788 53.8629 143.23 54.1255C143.671 54.3881 144.029 54.7342 144.304 55.1639C144.578 55.5817 144.716 56.1307 144.716 56.8111C144.716 57.9808 144.286 58.8939 143.427 59.5503C142.579 60.1949 141.391 60.5171 139.864 60.5171C138.336 60.5171 137.148 60.1949 136.301 59.5503C135.453 58.8939 135.03 57.9808 135.03 56.8111H136.283C136.283 57.3482 136.402 57.7779 136.641 58.1001C136.892 58.4224 137.196 58.6731 137.554 58.8521C137.924 59.0311 138.318 59.1505 138.736 59.2102C139.154 59.2579 139.529 59.2818 139.864 59.2818C140.198 59.2818 140.574 59.2579 140.992 59.2102C141.409 59.1505 141.797 59.0311 142.155 58.8521C142.525 58.6731 142.836 58.4224 143.086 58.1001C143.337 57.7779 143.462 57.3482 143.462 56.8111C143.462 56.4411 143.403 56.1307 143.283 55.8801C143.164 55.6294 142.961 55.4146 142.675 55.2355C142.388 55.0565 142.006 54.8954 141.529 54.7521C141.051 54.6089 140.455 54.4657 139.738 54.3225C139.165 54.2031 138.593 54.0718 138.02 53.9286C137.459 53.7734 136.957 53.5645 136.516 53.3019C136.074 53.0394 135.716 52.6932 135.441 52.2635C135.167 51.8338 135.03 51.2788 135.03 50.5985C135.03 49.4288 135.453 48.5157 136.301 47.8592C137.148 47.2027 138.336 46.8745 139.864 46.8745C141.391 46.8745 142.579 47.2027 143.427 47.8592C144.286 48.5157 144.716 49.4288 144.716 50.5985H143.462C143.462 50.0614 143.337 49.6317 143.086 49.3094C142.836 48.9872 142.525 48.7365 142.155 48.5575C141.797 48.3784 141.409 48.265 140.992 48.2173C140.574 48.1576 140.198 48.1278 139.864 48.1278C139.529 48.1278 139.154 48.1576 138.736 48.2173C138.318 48.265 137.924 48.3784 137.554 48.5575C137.196 48.7365 136.892 48.9872 136.641 49.3094C136.402 49.6317 136.283 50.0614 136.283 50.5985C136.283 50.9685 136.343 51.2788 136.462 51.5295C136.593 51.7801 136.802 52.0009 137.089 52.1919C137.387 52.371 137.769 52.5321 138.234 52.6753C138.712 52.8185 139.303 52.9618 140.007 53.105Z"/>
<path d="M152.958 46.9998C153.496 47.0118 153.997 47.1252 154.462 47.34C154.94 47.5429 155.358 47.8234 155.716 48.1815C156.074 48.5396 156.354 48.9633 156.557 49.4526C156.76 49.9301 156.861 50.4374 156.861 50.9745C156.861 51.5235 156.754 52.0427 156.539 52.5321C156.336 53.0095 156.05 53.4332 155.68 53.8033C155.322 54.1613 154.898 54.4478 154.409 54.6626C153.931 54.8655 153.418 54.967 152.869 54.967H147.82V60.4097H146.567V47.6086C146.567 47.4415 146.626 47.2982 146.746 47.1789C146.877 47.0595 147.026 46.9998 147.193 46.9998H152.958ZM152.869 53.7316C153.239 53.7316 153.591 53.66 153.925 53.5168C154.259 53.3736 154.552 53.1766 154.803 52.926C155.053 52.6753 155.25 52.3829 155.393 52.0487C155.537 51.7145 155.608 51.3564 155.608 50.9745C155.608 50.6045 155.537 50.2523 155.393 49.9181C155.25 49.5839 155.053 49.2915 154.803 49.0409C154.552 48.7902 154.259 48.5933 153.925 48.45C153.591 48.3068 153.239 48.2352 152.869 48.2352H147.82V53.7316H152.869Z"/>
<path d="M159.077 46.9998H160.33V60.4097H159.077V46.9998Z"/>
<path d="M162.531 46.9998H172.235V48.2352H168.01V60.4097H166.757V48.2352H162.531V46.9998Z"/>
<path d="M184.363 56.7932H176.593L174.856 60.4097H173.442L179.923 47.2326C180.042 46.9939 180.227 46.8745 180.478 46.8745C180.729 46.8745 180.914 46.9939 181.033 47.2326L187.55 60.4097H186.171L184.363 56.7932ZM183.754 55.5399L180.478 48.9155L177.202 55.5399H183.754Z"/>
<path d="M198.571 59.1565L198.195 60.4097H190.371C190.204 60.4097 190.055 60.35 189.923 60.2307C189.804 60.0994 189.744 59.9502 189.744 59.7831V46.9998H190.998V59.1565H198.571Z"/>
</mask>
<path d="M117.069 46.9998H118.322V60.4097H117.069V53.6779H109.871V60.4097H108.618V46.9998H109.871V52.4247H117.069V46.9998Z" fill="#00BFA6"/>
<path d="M127.023 60.5171C125.949 60.5171 124.988 60.362 124.14 60.0517C123.305 59.7413 122.595 59.2937 122.01 58.7089C121.425 58.124 120.977 57.4138 120.667 56.5783C120.357 55.7309 120.201 54.7701 120.201 53.6958C120.201 52.6335 120.357 51.6787 120.667 50.8312C120.977 49.9838 121.425 49.2676 122.01 48.6828C122.595 48.0979 123.305 47.6503 124.14 47.34C124.988 47.0297 125.949 46.8745 127.023 46.8745C128.097 46.8745 129.052 47.0297 129.887 47.34C130.735 47.6503 131.451 48.0979 132.036 48.6828C132.621 49.2676 133.068 49.9838 133.379 50.8312C133.689 51.6787 133.844 52.6335 133.844 53.6958C133.844 54.7701 133.689 55.7309 133.379 56.5783C133.068 57.4138 132.621 58.124 132.036 58.7089C131.451 59.2937 130.735 59.7413 129.887 60.0517C129.052 60.362 128.097 60.5171 127.023 60.5171ZM127.023 48.1278C125.209 48.1278 123.824 48.6052 122.869 49.5601C121.926 50.5149 121.455 51.8935 121.455 53.6958C121.455 55.5101 121.926 56.8946 122.869 57.8495C123.824 58.8044 125.209 59.2818 127.023 59.2818C128.837 59.2818 130.216 58.8044 131.159 57.8495C132.113 56.8946 132.591 55.5101 132.591 53.6958C132.591 51.8935 132.113 50.5149 131.159 49.5601C130.216 48.6052 128.837 48.1278 127.023 48.1278Z" fill="#00BFA6"/>
<path d="M140.007 53.105C140.58 53.2244 141.147 53.3616 141.708 53.5168C142.281 53.66 142.788 53.8629 143.23 54.1255C143.671 54.3881 144.029 54.7342 144.304 55.1639C144.578 55.5817 144.716 56.1307 144.716 56.8111C144.716 57.9808 144.286 58.8939 143.427 59.5503C142.579 60.1949 141.391 60.5171 139.864 60.5171C138.336 60.5171 137.148 60.1949 136.301 59.5503C135.453 58.8939 135.03 57.9808 135.03 56.8111H136.283C136.283 57.3482 136.402 57.7779 136.641 58.1001C136.892 58.4224 137.196 58.6731 137.554 58.8521C137.924 59.0311 138.318 59.1505 138.736 59.2102C139.154 59.2579 139.529 59.2818 139.864 59.2818C140.198 59.2818 140.574 59.2579 140.992 59.2102C141.409 59.1505 141.797 59.0311 142.155 58.8521C142.525 58.6731 142.836 58.4224 143.086 58.1001C143.337 57.7779 143.462 57.3482 143.462 56.8111C143.462 56.4411 143.403 56.1307 143.283 55.8801C143.164 55.6294 142.961 55.4146 142.675 55.2355C142.388 55.0565 142.006 54.8954 141.529 54.7521C141.051 54.6089 140.455 54.4657 139.738 54.3225C139.165 54.2031 138.593 54.0718 138.02 53.9286C137.459 53.7734 136.957 53.5645 136.516 53.3019C136.074 53.0394 135.716 52.6932 135.441 52.2635C135.167 51.8338 135.03 51.2788 135.03 50.5985C135.03 49.4288 135.453 48.5157 136.301 47.8592C137.148 47.2027 138.336 46.8745 139.864 46.8745C141.391 46.8745 142.579 47.2027 143.427 47.8592C144.286 48.5157 144.716 49.4288 144.716 50.5985H143.462C143.462 50.0614 143.337 49.6317 143.086 49.3094C142.836 48.9872 142.525 48.7365 142.155 48.5575C141.797 48.3784 141.409 48.265 140.992 48.2173C140.574 48.1576 140.198 48.1278 139.864 48.1278C139.529 48.1278 139.154 48.1576 138.736 48.2173C138.318 48.265 137.924 48.3784 137.554 48.5575C137.196 48.7365 136.892 48.9872 136.641 49.3094C136.402 49.6317 136.283 50.0614 136.283 50.5985C136.283 50.9685 136.343 51.2788 136.462 51.5295C136.593 51.7801 136.802 52.0009 137.089 52.1919C137.387 52.371 137.769 52.5321 138.234 52.6753C138.712 52.8185 139.303 52.9618 140.007 53.105Z" fill="#00BFA6"/>
<path d="M152.958 46.9998C153.496 47.0118 153.997 47.1252 154.462 47.34C154.94 47.5429 155.358 47.8234 155.716 48.1815C156.074 48.5396 156.354 48.9633 156.557 49.4526C156.76 49.9301 156.861 50.4374 156.861 50.9745C156.861 51.5235 156.754 52.0427 156.539 52.5321C156.336 53.0095 156.05 53.4332 155.68 53.8033C155.322 54.1613 154.898 54.4478 154.409 54.6626C153.931 54.8655 153.418 54.967 152.869 54.967H147.82V60.4097H146.567V47.6086C146.567 47.4415 146.626 47.2982 146.746 47.1789C146.877 47.0595 147.026 46.9998 147.193 46.9998H152.958ZM152.869 53.7316C153.239 53.7316 153.591 53.66 153.925 53.5168C154.259 53.3736 154.552 53.1766 154.803 52.926C155.053 52.6753 155.25 52.3829 155.393 52.0487C155.537 51.7145 155.608 51.3564 155.608 50.9745C155.608 50.6045 155.537 50.2523 155.393 49.9181C155.25 49.5839 155.053 49.2915 154.803 49.0409C154.552 48.7902 154.259 48.5933 153.925 48.45C153.591 48.3068 153.239 48.2352 152.869 48.2352H147.82V53.7316H152.869Z" fill="#00BFA6"/>
<path d="M159.077 46.9998H160.33V60.4097H159.077V46.9998Z" fill="#00BFA6"/>
<path d="M162.531 46.9998H172.235V48.2352H168.01V60.4097H166.757V48.2352H162.531V46.9998Z" fill="#00BFA6"/>
<path d="M184.363 56.7932H176.593L174.856 60.4097H173.442L179.923 47.2326C180.042 46.9939 180.227 46.8745 180.478 46.8745C180.729 46.8745 180.914 46.9939 181.033 47.2326L187.55 60.4097H186.171L184.363 56.7932ZM183.754 55.5399L180.478 48.9155L177.202 55.5399H183.754Z" fill="#00BFA6"/>
<path d="M198.571 59.1565L198.195 60.4097H190.371C190.204 60.4097 190.055 60.35 189.923 60.2307C189.804 60.0994 189.744 59.9502 189.744 59.7831V46.9998H190.998V59.1565H198.571Z" fill="#00BFA6"/>
<path d="M117.069 46.9998H118.322V60.4097H117.069V53.6779H109.871V60.4097H108.618V46.9998H109.871V52.4247H117.069V46.9998Z" stroke="#00BFA6" stroke-width="0.968343" mask="url(#path-4-outside-1_77_506)"/>
<path d="M127.023 60.5171C125.949 60.5171 124.988 60.362 124.14 60.0517C123.305 59.7413 122.595 59.2937 122.01 58.7089C121.425 58.124 120.977 57.4138 120.667 56.5783C120.357 55.7309 120.201 54.7701 120.201 53.6958C120.201 52.6335 120.357 51.6787 120.667 50.8312C120.977 49.9838 121.425 49.2676 122.01 48.6828C122.595 48.0979 123.305 47.6503 124.14 47.34C124.988 47.0297 125.949 46.8745 127.023 46.8745C128.097 46.8745 129.052 47.0297 129.887 47.34C130.735 47.6503 131.451 48.0979 132.036 48.6828C132.621 49.2676 133.068 49.9838 133.379 50.8312C133.689 51.6787 133.844 52.6335 133.844 53.6958C133.844 54.7701 133.689 55.7309 133.379 56.5783C133.068 57.4138 132.621 58.124 132.036 58.7089C131.451 59.2937 130.735 59.7413 129.887 60.0517C129.052 60.362 128.097 60.5171 127.023 60.5171ZM127.023 48.1278C125.209 48.1278 123.824 48.6052 122.869 49.5601C121.926 50.5149 121.455 51.8935 121.455 53.6958C121.455 55.5101 121.926 56.8946 122.869 57.8495C123.824 58.8044 125.209 59.2818 127.023 59.2818C128.837 59.2818 130.216 58.8044 131.159 57.8495C132.113 56.8946 132.591 55.5101 132.591 53.6958C132.591 51.8935 132.113 50.5149 131.159 49.5601C130.216 48.6052 128.837 48.1278 127.023 48.1278Z" stroke="#00BFA6" stroke-width="0.968343" mask="url(#path-4-outside-1_77_506)"/>
<path d="M140.007 53.105C140.58 53.2244 141.147 53.3616 141.708 53.5168C142.281 53.66 142.788 53.8629 143.23 54.1255C143.671 54.3881 144.029 54.7342 144.304 55.1639C144.578 55.5817 144.716 56.1307 144.716 56.8111C144.716 57.9808 144.286 58.8939 143.427 59.5503C142.579 60.1949 141.391 60.5171 139.864 60.5171C138.336 60.5171 137.148 60.1949 136.301 59.5503C135.453 58.8939 135.03 57.9808 135.03 56.8111H136.283C136.283 57.3482 136.402 57.7779 136.641 58.1001C136.892 58.4224 137.196 58.6731 137.554 58.8521C137.924 59.0311 138.318 59.1505 138.736 59.2102C139.154 59.2579 139.529 59.2818 139.864 59.2818C140.198 59.2818 140.574 59.2579 140.992 59.2102C141.409 59.1505 141.797 59.0311 142.155 58.8521C142.525 58.6731 142.836 58.4224 143.086 58.1001C143.337 57.7779 143.462 57.3482 143.462 56.8111C143.462 56.4411 143.403 56.1307 143.283 55.8801C143.164 55.6294 142.961 55.4146 142.675 55.2355C142.388 55.0565 142.006 54.8954 141.529 54.7521C141.051 54.6089 140.455 54.4657 139.738 54.3225C139.165 54.2031 138.593 54.0718 138.02 53.9286C137.459 53.7734 136.957 53.5645 136.516 53.3019C136.074 53.0394 135.716 52.6932 135.441 52.2635C135.167 51.8338 135.03 51.2788 135.03 50.5985C135.03 49.4288 135.453 48.5157 136.301 47.8592C137.148 47.2027 138.336 46.8745 139.864 46.8745C141.391 46.8745 142.579 47.2027 143.427 47.8592C144.286 48.5157 144.716 49.4288 144.716 50.5985H143.462C143.462 50.0614 143.337 49.6317 143.086 49.3094C142.836 48.9872 142.525 48.7365 142.155 48.5575C141.797 48.3784 141.409 48.265 140.992 48.2173C140.574 48.1576 140.198 48.1278 139.864 48.1278C139.529 48.1278 139.154 48.1576 138.736 48.2173C138.318 48.265 137.924 48.3784 137.554 48.5575C137.196 48.7365 136.892 48.9872 136.641 49.3094C136.402 49.6317 136.283 50.0614 136.283 50.5985C136.283 50.9685 136.343 51.2788 136.462 51.5295C136.593 51.7801 136.802 52.0009 137.089 52.1919C137.387 52.371 137.769 52.5321 138.234 52.6753C138.712 52.8185 139.303 52.9618 140.007 53.105Z" stroke="#00BFA6" stroke-width="0.968343" mask="url(#path-4-outside-1_77_506)"/>
<path d="M152.958 46.9998C153.496 47.0118 153.997 47.1252 154.462 47.34C154.94 47.5429 155.358 47.8234 155.716 48.1815C156.074 48.5396 156.354 48.9633 156.557 49.4526C156.76 49.9301 156.861 50.4374 156.861 50.9745C156.861 51.5235 156.754 52.0427 156.539 52.5321C156.336 53.0095 156.05 53.4332 155.68 53.8033C155.322 54.1613 154.898 54.4478 154.409 54.6626C153.931 54.8655 153.418 54.967 152.869 54.967H147.82V60.4097H146.567V47.6086C146.567 47.4415 146.626 47.2982 146.746 47.1789C146.877 47.0595 147.026 46.9998 147.193 46.9998H152.958ZM152.869 53.7316C153.239 53.7316 153.591 53.66 153.925 53.5168C154.259 53.3736 154.552 53.1766 154.803 52.926C155.053 52.6753 155.25 52.3829 155.393 52.0487C155.537 51.7145 155.608 51.3564 155.608 50.9745C155.608 50.6045 155.537 50.2523 155.393 49.9181C155.25 49.5839 155.053 49.2915 154.803 49.0409C154.552 48.7902 154.259 48.5933 153.925 48.45C153.591 48.3068 153.239 48.2352 152.869 48.2352H147.82V53.7316H152.869Z" stroke="#00BFA6" stroke-width="0.968343" mask="url(#path-4-outside-1_77_506)"/>
<path d="M159.077 46.9998H160.33V60.4097H159.077V46.9998Z" stroke="#00BFA6" stroke-width="0.968343" mask="url(#path-4-outside-1_77_506)"/>
<path d="M162.531 46.9998H172.235V48.2352H168.01V60.4097H166.757V48.2352H162.531V46.9998Z" stroke="#00BFA6" stroke-width="0.968343" mask="url(#path-4-outside-1_77_506)"/>
<path d="M184.363 56.7932H176.593L174.856 60.4097H173.442L179.923 47.2326C180.042 46.9939 180.227 46.8745 180.478 46.8745C180.729 46.8745 180.914 46.9939 181.033 47.2326L187.55 60.4097H186.171L184.363 56.7932ZM183.754 55.5399L180.478 48.9155L177.202 55.5399H183.754Z" stroke="#00BFA6" stroke-width="0.968343" mask="url(#path-4-outside-1_77_506)"/>
<path d="M198.571 59.1565L198.195 60.4097H190.371C190.204 60.4097 190.055 60.35 189.923 60.2307C189.804 60.0994 189.744 59.9502 189.744 59.7831V46.9998H190.998V59.1565H198.571Z" stroke="#00BFA6" stroke-width="0.968343" mask="url(#path-4-outside-1_77_506)"/>
<path d="M47.4432 30.2227C48.6496 30.893 49.624 31.8291 50.3665 33.0309C51.1089 34.2097 51.4801 35.5271 51.4801 36.9833C51.4801 38.0233 51.2829 39.0172 50.8885 39.9648C50.4941 40.8894 49.9489 41.6983 49.2528 42.3917C48.5568 43.0851 47.7448 43.6398 46.8168 44.0558C45.912 44.4719 44.9376 44.6915 43.8936 44.7146H32.6879C32.3631 44.7146 32.0731 44.599 31.8179 44.3679C31.5858 44.1136 31.4698 43.8247 31.4698 43.5011V19.9258C31.4698 19.6023 31.5858 19.3249 31.8179 19.0938C32.0731 18.8626 32.3631 18.7471 32.6879 18.7471H43.3368C44.2416 18.7471 45.0768 18.9204 45.8424 19.2671C46.6312 19.5907 47.3156 20.053 47.8956 20.6539C48.4988 21.2317 48.9628 21.9136 49.2876 22.6994C49.6356 23.4621 49.8097 24.2942 49.8097 25.1956C49.8097 26.2126 49.6008 27.1602 49.1832 28.0385C48.7656 28.8937 48.1856 29.6218 47.4432 30.2227ZM33.9059 29.252H43.3368C43.8936 29.252 44.4156 29.1479 44.9028 28.9399C45.4132 28.7319 45.8424 28.443 46.1904 28.0732C46.5616 27.7034 46.8516 27.2758 47.0604 26.7904C47.2924 26.2819 47.4084 25.7503 47.4084 25.1956C47.4084 24.6409 47.2924 24.1209 47.0604 23.6355C46.8516 23.127 46.5616 22.6994 46.1904 22.3527C45.8424 21.9829 45.4132 21.694 44.9028 21.486C44.4156 21.2548 43.8936 21.1393 43.3368 21.1393H33.9059V29.252ZM43.7196 42.2877C44.4388 42.2877 45.1232 42.149 45.7728 41.8717C46.4224 41.5943 46.9908 41.2245 47.478 40.7622C47.9652 40.2769 48.348 39.7106 48.6264 39.0634C48.9048 38.4163 49.044 37.7229 49.044 36.9833C49.044 36.2668 48.9048 35.5849 48.6264 34.9378C48.348 34.2906 47.9652 33.7243 47.478 33.2389C46.9908 32.7536 46.4224 32.3722 45.7728 32.0949C45.1232 31.8175 44.4388 31.6788 43.7196 31.6788H33.9059V42.2877H43.7196Z" fill="black"/>
<path d="M75.0119 37.7113H59.9086L56.5329 44.7146H53.7837L66.3814 19.1978C66.6134 18.7355 66.973 18.5044 67.4602 18.5044C67.9474 18.5044 68.307 18.7355 68.539 19.1978L81.2064 44.7146H78.5268L75.0119 37.7113ZM73.8287 35.2844L67.4602 22.4567L61.0918 35.2844H73.8287Z" fill="black"/>
<path d="M99.65 18.7471L89.5579 33.2389V44.7146H87.1567V33.1349L77.0646 18.7471H80.0226L88.3747 30.7427L96.692 18.7471H99.65Z" fill="black"/>
<path d="M138.797 18.7471L127.487 44.2292C127.255 44.6915 126.883 44.9226 126.373 44.9226C125.863 44.9226 125.491 44.6915 125.259 44.2292L120.352 33.1696L115.446 44.2292C115.214 44.6915 114.842 44.9226 114.332 44.9226C114.077 44.9226 113.845 44.8532 113.636 44.7146C113.45 44.599 113.311 44.4372 113.218 44.2292L101.873 18.7471H104.588L114.332 40.7276L119.03 30.188L116.838 25.369H119.552L126.373 40.7276L136.152 18.7471H138.797Z" fill="black"/>
<path d="M144.088 21.1393V29.252H155.502L154.772 31.6788H144.088V42.2877H158.078V44.7146H142.87C142.545 44.7146 142.255 44.599 142 44.3679C141.768 44.1136 141.652 43.8247 141.652 43.5011V19.9258C141.652 19.6023 141.768 19.3249 142 19.0938C142.255 18.8626 142.545 18.7471 142.87 18.7471H158.078V21.1393H144.088Z" fill="black"/>
<path d="M169.901 30.5694C171.015 30.8005 172.117 31.0663 173.207 31.3668C174.321 31.6441 175.307 32.0371 176.165 32.5456C177.024 33.054 177.72 33.7243 178.253 34.5564C178.787 35.3653 179.054 36.4285 179.054 37.746C179.054 40.0111 178.219 41.7792 176.548 43.0504C174.901 44.2985 172.593 44.9226 169.623 44.9226C166.653 44.9226 164.345 44.2985 162.698 43.0504C161.051 41.7792 160.227 40.0111 160.227 37.746H162.663C162.663 38.7861 162.895 39.6181 163.359 40.2422C163.846 40.8662 164.438 41.3516 165.134 41.6983C165.853 42.045 166.619 42.2761 167.431 42.3917C168.243 42.4842 168.973 42.5304 169.623 42.5304C170.273 42.5304 171.003 42.4842 171.815 42.3917C172.627 42.2761 173.381 42.045 174.077 41.6983C174.797 41.3516 175.4 40.8662 175.887 40.2422C176.374 39.6181 176.618 38.7861 176.618 37.746C176.618 37.0295 176.502 36.4285 176.27 35.9432C176.038 35.4578 175.643 35.0418 175.087 34.6951C174.53 34.3484 173.787 34.0363 172.859 33.759C171.931 33.4816 170.771 33.2043 169.379 32.9269C168.266 32.6958 167.152 32.4415 166.039 32.1642C164.948 31.8637 163.974 31.4592 163.115 30.9508C162.257 30.4423 161.561 29.772 161.027 28.9399C160.494 28.1079 160.227 27.0331 160.227 25.7157C160.227 23.4506 161.051 21.6824 162.698 20.4112C164.345 19.14 166.653 18.5044 169.623 18.5044C172.593 18.5044 174.901 19.14 176.548 20.4112C178.219 21.6824 179.054 23.4506 179.054 25.7157H176.618C176.618 24.6756 176.374 23.8435 175.887 23.2195C175.4 22.5954 174.797 22.11 174.077 21.7633C173.381 21.4166 172.627 21.1971 171.815 21.1046C171.003 20.989 170.273 20.9313 169.623 20.9313C168.973 20.9313 168.243 20.989 167.431 21.1046C166.619 21.1971 165.853 21.4166 165.134 21.7633C164.438 22.11 163.846 22.5954 163.359 23.2195C162.895 23.8435 162.663 24.6756 162.663 25.7157C162.663 26.4322 162.779 27.0331 163.011 27.5185C163.266 28.0038 163.672 28.4314 164.229 28.8012C164.809 29.1479 165.551 29.46 166.456 29.7373C167.384 30.0147 168.533 30.292 169.901 30.5694Z" fill="black"/>
<path d="M181.33 18.7471H200.192V21.1393H191.979V44.7146H189.543V21.1393H181.33V18.7471Z" fill="black"/>
</svg>
