<svg width="204" height="61" viewBox="0 0 204 61" fill="none" xmlns="http://www.w3.org/2000/svg">
<path d="M24.2257 28.3513V34.2684C24.2257 35.3452 23.3529 36.218 22.2761 36.218H14.3781C13.3014 36.218 12.4285 35.3452 12.4285 34.2684V26.3704C12.4285 25.2937 11.5557 24.4209 10.479 24.4209H2.94957C1.87285 24.4209 1 23.548 1 22.4713V14.1927C1 13.116 1.87285 12.2432 2.94958 12.2432H17.9585C21.446 12.2432 24.2257 14.6354 24.2257 17.5716V21.757" stroke="#678B6A" stroke-width="2" stroke-linecap="round"/>
<path d="M13.7391 8.86699V2.94981C13.7391 1.87309 14.612 1.00024 15.6887 1.00024H23.5867C24.6635 1.00024 25.5363 1.87309 25.5363 2.94981V10.8478C25.5363 11.9245 26.4092 12.7974 27.4859 12.7974H35.0153C36.092 12.7974 36.9648 13.6702 36.9648 14.747V23.0255C36.9648 24.1022 36.092 24.9751 35.0153 24.9751H33.5389M13.7391 15.4613V19.6467C13.7391 22.5828 16.5188 24.9751 20.0064 24.9751H27.9742" stroke="#C9A27E" stroke-width="2" stroke-linecap="round"/>
<path d="M36.0264 47.281C36.5651 47.2931 37.0679 47.4082 37.5348 47.6262C38.0136 47.8322 38.4326 48.1169 38.7918 48.4803C39.1509 48.8437 39.4322 49.2737 39.6358 49.7704C39.8393 50.255 39.941 50.7698 39.941 51.3149C39.941 51.8722 39.8333 52.3991 39.6178 52.8958C39.4143 53.3803 39.127 53.8104 38.7559 54.1859C38.3967 54.5493 37.9717 54.84 37.4809 55.0581C37.0021 55.264 36.4873 55.367 35.9366 55.367H30.8727V60.8909H29.6157V47.8988C29.6157 47.7292 29.6756 47.5839 29.7953 47.4627C29.927 47.3416 30.0766 47.281 30.2442 47.281H36.0264ZM35.9366 54.1132C36.3077 54.1132 36.6609 54.0405 36.9961 53.8952C37.3313 53.7498 37.6246 53.5499 37.876 53.2955C38.1274 53.0411 38.3249 52.7444 38.4685 52.4052C38.6122 52.066 38.684 51.7026 38.684 51.3149C38.684 50.9394 38.6122 50.582 38.4685 50.2428C38.3249 49.9037 38.1274 49.6069 37.876 49.3525C37.6246 49.0981 37.3313 48.8982 36.9961 48.7528C36.6609 48.6075 36.3077 48.5348 35.9366 48.5348H30.8727V54.1132H35.9366Z" fill="#648868"/>
<path d="M51.5549 60.8909L47.1913 55.4033H43.0612V60.8909H41.8042V47.9352C41.8042 47.7656 41.8641 47.6202 41.9838 47.4991C42.1155 47.3658 42.2651 47.2992 42.4327 47.2992H48.2149C48.7536 47.3113 49.2564 47.4264 49.7233 47.6444C50.2021 47.8625 50.6211 48.1532 50.9803 48.5166C51.3394 48.88 51.6207 49.3101 51.8242 49.8067C52.0277 50.2913 52.1295 50.8061 52.1295 51.3513C52.1295 51.86 52.0397 52.3385 51.8601 52.7868C51.6925 53.235 51.4531 53.6408 51.1419 54.0042C50.8426 54.3555 50.4894 54.6523 50.0824 54.8946C49.6754 55.1247 49.2324 55.2761 48.7536 55.3488L53.171 60.8909H51.5549ZM43.0612 54.1314H48.1251C48.4962 54.1314 48.8494 54.0587 49.1846 53.9133C49.5197 53.768 49.813 53.5681 50.0644 53.3137C50.3158 53.0593 50.5134 52.7686 50.657 52.4415C50.8007 52.1023 50.8725 51.7389 50.8725 51.3513C50.8725 50.9636 50.8007 50.6002 50.657 50.261C50.5134 49.9218 50.3158 49.6311 50.0644 49.3888C49.813 49.1344 49.5197 48.9345 49.1846 48.7892C48.8494 48.6438 48.4962 48.5711 48.1251 48.5711H43.0612V54.1314Z" fill="#648868"/>
<path d="M54.7368 47.281H55.9938V60.8909H54.7368V47.281Z" fill="#648868"/>
<path d="M64.6299 60.9999C64.4982 60.9999 64.3785 60.9636 64.2707 60.8909C64.1749 60.8303 64.1031 60.7456 64.0552 60.6365L58.2012 47.281H59.6019L64.6299 58.8013L69.6758 47.281H71.0405L65.2045 60.6365C65.0848 60.8788 64.8932 60.9999 64.6299 60.9999Z" fill="#648868"/>
<path d="M79.4843 57.2204H71.6909L69.9491 60.8909H68.5305L75.0309 47.5172C75.1506 47.2749 75.3362 47.1538 75.5876 47.1538C75.839 47.1538 76.0245 47.2749 76.1442 47.5172L82.6806 60.8909H81.2979L79.4843 57.2204ZM78.8737 55.9485L75.5876 49.2253L72.3014 55.9485H78.8737Z" fill="#648868"/>
<path d="M83.804 47.281H93.5368V48.5348H89.2989V60.8909H88.0419V48.5348H83.804V47.281Z" fill="#648868"/>
<path d="M96.3452 48.5348V52.7868H102.235L101.858 54.0587H96.3452V59.619H103.564V60.8909H95.7167C95.5491 60.8909 95.3995 60.8303 95.2678 60.7092C95.1481 60.576 95.0882 60.4245 95.0882 60.2549V47.8988C95.0882 47.7292 95.1481 47.5839 95.2678 47.4627C95.3995 47.3416 95.5491 47.281 95.7167 47.281H103.564V48.5348H96.3452Z" fill="#648868"/>
<path d="M121.871 47.281H123.128V60.8909H121.871V54.0587H114.652V60.8909H113.395V47.281H114.652V52.7868H121.871V47.281Z" fill="#648868"/>
<path d="M131.855 60.9999C130.777 60.9999 129.814 60.8425 128.964 60.5275C128.126 60.2125 127.413 59.7583 126.827 59.1647C126.24 58.5711 125.791 57.8503 125.48 57.0024C125.169 56.1423 125.013 55.1671 125.013 54.0769C125.013 52.9987 125.169 52.0296 125.48 51.1696C125.791 50.3095 126.24 49.5826 126.827 48.9891C127.413 48.3955 128.126 47.9412 128.964 47.6262C129.814 47.3113 130.777 47.1538 131.855 47.1538C132.932 47.1538 133.89 47.3113 134.728 47.6262C135.578 47.9412 136.296 48.3955 136.883 48.9891C137.469 49.5826 137.918 50.3095 138.23 51.1696C138.541 52.0296 138.696 52.9987 138.696 54.0769C138.696 55.1671 138.541 56.1423 138.23 57.0024C137.918 57.8503 137.469 58.5711 136.883 59.1647C136.296 59.7583 135.578 60.2125 134.728 60.5275C133.89 60.8425 132.932 60.9999 131.855 60.9999ZM131.855 48.4258C130.035 48.4258 128.647 48.9103 127.689 49.8794C126.743 50.8485 126.27 52.2477 126.27 54.0769C126.27 55.9182 126.743 57.3234 127.689 58.2925C128.647 59.2616 130.035 59.7462 131.855 59.7462C133.674 59.7462 135.057 59.2616 136.003 58.2925C136.961 57.3234 137.439 55.9182 137.439 54.0769C137.439 52.2477 136.961 50.8485 136.003 49.8794C135.057 48.9103 133.674 48.4258 131.855 48.4258Z" fill="#648868"/>
<path d="M144.878 53.4772C145.452 53.5984 146.021 53.7377 146.584 53.8952C147.158 54.0405 147.667 54.2465 148.11 54.513C148.553 54.7795 148.912 55.1308 149.187 55.5669C149.463 55.9909 149.6 56.5481 149.6 57.2386C149.6 58.4257 149.169 59.3525 148.307 60.0187C147.457 60.6729 146.266 60.9999 144.734 60.9999C143.202 60.9999 142.01 60.6729 141.161 60.0187C140.311 59.3525 139.886 58.4257 139.886 57.2386H141.143C141.143 57.7837 141.262 58.2198 141.502 58.5469C141.753 58.874 142.058 59.1284 142.418 59.3101C142.789 59.4918 143.184 59.6129 143.603 59.6735C144.022 59.7219 144.399 59.7462 144.734 59.7462C145.069 59.7462 145.446 59.7219 145.865 59.6735C146.284 59.6129 146.673 59.4918 147.032 59.3101C147.404 59.1284 147.715 58.874 147.966 58.5469C148.218 58.2198 148.343 57.7837 148.343 57.2386C148.343 56.8631 148.283 56.5481 148.164 56.2937C148.044 56.0393 147.841 55.8213 147.553 55.6396C147.266 55.4579 146.883 55.2943 146.404 55.149C145.925 55.0036 145.327 54.8582 144.608 54.7129C144.034 54.5917 143.459 54.4585 142.884 54.3131C142.322 54.1556 141.819 53.9436 141.376 53.6771C140.933 53.4106 140.574 53.0593 140.299 52.6232C140.023 52.1871 139.886 51.6238 139.886 50.9333C139.886 49.7462 140.311 48.8195 141.161 48.1532C142.01 47.4869 143.202 47.1538 144.734 47.1538C146.266 47.1538 147.457 47.4869 148.307 48.1532C149.169 48.8195 149.6 49.7462 149.6 50.9333H148.343C148.343 50.3882 148.218 49.9521 147.966 49.625C147.715 49.298 147.404 49.0436 147.032 48.8619C146.673 48.6802 146.284 48.5651 145.865 48.5166C145.446 48.456 145.069 48.4258 144.734 48.4258C144.399 48.4258 144.022 48.456 143.603 48.5166C143.184 48.5651 142.789 48.6802 142.418 48.8619C142.058 49.0436 141.753 49.298 141.502 49.625C141.262 49.9521 141.143 50.3882 141.143 50.9333C141.143 51.3089 141.202 51.6238 141.322 51.8782C141.454 52.1326 141.663 52.3567 141.951 52.5505C142.25 52.7322 142.633 52.8958 143.1 53.0411C143.579 53.1865 144.171 53.3319 144.878 53.4772Z" fill="#648868"/>
<path d="M157.868 47.281C158.406 47.2931 158.909 47.4082 159.376 47.6262C159.855 47.8322 160.274 48.1169 160.633 48.4803C160.992 48.8437 161.274 49.2737 161.477 49.7704C161.681 50.255 161.782 50.7698 161.782 51.3149C161.782 51.8722 161.675 52.3991 161.459 52.8958C161.256 53.3803 160.968 53.8104 160.597 54.1859C160.238 54.5493 159.813 54.84 159.322 55.0581C158.843 55.264 158.329 55.367 157.778 55.367H152.714V60.8909H151.457V47.8988C151.457 47.7292 151.517 47.5839 151.637 47.4627C151.768 47.3416 151.918 47.281 152.086 47.281H157.868ZM157.778 54.1132C158.149 54.1132 158.502 54.0405 158.837 53.8952C159.173 53.7498 159.466 53.5499 159.717 53.2955C159.969 53.0411 160.166 52.7444 160.31 52.4052C160.454 52.066 160.525 51.7026 160.525 51.3149C160.525 50.9394 160.454 50.582 160.31 50.2428C160.166 49.9037 159.969 49.6069 159.717 49.3525C159.466 49.0981 159.173 48.8982 158.837 48.7528C158.502 48.6075 158.149 48.5348 157.778 48.5348H152.714V54.1132H157.778Z" fill="#648868"/>
<path d="M164.005 47.281H165.262V60.8909H164.005V47.281Z" fill="#648868"/>
<path d="M167.469 47.281H177.202V48.5348H172.964V60.8909H171.707V48.5348H167.469V47.281Z" fill="#648868"/>
<path d="M189.366 57.2204H181.573L179.831 60.8909H178.412L184.913 47.5172C185.032 47.2749 185.218 47.1538 185.469 47.1538C185.721 47.1538 185.906 47.2749 186.026 47.5172L192.562 60.8909H191.18L189.366 57.2204ZM188.755 55.9485L185.469 49.2253L182.183 55.9485H188.755Z" fill="#648868"/>
<path d="M203.616 59.619L203.239 60.8909H195.392C195.224 60.8909 195.074 60.8303 194.943 60.7092C194.823 60.576 194.763 60.4245 194.763 60.2549V47.281H196.02V59.619H203.616Z" fill="#648868"/>
<path d="M45.5856 18.15H47.9562V43.4107H45.5856V30.7298H31.9717V43.4107H29.6011V18.15H31.9717V28.3689H45.5856V18.15Z" fill="black"/>
<path d="M60.7906 43.5794C57.8556 43.5794 55.5754 42.7699 53.9498 41.1511C52.3243 39.5322 51.5115 37.2614 51.5115 34.3384C51.5115 31.438 52.3243 29.1784 53.9498 27.5595C55.5754 25.9182 57.8556 25.0975 60.7906 25.0975C63.7256 25.0975 66.0059 25.9182 67.6315 27.5595C69.257 29.1784 70.0698 31.438 70.0698 34.3384C70.0698 37.2614 69.257 39.5322 67.6315 41.1511C66.0059 42.7699 63.7256 43.5794 60.7906 43.5794ZM60.7906 27.4583C58.5329 27.4583 56.8171 28.0429 55.6431 29.2121C54.4691 30.3813 53.8821 32.09 53.8821 34.3384C53.8821 36.5868 54.4691 38.2956 55.6431 39.4648C56.8171 40.634 58.5329 41.2185 60.7906 41.2185C63.0483 41.2185 64.7642 40.634 65.9382 39.4648C67.1122 38.2956 67.6992 36.5868 67.6992 34.3384C67.6992 32.09 67.1122 30.3813 65.9382 29.2121C64.7642 28.0429 63.0483 27.4583 60.7906 27.4583Z" fill="black"/>
<path d="M81.6621 25.0975C84.5971 25.0975 86.8774 25.9182 88.5029 27.5595C90.1285 29.1784 90.9412 31.438 90.9412 34.3384V34.3722C90.9412 34.7094 90.817 34.9905 90.5687 35.2153C90.3429 35.4402 90.072 35.5526 89.7559 35.5526H74.8213C75.0244 37.3963 75.7018 38.8015 76.8532 39.7683C78.0046 40.7351 79.5963 41.2185 81.6282 41.2185C83.8182 41.2185 85.5002 40.6564 86.6742 39.5322L88.3336 41.2185C86.6855 42.7924 84.4503 43.5794 81.6282 43.5794C78.7158 43.5794 76.4468 42.7699 74.8213 41.1511C73.1957 39.5322 72.3829 37.2726 72.3829 34.3722V34.3384C72.3829 31.438 73.1957 29.1784 74.8213 27.5595C76.4468 25.9182 78.7271 25.0975 81.6621 25.0975ZM88.5368 33.1918C88.3336 31.3256 87.645 29.9091 86.471 28.9423C85.3196 27.953 83.7166 27.4583 81.6621 27.4583C79.6076 27.4583 77.9933 27.953 76.8193 28.9423C75.6679 29.9091 75.0019 31.3256 74.8213 33.1918H88.5368Z" fill="black"/>
<path d="M93.2166 34.3722C93.2166 31.4492 94.0293 29.1784 95.6549 27.5595C97.2804 25.9407 99.5607 25.1312 102.496 25.1312C103.986 25.1312 105.307 25.3561 106.458 25.8058C107.632 26.233 108.614 26.8513 109.404 27.6607V17.1719H111.741V34.3722C111.741 37.2726 110.928 39.5322 109.303 41.1511C107.677 42.7699 105.408 43.5794 102.496 43.5794C99.5607 43.5794 97.2804 42.7699 95.6549 41.1511C94.0293 39.5322 93.2166 37.2726 93.2166 34.3722ZM95.5871 34.3722C95.5871 36.5981 96.1741 38.3069 97.3481 39.4985C98.5221 40.6677 100.238 41.2523 102.496 41.2523C104.731 41.2523 106.435 40.6677 107.609 39.4985C108.806 38.3069 109.404 36.5981 109.404 34.3722C109.404 32.1238 108.806 30.415 107.609 29.2458C106.435 28.0766 104.731 27.4921 102.496 27.4921C100.238 27.4921 98.5221 28.0766 97.3481 29.2458C96.1741 30.415 95.5871 32.1238 95.5871 34.3722Z" fill="black"/>
<path d="M122.084 33.2255C122.829 33.3829 123.585 33.5627 124.353 33.7651C125.121 33.945 125.809 34.226 126.419 34.6082C127.051 34.968 127.559 35.4514 127.943 36.0585C128.326 36.6655 128.518 37.4412 128.518 38.3856C128.518 40.0044 127.92 41.2747 126.724 42.1966C125.527 43.1184 123.901 43.5794 121.847 43.5794C119.77 43.5794 118.133 43.1184 116.936 42.1966C115.74 41.2747 115.142 40.0044 115.142 38.3856H117.512C117.512 38.9701 117.636 39.4535 117.885 39.8358C118.156 40.1955 118.494 40.4878 118.901 40.7126C119.33 40.915 119.804 41.0611 120.323 41.1511C120.842 41.2185 121.35 41.2523 121.847 41.2523C122.344 41.2523 122.84 41.2185 123.337 41.1511C123.856 41.0611 124.319 40.915 124.725 40.7126C125.154 40.4878 125.504 40.1955 125.775 39.8358C126.046 39.4535 126.182 38.9701 126.182 38.3856C126.182 37.9808 126.114 37.6436 125.978 37.3738C125.866 37.104 125.64 36.8679 125.301 36.6655C124.963 36.4407 124.488 36.2496 123.879 36.0922C123.292 35.9123 122.524 35.7212 121.576 35.5188C120.831 35.3615 120.075 35.1816 119.307 34.9792C118.539 34.7769 117.839 34.4958 117.207 34.1361C116.598 33.7539 116.101 33.2592 115.717 32.6521C115.333 32.0451 115.142 31.2581 115.142 30.2913C115.142 28.6725 115.74 27.4021 116.936 26.4803C118.133 25.5584 119.77 25.0975 121.847 25.0975C123.901 25.0975 125.527 25.5584 126.724 26.4803C127.92 27.4021 128.518 28.6725 128.518 30.2913H126.182C126.182 29.7067 126.046 29.2346 125.775 28.8748C125.504 28.4926 125.154 28.2003 124.725 27.998C124.319 27.7956 123.856 27.6607 123.337 27.5932C122.84 27.5033 122.344 27.4583 121.847 27.4583C121.35 27.4583 120.842 27.5033 120.323 27.5932C119.804 27.6607 119.33 27.7956 118.901 27.998C118.494 28.2003 118.156 28.4926 117.885 28.8748C117.636 29.2346 117.512 29.7067 117.512 30.2913C117.512 30.6735 117.557 30.9996 117.648 31.2694C117.76 31.5392 117.975 31.7865 118.291 32.0113C118.63 32.2137 119.093 32.4161 119.68 32.6184C120.289 32.8208 121.091 33.0231 122.084 33.2255Z" fill="black"/>
<path d="M141.355 25.1312C144.268 25.1312 146.537 25.9407 148.162 27.5595C149.788 29.1784 150.601 31.438 150.601 34.3384C150.601 37.2614 149.788 39.5322 148.162 41.1511C146.537 42.7699 144.268 43.5794 141.355 43.5794C139.865 43.5794 138.533 43.3658 137.359 42.9386C136.208 42.4889 135.237 41.8481 134.447 41.0162V50.8304L132.076 50.1222V34.3384C132.076 31.438 132.889 29.1784 134.514 27.5595C136.14 25.9407 138.42 25.1312 141.355 25.1312ZM141.355 41.2185C143.59 41.2185 145.295 40.634 146.469 39.4648C147.666 38.2956 148.264 36.5868 148.264 34.3384C148.264 32.1125 147.666 30.415 146.469 29.2458C145.295 28.0542 143.59 27.4583 141.355 27.4583C139.098 27.4583 137.382 28.0542 136.208 29.2458C135.034 30.415 134.447 32.1125 134.447 34.3384C134.447 36.5868 135.034 38.2956 136.208 39.4648C137.382 40.634 139.098 41.2185 141.355 41.2185Z" fill="black"/>
<path d="M153.933 34.3722C153.933 31.4717 154.69 29.2121 156.202 27.5932C157.715 25.9519 159.826 25.1312 162.535 25.1312V27.4921C160.503 27.4921 158.957 28.0879 157.896 29.2795C156.835 30.4487 156.304 32.1462 156.304 34.3722V43.4107H153.933V34.3722Z" fill="black"/>
<path d="M172.949 43.5794C170.556 43.5794 168.694 42.7699 167.362 41.1511C166.03 39.5322 165.363 37.2614 165.363 34.3384V25.4685H167.734V34.3384C167.734 34.9905 167.791 35.71 167.903 36.4969C168.016 37.2838 168.253 38.0371 168.615 38.7565C168.998 39.4535 169.529 40.0381 170.206 40.5103C170.906 40.9825 171.82 41.2185 172.949 41.2185C174.078 41.2185 174.981 40.9825 175.659 40.5103C176.358 40.0381 176.889 39.4535 177.25 38.7565C177.634 38.0371 177.882 37.2838 177.995 36.4969C178.108 35.71 178.165 34.9905 178.165 34.3384V25.4685H180.535V34.3384C180.535 37.2614 179.869 39.5322 178.537 41.1511C177.205 42.7699 175.343 43.5794 172.949 43.5794Z" fill="black"/>
<path d="M187.409 43.4107H185.038V25.4685H187.409V43.4107ZM187.409 17.1382V20.3084H185.038V17.1382H187.409Z" fill="black"/>
<path d="M203.601 25.3336V27.6944H198.623V43.4107H196.253V27.6944H191.308V25.3336H196.253V17.1382H198.623V25.3336H203.601Z" fill="black"/>
</svg>
