<svg width="239" height="61" viewBox="0 0 239 61" fill="none" xmlns="http://www.w3.org/2000/svg">
<path d="M30.1193 51.2168L28.3856 49.8042L29.0919 48.9373C30.4618 47.2463 31.1467 44.9775 31.1467 42.1307V19.2068H33.362V42.1307C33.362 45.534 32.5166 48.2738 30.8256 50.35L30.1193 51.2168Z" fill="black"/>
<path d="M45.4811 43.415C42.6986 43.415 40.5368 42.6444 38.9957 41.1033C37.4546 39.5622 36.684 37.4004 36.684 34.6179C36.684 31.8567 37.4546 29.7056 38.9957 28.1645C40.5368 26.602 42.6986 25.8207 45.4811 25.8207C48.2637 25.8207 50.4255 26.602 51.9666 28.1645C53.5077 29.7056 54.2782 31.8567 54.2782 34.6179C54.2782 37.4004 53.5077 39.5622 51.9666 41.1033C50.4255 42.6444 48.2637 43.415 45.4811 43.415ZM45.4811 28.0682C43.3407 28.0682 41.714 28.6247 40.601 29.7377C39.488 30.8507 38.9314 32.4774 38.9314 34.6179C38.9314 36.7583 39.488 38.385 40.601 39.498C41.714 40.611 43.3407 41.1676 45.4811 41.1676C47.6215 41.1676 49.2482 40.611 50.3613 39.498C51.4743 38.385 52.0308 36.7583 52.0308 34.6179C52.0308 32.4774 51.4743 30.8507 50.3613 29.7377C49.2482 28.6247 47.6215 28.0682 45.4811 28.0682Z" fill="black"/>
<path d="M65.8462 25.8528C67.1091 25.8528 68.2435 26.0562 69.2495 26.4629C70.2555 26.8695 71.101 27.4475 71.7859 28.1966C72.4922 28.9458 73.0273 29.8661 73.3912 30.9578C73.7765 32.0494 73.9691 33.2801 73.9691 34.65V43.2545H71.7217V34.65C71.7217 32.531 71.2187 30.9149 70.2127 29.8019C69.2067 28.6675 67.7512 28.1003 65.8462 28.1003C63.9199 28.1003 62.4537 28.6675 61.4477 29.8019C60.4417 30.9149 59.9387 32.531 59.9387 34.65V43.2545H57.6913V18.2437H59.9387V28.1003C60.6236 27.3725 61.4584 26.816 62.443 26.4308C63.449 26.0455 64.5834 25.8528 65.8462 25.8528Z" fill="black"/>
<path d="M85.6766 25.8207C88.4591 25.8207 90.6209 26.602 92.162 28.1645C93.7031 29.7056 94.4737 31.8567 94.4737 34.6179V38.4706C94.4737 38.8345 94.3881 39.3054 94.2168 39.8833C94.0456 40.4398 93.6496 40.9856 93.0289 41.5207C92.4296 42.0344 91.552 42.4839 90.3962 42.8692C89.2404 43.2331 87.6672 43.415 85.6766 43.415C83.686 43.415 82.1128 43.2331 80.957 42.8692C79.8012 42.4839 78.9129 42.0344 78.2922 41.5207C77.6928 40.9856 77.3076 40.4398 77.1363 39.8833C76.9651 39.3054 76.8795 38.8345 76.8795 38.4706C76.8795 37.165 77.0828 36.1376 77.4895 35.3884C77.8962 34.6393 78.442 34.0828 79.1269 33.7189C79.8119 33.3336 80.6145 33.0875 81.5349 32.9804C82.4767 32.8734 83.4827 32.8199 84.5529 32.8199H92.0657C91.7661 31.2788 91.0811 30.1016 90.0109 29.2882C88.9407 28.4749 87.4959 28.0682 85.6766 28.0682C83.8358 28.0682 82.3482 28.507 81.2138 29.3845L79.8333 27.6187C81.353 26.4201 83.3007 25.8207 85.6766 25.8207ZM92.2263 35.0674H85.6766C84.2425 35.0674 83.0867 35.1102 82.2091 35.1958C81.353 35.26 80.6894 35.4098 80.2185 35.6453C79.769 35.8807 79.4694 36.2232 79.3196 36.6727C79.1911 37.1222 79.1269 37.7215 79.1269 38.4706C79.1269 38.9629 79.3196 39.3803 79.7048 39.7228C80.0901 40.0652 80.5931 40.3435 81.2138 40.5575C81.8345 40.7716 82.5302 40.9321 83.3007 41.0391C84.0927 41.1247 84.8846 41.1676 85.6766 41.1676C86.4685 41.1676 87.2498 41.1247 88.0203 41.0391C88.8123 40.9321 89.5186 40.7716 90.1394 40.5575C90.7601 40.3435 91.2631 40.0652 91.6483 39.7228C92.0336 39.3803 92.2263 38.9629 92.2263 38.4706V35.0674Z" fill="black"/>
<path d="M114.147 43.2545H111.9V34.65C111.9 32.531 111.429 30.9149 110.487 29.8019C109.545 28.6675 108.176 28.1003 106.378 28.1003C104.58 28.1003 103.21 28.6675 102.268 29.8019C101.326 30.9149 100.855 32.531 100.855 34.65V43.2545H98.6079V34.65C98.6079 31.8888 99.2821 29.7377 100.631 28.1966C102 26.6341 103.916 25.8528 106.378 25.8528C108.818 25.8528 110.723 26.6341 112.092 28.1966C113.462 29.7377 114.147 31.8888 114.147 34.65V43.2545Z" fill="black"/>
<path d="M133.963 43.2545H131.715V34.65C131.715 32.531 131.245 30.9149 130.303 29.8019C129.361 28.6675 127.991 28.1003 126.193 28.1003C124.395 28.1003 123.025 28.6675 122.084 29.8019C121.142 30.9149 120.671 32.531 120.671 34.65V43.2545H118.423V34.65C118.423 31.8888 119.098 29.7377 120.446 28.1966C121.816 26.6341 123.732 25.8528 126.193 25.8528C128.633 25.8528 130.538 26.6341 131.908 28.1966C133.278 29.7377 133.963 31.8888 133.963 34.65V43.2545Z" fill="black"/>
<path d="M145.816 25.8207C148.599 25.8207 150.76 26.602 152.302 28.1645C153.843 29.7056 154.613 31.8567 154.613 34.6179V34.65C154.613 34.971 154.495 35.2386 154.26 35.4526C154.046 35.6667 153.789 35.7737 153.489 35.7737H139.331C139.523 37.5288 140.165 38.8666 141.257 39.787C142.349 40.7074 143.858 41.1676 145.784 41.1676C147.86 41.1676 149.455 40.6325 150.568 39.5622L152.141 41.1676C150.578 42.6658 148.459 43.415 145.784 43.415C143.023 43.415 140.872 42.6444 139.331 41.1033C137.789 39.5622 137.019 37.4111 137.019 34.65V34.6179C137.019 31.8567 137.789 29.7056 139.331 28.1645C140.872 26.602 143.034 25.8207 145.816 25.8207ZM152.334 33.5263C152.141 31.7497 151.488 30.4012 150.375 29.4809C149.284 28.5391 147.764 28.0682 145.816 28.0682C143.868 28.0682 142.338 28.5391 141.225 29.4809C140.133 30.4012 139.502 31.7497 139.331 33.5263H152.334Z" fill="black"/>
<path d="M163.288 33.5584C163.994 33.7082 164.711 33.8794 165.439 34.0721C166.167 34.2433 166.82 34.5108 167.397 34.8747C167.997 35.2172 168.478 35.6774 168.842 36.2553C169.206 36.8332 169.388 37.5716 169.388 38.4706C169.388 40.0117 168.821 41.2211 167.686 42.0986C166.552 42.9762 165.011 43.415 163.063 43.415C161.094 43.415 159.542 42.9762 158.408 42.0986C157.273 41.2211 156.706 40.0117 156.706 38.4706H158.954C158.954 39.0271 159.071 39.4873 159.307 39.8512C159.564 40.1937 159.885 40.4719 160.27 40.686C160.677 40.8786 161.126 41.0177 161.618 41.1033C162.111 41.1676 162.592 41.1997 163.063 41.1997C163.534 41.1997 164.005 41.1676 164.476 41.1033C164.968 41.0177 165.407 40.8786 165.792 40.686C166.199 40.4719 166.531 40.1937 166.787 39.8512C167.044 39.4873 167.173 39.0271 167.173 38.4706C167.173 38.0854 167.108 37.7643 166.98 37.5074C166.873 37.2506 166.659 37.0258 166.338 36.8332C166.017 36.6192 165.567 36.4372 164.989 36.2874C164.433 36.1162 163.705 35.9342 162.806 35.7416C162.1 35.5918 161.383 35.4205 160.655 35.2279C159.927 35.0353 159.264 34.7677 158.665 34.4252C158.087 34.0614 157.616 33.5905 157.252 33.0126C156.888 32.4346 156.706 31.6855 156.706 30.7651C156.706 29.224 157.273 28.0147 158.408 27.1371C159.542 26.2595 161.094 25.8207 163.063 25.8207C165.011 25.8207 166.552 26.2595 167.686 27.1371C168.821 28.0147 169.388 29.224 169.388 30.7651H167.173C167.173 30.2086 167.044 29.7591 166.787 29.4166C166.531 29.0528 166.199 28.7745 165.792 28.5819C165.407 28.3892 164.968 28.2608 164.476 28.1966C164.005 28.111 163.534 28.0682 163.063 28.0682C162.592 28.0682 162.111 28.111 161.618 28.1966C161.126 28.2608 160.677 28.3892 160.27 28.5819C159.885 28.7745 159.564 29.0528 159.307 29.4166C159.071 29.7591 158.954 30.2086 158.954 30.7651C158.954 31.129 158.996 31.4393 159.082 31.6962C159.189 31.953 159.392 32.1885 159.692 32.4025C160.013 32.5952 160.452 32.7878 161.008 32.9804C161.586 33.1731 162.346 33.3657 163.288 33.5584Z" fill="black"/>
<path d="M181.494 25.8528C184.255 25.8528 186.406 26.6234 187.947 28.1645C189.488 29.7056 190.259 31.8674 190.259 34.65C190.259 37.4111 189.488 39.5622 187.947 41.1033C186.406 42.6444 184.255 43.415 181.494 43.415C178.711 43.415 176.549 42.6444 175.008 41.1033C173.467 39.5622 172.697 37.4111 172.697 34.65V18.2758H174.944V28.2608C175.693 27.4903 176.614 26.9017 177.705 26.495C178.818 26.0669 180.081 25.8528 181.494 25.8528ZM181.494 41.1997C183.613 41.1997 185.229 40.6432 186.342 39.5301C187.476 38.3957 188.043 36.769 188.043 34.65C188.043 32.5096 187.476 30.8828 186.342 29.7698C185.229 28.6568 183.613 28.1003 181.494 28.1003C179.353 28.1003 177.727 28.6568 176.614 29.7698C175.501 30.8828 174.944 32.5096 174.944 34.65C174.944 36.769 175.501 38.3957 176.614 39.5301C177.727 40.6432 179.353 41.1997 181.494 41.1997Z" fill="black"/>
<path d="M200.318 43.415C198.049 43.415 196.283 42.6444 195.02 41.1033C193.757 39.5622 193.126 37.4004 193.126 34.6179V26.1739H195.373V34.6179C195.373 35.2386 195.427 35.9235 195.534 36.6727C195.641 37.4218 195.866 38.1389 196.208 38.8238C196.572 39.4873 197.075 40.0438 197.717 40.4933C198.381 40.9428 199.247 41.1676 200.318 41.1676C201.388 41.1676 202.244 40.9428 202.886 40.4933C203.55 40.0438 204.053 39.4873 204.395 38.8238C204.759 38.1389 204.994 37.4218 205.101 36.6727C205.208 35.9235 205.262 35.2386 205.262 34.6179V26.1739H207.509V34.6179C207.509 37.4004 206.878 39.5622 205.615 41.1033C204.352 42.6444 202.586 43.415 200.318 43.415Z" fill="black"/>
<path d="M211.072 34.65C211.072 31.8888 211.789 29.7377 213.223 28.1966C214.657 26.6341 216.659 25.8528 219.227 25.8528V28.1003C217.301 28.1003 215.835 28.6675 214.829 29.8019C213.823 30.9149 213.32 32.531 213.32 34.65V43.2545H211.072V34.65Z" fill="black"/>
<path d="M229.935 25.8207C232.718 25.8207 234.879 26.602 236.421 28.1645C237.962 29.7056 238.732 31.8567 238.732 34.6179V41.5528C238.732 44.314 237.951 46.4651 236.388 48.0062C234.847 49.5473 232.696 50.3179 229.935 50.3179V48.0704C232.054 48.0704 233.67 47.5139 234.783 46.4009C235.896 45.2879 236.453 43.6718 236.453 41.5528V41.0391C234.912 42.623 232.739 43.415 229.935 43.415C227.153 43.415 224.991 42.6444 223.45 41.1033C221.909 39.5622 221.138 37.4004 221.138 34.6179C221.138 31.8567 221.909 29.7056 223.45 28.1645C224.991 26.602 227.153 25.8207 229.935 25.8207ZM236.485 34.6179C236.485 32.4774 235.928 30.8507 234.815 29.7377C233.702 28.6247 232.076 28.0682 229.935 28.0682C227.795 28.0682 226.168 28.6247 225.055 29.7377C223.942 30.8507 223.385 32.4774 223.385 34.6179C223.385 36.7583 223.942 38.385 225.055 39.498C226.168 40.611 227.795 41.1676 229.935 41.1676C231.926 41.1676 233.467 40.686 234.558 39.7228C235.671 38.7596 236.303 37.3469 236.453 35.4847L236.485 34.6179Z" fill="black"/>
<path d="M42.0358 52.756C42.6162 52.8769 43.1907 53.016 43.759 53.1732C44.3395 53.3183 44.8535 53.5239 45.3009 53.79C45.7484 54.056 46.1112 54.4067 46.3893 54.8421C46.6674 55.2653 46.8065 55.8216 46.8065 56.5109C46.8065 57.6961 46.3712 58.6212 45.5005 59.2863C44.6418 59.9394 43.4386 60.2659 41.8906 60.2659C40.3427 60.2659 39.1395 59.9394 38.2808 59.2863C37.4222 58.6212 36.9929 57.6961 36.9929 56.5109H38.2627C38.2627 57.0551 38.3836 57.4905 38.6255 57.817C38.8795 58.1435 39.1878 58.3975 39.5506 58.5789C39.9255 58.7603 40.3246 58.8812 40.7478 58.9417C41.1711 58.99 41.552 59.0142 41.8906 59.0142C42.2293 59.0142 42.6102 58.99 43.0334 58.9417C43.4567 58.8812 43.8497 58.7603 44.2125 58.5789C44.5874 58.3975 44.9018 58.1435 45.1558 57.817C45.4098 57.4905 45.5367 57.0551 45.5367 56.5109C45.5367 56.136 45.4763 55.8216 45.3553 55.5677C45.2344 55.3137 45.0288 55.096 44.7386 54.9146C44.4483 54.7332 44.0614 54.57 43.5776 54.4249C43.0939 54.2797 42.4893 54.1346 41.7637 53.9895C41.1832 53.8686 40.6027 53.7356 40.0223 53.5904C39.4539 53.4332 38.946 53.2216 38.4985 52.9555C38.0511 52.6895 37.6883 52.3388 37.4101 51.9034C37.132 51.4681 36.9929 50.9057 36.9929 50.2164C36.9929 49.0313 37.4222 48.1062 38.2808 47.441C39.1395 46.7759 40.3427 46.4434 41.8906 46.4434C43.4386 46.4434 44.6418 46.7759 45.5005 47.441C46.3712 48.1062 46.8065 49.0313 46.8065 50.2164H45.5367C45.5367 49.6722 45.4098 49.2369 45.1558 48.9104C44.9018 48.5839 44.5874 48.3299 44.2125 48.1485C43.8497 47.9671 43.4567 47.8522 43.0334 47.8038C42.6102 47.7434 42.2293 47.7131 41.8906 47.7131C41.552 47.7131 41.1711 47.7434 40.7478 47.8038C40.3246 47.8522 39.9255 47.9671 39.5506 48.1485C39.1878 48.3299 38.8795 48.5839 38.6255 48.9104C38.3836 49.2369 38.2627 49.6722 38.2627 50.2164C38.2627 50.5913 38.3232 50.9057 38.4441 51.1597C38.5771 51.4137 38.7888 51.6374 39.079 51.8309C39.3813 52.0123 39.7683 52.1755 40.2399 52.3206C40.7237 52.4658 41.3223 52.6109 42.0358 52.756Z" fill="#E70922"/>
<path d="M58.2055 46.5703V56.5109C58.2055 57.6961 57.7701 58.6212 56.8994 59.2863C56.0408 59.9394 54.8375 60.2659 53.2896 60.2659C51.7417 60.2659 50.5384 59.9394 49.6798 59.2863C48.8212 58.6212 48.3919 57.6961 48.3919 56.5109V46.5703H49.6617V56.5109C49.6617 57.0551 49.7826 57.4905 50.0245 57.817C50.2784 58.1435 50.5868 58.3975 50.9496 58.5789C51.3245 58.7603 51.7236 58.8812 52.1468 58.9417C52.5701 58.99 52.951 59.0142 53.2896 59.0142C53.6282 59.0142 54.0092 58.99 54.4324 58.9417C54.8557 58.8812 55.2487 58.7603 55.6115 58.5789C55.9864 58.3975 56.3008 58.1435 56.5548 57.817C56.8087 57.4905 56.9357 57.0551 56.9357 56.5109V46.5703H58.2055Z" fill="#E70922"/>
<path d="M70.1713 60.157L65.7634 54.6788H61.5912V60.157H60.3215V47.2234C60.3215 47.0541 60.3819 46.9089 60.5029 46.788C60.6359 46.655 60.787 46.5885 60.9563 46.5885H66.7973C67.3415 46.6006 67.8494 46.7155 68.3211 46.9331C68.8048 47.1508 69.2281 47.441 69.5909 47.8038C69.9537 48.1666 70.2378 48.5959 70.4434 49.0918C70.649 49.5755 70.7518 50.0895 70.7518 50.6336C70.7518 51.1416 70.6611 51.6192 70.4797 52.0667C70.3104 52.5141 70.0685 52.9193 69.7541 53.2821C69.4518 53.6328 69.095 53.929 68.6839 54.1709C68.2727 54.4007 67.8253 54.5518 67.3415 54.6244L71.8039 60.157H70.1713ZM61.5912 53.409H66.7066C67.0815 53.409 67.4383 53.3365 67.7769 53.1914C68.1155 53.0462 68.4118 52.8467 68.6657 52.5927C68.9197 52.3388 69.1192 52.0486 69.2643 51.722C69.4095 51.3834 69.482 51.0206 69.482 50.6336C69.482 50.2467 69.4095 49.8839 69.2643 49.5453C69.1192 49.2067 68.9197 48.9164 68.6657 48.6746C68.4118 48.4206 68.1155 48.2211 67.7769 48.0759C67.4383 47.9308 67.0815 47.8583 66.7066 47.8583H61.5912V53.409Z" fill="#E70922"/>
<path d="M84.3783 52.7197V58.0347C84.3783 58.204 84.3178 58.3612 84.1969 58.5063C82.9634 59.6794 81.2885 60.2659 79.1722 60.2659C78.0838 60.2659 77.1103 60.1087 76.2517 59.7942C75.4052 59.4798 74.6856 59.0263 74.0931 58.4338C73.5005 57.8412 73.047 57.1216 72.7326 56.2751C72.4181 55.4165 72.2609 54.443 72.2609 53.3546C72.2609 52.2783 72.4181 51.3109 72.7326 50.4523C73.047 49.5936 73.5005 48.868 74.0931 48.2755C74.6856 47.6829 75.4052 47.2294 76.2517 46.915C77.1103 46.6006 78.0838 46.4434 79.1722 46.4434C80.9861 46.4434 82.4796 46.8848 83.6527 47.7676L82.8908 48.7834C81.9355 48.0699 80.6959 47.7131 79.1722 47.7131C77.334 47.7131 75.9312 48.1969 74.9638 49.1643C74.0084 50.1318 73.5307 51.5285 73.5307 53.3546C73.5307 55.1928 74.0084 56.5956 74.9638 57.563C75.9312 58.5305 77.334 59.0142 79.1722 59.0142C80.8289 59.0142 82.141 58.597 83.1085 57.7626V53.1007L84.3783 52.7197Z" fill="#E70922"/>
<path d="M87.5041 46.5703H88.7739V60.157H87.5041V46.5703Z" fill="#E70922"/>
<path d="M102.976 58.5063C101.743 59.6794 100.068 60.2659 97.9513 60.2659C96.8629 60.2659 95.8894 60.1087 95.0308 59.7942C94.1843 59.4798 93.4648 59.0263 92.8722 58.4338C92.2796 57.8412 91.8261 57.1216 91.5117 56.2751C91.1973 55.4165 91.0401 54.443 91.0401 53.3546C91.0401 52.2783 91.1973 51.3109 91.5117 50.4523C91.8261 49.5936 92.2796 48.868 92.8722 48.2755C93.4648 47.6829 94.1843 47.2294 95.0308 46.915C95.8894 46.6006 96.8629 46.4434 97.9513 46.4434C99.7653 46.4434 101.259 46.8848 102.432 47.7676L101.67 48.7834C100.715 48.0699 99.4751 47.7131 97.9513 47.7131C96.1132 47.7131 94.7104 48.1969 93.7429 49.1643C92.7875 50.1318 92.3099 51.5285 92.3099 53.3546C92.3099 55.1928 92.7875 56.5956 93.7429 57.563C94.7104 58.5305 96.1132 59.0142 97.9513 59.0142C98.822 59.0142 99.6081 58.8933 100.309 58.6514C101.011 58.4096 101.603 58.0528 102.087 57.5812L102.976 58.5063Z" fill="#E70922"/>
<path d="M115.267 56.4928H107.394L105.635 60.157H104.202L110.768 46.8062C110.889 46.5643 111.077 46.4434 111.331 46.4434C111.584 46.4434 111.772 46.5643 111.893 46.8062L118.496 60.157H117.099L115.267 56.4928ZM114.65 55.223L111.331 48.5113L108.011 55.223H114.65Z" fill="#E70922"/>
<path d="M129.662 58.8872L129.281 60.157H121.354C121.185 60.157 121.033 60.0966 120.9 59.9756C120.779 59.8426 120.719 59.6914 120.719 59.5221V46.5703H121.989V58.8872H129.662Z" fill="#E70922"/>
<path d="M18.71 11.7412C22.7496 11.7412 26.2555 14.5445 26.2559 18.3057V22.6768C26.2558 23.2289 25.808 23.6766 25.2559 23.6768C24.7036 23.6767 24.2559 23.229 24.2559 22.6768V18.3057C24.2555 15.9346 21.9541 13.7412 18.71 13.7412H3.55664C2.69718 13.7414 2.00038 14.4384 2 15.2979V22.9023C2.00024 23.7619 2.69709 24.4588 3.55664 24.459H10.3779C12.3422 24.459 13.9352 26.0515 13.9355 28.0156V35.2227C13.9358 36.0823 14.6325 36.7792 15.4922 36.7793H22.6982C23.558 36.7793 24.2556 36.0823 24.2559 35.2227V29.5635C24.2561 29.0115 24.7038 28.5635 25.2559 28.5635C25.8078 28.5637 26.2556 29.0116 26.2559 29.5635V35.2227C26.2556 37.1869 24.6625 38.7793 22.6982 38.7793H15.4922C13.5279 38.7792 11.9358 37.1869 11.9355 35.2227V28.0156C11.9352 27.156 11.2376 26.459 10.3779 26.459H3.55664C1.59252 26.4588 0.000239515 24.8665 0 22.9023V15.2979C0.000382864 13.3339 1.59261 11.7414 3.55664 11.7412H18.71ZM14.3037 15.1025C14.8558 15.1027 15.3037 15.5504 15.3037 16.1025V20.4736C15.3039 22.8448 17.6053 25.0381 20.8496 25.0381H29.1699C29.722 25.0383 30.1699 25.4859 30.1699 26.0381C30.1699 26.5902 29.722 27.0379 29.1699 27.0381H20.8496C16.8098 27.0381 13.3039 24.2349 13.3037 20.4736V16.1025C13.3037 15.5504 13.7516 15.1027 14.3037 15.1025ZM24.0674 0C26.0315 0.000206272 27.6238 1.59251 27.624 3.55664V10.7637C27.6242 11.6234 28.3219 12.3203 29.1816 12.3203H36.0029C37.9669 12.3207 39.5593 13.9129 39.5596 15.877V23.4814C39.5593 25.4455 37.9669 27.0377 36.0029 27.0381H35.4297C34.8775 27.038 34.4297 26.5903 34.4297 26.0381C34.4297 25.4859 34.8775 25.0382 35.4297 25.0381H36.0029C36.8624 25.0377 37.5593 24.3409 37.5596 23.4814V15.877C37.5593 15.0175 36.8624 14.3207 36.0029 14.3203H29.1816C27.2173 14.3203 25.6242 12.728 25.624 10.7637V3.55664C25.6238 2.69708 24.9269 2.00021 24.0674 2H16.8613C16.0016 2 15.304 2.69696 15.3037 3.55664V9.21582C15.3036 9.76787 14.8557 10.2156 14.3037 10.2158C13.7517 10.2156 13.3039 9.76786 13.3037 9.21582V3.55664C13.304 1.59239 14.897 0 16.8613 0H24.0674Z" fill="#E84134"/>
<path d="M140.64 46.5747H141.909V60.1614H140.64V53.3409H133.347V60.1614H132.078V46.5747H133.347V52.0711H140.64V46.5747Z" fill="#328CBE"/>
<path d="M150.725 60.2703C149.637 60.2703 148.663 60.1131 147.805 59.7986C146.958 59.4842 146.238 59.0307 145.646 58.4381C145.053 57.8456 144.6 57.126 144.285 56.2795C143.971 55.4209 143.814 54.4474 143.814 53.359C143.814 52.2827 143.971 51.3153 144.285 50.4566C144.6 49.598 145.053 48.8724 145.646 48.2799C146.238 47.6873 146.958 47.2338 147.805 46.9194C148.663 46.605 149.637 46.4478 150.725 46.4478C151.813 46.4478 152.781 46.605 153.627 46.9194C154.486 47.2338 155.212 47.6873 155.804 48.2799C156.397 48.8724 156.85 49.598 157.165 50.4566C157.479 51.3153 157.636 52.2827 157.636 53.359C157.636 54.4474 157.479 55.4209 157.165 56.2795C156.85 57.126 156.397 57.8456 155.804 58.4381C155.212 59.0307 154.486 59.4842 153.627 59.7986C152.781 60.1131 151.813 60.2703 150.725 60.2703ZM150.725 47.7175C148.887 47.7175 147.484 48.2013 146.517 49.1687C145.561 50.1362 145.084 51.5329 145.084 53.359C145.084 55.1972 145.561 56.6 146.517 57.5674C147.484 58.5349 148.887 59.0186 150.725 59.0186C152.563 59.0186 153.96 58.5349 154.915 57.5674C155.883 56.6 156.366 55.1972 156.366 53.359C156.366 51.5329 155.883 50.1362 154.915 49.1687C153.96 48.2013 152.563 47.7175 150.725 47.7175Z" fill="#328CBE"/>
<path d="M163.88 52.7604C164.461 52.8813 165.035 53.0204 165.604 53.1776C166.184 53.3227 166.698 53.5283 167.145 53.7944C167.593 54.0604 167.956 54.4111 168.234 54.8465C168.512 55.2697 168.651 55.826 168.651 56.5153C168.651 57.7005 168.216 58.6256 167.345 59.2907C166.486 59.9438 165.283 60.2703 163.735 60.2703C162.187 60.2703 160.984 59.9438 160.125 59.2907C159.267 58.6256 158.837 57.7005 158.837 56.5153H160.107C160.107 57.0595 160.228 57.4949 160.47 57.8214C160.724 58.1479 161.032 58.4019 161.395 58.5833C161.77 58.7647 162.169 58.8856 162.592 58.9461C163.016 58.9944 163.397 59.0186 163.735 59.0186C164.074 59.0186 164.455 58.9944 164.878 58.9461C165.301 58.8856 165.694 58.7647 166.057 58.5833C166.432 58.4019 166.746 58.1479 167 57.8214C167.254 57.4949 167.381 57.0595 167.381 56.5153C167.381 56.1404 167.321 55.826 167.2 55.5721C167.079 55.3181 166.873 55.1004 166.583 54.919C166.293 54.7376 165.906 54.5744 165.422 54.4293C164.938 54.2841 164.334 54.139 163.608 53.9939C163.028 53.873 162.447 53.7399 161.867 53.5948C161.298 53.4376 160.79 53.226 160.343 52.9599C159.896 52.6939 159.533 52.3432 159.255 51.9078C158.976 51.4725 158.837 50.9101 158.837 50.2208C158.837 49.0357 159.267 48.1106 160.125 47.4454C160.984 46.7803 162.187 46.4478 163.735 46.4478C165.283 46.4478 166.486 46.7803 167.345 47.4454C168.216 48.1106 168.651 49.0357 168.651 50.2208H167.381C167.381 49.6766 167.254 49.2413 167 48.9148C166.746 48.5882 166.432 48.3343 166.057 48.1529C165.694 47.9715 165.301 47.8566 164.878 47.8082C164.455 47.7478 164.074 47.7175 163.735 47.7175C163.397 47.7175 163.016 47.7478 162.592 47.8082C162.169 47.8566 161.77 47.9715 161.395 48.1529C161.032 48.3343 160.724 48.5882 160.47 48.9148C160.228 49.2413 160.107 49.6766 160.107 50.2208C160.107 50.5957 160.168 50.9101 160.289 51.1641C160.422 51.4181 160.633 51.6418 160.923 51.8353C161.226 52.0167 161.613 52.1799 162.084 52.325C162.568 52.4702 163.167 52.6153 163.88 52.7604Z" fill="#328CBE"/>
<path d="M177.003 46.5747C177.547 46.5868 178.055 46.7017 178.526 46.9194C179.01 47.125 179.433 47.4092 179.796 47.772C180.159 48.1348 180.443 48.5641 180.649 49.0599C180.854 49.5436 180.957 50.0576 180.957 50.6018C180.957 51.1581 180.848 51.6841 180.63 52.1799C180.425 52.6637 180.135 53.093 179.76 53.4678C179.397 53.8306 178.968 54.1209 178.472 54.3386C177.988 54.5441 177.468 54.6469 176.912 54.6469H171.796V60.1614H170.527V47.1915C170.527 47.0222 170.587 46.8771 170.708 46.7561C170.841 46.6352 170.992 46.5747 171.162 46.5747H177.003ZM176.912 53.3953C177.287 53.3953 177.643 53.3227 177.982 53.1776C178.321 53.0325 178.617 52.833 178.871 52.579C179.125 52.325 179.324 52.0288 179.47 51.6902C179.615 51.3515 179.687 50.9887 179.687 50.6018C179.687 50.2269 179.615 49.8701 179.47 49.5315C179.324 49.1929 179.125 48.8966 178.871 48.6427C178.617 48.3887 178.321 48.1892 177.982 48.0441C177.643 47.8989 177.287 47.8264 176.912 47.8264H171.796V53.3953H176.912Z" fill="#328CBE"/>
<path d="M183.202 46.5747H184.472V60.1614H183.202V46.5747Z" fill="#328CBE"/>
<path d="M186.702 46.5747H196.533V47.8264H192.252V60.1614H190.983V47.8264H186.702V46.5747Z" fill="#328CBE"/>
<path d="M208.821 56.4972H200.949L199.189 60.1614H197.756L204.322 46.8105C204.443 46.5687 204.631 46.4478 204.885 46.4478C205.139 46.4478 205.326 46.5687 205.447 46.8105L212.05 60.1614H210.653L208.821 56.4972ZM208.204 55.2274L204.885 48.5157L201.565 55.2274H208.204Z" fill="#328CBE"/>
<path d="M223.216 58.8916L222.835 60.1614H214.908C214.739 60.1614 214.588 60.101 214.455 59.98C214.334 59.847 214.273 59.6958 214.273 59.5265V46.5747H215.543V58.8916H223.216Z" fill="#328CBE"/>
</svg>
